<svg xmlns="http://www.w3.org/2000/svg" width="28" height="24"><defs/><g fill="none"><path fill="#4285F4" d="M25.5 12.28c0-.81-.07-1.63-.21-2.43H14v4.6h6.47a5.54 5.54 0 01-2.4 3.64v3h3.86c2.26-2.1 3.56-5.17 3.56-8.8z"/><path fill="#34A853" d="M14 23.97c3.23 0 5.95-1.06 7.93-2.89l-3.85-2.99A7.16 7.16 0 0114 19.24a7.16 7.16 0 01-6.72-4.94H3.31v3.08a11.96 11.96 0 0010.7 6.59z"/><path fill="#FBBC04" d="M7.29 14.3c-.5-1.49-.5-3.1 0-4.58V6.64H3.3a11.97 11.97 0 000 10.74L7.3 14.3z"/><path fill="#EA4335" d="M14 4.78a6.5 6.5 0 014.6 1.8L22 3.15a11.5 11.5 0 00-8-3.12C9.48.04 5.35 2.6 3.31 6.64L7.3 9.72A7.16 7.16 0 0114 4.78z"/></g></svg>