<svg width="167" height="32" viewBox="0 0 167 32" fill="none" xmlns="http://www.w3.org/2000/svg">
<g clip-path="url(#clip0_25_317)">
<path d="M16.1376 0C24.9056 0 32 7.25333 32 16C32 24.6357 25.0869 31.8133 16.4736 31.9968L16.1387 32H15.6619C14.1141 32 12.8395 30.4971 12.8395 28.9536C12.8395 27.4688 13.6757 26.0203 15.1157 25.9115L15.2917 25.9051H15.7685C21.3877 25.9051 26.0011 21.5008 26.0011 15.8944C26.0011 10.2869 21.4709 5.8816 15.8507 5.8816C10.3285 5.8816 6.25707 10.2837 6.1152 15.7557L6.112 16.0501V16.5248C6.112 18.0693 4.60587 19.3387 3.056 19.3387C1.56587 19.3387 0.112 18.16 0.00746667 16.6944L0 16.5237V16.0501C0 7.41227 7.13813 0.1856 15.7579 0.0032L16.0896 0H16.1376ZM8.496 21.0005C9.69493 21.0005 10.8907 21.7792 10.992 23.0005L11.0005 23.1691V27.5851C11.0005 28.9003 9.8592 30 8.6048 30C8.17387 30 7.64053 29.9424 7.2992 29.6907L7.1808 29.5883L2.42347 24.6261C2.10347 24.2859 2 23.8133 2 23.2853C2 22.0245 2.9248 21.0848 4.1216 21.0059L4.28587 21.0005H8.496V21.0005ZM146.981 12.8C147.729 12.8 148.417 12.8693 149.04 13.0059C150.132 13.2469 151.024 13.696 151.69 14.3467C152.767 15.3707 153.29 16.9173 153.29 18.9333C153.29 19.8667 153.142 20.6827 152.853 21.4123C152.56 22.1391 152.102 22.7885 151.517 23.3099C150.935 23.8357 150.237 24.2165 149.424 24.4779C148.637 24.7413 147.739 24.8565 146.779 24.8565C146.314 24.8565 145.876 24.8277 145.413 24.7403C145.216 24.7083 145.022 24.659 144.833 24.5931L144.832 24.5696V28.3019C144.832 28.5941 144.598 28.8 144.336 28.8H141.294C141.229 28.8004 141.164 28.7878 141.103 28.7629C141.043 28.7379 140.988 28.7012 140.942 28.6548C140.896 28.6084 140.86 28.5533 140.835 28.4927C140.811 28.4321 140.799 28.3672 140.8 28.3019V13.5296C140.8 13.2384 141.034 13.0336 141.294 13.0336H144.336C144.541 13.0336 144.716 13.1488 144.802 13.3248C144.977 13.2395 145.18 13.1488 145.382 13.0624C145.896 12.8833 146.436 12.7945 146.98 12.8H146.981ZM54.944 8.53333C55.2512 8.53333 55.4645 8.7776 55.4645 9.05067V11.2203C55.4645 11.5243 55.2192 11.7365 54.944 11.7365L50.1333 11.7333L50.1376 24.0192C50.1379 24.0872 50.1246 24.1547 50.0985 24.2175C50.0725 24.2804 50.0341 24.3374 49.9858 24.3853C49.9374 24.4332 49.88 24.4709 49.8169 24.4963C49.7537 24.5217 49.6862 24.5343 49.6181 24.5333L46.3829 24.5344C46.3147 24.5354 46.2471 24.5228 46.1838 24.4973C46.1205 24.4718 46.063 24.434 46.0145 24.386C45.9661 24.3381 45.9277 24.2809 45.9015 24.2179C45.8754 24.155 45.8621 24.0874 45.8624 24.0192L45.8667 11.7333L41.0539 11.7365C40.9857 11.7375 40.918 11.7249 40.8547 11.6994C40.7915 11.674 40.7339 11.6361 40.6855 11.5882C40.637 11.5402 40.5986 11.4831 40.5725 11.4201C40.5463 11.3571 40.533 11.2895 40.5333 11.2213V9.05067C40.5333 8.74773 40.7787 8.53333 41.0539 8.53333H54.944V8.53333ZM60.7403 12.8C61.7291 12.8 62.6016 12.9408 63.3877 13.1989C64.1717 13.4549 64.8704 13.8539 65.4229 14.3936C65.974 14.9261 66.4097 15.5662 66.7029 16.2741C66.9941 16.9888 67.1104 17.7845 67.1104 18.6411C67.1104 19.5488 66.9643 20.3755 66.6741 21.088C66.3958 21.8189 65.9349 22.4663 65.3355 22.9685L65.3056 22.9952C64.7208 23.5068 64.0387 23.895 63.3003 24.1365C62.4739 24.4059 61.6094 24.5399 60.7403 24.5333C58.7616 24.5333 57.2224 23.9936 56.0896 22.9376C55.5217 22.4081 55.0837 21.7547 54.8096 21.0283C54.5173 20.3179 54.3979 19.4923 54.3989 18.6389C54.3989 17.7835 54.5461 17.0155 54.8384 16.3029C55.1306 15.5875 55.5771 14.9453 56.1461 14.4224C56.7339 13.8799 57.4265 13.4635 58.1813 13.1989C59.0074 12.9281 59.872 12.7934 60.7413 12.8H60.7403ZM81.6 12.8C81.9253 12.8 82.1344 13.024 82.1344 13.2885V24.0448C82.1344 24.3403 81.8891 24.5333 81.6 24.5333H78.4544C78.128 24.5333 77.9029 24.2976 77.9029 24.032L77.8667 16H73.6L73.6192 24.0448C73.6192 24.3403 73.3589 24.5333 73.0656 24.5333H69.8859C69.5616 24.5333 69.3333 24.3093 69.3333 24.0448V13.2885C69.3333 12.9952 69.5744 12.8 69.8667 12.8H81.6ZM132.208 12.8C133.197 12.8 134.069 12.9408 134.855 13.1989C135.639 13.4549 136.338 13.8539 136.891 14.3936C137.442 14.9261 137.877 15.5662 138.171 16.2741C138.462 16.9888 138.578 17.7845 138.578 18.6411C138.578 19.5488 138.432 20.3755 138.142 21.088C137.864 21.8189 137.403 22.4663 136.803 22.9685L136.773 22.9952C136.189 23.5068 135.506 23.895 134.768 24.1365C133.942 24.4059 133.077 24.5399 132.208 24.5333C130.229 24.5333 128.69 23.9936 127.557 22.9376C126.989 22.4081 126.551 21.7547 126.277 21.0283C125.985 20.3179 125.866 19.4923 125.867 18.6389C125.867 17.7835 126.014 17.0155 126.306 16.3029C126.598 15.5875 127.045 14.9453 127.614 14.4224C128.202 13.8799 128.894 13.4635 129.649 13.1989C130.475 12.9282 131.339 12.7935 132.208 12.8V12.8ZM110.427 12.2667C110.723 12.2667 110.933 12.5045 110.933 12.7723V23.7941C110.934 23.8605 110.921 23.9263 110.895 23.9876C110.87 24.049 110.833 24.1047 110.786 24.1515C110.739 24.1984 110.683 24.2354 110.621 24.2605C110.56 24.2855 110.494 24.2982 110.428 24.2976H107.502C107.435 24.2983 107.369 24.2858 107.308 24.2607C107.246 24.2356 107.19 24.1985 107.143 24.1515C107.096 24.1046 107.058 24.0487 107.033 23.9871C107.008 23.9256 106.995 23.8596 106.995 23.7931V18.4299L100.339 24.4149C100.265 24.4841 100.169 24.5246 100.067 24.5291L99.9808 24.5333H99.1755C99.1088 24.5342 99.0426 24.5217 98.9807 24.4967C98.9189 24.4717 98.8627 24.4347 98.8153 24.3877C98.7679 24.3408 98.7304 24.2848 98.7049 24.2232C98.6794 24.1616 98.6664 24.0955 98.6667 24.0288V13.0069C98.6667 12.7104 98.9067 12.5035 99.1755 12.5035H102.098C102.165 12.5026 102.231 12.515 102.292 12.54C102.354 12.5649 102.41 12.6019 102.458 12.6488C102.505 12.6956 102.542 12.7514 102.568 12.8129C102.593 12.8744 102.606 12.9404 102.606 13.0069V18.3712L109.262 12.3851C109.336 12.3161 109.432 12.2757 109.533 12.2709L109.618 12.2667H110.426H110.427ZM90.4181 12.2667C91.1829 12.2667 91.8901 12.4117 92.5024 12.5643C93.0898 12.698 93.6491 12.9341 94.1547 13.2619L94.1867 13.2907C94.6432 13.6245 95.0112 13.9883 95.2256 14.4117V14.4437C95.4709 14.8971 95.5904 15.3824 95.5904 15.8955C95.5904 16.1995 95.5317 16.4715 95.4379 16.7765C95.3472 17.0464 95.1947 17.2907 94.9781 17.5627C94.7968 17.776 94.6112 17.9563 94.3979 18.1088V18.1376C94.8 18.3509 95.1371 18.6229 95.4112 18.9248C95.9307 19.5008 96.176 20.1664 96.176 20.9547C96.176 21.5307 96.0544 22.016 95.7771 22.4693C95.5161 22.9525 95.1232 23.3517 94.6443 23.6203C94.0971 23.9533 93.4967 24.1896 92.8693 24.3189C92.1952 24.4661 91.4315 24.528 90.544 24.528H84.7861C84.718 24.529 84.6503 24.5164 84.5872 24.4909C84.524 24.4654 84.4665 24.4276 84.4181 24.3796C84.3697 24.3316 84.3314 24.2744 84.3054 24.2115C84.2794 24.1485 84.2662 24.0809 84.2667 24.0128V13.0176C84.2667 12.7157 84.512 12.5024 84.7861 12.5024H84.8171C85.9797 12.4427 87.0507 12.4128 87.9989 12.3819C88.9781 12.352 89.8069 12.2667 90.4181 12.2667V12.2667ZM118.719 12.2667C119.47 12.2667 120.127 12.3552 120.729 12.5024H120.757C121.334 12.6394 121.883 12.8778 122.377 13.2064C122.854 13.5317 123.216 13.9125 123.486 14.3253C123.753 14.7691 123.873 15.2384 123.873 15.7685C123.873 16.7712 123.454 17.5648 122.617 18.0939C123.037 18.4085 123.328 18.6443 123.489 18.8C123.756 19.0645 123.937 19.3301 124.057 19.6245C124.206 19.92 124.267 20.2432 124.267 20.5685C124.274 21.1639 124.129 21.7512 123.846 22.2752C123.578 22.7765 123.156 23.1861 122.588 23.5392C122.078 23.8645 121.451 24.1003 120.732 24.2475C120.041 24.3947 119.263 24.4853 118.391 24.4853C116.386 24.4853 114.679 24.0704 113.296 23.216C113.183 23.1415 113.104 23.0254 113.076 22.8929C113.048 22.7605 113.074 22.6224 113.148 22.5088C113.148 22.4811 113.175 22.4811 113.175 22.4811L114.615 20.5365C114.795 20.3019 115.092 20.2709 115.333 20.4203C115.785 20.7424 116.293 21.0091 116.833 21.1563C117.37 21.3355 117.969 21.3931 118.598 21.3931C119.679 21.3931 120.188 21.1264 120.188 20.5685C120.194 20.4379 120.163 20.3082 120.1 20.1939C120.036 20.0797 119.942 19.9856 119.827 19.9221C119.498 19.7163 118.959 19.6277 118.21 19.6277H117.339C117.1 19.6277 116.963 19.6565 116.691 19.6853C116.554 19.6967 116.418 19.654 116.312 19.5662C116.206 19.4785 116.138 19.3528 116.124 19.216V17.2117C116.124 17.1454 116.137 17.0797 116.163 17.0185C116.189 16.9573 116.226 16.9018 116.274 16.8553C116.321 16.8087 116.377 16.772 116.439 16.7474C116.5 16.7227 116.566 16.7105 116.633 16.7115H118.388C118.96 16.7115 119.377 16.624 119.615 16.4747H119.645C119.722 16.4303 119.785 16.3655 119.828 16.2873C119.87 16.2092 119.89 16.1208 119.886 16.032C119.886 15.9445 119.855 15.856 119.826 15.7675C119.795 15.68 119.708 15.6213 119.616 15.5616C119.489 15.497 119.359 15.4379 119.227 15.3845H119.199C118.98 15.3469 118.759 15.3273 118.538 15.3259C118.024 15.3263 117.512 15.3857 117.012 15.5029C116.48 15.6358 115.966 15.8339 115.482 16.0928C115.242 16.2101 114.914 16.1216 114.794 15.8869L113.745 13.9136C113.628 13.6779 113.717 13.3536 113.955 13.2363C113.986 13.2363 113.986 13.2075 114.015 13.2075C114.794 12.9131 115.572 12.6773 116.351 12.5035C117.164 12.3541 117.941 12.2667 118.719 12.2667V12.2667ZM15.9989 10C16.787 9.9993 17.5675 10.154 18.2958 10.4552C19.024 10.7564 19.6858 11.1982 20.2431 11.7554C20.8005 12.3125 21.2426 12.9741 21.544 13.7023C21.8455 14.4304 22.0004 15.2108 22 15.9989C22.0003 16.787 21.8453 17.5674 21.5439 18.2955C21.2425 19.0237 20.8005 19.6853 20.2433 20.2426C19.6861 20.7999 19.0246 21.2419 18.2965 21.5435C17.5684 21.845 16.7881 22.0001 16 22C15.2118 22.0006 14.4313 21.8457 13.703 21.5443C12.9747 21.2429 12.313 20.8009 11.7557 20.2435C11.1985 19.6861 10.7565 19.0244 10.4553 18.296C10.154 17.5677 9.9993 16.7871 10 15.9989C9.99944 15.2109 10.1543 14.4305 10.4556 13.7023C10.7569 12.9742 11.1989 12.3126 11.7562 11.7554C12.3134 11.1982 12.9751 10.7564 13.7033 10.4552C14.4315 10.154 15.212 9.9993 16 10H15.9989ZM90.8373 19.7333H90.8011L88.5717 19.7653V21.8347H88.5333C88.9003 21.8347 89.2341 21.8667 89.5349 21.8667H90.8331C91.5669 21.8667 92.0981 21.7632 92.4331 21.5552C92.5522 21.4697 92.6481 21.3559 92.7121 21.2241C92.7762 21.0922 92.8064 20.9465 92.8 20.8C92.8078 20.656 92.7733 20.5129 92.7008 20.3883C92.6154 20.2595 92.5011 20.1524 92.3669 20.0757C92.1653 19.9723 91.9691 19.8699 91.7003 19.8368C91.4178 19.7656 91.1275 19.7309 90.8363 19.7333H90.8373ZM146.278 15.7995C145.957 15.7995 145.666 15.8603 145.409 15.9509C145.238 16.0117 145.036 16.1024 144.801 16.2229V21.4699C144.962 21.5595 145.155 21.6213 145.35 21.68C145.638 21.7707 145.926 21.8005 146.281 21.8005C146.961 21.8005 147.509 21.7387 147.962 21.6192C148.381 21.4997 148.736 21.3184 148.995 21.1051C149.253 20.8971 149.447 20.5952 149.574 20.2315C149.724 19.7749 149.801 19.2976 149.802 18.8171C149.802 18.2432 149.737 17.7611 149.605 17.3675C149.477 17.0069 149.314 16.704 149.057 16.4939C148.833 16.2827 148.475 16.1013 148.057 15.9808C147.572 15.8613 146.99 15.7995 146.278 15.7995V15.7995ZM60.7275 15.7333C59.9829 15.7333 59.3867 15.9616 58.9387 16.4501C58.7307 16.6795 58.5515 16.9941 58.4341 17.3355C58.3531 17.584 58.3125 18.0139 58.3125 18.6261C58.3125 19.6555 58.5216 20.4267 58.9387 20.9141C59.3259 21.3717 59.9509 21.6 60.7563 21.6C61.1445 21.6 61.4709 21.5424 61.7696 21.4293C62.0661 21.3141 62.3051 21.1435 62.5163 20.8843L62.5451 20.8565C62.7541 20.6283 62.9035 20.3413 63.0229 19.9691C63.1424 19.5979 63.2011 19.1381 63.2011 18.6251C63.2011 17.6203 62.9941 16.8779 62.5771 16.3904C62.1877 15.9328 61.5637 15.7333 60.7275 15.7333V15.7333ZM132.194 15.7333C131.45 15.7333 130.853 15.9616 130.405 16.4501C130.197 16.6795 130.018 16.9941 129.901 17.3355C129.82 17.584 129.779 18.0139 129.779 18.6261C129.779 19.6555 129.988 20.4267 130.405 20.9141C130.793 21.3717 131.418 21.6 132.223 21.6C132.611 21.6 132.938 21.5424 133.236 21.4293C133.533 21.3141 133.772 21.1435 133.983 20.8843L134.012 20.8565C134.221 20.6283 134.37 20.3413 134.49 19.9691C134.609 19.5979 134.668 19.1381 134.668 18.6251C134.668 17.6203 134.461 16.8779 134.044 16.3904C133.654 15.9328 133.03 15.7333 132.194 15.7333V15.7333ZM90.5355 15.4667C90.0235 15.4667 89.5648 15.4667 89.1936 15.5019C88.9653 15.5019 88.7648 15.536 88.5376 15.536L88.5355 17.0667H90.3893C90.9045 17.0667 91.2747 16.9653 91.504 16.7957C91.6747 16.6603 91.7333 16.4555 91.7333 16.2176C91.7323 16.124 91.7127 16.0316 91.6757 15.9456V15.9115C91.6359 15.8309 91.5774 15.761 91.5051 15.7077C91.3934 15.6269 91.2669 15.5689 91.1328 15.5371C90.9365 15.4938 90.7364 15.4705 90.5355 15.4677V15.4667ZM17.7493 12.5003C16.7733 12.5003 16 13.2757 16 14.2496C16 15.2235 16.7744 16 17.7493 16C17.9795 16.0016 18.2078 15.9574 18.4208 15.87C18.6338 15.7827 18.8273 15.6539 18.9901 15.4912C19.153 15.3284 19.2819 15.135 19.3694 14.922C19.4568 14.7091 19.5011 14.4809 19.4997 14.2507C19.4997 13.2757 18.7232 12.5003 17.7493 12.5003ZM160.533 0C162.089 0 163.581 0.618094 164.682 1.71831C165.782 2.81852 166.4 4.31073 166.4 5.86667C166.4 7.4226 165.782 8.91481 164.682 10.015C163.581 11.1152 162.089 11.7333 160.533 11.7333C158.977 11.7333 157.485 11.1152 156.385 10.015C155.285 8.91481 154.667 7.4226 154.667 5.86667C154.667 4.31073 155.285 2.81852 156.385 1.71831C157.485 0.618094 158.977 0 160.533 0V0ZM160.533 1.06667C159.26 1.06667 158.039 1.57238 157.139 2.47255C156.239 3.37273 155.733 4.59363 155.733 5.86667C155.733 7.13971 156.239 8.3606 157.139 9.26078C158.039 10.161 159.26 10.6667 160.533 10.6667C161.806 10.6667 163.027 10.161 163.927 9.26078C164.828 8.3606 165.333 7.13971 165.333 5.86667C165.333 4.59363 164.828 3.37273 163.927 2.47255C163.027 1.57238 161.806 1.06667 160.533 1.06667V1.06667ZM160.54 2.66667C161.274 2.66667 161.817 2.82133 162.17 3.13067C162.522 3.44 162.699 3.9072 162.699 4.5312C162.699 5.328 162.33 5.89653 161.594 6.23467L163.2 9.06667H162.142L160.781 6.50987H159.863V9.06667H158.933V2.66667H160.54ZM160.478 3.55093H159.862V5.64373H160.509C160.942 5.64373 161.255 5.55307 161.45 5.37173C161.644 5.1904 161.742 4.92267 161.742 4.5664C161.742 4.20373 161.636 3.94453 161.426 3.78773C161.216 3.62987 160.9 3.55093 160.477 3.55093H160.478Z" fill="white"/>
</g>
<defs>
<clipPath id="clip0_25_317">
<rect width="166.4" height="32" fill="white"/>
</clipPath>
</defs>
</svg>
