<svg width="152" height="30" viewBox="0 0 152 30" fill="none" xmlns="http://www.w3.org/2000/svg">
<path d="M50.8867 23V8.00879H62.7505V23H59.582V10.6543H54.0654V23H50.8867ZM76.7061 17.2476C76.7061 18.2046 76.5762 19.0522 76.3164 19.7905C76.0635 20.5288 75.6909 21.1543 75.1987 21.667C74.7134 22.1729 74.1255 22.5557 73.4351 22.8154C72.7515 23.0752 71.979 23.2051 71.1177 23.2051C70.311 23.2051 69.5693 23.0752 68.8926 22.8154C68.2227 22.5557 67.6382 22.1729 67.1392 21.667C66.647 21.1543 66.2642 20.5288 65.9907 19.7905C65.7241 19.0522 65.5908 18.2046 65.5908 17.2476C65.5908 15.9761 65.8164 14.8994 66.2676 14.0176C66.7188 13.1357 67.3613 12.4658 68.1953 12.0078C69.0293 11.5498 70.0239 11.3208 71.1792 11.3208C72.2524 11.3208 73.2026 11.5498 74.0298 12.0078C74.8638 12.4658 75.5166 13.1357 75.9883 14.0176C76.4668 14.8994 76.7061 15.9761 76.7061 17.2476ZM68.7798 17.2476C68.7798 17.9995 68.8618 18.6318 69.0259 19.1445C69.1899 19.6572 69.4463 20.0435 69.7949 20.3032C70.1436 20.563 70.5981 20.6929 71.1587 20.6929C71.7124 20.6929 72.1602 20.563 72.502 20.3032C72.8506 20.0435 73.1035 19.6572 73.2607 19.1445C73.4248 18.6318 73.5068 17.9995 73.5068 17.2476C73.5068 16.4888 73.4248 15.8599 73.2607 15.3608C73.1035 14.855 72.8506 14.4756 72.502 14.2227C72.1533 13.9697 71.6987 13.8433 71.1382 13.8433C70.311 13.8433 69.7095 14.127 69.3335 14.6943C68.9644 15.2617 68.7798 16.1128 68.7798 17.2476ZM83.4634 11.3208C84.2905 11.3208 85.063 11.4302 85.7808 11.6489C86.4985 11.8608 87.0796 12.1924 87.5239 12.6436C87.9683 13.0879 88.1904 13.6621 88.1904 14.3662C88.1904 15.0566 87.9819 15.6069 87.5649 16.0171C87.1479 16.4204 86.5942 16.7109 85.9038 16.8887V16.9912C86.3892 17.1074 86.8267 17.2646 87.2163 17.4629C87.6128 17.6611 87.9272 17.9346 88.1597 18.2832C88.3921 18.6318 88.5083 19.0898 88.5083 19.6572C88.5083 20.293 88.3066 20.8809 87.9033 21.4209C87.5 21.9541 86.8813 22.3848 86.0474 22.7129C85.2202 23.041 84.1572 23.2051 82.8584 23.2051C82.2432 23.2051 81.6621 23.1777 81.1152 23.123C80.5752 23.0684 80.0796 22.9897 79.6284 22.8872C79.1772 22.7778 78.7842 22.6479 78.4492 22.4976V19.9136C78.9209 20.1323 79.502 20.334 80.1924 20.5186C80.8896 20.7031 81.6313 20.7954 82.4175 20.7954C82.9849 20.7954 83.4976 20.7544 83.9556 20.6724C84.4204 20.5903 84.7861 20.4536 85.0527 20.2622C85.3262 20.064 85.4629 19.8008 85.4629 19.4727C85.4629 19.165 85.3433 18.9121 85.104 18.7139C84.8716 18.5088 84.5127 18.3584 84.0273 18.2627C83.5488 18.1602 82.9404 18.1089 82.2021 18.1089H80.9922V15.9453H82.1406C83.1797 15.9453 83.9829 15.8599 84.5503 15.689C85.1177 15.5181 85.4014 15.2036 85.4014 14.7456C85.4014 14.3765 85.2202 14.0996 84.8579 13.915C84.4956 13.7305 83.8975 13.6382 83.0635 13.6382C82.5234 13.6382 81.9287 13.7031 81.2793 13.833C80.6299 13.9561 80.0215 14.1338 79.4541 14.3662L78.5312 12.1821C79.1943 11.9292 79.9121 11.7241 80.6846 11.5669C81.4639 11.4028 82.3901 11.3208 83.4634 11.3208ZM93.9839 11.5361V16.0684C93.9839 16.3008 93.9736 16.5947 93.9531 16.9502C93.9395 17.2988 93.9189 17.6543 93.8916 18.0166C93.8643 18.3789 93.8369 18.7036 93.8096 18.9907C93.7822 19.2778 93.7617 19.4727 93.748 19.5752L99.0391 11.5361H102.802V23H99.7773V18.4268C99.7773 18.0508 99.791 17.6372 99.8184 17.186C99.8457 16.728 99.8765 16.2974 99.9106 15.894C99.9448 15.4907 99.9688 15.1865 99.9824 14.9814L94.7119 23H90.959V11.5361H93.9839ZM123.167 11.5361V23H106.094V11.5361H109.221V20.6519H113.066V11.5361H116.194V20.6519H120.039V11.5361H123.167ZM131.185 11.3208C132.245 11.3208 133.157 11.5259 133.923 11.936C134.688 12.3394 135.28 12.9272 135.697 13.6997C136.114 14.4722 136.322 15.4155 136.322 16.5298V18.0474H128.929C128.963 18.9292 129.227 19.623 129.719 20.1289C130.218 20.6279 130.908 20.8774 131.79 20.8774C132.521 20.8774 133.191 20.8022 133.8 20.6519C134.408 20.5015 135.034 20.2759 135.676 19.9751V22.395C135.109 22.6753 134.514 22.8804 133.892 23.0103C133.277 23.1401 132.528 23.2051 131.646 23.2051C130.498 23.2051 129.479 22.9932 128.591 22.5693C127.709 22.1455 127.015 21.4995 126.509 20.6313C126.01 19.7632 125.761 18.6694 125.761 17.3501C125.761 16.0103 125.986 14.896 126.438 14.0073C126.896 13.1118 127.531 12.4419 128.345 11.9976C129.158 11.5464 130.105 11.3208 131.185 11.3208ZM131.206 13.5459C130.597 13.5459 130.091 13.7407 129.688 14.1304C129.292 14.52 129.062 15.1318 129.001 15.9658H133.39C133.383 15.501 133.297 15.0874 133.133 14.7251C132.976 14.3628 132.737 14.0757 132.416 13.8638C132.101 13.6519 131.698 13.5459 131.206 13.5459ZM141.993 11.5361V15.9453H146.361V11.5361H149.488V23H146.361V18.2729H141.993V23H138.865V11.5361H141.993Z" fill="white"/>
</svg>
