<svg width="169" height="283" viewBox="0 0 169 283" fill="none" xmlns="http://www.w3.org/2000/svg">
<path fill-rule="evenodd" clip-rule="evenodd" d="M153 2H16C8.26801 2 2 8.26801 2 16V267C2 274.732 8.26801 281 16 281H153C160.732 281 167 274.732 167 267V16C167 8.26801 160.732 2 153 2ZM16 0C7.16344 0 0 7.16344 0 16V267C0 275.837 7.16344 283 16 283H153C161.837 283 169 275.837 169 267V16C169 7.16344 161.837 0 153 0H16ZM153 6H16C10.4772 6 6 10.4772 6 16V267C6 272.523 10.4772 277 16 277H153C158.523 277 163 272.523 163 267V16C163 10.4772 158.523 6 153 6ZM16 4C9.37258 4 4 9.37259 4 16V267C4 273.627 9.37259 279 16 279H153C159.627 279 165 273.627 165 267V16C165 9.37258 159.627 4 153 4H16ZM65 16.5C65 18.9853 67.0147 21 69.5 21C71.9853 21 74 18.9853 74 16.5C74 14.0147 71.9853 12 69.5 12C67.0147 12 65 14.0147 65 16.5ZM69.5 10C65.9101 10 63 12.9101 63 16.5C63 20.0899 65.9101 23 69.5 23C73.0899 23 76 20.0899 76 16.5C76 12.9101 73.0899 10 69.5 10ZM99.5 12H85.5C83.0147 12 81 14.0147 81 16.5C81 18.9853 83.0147 21 85.5 21H99.5C101.985 21 104 18.9853 104 16.5C104 14.0147 101.985 12 99.5 12ZM85.5 10C81.9101 10 79 12.9101 79 16.5C79 20.0899 81.9101 23 85.5 23H99.5C103.09 23 106 20.0899 106 16.5C106 12.9101 103.09 10 99.5 10H85.5Z" fill="#FF9F19"/>
</svg>
