<svg width="147" height="46" viewBox="0 0 147 46" fill="none" xmlns="http://www.w3.org/2000/svg">
<path d="M9.43925 45.9976C9.05942 45.9976 8.68878 45.9929 8.31193 45.9847C7.53127 45.9749 6.75243 45.9094 5.98181 45.7886C5.26324 45.6692 4.56714 45.4471 3.91647 45.1297C3.27177 44.8149 2.68374 44.4021 2.17493 43.9072C1.65875 43.4181 1.22901 42.8508 0.902734 42.2278C0.572862 41.6008 0.344572 40.9287 0.225814 40.235C0.0975666 39.4895 0.0281793 38.7358 0.0182507 37.9802C0.0103471 37.7266 0 36.8821 0 36.8821V9.10252C0 9.10252 0.0110202 8.27106 0.018313 8.02679C0.0278196 7.27241 0.0968035 6.51982 0.224667 5.77553C0.343644 5.07988 0.572111 4.40585 0.90216 3.77677C1.22724 3.15422 1.65459 2.58652 2.16766 2.09566C2.68015 1.60014 3.27006 1.18524 3.91586 0.86609C4.56503 0.549679 5.25982 0.329177 5.97693 0.211974C6.75009 0.0899943 7.53163 0.0240463 8.315 0.0146832L9.43986 0H137.554L138.692 0.0152724C139.469 0.0241703 140.243 0.08953 141.009 0.210795C141.733 0.329469 142.435 0.551509 143.092 0.869613C144.386 1.51279 145.439 2.53036 146.103 3.7797C146.427 4.40444 146.652 5.07297 146.77 5.76261C146.899 6.51301 146.972 7.27151 146.987 8.03208C146.99 8.37264 146.99 8.73846 146.99 9.10252C147 9.55348 147 9.98271 147 10.4155V35.5833C147 36.0201 147 36.4465 146.99 36.8762C146.99 37.2673 146.99 37.6256 146.985 37.9943C146.971 38.7412 146.9 39.4862 146.772 40.2232C146.656 40.9219 146.429 41.5993 146.099 42.2314C145.77 42.8477 145.343 43.41 144.833 43.8978C144.324 44.3954 143.735 44.8106 143.088 45.1274C142.434 45.4473 141.733 45.6702 141.009 45.7886C140.239 45.91 139.46 45.9756 138.679 45.9847C138.314 45.9929 137.931 45.9976 137.56 45.9976L136.209 46L9.43925 45.9976Z" fill="black"/>
<path d="M29.1816 23.3602C29.1948 22.3565 29.4655 21.3724 29.9687 20.4994C30.4718 19.6264 31.191 18.8929 32.0594 18.3672C31.5078 17.5913 30.78 16.9528 29.9339 16.5024C29.0879 16.052 28.1468 15.8021 27.1855 15.7725C25.1348 15.5605 23.1468 16.9808 22.1018 16.9808C21.0366 16.9808 19.4277 15.7935 17.6951 15.8286C16.5745 15.8643 15.4823 16.1852 14.5251 16.76C13.5678 17.3349 12.7781 18.1442 12.2329 19.109C9.87108 23.1356 11.6328 29.0535 13.8951 32.3083C15.0271 33.9021 16.3499 35.6824 18.0809 35.6193C19.7748 35.5501 20.4074 34.5557 22.452 34.5557C24.4777 34.5557 25.0712 35.6193 26.8373 35.5791C28.6549 35.5501 29.8001 33.9783 30.8923 32.3694C31.7056 31.2337 32.3314 29.9786 32.7466 28.6505C31.6906 28.2107 30.7894 27.4745 30.1555 26.5337C29.5216 25.593 29.1829 24.4893 29.1816 23.3602Z" fill="white"/>
<path d="M25.8455 13.6317C26.8365 12.4602 27.3248 10.9544 27.2066 9.43408C25.6925 9.59068 24.2939 10.3033 23.2895 11.4298C22.7984 11.9802 22.4223 12.6205 22.1826 13.3141C21.943 14.0077 21.8445 14.741 21.8928 15.4721C22.6501 15.4798 23.3993 15.3181 24.084 14.9994C24.7687 14.6806 25.371 14.213 25.8455 13.6317Z" fill="white"/>
<path d="M50.5934 31.5845H44.813L43.4249 35.6208H40.9766L46.4516 20.6875H48.9954L54.4704 35.6208H51.9803L50.5934 31.5845ZM45.4117 29.7219H49.9936L47.7349 23.1713H47.6717L45.4117 29.7219Z" fill="white"/>
<path d="M66.2946 30.1774C66.2946 33.5608 64.4557 35.7345 61.6806 35.7345C60.9776 35.7707 60.2784 35.6113 59.6632 35.2744C59.048 34.9375 58.5415 34.4368 58.2018 33.8297H58.1493V39.2224H55.8799V24.7331H58.0766V26.5439H58.1184C58.4737 25.9397 58.9887 25.4416 59.6086 25.1027C60.2285 24.7637 60.9301 24.5966 61.6388 24.6191C64.4449 24.6191 66.2946 26.8035 66.2946 30.1774ZM63.9619 30.1774C63.9619 27.9731 62.8051 26.524 61.0401 26.524C59.3062 26.524 58.1398 28.0037 58.1398 30.1774C58.1398 32.3711 59.3062 33.8403 61.0401 33.8403C62.8051 33.8403 63.9619 32.4017 63.9619 30.1774Z" fill="white"/>
<path d="M78.4635 30.1774C78.4635 33.5608 76.6246 35.7345 73.8495 35.7345C73.1465 35.7707 72.4474 35.6113 71.8322 35.2744C71.2169 34.9375 70.7105 34.4368 70.3708 33.8297H70.3183V39.2224H68.0488V24.733H70.2455V26.5439H70.2873C70.6426 25.9397 71.1576 25.4416 71.7775 25.1027C72.3974 24.7637 73.099 24.5966 73.8077 24.6191C76.6139 24.6191 78.4635 26.8034 78.4635 30.1774ZM76.1309 30.1774C76.1309 27.9731 74.9741 26.524 73.2091 26.524C71.4751 26.524 70.3088 28.0037 70.3088 30.1774C70.3088 32.3711 71.4751 33.8403 73.2091 33.8403C74.9741 33.8403 76.1309 32.4017 76.1309 30.1774H76.1309Z" fill="white"/>
<path d="M86.5067 31.46C86.6749 32.9409 88.1358 33.9132 90.1321 33.9132C92.045 33.9132 93.4212 32.9408 93.4212 31.6055C93.4212 30.4464 92.5912 29.7524 90.6259 29.2768L88.6605 28.8105C85.8759 28.1482 84.5831 26.8658 84.5831 24.7848C84.5831 22.2082 86.8633 20.4385 90.1011 20.4385C93.3055 20.4385 95.5023 22.2082 95.5762 24.7848H93.2853C93.1481 23.2945 91.8971 22.395 90.0689 22.395C88.2407 22.395 86.9897 23.3051 86.9897 24.6298C86.9897 25.6856 87.7887 26.3068 89.7433 26.7824L91.4141 27.1864C94.5255 27.9109 95.8183 29.1417 95.8183 31.326C95.8183 34.1198 93.5583 35.8696 89.964 35.8696C86.6009 35.8696 84.3303 34.1609 84.1836 31.4599L86.5067 31.46Z" fill="white"/>
<path d="M100.716 22.1562V24.7328H102.818V26.5026H100.716V32.5048C100.716 33.4372 101.137 33.8717 102.061 33.8717C102.311 33.8674 102.56 33.8502 102.808 33.82V35.5792C102.392 35.6557 101.97 35.6903 101.547 35.6826C99.3087 35.6826 98.4357 34.8546 98.4357 32.7431V26.5026H96.8281V24.7328H98.4357V22.1562H100.716Z" fill="white"/>
<path d="M104.036 30.1778C104.036 26.7522 106.085 24.5996 109.28 24.5996C112.485 24.5996 114.525 26.7522 114.525 30.1778C114.525 33.6129 112.496 35.7561 109.28 35.7561C106.065 35.7561 104.036 33.6129 104.036 30.1778ZM112.212 30.1778C112.212 27.8279 111.119 26.441 109.28 26.441C107.441 26.441 106.349 27.8385 106.349 30.1778C106.349 32.5371 107.441 33.9135 109.28 33.9135C111.119 33.9135 112.212 32.5371 112.212 30.1778H112.212Z" fill="white"/>
<path d="M116.396 24.733H118.56V26.5861H118.613C118.759 26.0074 119.103 25.4959 119.588 25.1377C120.072 24.7794 120.667 24.5963 121.272 24.6191C121.533 24.6182 121.794 24.6462 122.05 24.7025V26.7928C121.719 26.6935 121.375 26.6479 121.03 26.6578C120.7 26.6446 120.371 26.7019 120.066 26.8256C119.761 26.9493 119.487 27.1366 119.262 27.3746C119.038 27.6125 118.868 27.8956 118.765 28.2042C118.662 28.5129 118.628 28.8399 118.665 29.1627V35.6206H116.396L116.396 24.733Z" fill="white"/>
<path d="M132.512 32.4232C132.207 34.3997 130.253 35.7561 127.752 35.7561C124.535 35.7561 122.539 33.634 122.539 30.2295C122.539 26.8145 124.546 24.5996 127.656 24.5996C130.715 24.5996 132.639 26.6688 132.639 29.97V30.7357H124.83V30.8707C124.794 31.2714 124.845 31.6751 124.979 32.0549C125.114 32.4347 125.329 32.782 125.61 33.0737C125.892 33.3653 126.233 33.5947 126.611 33.7466C126.989 33.8985 127.396 33.9694 127.804 33.9546C128.341 34.0041 128.879 33.8818 129.339 33.6059C129.799 33.3299 130.156 32.9152 130.358 32.4232L132.512 32.4232ZM124.841 29.1738H130.368C130.389 28.8135 130.333 28.4529 130.205 28.1148C130.078 27.7766 129.88 27.4681 129.625 27.2086C129.371 26.9492 129.064 26.7443 128.726 26.607C128.387 26.4696 128.023 26.4027 127.656 26.4105C127.287 26.4083 126.92 26.4782 126.578 26.6162C126.236 26.7542 125.926 26.9575 125.664 27.2144C125.402 27.4713 125.195 27.7767 125.053 28.113C124.912 28.4493 124.84 28.8098 124.841 29.1738V29.1738Z" fill="white"/>
<path d="M43.7986 12.4804H44.7729C44.9406 12.501 45.1109 12.4871 45.2729 12.4397C45.4349 12.3923 45.5852 12.3123 45.7142 12.2048C45.8433 12.0974 45.9484 11.9648 46.0228 11.8153C46.0972 11.6659 46.1394 11.5029 46.1467 11.3366C46.1467 10.6749 45.6411 10.2474 44.7836 10.2474C44.6118 10.2237 44.4369 10.2342 44.2692 10.2783C44.1016 10.3223 43.9446 10.3989 43.8075 10.5037C43.6705 10.6085 43.5561 10.7392 43.4712 10.8882C43.3863 11.0372 43.3326 11.2015 43.3132 11.3713H42.2434C42.2619 11.063 42.3445 10.7619 42.4862 10.4865C42.628 10.2111 42.8258 9.96735 43.0673 9.77049C43.3088 9.57363 43.5889 9.42783 43.8901 9.34219C44.1914 9.25654 44.5073 9.23288 44.8182 9.27266C46.2528 9.27266 47.263 10.0636 47.263 11.2021C47.2664 11.5836 47.1368 11.9546 46.8959 12.2533C46.6549 12.552 46.3173 12.7602 45.9392 12.8433V12.9279C46.3874 12.9475 46.8095 13.141 47.1132 13.4661C47.4169 13.7913 47.5775 14.2216 47.5599 14.663C47.5268 14.9803 47.4296 15.288 47.2741 15.5679C47.1187 15.8477 46.908 16.0943 46.6546 16.2929C46.4011 16.4916 46.1099 16.6385 45.7981 16.7249C45.4862 16.8113 45.16 16.8356 44.8385 16.7962C44.5163 16.8395 44.1886 16.8184 43.8749 16.7343C43.5612 16.6502 43.2679 16.5047 43.0125 16.3066C42.7571 16.1084 42.5448 15.8617 42.3883 15.581C42.2318 15.3004 42.1343 14.9916 42.1016 14.673H43.188C43.2536 15.3594 43.894 15.8022 44.8385 15.8022C45.783 15.8022 46.3996 15.3049 46.3996 14.6038C46.3996 13.8927 45.8188 13.4546 44.8039 13.4546H43.7986V12.4804Z" fill="white"/>
<path d="M48.7939 15.0907C48.7939 14.116 49.5321 13.554 50.8392 13.4742L52.3287 13.3896V12.9222C52.3287 12.3503 51.9459 12.0273 51.2029 12.0273C50.5971 12.0273 50.1785 12.2464 50.0569 12.6292H49.0062C49.1171 11.6991 50.0068 11.1025 51.2542 11.1025C52.6328 11.1025 53.4104 11.7784 53.4104 12.9222V16.6221H52.3645V15.8611H52.2786C52.1043 16.134 51.8596 16.3566 51.5694 16.5059C51.2793 16.6553 50.954 16.7262 50.6269 16.7113C50.3961 16.7349 50.1628 16.7107 49.942 16.6401C49.7213 16.5695 49.518 16.4541 49.3453 16.3014C49.1726 16.1488 49.0343 15.9621 48.9394 15.7536C48.8444 15.5451 48.7949 15.3192 48.7939 15.0907ZM52.3287 14.628V14.1753L50.9858 14.2598C50.2285 14.3097 49.8851 14.5634 49.8851 15.0408C49.8851 15.5281 50.3144 15.8117 50.9048 15.8117C51.0778 15.829 51.2525 15.8118 51.4186 15.7612C51.5847 15.7106 51.7387 15.6276 51.8716 15.5171C52.0044 15.4067 52.1134 15.271 52.1919 15.1183C52.2704 14.9655 52.317 14.7988 52.3287 14.628Z" fill="white"/>
<path d="M56.2903 12.1071V16.6225H55.2051V11.2075H58.8258V12.107L56.2903 12.1071Z" fill="white"/>
<path d="M65.4028 13.9127C65.4028 15.6332 64.5191 16.7118 63.1309 16.7118C62.7902 16.7347 62.4499 16.6613 62.1501 16.5002C61.8503 16.339 61.6034 16.0969 61.4387 15.8023H61.3528V18.4229H60.2676V11.2076H61.3123V12.1025H61.3934C61.5611 11.7976 61.8111 11.5442 62.1158 11.3704C62.4206 11.1967 62.7682 11.1092 63.1202 11.1178C64.5191 11.1177 65.4028 12.1917 65.4028 13.9127ZM64.2865 13.9127C64.2865 12.7689 63.7368 12.0778 62.8173 12.0778C61.9038 12.0778 61.3326 12.7836 61.3326 13.9174C61.3326 15.046 61.9038 15.7524 62.8125 15.7524C63.7368 15.7524 64.2865 15.0612 64.2865 13.9127Z" fill="white"/>
<path d="M66.8486 18.562V17.6419C66.9661 17.6566 67.0844 17.6632 67.2028 17.6618C67.434 17.6787 67.6634 17.6109 67.8469 17.4714C68.0305 17.332 68.1553 17.1307 68.1974 16.9061L68.2785 16.6425L66.2881 11.2075H67.4699L68.8486 15.5086H68.9344L70.3083 11.2075H71.4591L69.4091 16.8462C68.9392 18.1639 68.4193 18.5867 67.2982 18.5867C67.2076 18.5867 66.95 18.5767 66.8486 18.562Z" fill="white"/>
<path d="M72.3047 15.086H73.3852C73.4913 15.5634 73.9457 15.8123 74.5813 15.8123C75.304 15.8123 75.7476 15.4988 75.7476 15.0114C75.7476 14.4894 75.3493 14.2405 74.5813 14.2405H73.7584V13.4102H74.567C75.2229 13.4102 75.5568 13.1618 75.5568 12.7091C75.5568 12.3116 75.2336 12.008 74.567 12.008C73.96 12.008 73.5163 12.2617 73.4459 12.6892H72.4001C72.4783 12.198 72.7491 11.7566 73.1543 11.46C73.5596 11.1634 74.0668 11.0353 74.567 11.1032C75.874 11.1032 76.6218 11.6851 76.6218 12.5999C76.6279 12.8547 76.545 13.1037 76.387 13.3055C76.2289 13.5073 76.0053 13.6496 75.7536 13.7085V13.7931C76.0533 13.8311 76.3284 13.9762 76.5267 14.2008C76.725 14.4254 76.8327 14.7139 76.8293 15.0115C76.8293 16.0408 75.9396 16.7219 74.5813 16.7219C73.3804 16.7219 72.4049 16.1799 72.3047 15.086Z" fill="white"/>
<path d="M78.3916 16.6225V11.2075H79.4673V14.932H79.5532L82.0874 11.2075H83.163V16.6225H82.0874V12.8781H82.0063L79.4673 16.6225L78.3916 16.6225Z" fill="white"/>
<path d="M89.0888 12.107H87.3571V16.6225H86.2707V12.107H84.5391V11.2075H89.0888V12.107Z" fill="white"/>
<path d="M94.9349 15.1601C94.787 15.6549 94.4673 16.0829 94.0315 16.3693C93.5958 16.6556 93.0717 16.7821 92.5509 16.7267C92.1886 16.7361 91.8286 16.6678 91.4958 16.5264C91.1631 16.3851 90.8655 16.1741 90.6238 15.9082C90.3821 15.6423 90.2021 15.3277 90.0962 14.9864C89.9904 14.6451 89.9612 14.2852 90.0108 13.9317C89.9625 13.5771 89.9922 13.2164 90.0978 12.874C90.2034 12.5317 90.3825 12.2157 90.6229 11.9475C90.8633 11.6792 91.1595 11.4649 91.4913 11.3192C91.8231 11.1734 92.1828 11.0996 92.5462 11.1026C94.0762 11.1026 95.0005 12.132 95.0005 13.8324V14.2053H91.1175V14.2652C91.1003 14.464 91.1255 14.6641 91.1915 14.8527C91.2575 15.0413 91.3629 15.2142 91.5008 15.3603C91.6387 15.5064 91.8062 15.6224 91.9924 15.701C92.1786 15.7796 92.3794 15.8189 92.5819 15.8165C92.8414 15.8471 93.1041 15.801 93.3369 15.6841C93.5696 15.5672 93.7618 15.3848 93.889 15.16L94.9349 15.1601ZM91.1174 13.415H93.8937C93.9074 13.2333 93.8824 13.0509 93.8203 12.8793C93.7581 12.7077 93.6603 12.5509 93.5329 12.4188C93.4055 12.2867 93.2515 12.1823 93.0808 12.1122C92.91 12.0422 92.7263 12.0081 92.5414 12.0122C92.3536 12.0097 92.1673 12.0442 91.9933 12.1139C91.8194 12.1835 91.6613 12.2867 91.5286 12.4175C91.3959 12.5483 91.2911 12.7039 91.2205 12.8752C91.1499 13.0466 91.1148 13.2301 91.1175 13.415H91.1174Z" fill="white"/>
<path d="M99.5361 11.2075H102.015C103.091 11.2075 103.722 11.7442 103.722 12.5844C103.724 12.8511 103.632 13.1101 103.463 13.3184C103.294 13.5266 103.058 13.6713 102.793 13.7283V13.8128C103.114 13.8328 103.415 13.9735 103.634 14.2058C103.853 14.4381 103.973 14.7443 103.969 15.0612C103.969 16.006 103.247 16.6225 102.041 16.6225H99.5361V11.2075ZM100.612 12.0278V13.43H101.688C102.343 13.43 102.657 13.1816 102.657 12.7236C102.657 12.3014 102.384 12.0278 101.808 12.0278L100.612 12.0278ZM100.612 14.2157V15.8022H101.899C102.54 15.8022 102.884 15.5233 102.884 15.0113C102.884 14.4693 102.495 14.2157 101.763 14.2157L100.612 14.2157Z" fill="white"/>
</svg>
