<svg width="147" height="46" viewBox="0 0 147 46" fill="none" xmlns="http://www.w3.org/2000/svg">
<path d="M141.556 46H5.44444C2.45 46 0 43.4125 0 40.25V5.75C0 2.5875 2.45 0 5.44444 0H141.556C144.55 0 147 2.5875 147 5.75V40.25C147 43.4125 144.55 46 141.556 46Z" fill="black"/>
<path d="M117.144 34.4999H119.301V20.1235H117.144V34.4999ZM136.566 25.3022L134.094 31.5351H134.02L131.455 25.3022H129.132L132.979 34.0138L130.786 38.8595H133.036L138.964 25.3022H136.566ZM124.338 32.867C123.631 32.867 122.646 32.5157 122.646 31.646C122.646 30.5364 123.873 30.111 124.932 30.111C125.88 30.111 126.325 30.3144 126.902 30.5922C126.734 31.9236 125.582 32.867 124.338 32.867ZM124.598 24.9876C123.037 24.9876 121.42 25.6722 120.751 27.1889L122.664 27.984C123.074 27.1889 123.835 26.9296 124.635 26.9296C125.75 26.9296 126.883 27.5958 126.902 28.7795V28.9273C126.511 28.7054 125.676 28.3726 124.653 28.3726C122.591 28.3726 120.49 29.5005 120.49 31.6091C120.49 33.5327 122.181 34.7721 124.077 34.7721C125.527 34.7721 126.325 34.1247 126.828 33.3665H126.902V34.4761H128.983V28.9641C128.983 26.4122 127.069 24.9876 124.598 24.9876ZM111.272 27.0522H108.205V22.1244H111.272C112.884 22.1244 113.799 23.4526 113.799 24.5883C113.799 25.7024 112.884 27.0522 111.272 27.0522ZM111.216 20.1235H106.05V34.4999H108.205V29.0531H111.216C113.606 29.0531 115.955 27.3312 115.955 24.5883C115.955 21.8454 113.606 20.1235 111.216 20.1235ZM83.0428 32.8696C81.5532 32.8696 80.306 31.6284 80.306 29.9237C80.306 28.201 81.5532 26.9409 83.0428 26.9409C84.5135 26.9409 85.6677 28.201 85.6677 29.9237C85.6677 31.6284 84.5135 32.8696 83.0428 32.8696ZM85.5187 26.1072H85.4442C84.9603 25.533 84.0291 25.0142 82.8564 25.0142C80.399 25.0142 78.1466 27.1632 78.1466 29.9237C78.1466 32.6657 80.399 34.7963 82.8564 34.7963C84.0291 34.7963 84.9603 34.2775 85.4442 33.685H85.5187V34.3889C85.5187 36.2604 84.5135 37.2608 82.8939 37.2608C81.5721 37.2608 80.753 36.3156 80.4175 35.5191L78.5375 36.2972C79.0774 37.5941 80.511 39.1875 82.8939 39.1875C85.4257 39.1875 87.5666 37.705 87.5666 34.0924V25.3107H85.5187V26.1072ZM89.0557 34.4999H91.2152V20.123H89.0557V34.4999ZM94.3988 29.757C94.3429 27.8671 95.8695 26.904 96.9677 26.904C97.8247 26.904 98.5504 27.3298 98.7919 27.9418L94.3988 29.757ZM101.101 28.1268C100.692 27.0334 99.4436 25.0142 96.8932 25.0142C94.3614 25.0142 92.2579 26.9966 92.2579 29.9053C92.2579 32.6473 94.3429 34.7963 97.1351 34.7963C99.3881 34.7963 100.692 33.4253 101.231 32.6288L99.5557 31.517C98.9976 32.3323 98.2337 32.8696 97.1351 32.8696C96.0369 32.8696 95.2552 32.3693 94.7523 31.3876L101.324 28.6825L101.101 28.1268ZM48.7445 26.515V28.5899H53.7336C53.5847 29.757 53.1938 30.6092 52.598 31.2021C51.8722 31.9249 50.7365 32.7214 48.7445 32.7214C45.6727 32.7214 43.2714 30.2574 43.2714 27.2005C43.2714 24.1435 45.6727 21.6792 48.7445 21.6792C50.4015 21.6792 51.6112 22.3278 52.5049 23.1616L53.9756 21.6981C52.7284 20.5121 51.0714 19.6043 48.7445 19.6043C44.537 19.6043 41 23.0133 41 27.2005C41 31.3876 44.537 34.7963 48.7445 34.7963C51.0159 34.7963 52.7284 34.0556 54.0686 32.6657C55.4463 31.2947 55.8747 29.368 55.8747 27.8119C55.8747 27.3298 55.8376 26.8856 55.7627 26.515H48.7445ZM61.5468 32.8696C60.0572 32.8696 58.7726 31.6468 58.7726 29.9053C58.7726 28.1452 60.0572 26.9409 61.5468 26.9409C63.0359 26.9409 64.3205 28.1452 64.3205 29.9053C64.3205 31.6468 63.0359 32.8696 61.5468 32.8696ZM61.5468 25.0142C58.8285 25.0142 56.6131 27.0706 56.6131 29.9053C56.6131 32.7214 58.8285 34.7963 61.5468 34.7963C64.2646 34.7963 66.48 32.7214 66.48 29.9053C66.48 27.0706 64.2646 25.0142 61.5468 25.0142ZM72.3087 32.8696C70.8197 32.8696 69.5349 31.6468 69.5349 29.9053C69.5349 28.1452 70.8197 26.9409 72.3087 26.9409C73.7979 26.9409 75.0825 28.1452 75.0825 29.9053C75.0825 31.6468 73.7979 32.8696 72.3087 32.8696ZM72.3087 25.0142C69.5905 25.0142 67.3756 27.0706 67.3756 29.9053C67.3756 32.7214 69.5905 34.7963 72.3087 34.7963C75.0266 34.7963 77.242 32.7214 77.242 29.9053C77.242 27.0706 75.0266 25.0142 72.3087 25.0142Z" fill="white"/>
<path d="M11.5461 35.5474L11.4705 35.4754C11.1747 35.1639 11 34.6801 11 34.0537V34.2011V11.8237C11 11.8217 11 11.8202 11 11.8186C11 11.8205 11 11.8221 11 11.8242V11.972C11 11.2937 11.2036 10.7827 11.5449 10.4763L24.1417 23.0122L11.5461 35.5474ZM11 11.8174C11 11.7616 11.0015 11.7075 11.0044 11.6542C11.0015 11.7071 11 11.7616 11 11.8174ZM11.0044 11.6517C11.0044 11.651 11.0044 11.6502 11.0047 11.6494C11.0044 11.6502 11.0044 11.651 11.0044 11.6517ZM11.0047 11.6447C11.0047 11.6443 11.0047 11.6439 11.0047 11.6434C11.0047 11.6439 11.0047 11.6443 11.0047 11.6447Z" fill="url(#paint0_linear_37_4934)"/>
<path d="M28.3399 27.3403L28.4357 27.2862L33.4103 24.4732C33.8846 24.2049 34.2007 23.8796 34.3584 23.5354C34.2011 23.8796 33.8849 24.2053 33.4103 24.4736L28.4357 27.2866L28.3399 27.3403ZM28.3411 27.1921L24.1416 23.0121L28.3407 18.8328L33.4103 21.699C34.0541 22.0631 34.4155 22.5323 34.4759 23.0117C34.4759 23.0121 34.4759 23.0129 34.4759 23.0136C34.4155 23.4919 34.0541 23.9615 33.4103 24.3254L28.3411 27.1921Z" fill="url(#paint1_linear_37_4934)"/>
<path d="M12.4437 36.0249C12.0918 36.0249 11.7847 35.9111 11.5453 35.6961L11.5457 35.6957C11.7851 35.9107 12.0926 36.0249 12.4445 36.0249C12.475 36.0249 12.506 36.0241 12.5374 36.0226C12.5056 36.0241 12.4742 36.0249 12.4437 36.0249ZM12.4441 35.8767C12.0922 35.8771 11.7851 35.7628 11.5457 35.5478V35.5475L24.1413 23.0124L28.3408 27.1924L13.5831 35.5372C13.1748 35.7676 12.7879 35.8767 12.4441 35.8767ZM11.5421 35.6933C11.5199 35.6732 11.498 35.6518 11.4766 35.6297L11.5421 35.6933Z" fill="url(#paint2_linear_37_4934)"/>
<path d="M24.1417 23.0123L11.5449 10.4763C11.7844 10.2617 12.091 10.1479 12.4425 10.1479C12.7872 10.1479 13.1744 10.2574 13.5835 10.4882L28.3408 18.833L24.1417 23.0123ZM28.4358 18.7385L13.5835 10.3404C13.1744 10.1096 12.7872 10.0001 12.4425 10.0001C12.4408 10.0001 12.4397 10.0001 12.4381 10.0001C12.4401 10.0001 12.4417 10.0001 12.4441 10.0001C12.788 10.0001 13.1748 10.1091 13.5835 10.34L28.4358 18.7385Z" fill="url(#paint3_linear_37_4934)"/>
<path d="M12.5521 36.0112C12.8742 35.9924 13.2308 35.8789 13.6058 35.6613L28.4766 27.0112L13.6058 35.6613C13.2312 35.8793 12.8742 35.9924 12.5521 36.0112ZM11.5523 35.6728L11.5491 35.6699C11.5502 35.6708 11.5515 35.6719 11.5523 35.6728ZM11.483 35.6039L11.4766 35.5974V35.597C11.479 35.5994 11.481 35.6018 11.483 35.6039Z" fill="black"/>
<path d="M28.3398 27.3403L28.4356 27.2862L28.3398 27.3403Z" fill="url(#paint4_linear_37_4934)"/>
<path d="M12.445 36.0248C12.0931 36.0248 11.7857 35.9106 11.5462 35.6956L11.5458 35.696C11.545 35.6952 11.5438 35.6941 11.5427 35.6933L11.4771 35.6296C11.4751 35.6276 11.4731 35.6253 11.4707 35.6229L11.5462 35.5478C11.7857 35.7628 12.0927 35.877 12.4446 35.8766C12.7885 35.8766 13.1753 35.7675 13.5836 35.5371L28.3413 27.1924L28.4359 27.2865L28.3401 27.3406L13.5836 35.685C13.2115 35.8948 12.8576 36.0043 12.5379 36.0225C12.5065 36.024 12.4755 36.0248 12.445 36.0248Z" fill="url(#paint5_linear_37_4934)"/>
<path d="M11.4705 35.623C11.1747 35.3115 11 34.8282 11 34.2013V34.0539C11 34.6803 11.1747 35.1641 11.4705 35.4756L11.5461 35.5476L11.4705 35.623Z" fill="url(#paint6_linear_37_4934)"/>
<path d="M11.4707 35.623L11.5462 35.5476V35.5479L11.4707 35.623Z" fill="url(#paint7_linear_37_4934)"/>
<path d="M28.4363 27.2861L28.3418 27.192L33.411 24.3253C34.0548 23.9614 34.4162 23.4918 34.4766 23.0135C34.4766 23.1891 34.4373 23.3645 34.3591 23.5353C34.2014 23.8795 33.8853 24.2048 33.411 24.4732L28.4363 27.2861Z" fill="url(#paint8_linear_37_4934)"/>
<path d="M34.4766 23.0112V23.0109C34.4762 22.5155 34.1231 22.0202 33.4181 21.6443L28.477 19.0115H28.4766L28.477 19.0112L33.4181 21.6439C34.1239 22.0198 34.4774 22.5158 34.4766 23.0112Z" fill="#404040"/>
<path d="M34.476 23.0117C34.4156 22.5323 34.0542 22.0631 33.4104 21.6991L28.3408 18.8328L28.4354 18.7387H28.4358L33.4104 21.5517C34.1202 21.9533 34.4756 22.4824 34.476 23.0117Z" fill="url(#paint9_linear_37_4934)"/>
<path d="M11.4766 12.0112C11.4766 12.0108 11.4766 12.0103 11.4766 12.0099C11.4766 12.0103 11.4766 12.0108 11.4766 12.0112ZM11.4796 11.8304C11.4796 11.8295 11.4796 11.8286 11.4796 11.8277C11.4796 11.8286 11.4796 11.8295 11.4796 11.8304ZM11.4798 11.8252C11.4798 11.8234 11.4798 11.8217 11.4798 11.8199C11.4798 11.8217 11.4798 11.8234 11.4798 11.8252ZM11.4798 11.8186C11.5208 10.6754 11.9167 10.0151 12.4766 10.0112C12.2338 10.0135 12.0224 10.1386 11.8568 10.3729V10.3724L11.8549 10.3756C11.8374 10.4003 11.8209 10.4264 11.8045 10.4533C11.6185 10.7624 11.5011 11.2253 11.4798 11.8186Z" fill="#404040"/>
<path d="M11 11.9722V11.8243C11 11.8223 11 11.8207 11 11.8188C11 11.8184 11 11.818 11 11.8176C11 11.7618 11.0015 11.7073 11.0044 11.6544C11.0044 11.6535 11.0044 11.6527 11.0044 11.6519C11.0044 11.6512 11.0044 11.6504 11.0047 11.6496C11.0047 11.648 11.0047 11.6465 11.0047 11.6448C11.0047 11.6444 11.0047 11.644 11.0047 11.6436C11.0353 11.1041 11.2036 10.6832 11.4705 10.4022L11.5449 10.4765C11.2036 10.7829 11 11.2938 11 11.9722ZM11.5428 10.3315L11.5457 10.3287C11.5449 10.3299 11.5436 10.3307 11.5428 10.3315Z" fill="url(#paint10_linear_37_4934)"/>
<path d="M28.3409 18.833L13.5836 10.4882C13.1745 10.2574 12.7873 10.148 12.4426 10.148C12.0911 10.148 11.7845 10.2618 11.545 10.4764L11.4707 10.4021C11.4942 10.3776 11.518 10.3539 11.543 10.3314C11.5438 10.3306 11.545 10.3298 11.5458 10.329C11.7833 10.116 12.0867 10.0022 12.435 10.0001C12.4359 10.0001 12.437 10.0001 12.4382 10.0001C12.4398 10.0001 12.4409 10.0001 12.4426 10.0001C12.7873 10.0001 13.1745 10.1096 13.5836 10.3405L28.4359 18.7386L28.4355 18.7389L28.3409 18.833Z" fill="url(#paint11_linear_37_4934)"/>
<path d="M43.8364 11.4615C43.8499 12.5531 43.6301 13.4335 43.1786 14.102H46.6837V8.89732H43.8364V11.4615ZM42.2385 16.4141H41.3867V14.102H42.0647C42.665 13.5871 42.9584 12.7076 42.9463 11.4615V8.04965H47.5752V14.102H48.3494V16.4141H47.4972V14.9497H42.2385V16.4141Z" fill="white"/>
<path d="M43.8367 11.4617L43.7212 11.4631L43.7221 11.556C43.7216 12.5888 43.5049 13.4136 43.0828 14.0379L42.9619 14.2172H46.7995V8.78255H43.7212V11.4626V11.4631L43.8367 11.4617H43.9523V9.01255H46.5684V13.9872H43.179V14.1022L43.2748 14.166C43.7292 13.4931 43.9532 12.6198 43.9532 11.556L43.9523 11.4603L43.8367 11.4617H43.9523H43.8367ZM42.2388 16.4143V16.2993H41.5026V14.2172H42.065H42.1079L42.1403 14.1894C42.765 13.653 43.0626 12.7595 43.0626 11.5371L43.0621 11.4608V11.4617V8.16489H47.4599V14.2172H48.2342V16.2993H47.6131V14.9499V14.8349H42.1232V16.4143H42.2388V16.2993V16.4143H42.3544V15.0649H47.3819V16.4143V16.5293H48.3497H48.4653V13.9872H47.6911V7.93489H42.831V11.4622V11.4626L42.8315 11.5371C42.831 12.7272 42.5412 13.5434 41.9895 14.0146L42.065 14.1022V13.9872H41.387H41.2715V16.5293H42.2388H42.3544V16.4143H42.2388Z" fill="white"/>
<path d="M50.8715 13.4805C51.3852 13.9976 52.0126 14.2559 52.7552 14.2559C53.4976 14.2559 54.126 13.9976 54.6383 13.4805C55.152 12.9635 55.4093 12.3026 55.4093 11.4999C55.4093 10.6972 55.152 10.0363 54.6383 9.51926C54.126 9.00222 53.4976 8.74393 52.7552 8.74393C52.0126 8.74393 51.3852 9.00222 50.8715 9.51926C50.3591 10.0363 50.1019 10.6972 50.1019 11.4999C50.1019 12.3026 50.3591 12.9635 50.8715 13.4805ZM55.2974 14.0582C54.6158 14.7558 53.7685 15.104 52.7552 15.104C51.7418 15.104 50.8941 14.7558 50.2138 14.0582C49.5322 13.3614 49.1924 12.5085 49.1924 11.4999C49.1924 10.4914 49.5322 9.63828 50.2138 8.94161C50.8941 8.24391 51.7418 7.89534 52.7552 7.89534C53.7626 7.89534 54.6081 8.24575 55.2928 8.9461C55.9766 9.64645 56.3188 10.4977 56.3188 11.4999C56.3188 12.5085 55.978 13.3614 55.2974 14.0582Z" fill="white"/>
<path d="M50.8718 13.4803L50.7897 13.5611C51.3218 14.0989 51.9858 14.372 52.7555 14.3706C53.5247 14.372 54.19 14.0989 54.7208 13.5611C55.2566 13.0229 55.5261 12.3266 55.5251 11.4996C55.5261 10.6727 55.2566 9.97636 54.7208 9.43816C54.19 8.90042 53.5247 8.6273 52.7555 8.62868C51.9858 8.6273 51.3218 8.90042 50.7897 9.43816C50.2552 9.97636 49.9858 10.6727 49.9867 11.4996C49.9858 12.3266 50.2552 13.0229 50.7897 13.5611L50.8718 13.4803L50.9545 13.3994C50.4642 12.903 50.2191 12.2785 50.2178 11.4996C50.2191 10.7208 50.4642 10.0963 50.9545 9.59985H50.954C51.4487 9.10351 52.0395 8.86005 52.7555 8.85868C53.4709 8.86005 54.0631 9.10351 54.5564 9.59985L54.5583 9.60169L54.5564 9.59985C55.048 10.0963 55.2928 10.7208 55.294 11.4996C55.2928 12.2785 55.048 12.903 54.5564 13.3994C54.0631 13.8958 53.4709 14.1392 52.7555 14.1406C52.0395 14.1392 51.4487 13.8958 50.954 13.3994L50.8718 13.4803ZM55.2977 14.0579L55.2151 13.978C54.5529 14.6536 53.7422 14.9874 52.7555 14.9887C51.7683 14.9874 50.958 14.6536 50.2967 13.978C49.6359 13.3001 49.3095 12.4826 49.3083 11.4996C49.3095 10.5167 49.6359 9.69921 50.2967 9.02129C50.958 8.34566 51.7683 8.01147 52.7555 8.01009C53.7364 8.01147 54.5448 8.34704 55.2106 9.02623C55.8741 9.70726 56.2023 10.5235 56.2036 11.4996C56.2023 12.4826 55.875 13.3001 55.2151 13.978L55.2977 14.0579L55.3807 14.1379C56.0813 13.4219 56.4356 12.5337 56.4347 11.4996C56.4356 10.4714 56.0804 9.58513 55.3762 8.86592C54.672 8.14395 53.7901 7.77883 52.7555 7.78009C51.7155 7.77883 50.8307 8.14222 50.1311 8.86143V8.86097C49.4291 9.57742 49.0762 10.4656 49.0772 11.4996C49.0762 12.5337 49.4291 13.4219 50.1311 14.1383V14.1379C50.8307 14.8571 51.7155 15.2197 52.7555 15.2187C53.7951 15.2197 54.6797 14.8571 55.3807 14.1379L55.2977 14.0579Z" fill="white"/>
<path d="M60.8033 15.104C59.7832 15.104 58.9278 14.7604 58.2371 14.0726C57.5452 13.3853 57.2012 12.5277 57.2012 11.4999C57.2012 10.472 57.5452 9.61448 58.2371 8.92724C58.9278 8.23942 59.7832 7.89534 60.8033 7.89534C61.8482 7.89534 62.6978 8.27139 63.35 9.02292L62.7294 9.6208C62.259 9.03591 61.6157 8.74393 60.8033 8.74393C60.0472 8.74393 59.4093 8.99774 58.8902 9.50534C58.3702 10.013 58.1107 10.6779 58.1107 11.4999C58.1107 12.3219 58.3702 12.9873 58.8902 13.4945C59.4093 14.0021 60.0472 14.2559 60.8033 14.2559C61.6361 14.2559 62.3457 13.922 62.9338 13.2541L63.5532 13.8704C63.2363 14.2496 62.8399 14.5501 62.3614 14.7711C61.8843 14.993 61.364 15.104 60.8033 15.104Z" fill="white"/>
<path d="M60.8036 15.1037V14.9887C59.8092 14.9874 58.99 14.6572 58.3192 13.991C57.6488 13.3239 57.318 12.5019 57.3171 11.4996C57.318 10.4974 57.6488 9.67541 58.3192 9.00829C58.99 8.34164 59.8092 8.01147 60.8036 8.01009C61.8211 8.01193 62.63 8.37039 63.2627 9.09765L63.3503 9.02267L63.27 8.93998L62.6494 9.53833L62.7297 9.62055L62.8199 9.54868C62.3297 8.93688 61.6432 8.62695 60.8036 8.62868C60.0213 8.62776 59.3483 8.89513 58.8098 9.42287C58.2659 9.95256 57.9941 10.6542 57.9955 11.4996C57.9941 12.3451 58.2659 13.0477 58.8098 13.5764C59.3483 14.1042 60.0213 14.3715 60.8036 14.3706C61.668 14.372 62.4169 14.0188 63.0208 13.3298L62.9341 13.2539L62.8524 13.3352L63.4718 13.9514L63.5535 13.8701L63.4645 13.797C63.1585 14.1626 62.7775 14.4519 62.313 14.6666C61.8512 14.8813 61.3494 14.9883 60.8036 14.9887V15.1037V15.2187C61.3795 15.2187 61.9177 15.1047 62.4105 14.8751C62.9035 14.6478 63.3143 14.3365 63.6423 13.9439L63.7096 13.8635L63.0159 13.1726L62.9283 13.0854L62.8471 13.178C62.2755 13.8253 61.6049 14.1392 60.8036 14.1406C60.0733 14.1392 59.4716 13.8994 58.9718 13.412H58.9715C58.4749 12.9268 58.2275 12.2983 58.2266 11.4996C58.2275 10.701 58.4749 10.0734 58.9715 9.58732H58.9718C59.4716 9.09995 60.0733 8.86006 60.8036 8.85868C61.5886 8.86052 62.1884 9.13456 62.6394 9.69243L62.7188 9.79132L63.4306 9.10535L63.5092 9.0298L63.4379 8.94768C62.7667 8.17143 61.8761 7.77883 60.8036 7.78009C59.7572 7.77917 58.8657 8.13728 58.1558 8.84568C57.4421 9.5527 57.0846 10.4467 57.0859 11.4996C57.0846 12.5526 57.4421 13.4466 58.1558 14.1541C58.8657 14.862 59.7572 15.2197 60.8036 15.2187V15.1037Z" fill="white"/>
<path d="M67.157 14.9502H66.2656V8.89786H64.3291V8.05019H69.0935V8.89786H67.157V14.9502Z" fill="white"/>
<path d="M67.1563 14.95V14.835H66.3805V8.78267H64.444V8.165H68.9772V8.78267H67.0408V14.95H67.1563V14.835V14.95H67.2719V9.01267H69.2084V8.05V7.935H64.2129V8.89767V9.01267H66.1494V15.065H67.1563H67.2719V14.95H67.1563Z" fill="white"/>
<path d="M75.2101 8.0499L72.5867 13.8704C72.2242 14.693 71.6866 15.104 70.9698 15.104C70.7567 15.104 70.5273 15.0528 70.2814 14.9499L70.5138 14.1305C70.6628 14.2145 70.8176 14.2559 70.9788 14.2559C71.1855 14.2559 71.3457 14.2159 71.4586 14.1359C71.5715 14.0555 71.6762 13.9086 71.7733 13.697L72.025 13.1472L69.6914 8.0499H70.7373L72.4512 12.0106H72.4896L74.1637 8.0499H75.2101Z" fill="white"/>
<path d="M75.2101 8.05012L75.1045 8.00297L72.481 13.8239L72.4806 13.8248C72.124 14.6221 71.6369 14.9852 70.9698 14.9892C70.7752 14.9892 70.5612 14.9425 70.326 14.8441L70.2814 14.9501L70.3928 14.9815L70.6249 14.1621L70.5138 14.1307L70.4574 14.2309C70.6217 14.3235 70.7973 14.3716 70.9788 14.3711C71.1995 14.3711 71.3845 14.3293 71.5259 14.2295C71.6649 14.1294 71.7764 13.9663 71.8784 13.7453L72.1303 13.1954L72.1519 13.1474L69.8711 8.16512H70.6615L72.375 12.1258H72.4896H72.5663L74.2405 8.16512H75.2101V8.05012L75.1045 8.00297L75.2101 8.05012V7.93512H74.1638H74.087L72.3826 11.9664L72.4896 12.0108V11.8958H72.4512V12.0108L72.5573 11.9655L70.8136 7.93512H69.6914H69.5117L71.8978 13.1474L71.6681 13.6496C71.5765 13.8513 71.478 13.9816 71.3914 14.0422C71.307 14.1029 71.1711 14.1416 70.9788 14.1411C70.8375 14.1411 70.7044 14.1056 70.5707 14.0306L70.4425 13.9587L70.1704 14.9187L70.1423 15.0166L70.2367 15.0561C70.4935 15.1634 70.7378 15.2192 70.9698 15.2192C71.7357 15.2228 72.3243 14.7637 72.6923 13.917L72.6918 13.9178L75.3884 7.93512H75.2101V8.05012Z" fill="white"/>
<path d="M76.2188 14.9502V8.05019H81.235V14.9502H80.3436V8.89786H77.1089V14.9502H76.2188Z" fill="white"/>
<path d="M76.2191 14.95H76.3346V8.165H81.1194V14.835H80.4595V8.78267H76.9936V14.835H76.2191V14.95H76.3346H76.2191V15.065H77.1092H77.2248V9.01267H80.2284V15.065H81.2353H81.3509V7.935H76.1035V15.065H76.2191V14.95Z" fill="white"/>
<path d="M82.8223 14.9502V8.05019H83.7129V11.0083H87.1795V8.05019H88.071V14.9502H87.1795V11.8371H83.7129V14.9502H82.8223Z" fill="white"/>
<path d="M82.8226 14.95H82.9381V8.165H83.5976V11.1231H87.2954V8.165H87.9558V14.835H87.2954V11.722H83.5976V14.835H82.8226V14.95H82.9381H82.8226V15.065H83.7132H83.8287V11.952H87.0643V15.065H88.0713H88.1869V7.935H87.1798H87.0643V10.8931H83.8287V7.935H82.8226H82.707V15.065H82.8226V14.95Z" fill="white"/>
<path d="M90.9037 13.4805C91.4175 13.9976 92.0449 14.2559 92.7874 14.2559C93.53 14.2559 94.1584 13.9976 94.6706 13.4805C95.1843 12.9635 95.4416 12.3026 95.4416 11.4999C95.4416 10.6972 95.1843 10.0363 94.6706 9.51926C94.1584 9.00222 93.53 8.74393 92.7874 8.74393C92.0449 8.74393 91.4175 9.00222 90.9037 9.51926C90.392 10.0363 90.1341 10.6972 90.1341 11.4999C90.1341 12.3026 90.392 12.9635 90.9037 13.4805ZM95.3296 14.0582C94.6485 14.7558 93.8008 15.104 92.7874 15.104C91.7741 15.104 90.9269 14.7558 90.2461 14.0582C89.5646 13.3614 89.2246 12.5085 89.2246 11.4999C89.2246 10.4914 89.5646 9.63828 90.2461 8.94161C90.9269 8.24391 91.7741 7.89534 92.7874 7.89534C93.7954 7.89534 94.6403 8.24575 95.3251 8.9461C96.009 9.64645 96.3511 10.4977 96.3511 11.4999C96.3511 12.5085 96.0104 13.3614 95.3296 14.0582Z" fill="white"/>
<path d="M90.9031 13.4803L90.821 13.5611C91.3536 14.0989 92.0172 14.372 92.7868 14.3706C93.5564 14.372 94.2213 14.0989 94.7526 13.5611C95.288 13.0229 95.5574 12.3266 95.5565 11.4996C95.5574 10.6727 95.288 9.97636 94.7526 9.43816C94.2213 8.90042 93.5564 8.6273 92.7868 8.62868C92.0172 8.6273 91.3536 8.90042 90.821 9.43816C90.2866 9.97636 90.017 10.6727 90.0179 11.4996C90.017 12.3266 90.2866 13.0229 90.821 13.5611L90.9031 13.4803L90.9857 13.3994C90.4955 12.903 90.2504 12.2785 90.249 11.4996C90.2504 10.7208 90.4955 10.0963 90.9857 9.59985C91.4801 9.10351 92.0714 8.86005 92.7868 8.85868C93.5023 8.86005 94.0945 9.10351 94.5878 9.59985L94.5914 9.60353L94.5878 9.59985C95.0794 10.0963 95.3245 10.7208 95.3254 11.4996C95.3245 12.2785 95.0794 12.903 94.5878 13.3994C94.0945 13.8958 93.5023 14.1392 92.7868 14.1406C92.0714 14.1392 91.4801 13.8958 90.9857 13.3994L90.9031 13.4803ZM95.329 14.0579L95.2464 13.978C94.5842 14.6536 93.7735 14.9874 92.7868 14.9887C91.8 14.9874 90.9894 14.6536 90.3286 13.978L90.325 13.9744L90.3286 13.978C89.6672 13.3001 89.3409 12.4826 89.3395 11.4996C89.3409 10.5167 89.6672 9.69921 90.3286 9.02129C90.9894 8.34566 91.8 8.01147 92.7868 8.01009C93.7677 8.01147 94.5761 8.34704 95.2419 9.02623C95.9055 9.70726 96.234 10.5235 96.2349 11.4996C96.234 12.4826 95.9063 13.3001 95.2464 13.978L95.329 14.0579L95.4121 14.1379C96.113 13.4219 96.467 12.5337 96.4661 11.4996C96.467 10.4714 96.1118 9.58513 95.4076 8.86592C94.7034 8.14395 93.8213 7.77883 92.7868 7.78009C91.7468 7.77883 90.8625 8.14222 90.1624 8.86143V8.86097C89.4605 9.57742 89.1075 10.4656 89.1084 11.4996C89.1075 12.5337 89.4605 13.4219 90.1624 14.1383V14.1379C90.8625 14.8571 91.7468 15.2197 92.7868 15.2187C93.8268 15.2197 94.7111 14.8571 95.4121 14.1379L95.329 14.0579Z" fill="white"/>
<path d="M100.884 14.1025H102.676C103.018 14.1025 103.296 13.9835 103.509 13.745C103.722 13.5082 103.828 13.2476 103.828 12.9646C103.828 12.6821 103.719 12.4238 103.499 12.1893C103.281 11.9548 102.992 11.8371 102.637 11.8371H100.884V14.1025ZM100.884 11.0083H102.502C102.838 11.0083 103.107 10.8983 103.311 10.6759C103.514 10.4544 103.616 10.2123 103.616 9.94861C103.616 9.68538 103.517 9.44365 103.32 9.2263C103.123 9.00745 102.863 8.89786 102.541 8.89786H100.884V11.0083ZM99.9941 14.9502V8.05019H102.502C103.044 8.05019 103.514 8.22902 103.91 8.58472C104.308 8.94191 104.507 9.38971 104.507 9.92929C104.507 10.2567 104.421 10.546 104.249 10.7967C104.079 11.0473 103.851 11.237 103.567 11.3654V11.4036C103.908 11.5191 104.19 11.7185 104.41 12.001C104.628 12.284 104.739 12.612 104.739 12.9844C104.739 13.5495 104.531 14.0185 104.114 14.3909C103.698 14.7638 103.205 14.9502 102.637 14.9502H99.9941Z" fill="white"/>
<path d="M100.883 14.1023V14.2173H102.676C103.044 14.2187 103.362 14.0839 103.594 13.8215C103.823 13.5686 103.944 13.2766 103.943 12.9644C103.944 12.6518 103.818 12.3611 103.583 12.1105C103.343 11.8521 103.016 11.7206 102.636 11.7219H100.768V14.2173H100.883V14.1023H100.999V11.9519H102.636C102.967 11.9532 103.215 12.0575 103.414 12.2673C103.617 12.4865 103.711 12.7124 103.712 12.9644C103.711 13.2182 103.62 13.4474 103.422 13.6683C103.229 13.8822 102.991 13.9855 102.676 13.9873H100.883V14.1023H100.999H100.883ZM100.883 11.0081V11.1231H102.501C102.862 11.1244 103.171 11.0004 103.395 10.753V10.7534C103.614 10.5162 103.731 10.2421 103.731 9.94842C103.731 9.65643 103.618 9.38331 103.405 9.14882V9.14928C103.189 8.90571 102.888 8.78128 102.54 8.78266H100.768V11.1231H100.883V11.0081H100.999V9.01266H102.54C102.837 9.0145 103.057 9.1088 103.233 9.30246L103.234 9.30327L103.233 9.30292C103.414 9.50417 103.498 9.71439 103.499 9.94842C103.498 10.1815 103.412 10.3927 103.224 10.5979V10.5984C103.042 10.7956 102.812 10.8918 102.501 10.8931H100.883V11.0081H100.999H100.883ZM99.9935 14.95H100.109V8.165H102.501C103.018 8.16592 103.454 8.33209 103.832 8.66996C104.208 9.00864 104.389 9.41792 104.39 9.9291C104.39 10.2368 104.311 10.5005 104.153 10.7318C103.994 10.9655 103.785 11.1397 103.518 11.2606L103.451 11.2912V11.4034V11.4856L103.528 11.5121C103.851 11.6218 104.111 11.8059 104.318 12.0714L104.319 12.0727L104.318 12.071C104.521 12.3351 104.623 12.6342 104.623 12.9842C104.621 13.5215 104.43 13.9513 104.036 14.3054C103.638 14.6599 103.179 14.8341 102.636 14.835H99.9935V14.95H100.109H99.9935V15.065H102.636C103.23 15.0659 103.755 14.8673 104.19 14.4761C104.63 14.0857 104.855 13.5776 104.854 12.9842C104.855 12.5894 104.735 12.2327 104.5 11.9308L104.499 11.9294L104.5 11.9303C104.268 11.6312 103.965 11.4164 103.603 11.2947L103.566 11.4034H103.682V11.3652H103.566L103.614 11.4699C103.915 11.3338 104.163 11.1294 104.344 10.8607V10.8612C104.529 10.5913 104.621 10.2763 104.621 9.9291C104.623 9.36169 104.408 8.87478 103.987 8.49919L103.985 8.497L103.987 8.49919C103.571 8.12498 103.068 7.93408 102.501 7.935H99.8779V15.065H99.9935V14.95Z" fill="white"/>
<defs>
<linearGradient id="paint0_linear_37_4934" x1="23.0247" y1="11.5877" x2="6.04404" y2="28.6504" gradientUnits="userSpaceOnUse">
<stop stop-color="#00A0FF"/>
<stop offset="0.00657445" stop-color="#00A1FF"/>
<stop offset="0.2601" stop-color="#00BEFF"/>
<stop offset="0.5122" stop-color="#00D2FF"/>
<stop offset="0.7604" stop-color="#00DFFF"/>
<stop offset="1" stop-color="#00E3FF"/>
</linearGradient>
<linearGradient id="paint1_linear_37_4934" x1="35.2603" y1="23.0127" x2="10.6591" y2="23.0127" gradientUnits="userSpaceOnUse">
<stop stop-color="#FFE000"/>
<stop offset="0.4087" stop-color="#FFBD00"/>
<stop offset="0.7754" stop-color="#FFA500"/>
<stop offset="1" stop-color="#FF9C00"/>
</linearGradient>
<linearGradient id="paint2_linear_37_4934" x1="26.1021" y1="25.3348" x2="3.07508" y2="48.4731" gradientUnits="userSpaceOnUse">
<stop stop-color="#FF3A44"/>
<stop offset="1" stop-color="#C31162"/>
</linearGradient>
<linearGradient id="paint3_linear_37_4934" x1="8.27997" y1="2.95336" x2="18.5625" y2="13.2855" gradientUnits="userSpaceOnUse">
<stop stop-color="#32A071"/>
<stop offset="0.0685" stop-color="#2DA771"/>
<stop offset="0.4762" stop-color="#15CF74"/>
<stop offset="0.8009" stop-color="#06E775"/>
<stop offset="1" stop-color="#00F076"/>
</linearGradient>
<linearGradient id="paint4_linear_37_4934" x1="35.2603" y1="23.0127" x2="10.6588" y2="23.0127" gradientUnits="userSpaceOnUse">
<stop stop-color="#CCB300"/>
<stop offset="0.4087" stop-color="#CC9700"/>
<stop offset="0.7754" stop-color="#CC8400"/>
<stop offset="1" stop-color="#CC7D00"/>
</linearGradient>
<linearGradient id="paint5_linear_37_4934" x1="26.1026" y1="25.3348" x2="3.07563" y2="48.473" gradientUnits="userSpaceOnUse">
<stop stop-color="#CC2E36"/>
<stop offset="1" stop-color="#9C0E4E"/>
</linearGradient>
<linearGradient id="paint6_linear_37_4934" x1="23.0247" y1="11.5879" x2="6.04406" y2="28.6506" gradientUnits="userSpaceOnUse">
<stop stop-color="#008DE0"/>
<stop offset="0.00657445" stop-color="#008DE0"/>
<stop offset="0.2601" stop-color="#00A7E0"/>
<stop offset="0.5122" stop-color="#00B8E0"/>
<stop offset="0.7604" stop-color="#00C4E0"/>
<stop offset="1" stop-color="#00C7E0"/>
</linearGradient>
<linearGradient id="paint7_linear_37_4934" x1="26.1029" y1="25.335" x2="3.07623" y2="48.4737" gradientUnits="userSpaceOnUse">
<stop stop-color="#E0333C"/>
<stop offset="1" stop-color="#AB0F56"/>
</linearGradient>
<linearGradient id="paint8_linear_37_4934" x1="35.261" y1="23.0126" x2="10.6597" y2="23.0126" gradientUnits="userSpaceOnUse">
<stop stop-color="#E0C500"/>
<stop offset="0.4087" stop-color="#E0A600"/>
<stop offset="0.7754" stop-color="#E09100"/>
<stop offset="1" stop-color="#E08900"/>
</linearGradient>
<linearGradient id="paint9_linear_37_4934" x1="35.2604" y1="23.0127" x2="10.6592" y2="23.0127" gradientUnits="userSpaceOnUse">
<stop stop-color="#FFE840"/>
<stop offset="0.4087" stop-color="#FFCE40"/>
<stop offset="0.7754" stop-color="#FFBC40"/>
<stop offset="1" stop-color="#FFB540"/>
</linearGradient>
<linearGradient id="paint10_linear_37_4934" x1="23.0246" y1="11.5879" x2="6.04402" y2="28.6505" gradientUnits="userSpaceOnUse">
<stop stop-color="#40B8FF"/>
<stop offset="0.00657445" stop-color="#40B9FF"/>
<stop offset="0.2601" stop-color="#40CEFF"/>
<stop offset="0.5122" stop-color="#40DDFF"/>
<stop offset="0.7604" stop-color="#40E7FF"/>
<stop offset="1" stop-color="#40EAFF"/>
</linearGradient>
<linearGradient id="paint11_linear_37_4934" x1="8.28007" y1="2.95342" x2="18.5626" y2="13.2856" gradientUnits="userSpaceOnUse">
<stop stop-color="#65B895"/>
<stop offset="0.0685" stop-color="#62BD95"/>
<stop offset="0.4762" stop-color="#50DB97"/>
<stop offset="0.8009" stop-color="#44ED98"/>
<stop offset="1" stop-color="#40F498"/>
</linearGradient>
</defs>
</svg>
