<svg width="169" height="283" viewBox="0 0 169 283" fill="none" xmlns="http://www.w3.org/2000/svg">
<path fill-rule="evenodd" clip-rule="evenodd" d="M143.4 2H25.6C21.0866 2 17.8218 2.00156 15.2541 2.21134C12.7097 2.41923 11.0265 2.82156 9.64413 3.52591C7.00986 4.86814 4.86814 7.00986 3.52591 9.64413C2.82156 11.0265 2.41923 12.7097 2.21134 15.2541C2.00156 17.8218 2 21.0866 2 25.6V257.4C2 261.913 2.00156 265.178 2.21134 267.746C2.41923 270.29 2.82156 271.974 3.52591 273.356C4.86814 275.99 7.00986 278.132 9.64413 279.474C11.0265 280.178 12.7097 280.581 15.2541 280.789C17.8218 280.998 21.0866 281 25.6 281H143.4C147.913 281 151.178 280.998 153.746 280.789C156.29 280.581 157.974 280.178 159.356 279.474C161.99 278.132 164.132 275.99 165.474 273.356C166.178 271.974 166.581 270.29 166.789 267.746C166.998 265.178 167 261.913 167 257.4V25.6C167 21.0866 166.998 17.8218 166.789 15.2541C166.581 12.7097 166.178 11.0265 165.474 9.64413C164.132 7.00986 161.99 4.86814 159.356 3.52591C157.974 2.82156 156.29 2.41923 153.746 2.21134C151.178 2.00156 147.913 2 143.4 2ZM1.7439 8.73615C0 12.1587 0 16.6392 0 25.6V257.4C0 266.361 0 270.841 1.7439 274.264C3.27787 277.274 5.72556 279.722 8.73615 281.256C12.1587 283 16.6392 283 25.6 283H143.4C152.361 283 156.841 283 160.264 281.256C163.274 279.722 165.722 277.274 167.256 274.264C169 270.841 169 266.361 169 257.4V25.6C169 16.6392 169 12.1587 167.256 8.73615C165.722 5.72556 163.274 3.27787 160.264 1.7439C156.841 0 152.361 0 143.4 0H25.6C16.6392 0 12.1587 0 8.73615 1.7439C5.72556 3.27787 3.27787 5.72556 1.7439 8.73615ZM5.30792 10.5521C4 13.1191 4 16.4794 4 23.2V259.8C4 266.521 4 269.881 5.30792 272.448C6.4584 274.706 8.29417 276.542 10.5521 277.692C13.1191 279 16.4794 279 23.2 279H145.8C152.521 279 155.881 279 158.448 277.692C160.706 276.542 162.542 274.706 163.692 272.448C165 269.881 165 266.521 165 259.8V23.2C165 16.4794 165 13.1191 163.692 10.5521C162.542 8.29417 160.706 6.4584 158.448 5.30792C155.881 4 152.521 4 145.8 4H126H124L123.998 6C123.993 7.81941 123.971 9.24358 123.89 10.4297C123.783 12.0014 123.578 13.0085 123.239 13.8268C122.224 16.2771 120.277 18.2239 117.827 19.2388C117.009 19.5778 116.001 19.7832 114.43 19.8905C112.84 19.9989 110.823 20 108 20H61C58.177 20 56.1599 19.9989 54.5703 19.8905C52.9986 19.7832 51.9915 19.5778 51.1732 19.2388C48.7229 18.2239 46.7761 16.2771 45.7612 13.8268C45.4222 13.0085 45.2168 12.0014 45.1095 10.4297C45.0286 9.24358 45.0075 7.81941 45.0019 6V4H43H23.2C16.4794 4 13.1191 4 10.5521 5.30792C8.29417 6.4584 6.4584 8.29417 5.30792 10.5521ZM43 4C43 4.71027 43 5.37543 43.0019 6C43.0147 10.292 43.116 12.6671 43.9134 14.5922C45.1314 17.5325 47.4675 19.8686 50.4078 21.0866C52.6131 22 55.4087 22 61 22H108C113.591 22 116.387 22 118.592 21.0866C121.533 19.8686 123.869 17.5325 125.087 14.5922C125.884 12.6671 125.985 10.292 125.998 6C126 5.37543 126 4.71027 126 4V6H145.8C149.193 6 151.618 6.00156 153.519 6.15685C155.396 6.31023 156.585 6.60357 157.54 7.08993C159.422 8.04867 160.951 9.57847 161.91 11.4601C162.396 12.4146 162.69 13.6039 162.843 15.4813C162.998 17.382 163 19.8067 163 23.2V259.8C163 263.193 162.998 265.618 162.843 267.519C162.69 269.396 162.396 270.585 161.91 271.54C160.951 273.422 159.422 274.951 157.54 275.91C156.585 276.396 155.396 276.69 153.519 276.843C151.618 276.998 149.193 277 145.8 277H23.2C19.8067 277 17.382 276.998 15.4813 276.843C13.6039 276.69 12.4146 276.396 11.4601 275.91C9.57847 274.951 8.04867 273.422 7.08993 271.54C6.60357 270.585 6.31023 269.396 6.15685 267.519C6.00156 265.618 6 263.193 6 259.8V23.2C6 19.8067 6.00156 17.382 6.15685 15.4813C6.31023 13.6039 6.60358 12.4146 7.08993 11.4601C8.04867 9.57847 9.57847 8.04867 11.4601 7.08993C12.4146 6.60358 13.6039 6.31023 15.4813 6.15685C17.382 6.00156 19.8067 6 23.2 6H43V4Z" fill="#FF9F19"/>
</svg>
