<svg width="32" height="32" viewBox="0 0 32 32" fill="none" xmlns="http://www.w3.org/2000/svg">
<path fill-rule="evenodd" clip-rule="evenodd" d="M15.9655 21.8853C14.4409 21.8828 12.9794 21.276 11.9014 20.1977C10.8235 19.1195 10.217 17.6579 10.2148 16.1333C10.2166 14.6082 10.8231 13.146 11.9014 12.0675C12.9797 10.9889 14.4417 10.3821 15.9668 10.3799C17.4922 10.3817 18.9545 10.9884 20.0331 12.067C21.1117 13.1456 21.7184 14.6079 21.7202 16.1333C21.7181 17.6584 21.1112 19.1204 20.0326 20.1987C18.9541 21.277 17.492 21.8835 15.9668 21.8853H15.9655Z" fill="#4A8AF4"/>
<path fill-rule="evenodd" clip-rule="evenodd" d="M18.3899 22.908C17.19 23.3435 15.8974 23.4586 14.6394 23.2421C13.3815 23.0256 12.2017 22.4849 11.2165 21.6733C10.1544 20.7973 9.36048 19.6398 8.92585 18.3333L8.92319 18.3253L2.58319 7.34668C0.309565 10.8256 -0.50726 15.0582 0.308521 19.1333C0.709122 21.192 1.51403 23.1508 2.67667 24.8964C3.83931 26.642 5.33658 28.1396 7.08185 29.3027C8.91431 30.5345 10.9838 31.3701 13.1579 31.756L18.3899 22.9093V22.908Z" fill="#1CA261"/>
<path fill-rule="evenodd" clip-rule="evenodd" d="M30.3489 8.94268C29.1496 6.52996 27.3641 4.45666 25.1561 2.9126C22.9481 1.36854 20.388 0.403067 17.7102 0.104579C15.0324 -0.193909 12.3225 0.184125 9.82869 1.20407C7.33485 2.22401 5.13671 3.85327 3.43555 5.94268L8.79021 15.2173C9.01059 13.5001 9.84314 11.9201 11.1349 10.7674C12.4268 9.6147 14.0911 8.9668 15.8222 8.94268H30.3489Z" fill="#DE5246"/>
<path fill-rule="evenodd" clip-rule="evenodd" d="M15.9031 32C19.9164 32 23.7578 30.4947 26.7164 27.7627C29.6864 25.0274 31.5053 21.2652 31.8044 17.2387C31.9766 14.9075 31.6381 12.5669 30.8124 10.38H20.3378C21.2104 11.0703 21.9147 11.95 22.3975 12.9524C22.8802 13.9549 23.1288 15.054 23.1244 16.1667C23.1138 17.8026 22.5594 19.3885 21.5484 20.6747L14.8711 31.968C15.2151 31.9893 15.5618 32 15.9031 32Z" fill="#FFCC40"/>
</svg>
