<svg width="33" height="32" viewBox="0 0 33 32" fill="none" xmlns="http://www.w3.org/2000/svg">
<path d="M29.9216 10.397C29.2688 8.82673 27.9466 7.13148 26.9084 6.59567C27.7534 8.25223 28.2425 9.91398 28.4293 11.1542C28.4293 11.1566 28.4303 11.1627 28.4323 11.1792C26.7338 6.94586 23.8539 5.23886 21.5022 1.52211C21.3835 1.33417 21.2644 1.14573 21.1484 0.947106C21.0893 0.845667 21.0342 0.742008 20.983 0.636356C20.8853 0.447721 20.8099 0.248332 20.7585 0.042231C20.7588 0.0324738 20.7555 0.0229345 20.7492 0.0154871C20.7429 0.00803959 20.734 0.00322215 20.7243 0.00198101C20.7151 -0.000660336 20.7054 -0.000660336 20.6961 0.00198101C20.694 0.00273101 20.6909 0.00516851 20.6886 0.00604351C20.6853 0.00735601 20.6811 0.010356 20.6776 0.0122935C20.6793 0.0100435 20.6828 0.00498101 20.6839 0.00379351C16.9108 2.21354 15.6308 6.30136 15.5131 8.34654C14.0064 8.45012 12.5659 9.00525 11.3793 9.93954C11.255 9.83461 11.1252 9.73654 10.9902 9.64579C10.6478 8.44804 10.6333 7.18034 10.9481 5.97504C9.40508 6.67761 8.20495 7.78817 7.33245 8.76879H7.32552C6.73008 8.01461 6.77208 5.52673 6.80602 5.00729C6.79889 4.97511 6.36183 5.23417 6.30458 5.27323C5.77915 5.64828 5.28794 6.06908 4.8367 6.53073C4.32322 7.05146 3.85405 7.61409 3.43408 8.21279C3.43408 8.21354 3.43364 8.21442 3.43339 8.21517C3.43339 8.21436 3.43383 8.21354 3.43408 8.21279C2.46823 9.58151 1.78322 11.1281 1.41864 12.7631C1.41145 12.7957 1.40539 12.8294 1.39839 12.8622C1.37014 12.9945 1.26839 13.656 1.25058 13.7997C1.2492 13.8108 1.24858 13.8214 1.24727 13.8325C1.11572 14.5164 1.03425 15.209 1.00352 15.9048C1.00352 15.9304 1.00195 15.9558 1.00195 15.9815C1.0022 24.276 7.7272 30.9999 16.0225 30.9999C23.4515 30.9999 29.62 25.6069 30.8276 18.523C30.853 18.3308 30.8734 18.1375 30.8958 17.9436C31.1944 15.368 30.8627 12.6608 29.9216 10.397ZM12.6095 22.1529C12.6797 22.1864 12.7457 22.2231 12.8178 22.2553C12.8208 22.2574 12.825 22.2597 12.828 22.2615C12.7546 22.2264 12.6817 22.1902 12.6095 22.1529ZM28.4335 11.1829L28.4315 11.1683C28.4322 11.1736 28.4331 11.1792 28.434 11.1845L28.4335 11.1829Z" fill="url(#paint0_linear_37_4880)"/>
<path d="M29.9215 10.397C29.2687 8.82677 27.9465 7.13152 26.9083 6.5957C27.7533 8.25227 28.2423 9.91402 28.4292 11.1542C28.4292 11.1506 28.4299 11.1572 28.4315 11.1683C28.4322 11.1736 28.4332 11.1792 28.434 11.1845C29.8512 15.0264 29.0791 18.9331 27.9665 21.3205C26.2453 25.0142 22.0781 28.7998 15.5555 28.6152C8.50833 28.4156 2.29995 23.1867 1.14102 16.3381C0.929828 15.2581 1.14102 14.7097 1.24727 13.8328C1.11783 14.5088 1.06852 14.7041 1.00352 15.9051C1.00352 15.9308 1.00195 15.9561 1.00195 15.9818C1.00208 24.2761 7.72708 31 16.0223 31C23.4514 31 29.6198 25.607 30.8275 18.5231C30.8529 18.3308 30.8733 18.1376 30.8957 17.9436C31.1943 15.368 30.8626 12.6608 29.9215 10.397Z" fill="url(#paint1_radial_37_4880)"/>
<path d="M29.9215 10.397C29.2687 8.82677 27.9465 7.13152 26.9083 6.5957C27.7533 8.25227 28.2423 9.91402 28.4292 11.1542C28.4292 11.1506 28.4299 11.1572 28.4315 11.1683C28.4322 11.1736 28.4332 11.1792 28.434 11.1845C29.8512 15.0264 29.0791 18.9331 27.9665 21.3205C26.2453 25.0142 22.0781 28.7998 15.5555 28.6152C8.50833 28.4156 2.29995 23.1867 1.14102 16.3381C0.929828 15.2581 1.14102 14.7097 1.24727 13.8328C1.11783 14.5088 1.06852 14.7041 1.00352 15.9051C1.00352 15.9308 1.00195 15.9561 1.00195 15.9818C1.00208 24.2761 7.72708 31 16.0223 31C23.4514 31 29.6198 25.607 30.8275 18.5231C30.8529 18.3308 30.8733 18.1376 30.8957 17.9436C31.1943 15.368 30.8626 12.6608 29.9215 10.397Z" fill="url(#paint2_radial_37_4880)"/>
<path d="M22.6216 12.1628C22.6544 12.1858 22.6841 12.2087 22.7149 12.2315C22.338 11.5625 21.8686 10.95 21.3206 10.412C16.6515 5.74353 20.0963 0.289406 20.6772 0.0124063C20.6789 0.0101563 20.6824 0.00509375 20.6834 0.00390625C16.9103 2.21366 15.6303 6.30147 15.5127 8.34666C15.6877 8.33453 15.8622 8.31985 16.0403 8.31985C18.856 8.31985 21.3084 9.86797 22.6216 12.1628Z" fill="url(#paint3_radial_37_4880)"/>
<path d="M16.05 13.0945C16.0255 13.4681 14.7054 14.7565 14.2438 14.7565C9.97261 14.7565 9.2793 17.34 9.2793 17.34C9.46848 19.5156 10.9831 21.3071 12.8175 22.2551C12.9012 22.2984 12.9859 22.3375 13.0706 22.3761C13.2159 22.4404 13.363 22.5006 13.5118 22.5565C14.1408 22.7791 14.7996 22.9062 15.4662 22.9334C22.9525 23.2845 24.4029 13.9838 19.0003 11.2829C20.3839 11.0423 21.82 11.5987 22.622 12.1621C21.3087 9.86746 18.8564 8.31934 16.0407 8.31934C15.8626 8.31934 15.6882 8.33402 15.5131 8.34615C14.0064 8.44973 12.5658 9.00485 11.3792 9.93915C11.6082 10.1329 11.8667 10.3919 12.4114 10.9284C13.4302 11.9326 16.0445 12.9725 16.05 13.0945Z" fill="url(#paint4_radial_37_4880)"/>
<path d="M16.05 13.0945C16.0255 13.4681 14.7054 14.7565 14.2438 14.7565C9.97261 14.7565 9.2793 17.34 9.2793 17.34C9.46848 19.5156 10.9831 21.3071 12.8175 22.2551C12.9012 22.2984 12.9859 22.3375 13.0706 22.3761C13.2159 22.4404 13.363 22.5006 13.5118 22.5565C14.1408 22.7791 14.7996 22.9062 15.4662 22.9334C22.9525 23.2845 24.4029 13.9838 19.0003 11.2829C20.3839 11.0423 21.82 11.5987 22.622 12.1621C21.3087 9.86746 18.8564 8.31934 16.0407 8.31934C15.8626 8.31934 15.6882 8.33402 15.5131 8.34615C14.0064 8.44973 12.5658 9.00485 11.3792 9.93915C11.6082 10.1329 11.8667 10.3919 12.4114 10.9284C13.4302 11.9326 16.0445 12.9725 16.05 13.0945Z" fill="url(#paint5_radial_37_4880)"/>
<path d="M10.6785 9.44009C10.7831 9.50756 10.8869 9.57632 10.9898 9.64634C10.6474 8.44858 10.6329 7.18088 10.9477 5.97559C9.40466 6.67815 8.20453 7.78871 7.33203 8.76934C7.40422 8.76727 9.58291 8.72809 10.6785 9.44009Z" fill="url(#paint6_radial_37_4880)"/>
<path d="M1.14124 16.3378C2.30018 23.1864 8.50855 28.4153 15.5557 28.6149C22.0783 28.7995 26.2456 25.0137 27.9667 21.3202C29.0792 18.9327 29.8514 15.0264 28.4342 11.1842L28.4337 11.1826L28.4317 11.168C28.4301 11.1569 28.4292 11.1503 28.4294 11.1539C28.4294 11.1564 28.4304 11.1624 28.4324 11.1789C28.9651 14.6577 27.1955 18.0279 24.4292 20.3067L24.4209 20.3262C19.0306 24.7152 13.8725 22.9742 12.8281 22.2616C12.7547 22.2263 12.6818 22.19 12.6094 22.1527C9.46674 20.6509 8.16849 17.7878 8.44687 15.3324C5.7933 15.3324 4.88849 13.0944 4.88849 13.0944C4.88849 13.0944 7.27093 11.3957 10.4109 12.873C13.319 14.2414 16.0501 13.0945 16.0504 13.0944C16.0449 12.9724 13.4306 11.9325 12.4115 10.9284C11.8669 10.3919 11.6084 10.1332 11.3794 9.9391C11.2551 9.83417 11.1252 9.7361 10.9903 9.64535C10.8873 9.57551 10.7835 9.50676 10.679 9.4391C9.58349 8.7271 7.40474 8.76629 7.33255 8.76817H7.32561C6.73018 8.01398 6.77218 5.5261 6.80611 5.00667C6.79899 4.97448 6.36193 5.23354 6.30468 5.2726C5.77925 5.64765 5.28804 6.06846 4.8368 6.5301C4.3233 7.05095 3.85413 7.61371 3.43418 8.21254C3.43418 8.21329 3.43374 8.21417 3.43349 8.21492C3.43349 8.2141 3.43393 8.21329 3.43418 8.21254C2.46832 9.58126 1.78331 11.1278 1.41874 12.7629C1.41155 12.7954 0.878114 15.128 1.14124 16.3378Z" fill="url(#paint7_radial_37_4880)"/>
<path d="M21.3209 10.4116C21.8689 10.9496 22.3383 11.5621 22.7152 12.2311C22.7979 12.2932 22.8752 12.3552 22.9407 12.4156C26.3459 15.5531 24.5617 19.9906 24.4287 20.3069C27.195 18.0281 28.9646 14.6579 28.4319 11.1791C26.7334 6.94586 23.8535 5.23886 21.5018 1.52211C21.3831 1.33417 21.264 1.14573 21.148 0.947106C21.0889 0.845667 21.0338 0.742008 20.9826 0.636356C20.8849 0.447721 20.8095 0.248332 20.7581 0.042231C20.7584 0.0324738 20.7551 0.0229345 20.7488 0.0154871C20.7425 0.00803959 20.7336 0.00322215 20.7239 0.00198101C20.7147 -0.000660336 20.705 -0.000660336 20.6957 0.00198101C20.6936 0.00273101 20.6905 0.00516851 20.6882 0.00604351C20.6849 0.00735601 20.6807 0.010356 20.6772 0.0122935C20.0966 0.289043 16.6518 5.74317 21.3209 10.4116Z" fill="url(#paint8_radial_37_4880)"/>
<path d="M22.9407 12.4156C22.8751 12.3551 22.7979 12.2932 22.7152 12.2311C22.6846 12.2081 22.6546 12.1852 22.6219 12.1623C21.8199 11.599 20.3838 11.0425 19.0002 11.2831C24.4028 13.984 22.9524 23.2848 15.4661 22.9336C14.7995 22.9064 14.1407 22.7794 13.5117 22.5567C13.363 22.5008 13.2158 22.4406 13.0705 22.3763C12.9858 22.3377 12.9011 22.2986 12.8174 22.2554C12.8204 22.2575 12.8245 22.2598 12.8276 22.2616C13.8719 22.9741 19.03 24.7152 24.4203 20.3263L24.4286 20.3067C24.5617 19.9908 26.3458 15.5531 22.9407 12.4156Z" fill="url(#paint9_radial_37_4880)"/>
<path d="M9.27986 17.3401C9.27986 17.3401 9.97317 14.7567 14.2444 14.7567C14.7061 14.7567 16.0262 13.4682 16.0506 13.0946C16.075 12.721 13.3194 14.2416 10.411 12.8733C7.27111 11.3959 4.88867 13.0946 4.88867 13.0946C4.88867 13.0946 5.79348 15.3327 8.44705 15.3327C8.16873 17.788 9.46698 20.6514 12.6095 22.1529C12.6798 22.1865 12.7458 22.2232 12.8179 22.2554C10.9837 21.3073 9.46905 19.5157 9.27986 17.3401Z" fill="url(#paint10_radial_37_4880)"/>
<path d="M29.9214 10.3971C29.2686 8.82681 27.9464 7.13156 26.9081 6.59575C27.7531 8.25231 28.2422 9.91406 28.4291 11.1542C28.4291 11.1567 28.43 11.1627 28.432 11.1792C26.7336 6.94594 23.8536 5.23894 21.502 1.52219C21.3832 1.33425 21.2641 1.14581 21.1481 0.947186C21.0891 0.845747 21.0339 0.742088 20.9828 0.636436C20.8851 0.447802 20.8097 0.248412 20.7582 0.0423111C20.7586 0.0325539 20.7553 0.0230146 20.7489 0.0155672C20.7426 0.0081197 20.7338 0.00330226 20.7241 0.00206112C20.7149 -0.000580228 20.7051 -0.000580228 20.6959 0.00206112C20.6938 0.00281112 20.6906 0.00524862 20.6884 0.00612362C20.6851 0.00743612 20.6809 0.0104361 20.6774 0.0123736C20.6791 0.0101236 20.6826 0.00506112 20.6836 0.00387362C16.9105 2.21362 15.6305 6.30144 15.5129 8.34662C15.6879 8.3345 15.8624 8.31981 16.0405 8.31981C18.8563 8.31981 21.3087 9.86794 22.6218 12.1626C21.8198 11.5992 20.3836 11.0427 19.0001 11.2834C24.4026 13.9842 22.9523 23.285 15.466 22.9339C14.7994 22.9067 14.1405 22.7796 13.5116 22.5569C13.3628 22.501 13.2157 22.4408 13.0704 22.3766C12.9856 22.3379 12.901 22.2989 12.8173 22.2556C12.8203 22.2577 12.8244 22.26 12.8275 22.2619C12.754 22.2265 12.6811 22.1902 12.6087 22.1529C12.679 22.1865 12.745 22.2232 12.8171 22.2554C10.9827 21.3074 9.46808 19.5158 9.27889 17.3402C9.27889 17.3402 9.9722 14.7567 14.2434 14.7567C14.7051 14.7567 16.0252 13.4683 16.0496 13.0947C16.0441 12.9727 13.4298 11.9328 12.4107 10.9287C11.8661 10.3922 11.6076 10.1335 11.3786 9.93944C11.2543 9.8345 11.1245 9.73643 10.9895 9.64569C10.6472 8.44793 10.6326 7.18023 10.9474 5.97494C9.40439 6.6775 8.20427 7.78806 7.33177 8.76869H7.32483C6.72939 8.0145 6.77139 5.52662 6.80533 5.00719C6.7982 4.975 6.36114 5.23406 6.30389 5.27312C5.77846 5.64817 5.28725 6.06898 4.83602 6.53062C4.32267 7.05142 3.85365 7.61412 3.43383 8.21287C3.43383 8.21362 3.43339 8.2145 3.43314 8.21525C3.43314 8.21444 3.43358 8.21362 3.43383 8.21287C2.46798 9.58159 1.78297 11.1282 1.41839 12.7632C1.4112 12.7957 1.40514 12.8295 1.39814 12.8623C1.36989 12.9946 1.24277 13.6656 1.22502 13.8096C1.22364 13.8206 1.22633 13.7986 1.22502 13.8096C1.10909 14.503 1.03512 15.2028 1.00352 15.9052C1.00352 15.9308 1.00195 15.9562 1.00195 15.9819C1.00195 24.2761 7.72695 31 16.0222 31C23.4513 31 29.6197 25.607 30.8273 18.5231C30.8528 18.3309 30.8731 18.1376 30.8956 17.9437C31.1941 15.3681 30.8625 12.6609 29.9214 10.3971ZM28.4313 11.1684C28.4321 11.1737 28.433 11.1792 28.4338 11.1846L28.4333 11.1829L28.4313 11.1684Z" fill="url(#paint11_linear_37_4880)"/>
<defs>
<linearGradient id="paint0_linear_37_4880" x1="27.1772" y1="4.80498" x2="3.05922" y2="28.0702" gradientUnits="userSpaceOnUse">
<stop offset="0.05" stop-color="#FFF44F"/>
<stop offset="0.37" stop-color="#FF980E"/>
<stop offset="0.53" stop-color="#FF3647"/>
<stop offset="0.7" stop-color="#E31587"/>
</linearGradient>
<radialGradient id="paint1_radial_37_4880" cx="0" cy="0" r="1" gradientUnits="userSpaceOnUse" gradientTransform="translate(21.7892 3.45562) scale(30.7201 31.2374)">
<stop offset="0.13" stop-color="#FFBD4F"/>
<stop offset="0.28" stop-color="#FF980E"/>
<stop offset="0.47" stop-color="#FF3750"/>
<stop offset="0.78" stop-color="#EB0878"/>
<stop offset="0.86" stop-color="#E50080"/>
</radialGradient>
<radialGradient id="paint2_radial_37_4880" cx="0" cy="0" r="1" gradientUnits="userSpaceOnUse" gradientTransform="translate(12.8815 16.3574) scale(31.4881 31.2374)">
<stop offset="0.3" stop-color="#960E18"/>
<stop offset="0.35" stop-color="#B11927" stop-opacity="0.74"/>
<stop offset="0.43" stop-color="#DB293D" stop-opacity="0.34"/>
<stop offset="0.5" stop-color="#F5334B" stop-opacity="0.09"/>
<stop offset="0.53" stop-color="#FF3750" stop-opacity="0"/>
</radialGradient>
<radialGradient id="paint3_radial_37_4880" cx="0" cy="0" r="1" gradientUnits="userSpaceOnUse" gradientTransform="translate(18.9698 -1.46341) scale(10.0831 17.1187)">
<stop offset="0.13" stop-color="#FFF44F"/>
<stop offset="0.53" stop-color="#FF980E"/>
</radialGradient>
<radialGradient id="paint4_radial_37_4880" cx="0" cy="0" r="1" gradientUnits="userSpaceOnUse" gradientTransform="translate(12.3161 24.4215) scale(13.3427 14.6237)">
<stop offset="0.35" stop-color="#3A8EE6"/>
<stop offset="0.67" stop-color="#9059FF"/>
<stop offset="1" stop-color="#C139E6"/>
</radialGradient>
<radialGradient id="paint5_radial_37_4880" cx="0" cy="0" r="1" gradientUnits="userSpaceOnUse" gradientTransform="translate(14.5959 13.1452) scale(7.08497 8.628)">
<stop offset="0.21" stop-color="#9059FF" stop-opacity="0"/>
<stop offset="0.97" stop-color="#6E008B" stop-opacity="0.6"/>
</radialGradient>
<radialGradient id="paint6_radial_37_4880" cx="0" cy="0" r="1" gradientUnits="userSpaceOnUse" gradientTransform="translate(15.0133 2.30484) scale(10.6075 10.6452)">
<stop offset="0.1" stop-color="#FFE226"/>
<stop offset="0.79" stop-color="#FF7139"/>
</radialGradient>
<radialGradient id="paint7_radial_37_4880" cx="0" cy="0" r="1" gradientUnits="userSpaceOnUse" gradientTransform="translate(24.7015 -4.67926) scale(50.6424 42.5115)">
<stop offset="0.11" stop-color="#FFF44F"/>
<stop offset="0.46" stop-color="#FF980E"/>
<stop offset="0.72" stop-color="#FF3647"/>
<stop offset="0.9" stop-color="#E31587"/>
</radialGradient>
<radialGradient id="paint8_radial_37_4880" cx="0" cy="0" r="1" gradientUnits="userSpaceOnUse" gradientTransform="translate(5.89345 9.35993) rotate(77.3946) scale(16.0671 69.5038)">
<stop stop-color="#FFF44F"/>
<stop offset="0.3" stop-color="#FF980E"/>
<stop offset="0.57" stop-color="#FF3647"/>
<stop offset="0.74" stop-color="#E31587"/>
</radialGradient>
<radialGradient id="paint9_radial_37_4880" cx="0" cy="0" r="1" gradientUnits="userSpaceOnUse" gradientTransform="translate(15.1225 6.13319) scale(29.0761 28.5653)">
<stop offset="0.14" stop-color="#FFF44F"/>
<stop offset="0.48" stop-color="#FF980E"/>
<stop offset="0.66" stop-color="#FF3647"/>
<stop offset="0.9" stop-color="#E31587"/>
</radialGradient>
<radialGradient id="paint10_radial_37_4880" cx="0" cy="0" r="1" gradientUnits="userSpaceOnUse" gradientTransform="translate(22.6699 7.80387) scale(34.9485 31.2656)">
<stop offset="0.09" stop-color="#FFF44F"/>
<stop offset="0.63" stop-color="#FF980E"/>
</radialGradient>
<linearGradient id="paint11_linear_37_4880" x1="25.0019" y1="4.34007" x2="5.71598" y2="25.4122" gradientUnits="userSpaceOnUse">
<stop offset="0.17" stop-color="#FFF44F" stop-opacity="0.8"/>
<stop offset="0.6" stop-color="#FFF44F" stop-opacity="0"/>
</linearGradient>
</defs>
</svg>
