<svg width="52" height="40" viewBox="0 0 52 40" fill="none" xmlns="http://www.w3.org/2000/svg">
<path d="M0 4C0 1.79086 1.79086 0 4 0H48C50.2091 0 52 1.79086 52 4V36C52 38.2091 50.2091 40 48 40H4C1.79086 40 0 38.2091 0 36V4Z" fill="white"/>
<path d="M39.1343 10H12.8657C12.7563 10 12.6467 10 12.5375 10.0006C12.4452 10.0013 12.3531 10.0023 12.261 10.0047C12.0601 10.01 11.8576 10.0216 11.6592 10.0564C11.4577 10.0918 11.2701 10.1496 11.0872 10.2405C10.9073 10.3298 10.7427 10.4466 10.6 10.5859C10.4572 10.7253 10.3376 10.8858 10.2462 11.0616C10.153 11.2402 10.0938 11.4233 10.0578 11.6202C10.0219 11.8139 10.01 12.0117 10.0046 12.2076C10.0021 12.2975 10.0011 12.3874 10.0005 12.4773C9.99982 12.5841 10 12.6909 10 12.7979V27.2023C10 27.3093 9.99982 27.4159 10.0005 27.5229C10.0011 27.6128 10.0021 27.7028 10.0046 27.7927C10.01 27.9884 10.0219 28.1861 10.0578 28.3798C10.0938 28.5768 10.153 28.7598 10.2462 28.9384C10.3376 29.1142 10.4572 29.2749 10.6 29.4141C10.7427 29.5537 10.9073 29.6704 11.0872 29.7595C11.2701 29.8507 11.4577 29.9085 11.6592 29.9438C11.8576 29.9784 12.0601 29.9902 12.261 29.9955C12.3531 29.9975 12.4452 29.9988 12.5375 29.9992C12.6467 30 12.7563 30 12.8657 30H39.1343C39.2435 30 39.3531 30 39.4623 29.9992C39.5544 29.9988 39.6465 29.9975 39.739 29.9955C39.9395 29.9902 40.142 29.9784 40.3409 29.9438C40.5421 29.9085 40.7297 29.8507 40.9126 29.7595C41.0927 29.6704 41.2569 29.5537 41.3999 29.4141C41.5424 29.2749 41.662 29.1142 41.7537 28.9384C41.8471 28.7598 41.9062 28.5768 41.942 28.3798C41.9779 28.1861 41.9895 27.9884 41.995 27.7927C41.9975 27.7028 41.9987 27.6128 41.9991 27.5229C42 27.4159 42 27.3093 42 27.2023V12.7979C42 12.6909 42 12.5841 41.9991 12.4773C41.9987 12.3874 41.9975 12.2975 41.995 12.2076C41.9895 12.0117 41.9779 11.8139 41.942 11.6202C41.9062 11.4233 41.8471 11.2402 41.7537 11.0616C41.662 10.8858 41.5424 10.7253 41.3999 10.5859C41.2569 10.4466 41.0927 10.3298 40.9126 10.2405C40.7297 10.1496 40.5421 10.0918 40.3409 10.0564C40.142 10.0216 39.9395 10.01 39.739 10.0047C39.6465 10.0023 39.5544 10.0013 39.4623 10.0006C39.3531 10 39.2435 10 39.1343 10Z" fill="black"/>
<path d="M39.1345 10.6666L39.4577 10.6672C39.5452 10.6678 39.6328 10.6687 39.7208 10.6711C39.8739 10.6751 40.053 10.6832 40.22 10.7124C40.3651 10.7379 40.4868 10.7767 40.6036 10.8348C40.719 10.892 40.8246 10.967 40.9169 11.0569C41.0095 11.1475 41.0864 11.2508 41.1457 11.3646C41.2049 11.4777 41.2444 11.596 41.2704 11.7387C41.3002 11.9 41.3085 12.0753 41.3127 12.2257C41.315 12.3106 41.3162 12.3955 41.3166 12.4824C41.3174 12.5875 41.3174 12.6926 41.3174 12.7979V27.2022C41.3174 27.3075 41.3174 27.4124 41.3166 27.5198C41.3162 27.6046 41.315 27.6895 41.3126 27.7746C41.3085 27.9248 41.3002 28.1 41.27 28.2631C41.2444 28.4039 41.2049 28.5222 41.1454 28.6359C41.0862 28.7495 41.0095 28.8527 40.9173 28.9426C40.8245 29.0332 40.7192 29.108 40.6025 29.1657C40.4865 29.2235 40.365 29.2622 40.2213 29.2875C40.051 29.3171 39.8644 29.3253 39.7238 29.329C39.6354 29.3309 39.5474 29.3321 39.4572 29.3325C39.3498 29.3333 39.242 29.3333 39.1345 29.3333H12.866H12.8617C12.7555 29.3333 12.6491 29.3333 12.5409 29.3325C12.4528 29.3321 12.3648 29.331 12.2797 29.3291C12.136 29.3253 11.9492 29.3172 11.7803 29.2877C11.6353 29.2622 11.5138 29.2235 11.3964 29.1649C11.2808 29.1077 11.1755 29.0331 11.0827 28.9423C10.9906 28.8525 10.9141 28.7496 10.8549 28.6359C10.7957 28.5223 10.756 28.4037 10.73 28.2612C10.6998 28.0984 10.6916 27.9239 10.6874 27.7747C10.6851 27.6893 10.6841 27.6039 10.6835 27.519L10.6831 27.2684L10.6831 27.2022V12.7979L10.6831 12.7317L10.6835 12.4816C10.6841 12.3962 10.6851 12.3108 10.6874 12.2255C10.6916 12.0762 10.6998 11.9016 10.7302 11.7374C10.756 11.5962 10.7957 11.4776 10.8552 11.3634C10.9139 11.2506 10.9906 11.1476 11.0832 11.0572C11.1754 10.9671 11.281 10.8923 11.3973 10.8345C11.5135 10.7767 11.6353 10.7379 11.7802 10.7125C11.9472 10.6832 12.1264 10.6751 12.2799 10.671C12.3674 10.6687 12.4549 10.6678 12.5418 10.6672L12.866 10.6666H39.1345Z" fill="white"/>
<path d="M18.7358 16.7268C19.0098 16.3922 19.1958 15.943 19.1467 15.4839C18.7456 15.5034 18.2562 15.7423 17.9728 16.0771C17.7184 16.3639 17.4932 16.8319 17.5519 17.2717C18.0021 17.3098 18.452 17.052 18.7358 16.7268Z" fill="black"/>
<path d="M19.1416 17.3576C18.4877 17.3196 17.9318 17.7199 17.6195 17.7199C17.3071 17.7199 16.8289 17.3768 16.3118 17.3861C15.6386 17.3957 15.014 17.7673 14.6725 18.3582C13.9699 19.5404 14.4871 21.294 15.1703 22.2569C15.5021 22.7332 15.9019 23.2577 16.4288 23.2389C16.9266 23.2198 17.1217 22.9242 17.7268 22.9242C18.3315 22.9242 18.5073 23.2389 19.0342 23.2293C19.5807 23.2198 19.9223 22.7528 20.2541 22.2759C20.6347 21.7329 20.7906 21.2086 20.8004 21.1798C20.7906 21.1703 19.7466 20.7793 19.7369 19.6069C19.7271 18.6253 20.5565 18.1584 20.5956 18.1294C20.1272 17.4531 19.3953 17.3768 19.1416 17.3576Z" fill="black"/>
<path d="M24.8348 16.0291C26.256 16.0291 27.2456 16.9855 27.2456 18.3779C27.2456 19.7753 26.2356 20.7366 24.7992 20.7366H23.2257V23.1795H22.0889V16.0291H24.8348V16.0291ZM23.2257 19.805H24.5302C25.52 19.805 26.0833 19.2847 26.0833 18.3829C26.0833 17.4811 25.52 16.9657 24.5353 16.9657H23.2257V19.805Z" fill="black"/>
<path d="M27.5425 21.6979C27.5425 20.7861 28.2581 20.2262 29.5272 20.1568L30.9888 20.0726V19.6713C30.9888 19.0915 30.5878 18.7446 29.918 18.7446C29.2834 18.7446 28.8875 19.0419 28.7911 19.5077H27.7557C27.8166 18.5662 28.6388 17.8725 29.9585 17.8725C31.2528 17.8725 32.0801 18.5414 32.0801 19.587V23.1795H31.0294V22.3223H31.0041C30.6946 22.902 30.0194 23.2687 29.319 23.2687C28.2734 23.2687 27.5425 22.6344 27.5425 21.6979ZM30.9888 21.2272V20.8159L29.6742 20.8952C29.0194 20.9398 28.649 21.2222 28.649 21.6682C28.649 22.124 29.0347 22.4214 29.6235 22.4214C30.3899 22.4214 30.9888 21.906 30.9888 21.2272Z" fill="black"/>
<path d="M33.0723 25.0973V24.2301C33.1534 24.2498 33.3361 24.2498 33.4275 24.2498C33.935 24.2498 34.2092 24.0418 34.3766 23.5066C34.3766 23.4967 34.4731 23.1895 34.4731 23.1845L32.5444 17.9666H33.732L35.0823 22.2084H35.1024L36.4527 17.9666H37.6099L35.61 23.452C35.1533 24.7157 34.6254 25.122 33.519 25.122C33.4275 25.122 33.1534 25.1121 33.0723 25.0973Z" fill="black"/>
</svg>
