<svg width="413" height="268" viewBox="0 0 413 268" fill="none" xmlns="http://www.w3.org/2000/svg">
<rect x="191" y="149.944" width="174.519" height="53.3653" rx="4" transform="rotate(-32.5682 191 149.944)" fill="white"/>
<ellipse cx="335.027" cy="88.9345" rx="12.591" ry="12.5846" transform="rotate(-32.5682 335.027 88.9345)" fill="#EF5A63"/>
<path fill-rule="evenodd" clip-rule="evenodd" d="M329.827 84.5874L332.769 98.0443L335.78 96.1209L335.307 93.7998L339.036 91.4184L340.943 92.8236L344.241 90.717L332.981 82.5724L329.827 84.5874ZM334.743 91.3353L333.601 87.0196L337.18 89.7783L334.743 91.3353Z" fill="white"/>
<ellipse cx="312.657" cy="103.223" rx="12.591" ry="12.5846" transform="rotate(-32.5682 312.657 103.223)" fill="#009ADE"/>
<path d="M304.016 101.074L310.974 111.966L313.698 110.226L310.86 105.783L317.283 107.936L321.298 105.372L312.709 102.988L313.91 94.7543L310.182 97.1357L309.579 103.777L306.741 99.3339L304.016 101.074Z" fill="white"/>
<ellipse cx="290.288" cy="117.511" rx="12.591" ry="12.5846" transform="rotate(-32.5682 290.288 117.511)" fill="#37B349"/>
<path d="M291.828 108.859L281.934 115.179L288.892 126.071L291.759 124.239L286.724 116.357L291.026 113.609L296.061 121.492L298.786 119.751L291.828 108.859Z" fill="white"/>
<ellipse cx="223.179" cy="160.376" rx="12.591" ry="12.5846" transform="rotate(-32.5682 223.179 160.376)" fill="#00B49B"/>
<path d="M214.538 158.227L221.496 169.12L224.22 167.38L221.382 162.937L227.805 165.09L231.82 162.525L223.231 160.141L224.432 151.908L220.704 154.289L220.101 160.93L217.263 156.487L214.538 158.227Z" fill="white"/>
<ellipse cx="245.549" cy="146.088" rx="12.591" ry="12.5846" transform="rotate(-32.5682 245.549 146.088)" fill="#5F6AAF"/>
<path d="M244.153 154.648L237.195 143.755L239.92 142.015L242.666 146.315L246.825 143.658L244.078 139.359L246.946 137.527L253.903 148.419L251.036 150.251L248.198 145.808L244.039 148.464L246.877 152.907L244.153 154.648Z" fill="white"/>
<ellipse cx="267.918" cy="131.799" rx="12.591" ry="12.5846" transform="rotate(-32.5682 267.918 131.799)" fill="#F9A61A"/>
<path d="M273.368 128.319C275.289 131.327 274.407 135.323 271.397 137.245C268.388 139.168 264.391 138.288 262.47 135.28C260.548 132.272 261.431 128.275 264.44 126.353C267.449 124.431 271.446 125.311 273.368 128.319ZM265.194 133.54C266.155 135.043 268.153 135.484 269.658 134.522C271.163 133.561 271.604 131.563 270.643 130.059C269.682 128.555 267.684 128.115 266.179 129.076C264.675 130.037 264.234 132.036 265.194 133.54Z" fill="white"/>
<rect x="0.090332" y="115.851" width="215.216" height="53.3653" rx="4" transform="rotate(-32.5682 0.090332 115.851)" fill="white"/>
<g clip-path="url(#clip0_153_2691)">
<path fill-rule="evenodd" clip-rule="evenodd" d="M116.486 62.6878C113.802 64.876 112.551 67.8364 112.87 71.2475C113.162 74.3577 114.608 76.8289 115.044 77.512C115.479 78.1917 117.104 80.53 119.803 82.0948C122.756 83.8066 125.97 83.9255 129.098 82.439C129.759 82.1247 130.511 81.6991 131.332 81.1747C133.843 79.5708 136.264 77.5107 136.287 77.4902L136.428 77.3419L133.71 73.0871C133.71 73.0871 131.055 75.0533 129.595 75.9864C127.779 77.1457 126.923 77.5331 126.525 77.6536C124.111 78.3848 121.978 75.4977 121.174 74.2235C121.078 74.0709 120.704 73.4848 120.606 73.335C119.768 72.0388 118.006 68.8309 119.732 67.0491C120.236 66.5281 121.241 65.7817 122.635 64.8909C124.092 63.9605 126.847 62.3412 126.847 62.3412L124.177 58.1622L123.985 58.2238C123.959 58.2358 121.322 59.4258 118.782 61.0484C117.908 61.6065 117.136 62.1581 116.486 62.6878Z" fill="#343433"/>
<path fill-rule="evenodd" clip-rule="evenodd" d="M158.166 26.687L163.377 23.3586L180.255 49.7822L175.044 53.1107L158.166 26.687Z" fill="#343433"/>
<path fill-rule="evenodd" clip-rule="evenodd" d="M75.0503 99.9596L67.1897 104.98C66.2883 103.121 65.4561 100.948 68.7376 98.8518C72.5345 96.4265 73.7181 98.0843 74.8628 99.6876C74.9053 99.747 74.947 99.8059 74.9893 99.8641L75.0503 99.9596ZM65.9158 94.597C63.7552 95.9771 61.1315 98.4446 60.5133 101.755C59.9581 104.578 60.6729 107.815 62.4758 110.638L62.936 111.358C63.2365 111.829 64.8821 114.254 67.761 115.777C70.7495 117.358 74.011 117.353 77.1926 115.763C77.7399 115.49 78.3093 115.165 78.885 114.797C82.4602 112.514 85.1936 109.322 85.3136 109.184L85.5139 108.953L83.0932 105.164C83.0932 105.164 78.8967 108.537 77.3939 109.562C72.8015 112.696 70.6948 110.611 69.5098 108.881L82.4869 100.577L80.4541 97.3941C78.7021 94.5946 76.761 92.9317 74.2804 92.4663C71.2765 91.878 68.1776 93.1523 66.1747 94.4317L65.9158 94.597Z" fill="#343433"/>
<path fill-rule="evenodd" clip-rule="evenodd" d="M105.661 80.4077L97.8004 85.4286C96.8989 83.5686 96.0667 81.3959 99.3482 79.2999C103.145 76.8746 104.329 78.5324 105.473 80.1357C105.516 80.195 105.558 80.254 105.6 80.3122L105.661 80.4077ZM96.5264 75.0451C94.3658 76.4252 91.7421 78.8927 91.1239 82.2029C90.5687 85.0261 91.2835 88.2635 93.0864 91.086L93.5466 91.8065C93.8471 92.277 95.4927 94.7025 98.3716 96.225C101.36 97.8057 104.622 97.801 107.803 96.2112C108.35 95.9382 108.92 95.6131 109.496 95.2453C113.071 92.9617 115.804 89.7701 115.924 89.6321L116.124 89.4015L113.704 85.6118C113.704 85.6118 109.507 88.9849 108.005 90.0102C103.412 93.1439 101.305 91.0596 100.12 89.3292L113.098 81.0248L111.065 77.8422C109.313 75.0427 107.372 73.3798 104.891 72.9144C101.887 72.3261 98.7883 73.6004 96.7853 74.8797L96.5264 75.0451Z" fill="#343433"/>
<path fill-rule="evenodd" clip-rule="evenodd" d="M158.738 46.5041L150.877 51.5249C149.976 49.665 149.143 47.4922 152.425 45.3962C156.222 42.971 157.405 44.6288 158.55 46.2321C158.593 46.2914 158.634 46.3504 158.677 46.4086L158.738 46.5041ZM149.603 41.1415C147.442 42.5216 144.819 44.989 144.201 48.2993C143.645 51.1225 144.36 54.3598 146.163 57.1824L146.623 57.9028C146.924 58.3734 148.569 60.7989 151.448 62.3214C154.437 63.9021 157.698 63.8974 160.88 62.3076C161.427 62.0346 161.997 61.7094 162.572 61.3417C166.147 59.0581 168.881 55.8665 169.001 55.7285L169.201 55.4979L166.78 51.7082C166.78 51.7082 162.584 55.0812 161.081 56.1066C156.489 59.2403 154.382 57.1559 153.197 55.4256L166.174 47.1212L164.141 43.9386C162.389 41.1391 160.448 39.4761 157.968 39.0108C154.964 38.4225 151.865 39.6967 149.862 40.9761L149.603 41.1415Z" fill="#343433"/>
<path fill-rule="evenodd" clip-rule="evenodd" d="M74.4788 80.1425L79.6897 76.8141L96.5677 103.238L91.3568 106.566L74.4788 80.1425Z" fill="#343433"/>
<path fill-rule="evenodd" clip-rule="evenodd" d="M135.977 56.549L140.536 53.637L137.892 49.4984L133.333 52.4104L129.063 45.7249L123.527 49.2608L135.118 67.4072L140.654 63.8712L135.977 56.549Z" fill="#BF3936"/>
<path fill-rule="evenodd" clip-rule="evenodd" d="M52.9136 118.154C53.5885 118.017 54.1979 118.081 54.7248 118.345L55.0136 118.576L60.7572 114.907L60.3843 114.43C57.218 110.627 53.6147 111.472 50.1298 112.289C48.9604 112.564 46.9005 113.094 45.3965 113.481C44.5627 113.695 43.9039 113.865 43.7301 113.905C41.7099 114.369 39.969 114.615 39.1234 112.908C38.4072 111.463 39.2259 110.159 41.9481 108.407C44.7098 106.651 50.5668 103.54 50.6259 103.509L51.1506 103.216L48.4712 99.0217L48.0381 99.2065C47.9939 99.2213 42.1183 101.632 38.84 103.699L38.7049 103.785C36.3314 105.301 34.6127 106.95 33.5967 108.688C32.0063 111.407 32.1458 114.267 34.0107 117.187C36.0617 120.398 39.5736 121.166 45.7545 119.757C47.4058 119.38 51.911 118.357 52.9136 118.154Z" fill="#BF3936"/>
<path fill-rule="evenodd" clip-rule="evenodd" d="M56.2326 120.579C56.4311 122.293 54.7548 123.583 52.9647 124.727L52.7495 124.864C49.893 126.689 43.3563 129.992 43.2909 130.025L42.7861 130.293L45.7087 134.869L46.1099 134.703C46.1608 134.686 51.965 132.483 55.7111 130.09C62.0168 126.062 64.1214 121.427 61.9388 116.844L56.2123 120.547L59.2427 119.458L56.2326 120.579Z" fill="#343433"/>
<path fill-rule="evenodd" clip-rule="evenodd" d="M145.17 65.9174C143.667 66.9616 142.617 66.9524 141.874 65.7816L136.338 69.3176C139.003 73.3883 142.984 73.2422 145.737 71.8304C146.045 71.6225 146.27 71.4901 146.389 71.4144C148.172 70.2752 150.323 68.2426 150.418 68.3921L147.775 64.2535C147.721 64.1691 145.857 65.5624 145.17 65.9174Z" fill="#343433"/>
</g>
<g clip-path="url(#clip1_153_2691)">
<rect x="113" y="120.944" width="174.519" height="53.3653" rx="4" transform="rotate(-32.5682 113 120.944)" fill="#FFDD2D"/>
<g clip-path="url(#clip2_153_2691)">
<path d="M177.978 109.803L177.541 108.207L176.2 109.124C176.084 109.198 175.229 109.71 174.034 109.636C174.099 109.603 174.165 109.573 174.227 109.533C175.066 108.998 175.553 107.971 175.414 107.037L175.164 105.348C174.433 105.829 173.699 106.166 173.699 106.166C173.692 106.169 173.117 106.44 172.098 106.201C171.368 106.03 170.669 106.138 170.078 106.516C169.819 106.681 169.618 106.875 169.459 107.066C169.422 106.94 169.383 106.813 169.329 106.691C168.732 105.342 167.347 104.907 167.348 104.908L165.501 104.283L165.825 106.196C165.825 106.202 165.89 106.658 165.712 107.014C165.342 106.628 164.811 106.266 164.051 106.082C162.617 105.735 161.485 106.271 160.937 106.621C160.683 106.783 160.519 106.927 160.48 106.962L159.395 108.001C159.288 107.676 159.131 107.093 159.13 106.477L159.129 104.966L157.531 106.265L156.232 105.442L155.521 106.673L153.914 106.324L153.557 107.927L152.139 108.057L152.34 109.581L150.491 110.483L151.863 111.119C152.421 111.379 152.883 111.765 153.132 112L151.797 112.521L151.752 112.54C151.687 112.569 151.489 112.656 151.234 112.819C150.686 113.169 149.724 113.972 149.438 115.416C149.284 116.183 149.389 116.818 149.583 117.316C149.188 117.329 148.807 117.083 148.807 117.083L147.201 115.977L146.98 117.935C146.959 118.183 146.891 119.467 147.77 120.464C147.858 120.563 147.956 120.653 148.055 120.74C147.817 120.803 147.556 120.904 147.297 121.069C146.706 121.446 146.313 122.035 146.161 122.77C145.95 123.791 145.466 124.2 145.471 124.196C145.471 124.196 144.976 124.654 144.101 125.191L145.525 126.13C146.315 126.65 147.451 126.638 148.289 126.103C148.352 126.062 148.408 126.015 148.466 125.97C148.033 127.083 147.208 127.644 147.107 127.71L145.684 128.555L146.956 129.616C147.606 130.166 149.041 130.85 150.478 130.104C150.728 130.822 150.846 131.729 150.318 132.489L149.555 133.583L150.754 134.213C151.415 134.543 152.565 134.69 153.632 134.008C153.863 133.859 154.071 133.694 154.256 133.512C154.467 133.721 154.693 133.922 154.928 134.112C155.855 134.86 156.005 135.7 156.006 135.709L156.183 137.116L157.521 136.689C157.538 136.685 157.944 136.559 158.377 136.282C158.574 136.157 158.748 136.017 158.897 135.862C159.011 135.746 159.112 135.622 159.202 135.494C159.521 135.666 159.856 135.795 160.205 135.879C161.421 136.167 162.704 135.888 164.02 135.048L164.024 135.045L164.956 134.433L163.533 136.482L165.463 136.257C166.166 136.178 167 136.083 167.797 135.907L167.937 136.531L168.593 136.439C168.651 136.43 169.908 136.247 171.591 135.303C171.591 135.303 171.995 135.071 172.21 134.933C172.426 134.796 172.801 134.529 172.801 134.529C174.352 133.403 175.043 132.349 175.075 132.299L175.434 131.74L174.924 131.352C175.433 130.682 175.885 129.94 176.237 129.361L177.231 127.731L174.779 128.155L175.729 127.565C177.046 126.724 177.84 125.677 178.088 124.452C178.158 124.101 178.182 123.743 178.16 123.381C178.315 123.353 178.471 123.312 178.624 123.258C178.826 123.188 179.026 123.089 179.223 122.964C179.648 122.692 179.937 122.374 179.945 122.366L180.899 121.326L179.721 120.586C179.692 120.566 178.994 120.078 178.704 118.922C178.629 118.627 178.541 118.339 178.44 118.061C178.685 117.969 178.926 117.849 179.158 117.7C180.518 116.832 180.555 115.453 180.548 115.164L180.482 113.825L179.17 114.059C178.256 114.219 177.484 113.728 176.94 113.2C178.205 112.229 178.199 110.633 177.978 109.803ZM153.516 112.401L153.504 112.414L153.506 112.391L153.516 112.401Z" fill="white"/>
<path d="M156.52 110.4C155.422 111.103 154.83 111.991 154.922 112.531L157.557 112.023L159.126 109.846C158.675 109.534 157.621 109.698 156.52 110.4Z" fill="white"/>
<path d="M170.648 132.472L170.646 132.474L170.628 132.485L170.608 132.498L170.606 132.499C169.943 132.929 168.939 133.377 168.414 133.53L168.807 135.316C169.238 135.218 170.578 134.7 171.618 134.035C172.656 133.372 173.69 132.373 173.96 132.025L172.505 130.917C172.145 131.33 171.317 132.052 170.648 132.472Z" fill="white"/>
<path d="M173.751 128.465C173.5 128.943 172.832 129.845 172.419 130.33L173.614 131.25C174.269 130.524 174.762 129.85 175.129 129.23L174.043 129.502L173.751 128.465Z" fill="white"/>
<path d="M165.666 133.63L166.486 134.33L165.781 135.202C166.497 135.13 167.319 134.964 168.249 134.677L167.917 133.206C167.306 133.376 166.205 133.601 165.666 133.63Z" fill="white"/>
<path d="M155.636 109.017C156.464 108.488 157.404 108.167 158.252 108.119C158.186 107.889 158.116 107.604 158.068 107.29L157.851 107.47L157.62 107.655L157.37 107.495L156.626 107.026L156.243 107.695L156.092 107.953L155.8 107.89L154.777 107.667L154.55 108.689L154.485 108.98L154.187 109.008L153.415 109.076L153.532 109.947L153.569 110.242L153.304 110.374L153.05 110.496C153.316 110.672 153.543 110.855 153.724 111.01C154.126 110.261 154.81 109.544 155.636 109.017Z" fill="white"/>
<path d="M173.236 108.697C173.367 108.666 173.488 108.613 173.596 108.543C174.064 108.244 174.323 107.651 174.256 107.202C174.256 107.202 173.363 107.698 171.837 107.345C171.348 107.227 170.978 107.335 170.711 107.505C170.297 107.77 170.126 108.189 170.126 108.189C171.623 108.074 172.463 108.887 173.236 108.697Z" fill="white"/>
<path d="M147.656 125.113C147.764 125.044 147.863 124.957 147.944 124.853C148.444 124.23 148.06 123.125 148.794 121.815C148.794 121.815 148.341 121.794 147.929 122.058C147.661 122.229 147.408 122.519 147.308 123.013C146.988 124.546 146.162 125.147 146.162 125.147C146.539 125.398 147.187 125.412 147.656 125.113Z" fill="white"/>
<path d="M176.027 112.401C176.047 112.39 176.064 112.38 176.084 112.367C177.253 111.62 176.845 110.107 176.845 110.107L176.823 110.121C176.608 110.258 174.837 111.318 172.605 110.532C171.136 110.015 169.893 109.53 168.355 110.009L168.212 110.069L168.099 109.955C167.934 109.776 167.951 109.501 168.132 109.098C169.178 106.754 166.983 106.02 166.983 106.02C166.983 106.02 167.242 107.564 166.088 108.301C166.06 108.319 166.03 108.336 166.001 108.355C165.866 108.431 165.736 108.507 165.591 108.561L165.351 108.655C165.351 108.655 165.105 107.545 163.783 107.225C162.786 106.982 161.99 107.342 161.569 107.611C161.357 107.746 161.24 107.86 161.24 107.86C161.975 108.13 162.819 108.816 162.701 109.647C162.598 110.363 161.64 111.007 162.079 111.695C162.265 111.987 162.753 112.154 163.435 112.149C165.489 112.142 167.725 112.443 169.38 113.705C171.447 115.278 171.468 117.184 170.754 118.74C170.754 118.74 171.359 118.85 171.939 118.542C172.058 118.481 172.171 118.416 172.273 118.35C173.438 117.607 173.689 116.673 173.689 116.673C173.689 116.673 174.075 117.495 173.918 118.588C173.775 119.595 173.285 120.447 172.177 121.178C172.177 121.178 172.475 121.724 173.259 121.859C173.759 121.942 174.551 121.567 174.551 121.567C174.551 121.567 173.358 122.723 174.508 124.857C175.131 126.014 175.096 126.576 175.096 126.576L175.121 126.56C178.304 124.527 176.468 121.833 176.468 121.833C176.468 121.833 177.209 122.504 178.232 122.149C178.358 122.11 178.479 122.048 178.589 121.977C178.875 121.795 179.08 121.569 179.08 121.569C179.08 121.569 177.985 120.88 177.565 119.205C177.216 117.816 176.612 117.007 176.612 117.007C176.612 117.007 177.457 117.385 178.524 116.712L178.535 116.705C179.42 116.14 179.375 115.218 179.375 115.218C176.687 115.688 175.07 112.694 175.07 112.694C175.07 112.694 175.477 112.724 176.027 112.401ZM177.297 115.797C176.161 115.92 174.889 115.132 174.495 114.806C175.791 117.151 175.697 119.415 175.379 121.737C175.214 122.941 175.468 123.848 175.468 123.848C175.468 123.848 175.046 122.907 175.173 121.84C175.445 119.636 175.432 117.117 174.192 114.988C173.325 113.503 172.204 112.565 171.008 111.967C171.975 112.769 172.718 114.032 172.357 115.885C172.357 115.885 172.859 111.856 168.08 111.108C166.201 110.862 164.459 111.081 163.483 111.072C166.493 110.299 167.133 108.624 167.133 108.624C166.781 109.825 165.745 110.47 165.043 110.777C165.271 110.752 165.507 110.726 165.768 110.706C168.598 110.512 171.687 111.194 173.677 113.6L173.664 113.58C175.791 115.832 177.297 115.797 177.297 115.797Z" fill="white"/>
<path d="M159.07 131.457C159.07 131.457 159.744 130.896 159.878 130.407C160.084 129.639 159.715 129.139 159.715 129.139C158.585 129.839 157.607 129.923 156.63 129.633C155.578 129.312 154.993 128.617 154.993 128.617C154.993 128.617 155.945 128.782 157.109 128.039C157.213 127.972 157.319 127.898 157.424 127.816C157.947 127.419 158.104 126.823 158.104 126.823C156.391 126.816 154.669 125.996 154.11 123.46C153.663 121.428 154.327 119.272 155.198 117.411C155.489 116.795 155.542 116.283 155.356 115.991C154.916 115.303 153.93 115.9 153.237 115.693C152.433 115.45 152.166 114.394 152.23 113.616C152.23 113.616 152.08 113.673 151.866 113.809C151.447 114.077 150.786 114.648 150.587 115.654C150.319 116.99 151.224 117.679 151.224 117.679L151.038 117.857C150.928 117.966 150.803 118.053 150.678 118.143C150.648 118.162 150.623 118.18 150.594 118.198C149.437 118.937 148.149 118.052 148.149 118.052C148.149 118.052 147.892 120.353 150.458 120.39C150.899 120.395 151.155 120.497 151.248 120.721L151.303 120.871L151.187 120.978C150.108 122.17 150.024 123.502 149.875 125.053C149.651 127.405 147.948 128.566 147.731 128.704L147.707 128.719C147.707 128.719 148.909 129.726 150.078 128.979C150.097 128.967 150.113 128.956 150.133 128.942C150.658 128.58 150.802 128.196 150.802 128.196C150.802 128.196 152.836 130.922 151.282 133.163C151.282 133.163 152.099 133.592 152.985 133.026L152.996 133.019C154.056 132.333 154.067 131.408 154.067 131.408C154.067 131.408 154.547 132.296 155.66 133.197C157.002 134.283 157.17 135.565 157.17 135.565C157.17 135.565 157.461 135.473 157.746 135.291C157.857 135.221 157.963 135.138 158.051 135.041C158.802 134.263 158.505 133.307 158.505 133.307C158.505 133.307 160.178 136.105 163.362 134.072L163.384 134.058C163.384 134.058 162.86 133.852 162.074 132.8C160.62 130.86 159.07 131.457 159.07 131.457ZM158.876 132.279C156.635 131.591 154.543 130.724 152.959 128.563C153.088 129.056 153.272 130.541 152.682 131.52C152.682 131.52 153.346 130.169 152.196 127.293L152.209 127.314C150.864 124.497 151.543 121.407 152.91 118.92C153.034 118.692 153.16 118.487 153.278 118.293C152.704 118.8 151.683 119.469 150.446 119.284C150.446 119.284 152.234 119.407 154.2 117.002C153.798 117.892 152.867 119.379 152.301 121.188C150.97 125.839 154.837 127.076 154.837 127.076C153.002 126.625 152.17 125.42 151.849 124.205C151.889 125.544 152.269 126.953 153.253 128.363C154.662 130.385 156.942 131.456 159.053 132.137C160.075 132.468 160.755 133.246 160.755 133.246C160.755 133.246 160.037 132.637 158.876 132.279Z" fill="white"/>
<path d="M158.044 117.975C158.132 117.998 158.223 118.026 158.311 118.056C158.332 118.063 158.351 118.069 158.374 118.078C158.458 118.11 158.546 118.146 158.632 118.183C158.65 118.19 158.669 118.2 158.69 118.209C158.796 118.256 158.899 118.308 159.005 118.362C159.973 118.866 161.012 118.872 161.664 118.457C162.317 118.039 162.746 117.095 162.698 116.003C162.692 115.882 162.688 115.763 162.691 115.648C162.691 115.631 162.693 115.615 162.692 115.598C162.694 115.501 162.699 115.403 162.708 115.307C162.709 115.285 162.711 115.267 162.713 115.249C162.723 115.153 162.736 115.057 162.753 114.965C162.756 114.95 162.758 114.937 162.762 114.924C162.841 114.534 163.003 114.173 163.303 113.838L163.08 113.847L163.071 113.853L162.184 113.888L161.276 113.929L160.123 116.033L160.115 116.032L160.114 116.038L157.72 116.201L157.3 117.005L156.895 117.796L156.887 117.801L156.783 118C157.214 117.868 157.608 117.872 157.996 117.963C158.013 117.966 158.027 117.972 158.044 117.975ZM159.629 116.853L160.38 116.373L161.13 115.894L161.46 116.412C161.146 116.308 160.831 116.571 160.831 116.571L161.308 117.318C161.308 117.318 161.555 117.677 161.784 117.755L161.414 117.991L161.042 118.229C161.071 117.988 160.848 117.612 160.848 117.612L160.371 116.865C160.371 116.865 160 117.039 159.96 117.37L159.629 116.853Z" fill="white"/>
<path d="M159.552 115.487L157.616 112.455L155.279 113.026L157.662 115.641L159.552 115.487ZM157.679 113.463L157.99 113.949L157.87 113.966C157.862 113.965 157.707 114.021 157.347 113.984C156.758 113.928 156.57 113.65 156.57 113.65L157.679 113.463Z" fill="white"/>
<path d="M160.796 113.639L159.424 110.379L157.924 112.259L159.861 115.29L160.796 113.639ZM158.812 112.74L159.448 111.813C159.448 111.813 159.622 112.101 159.424 112.659C159.307 113 159.19 113.119 159.188 113.126L159.122 113.228L158.811 112.74L158.812 112.74Z" fill="white"/>
<path d="M161.328 124.249C161.559 124.197 161.794 124.067 161.91 123.993C161.906 123.976 161.9 123.954 161.892 123.929C161.881 123.887 161.869 123.847 161.852 123.804C161.777 123.616 161.667 123.418 161.591 123.294C161.481 123.295 161.314 123.278 161.169 123.187C161.001 123.082 160.855 123.077 160.706 123.172C160.513 123.296 160.38 123.544 160.327 123.656C160.524 124.119 161.073 124.304 161.328 124.249Z" fill="white"/>
<path d="M164.545 119.929C164.437 120.546 164.173 121.67 164.161 121.727L164.147 121.797L161.921 123.169C162.06 123.389 162.144 123.599 162.197 123.758C162.205 123.785 162.215 123.812 162.224 123.84L165.148 122.639C165.298 122.273 165.697 121.242 165.85 120.84C165.439 120.664 165.183 120.308 165.064 120.017C164.869 120.016 164.698 119.983 164.545 119.929Z" fill="white"/>
<path d="M163.141 117.072C162.957 117.903 162.59 118.402 162.182 118.723C162.109 118.781 162.032 118.837 161.951 118.889L161.945 118.893L161.94 118.896C161.859 118.947 161.775 118.995 161.691 119.036C161.61 119.078 161.523 119.117 161.432 119.15C161.476 119.282 161.592 119.543 161.839 119.703C162.061 119.85 162.346 119.882 162.683 119.809L162.798 119.786L162.862 119.885C162.882 119.915 163.315 120.546 164.129 120.278C164.167 120.086 164.203 119.913 164.222 119.776C163.863 119.529 163.718 119.136 163.817 118.834C163.831 118.876 164.281 119.781 165.156 119.664L165.3 119.646L165.343 119.786C165.355 119.829 165.653 120.791 166.664 120.574L166.843 120.537L166.869 120.72C166.875 120.76 167.029 121.708 168.053 121.648L169.689 120.603L168.854 119.297C168.227 119.596 167.68 119.284 167.404 118.991C167.104 119.117 166.819 119.133 166.553 119.033C165.92 118.798 165.95 118.193 165.939 118.168C165.94 118.172 166.224 118.615 166.671 118.715C166.889 118.761 167.114 118.761 167.371 118.629L167.497 118.564L167.586 118.679C167.605 118.704 168.053 119.261 168.668 119.002L166.962 116.335C166.698 115.921 166.553 115.428 166.452 114.952L163.139 117.068L163.141 117.072Z" fill="white"/>
<path d="M159.519 121.107L160.56 122.835L160.77 122.741L160.199 120.811L159.64 120.462L159.519 121.107Z" fill="white"/>
<path d="M169.674 125.596C169.689 125.586 169.707 125.578 169.725 125.572C170.07 125.469 170.821 126.482 171.394 126.249C171.451 126.228 171.499 126.201 171.54 126.175C171.687 126.08 171.735 125.961 171.758 125.787C171.758 125.787 171.24 125.544 170.872 125.393C170.386 125.197 169.909 124.889 169.433 125.193C169.422 125.2 169.408 125.209 169.396 125.218C169.244 125.327 169.197 125.465 169.197 125.465C168.926 125.466 168.719 125.539 168.556 125.644C168.257 125.835 168.112 126.121 167.997 126.195L167.992 126.198L166.859 126.773C166.682 126.864 166.443 126.778 166.354 126.743C166.33 126.733 166.317 126.726 166.317 126.726C166.299 126.697 166.28 126.667 166.261 126.642C165.665 125.789 164.751 125.844 164.508 125.991C164.508 125.991 164.43 125.806 164.324 125.785L164.272 126.221L163.252 126.324L164.214 126.619L164.084 127.443C164.064 127.54 164.123 127.617 164.169 127.636L164.484 127.686L164.64 127.367C164.647 127.349 164.668 127.332 164.696 127.314C164.767 127.269 164.884 127.219 164.979 127.158C165.083 127.092 165.159 127.011 165.107 126.906C165.282 127.252 165.344 128.007 165.824 128.325L166.183 128.567L165.154 129.031L165.192 130.062C165.215 130.398 165.366 130.682 165.591 130.744L165.887 130.847C165.887 130.847 165.961 130.452 165.91 130.257L165.782 130.222C165.674 130.193 165.638 130.128 165.628 130.028L165.61 129.39L166.89 128.944L166.884 128.806C166.879 128.632 166.963 128.524 167.082 128.448C167.131 128.417 167.185 128.391 167.243 128.366C167.475 128.275 167.85 128.113 168.189 127.896C168.562 127.658 168.889 127.355 168.944 127.008C169.73 127.351 170.608 126.925 170.738 127.271L171.18 128.436C171.318 128.34 171.449 128.243 171.568 128.142L171.088 126.941C171.036 126.81 170.957 126.64 170.957 126.64C170.827 126.61 170.528 126.561 170.289 126.423C169.967 126.237 169.953 126.042 169.587 125.766C169.593 125.766 169.58 125.656 169.674 125.596ZM164.555 126.749C164.5 126.783 164.431 126.761 164.398 126.705C164.369 126.649 164.386 126.579 164.443 126.549C164.499 126.517 164.569 126.539 164.6 126.594C164.629 126.649 164.61 126.719 164.555 126.749Z" fill="white"/>
<path d="M164.62 130.195C164.62 130.195 164.891 129.808 164.854 129.678L164.727 129.585C164.641 129.527 164.59 129.436 164.626 129.346L164.847 128.815L165.594 128.518C165.594 128.518 165.377 128.444 165.259 128.234L164.539 128.503L164.175 129.252C164.042 129.609 164.224 129.936 164.428 130.069L164.62 130.195Z" fill="white"/>
<path d="M170.432 128.937C170.548 128.856 170.678 128.77 170.822 128.678C170.822 128.678 170.522 127.453 170.52 127.409C170.274 127.446 169.74 127.488 169.525 127.49C169.723 127.577 170.082 127.594 170.119 127.76L170.432 128.937Z" fill="white"/>
<path d="M169.877 120.892L160.423 126.931L162.708 130.508C163.642 131.97 165.28 132.214 166.832 131.222C168.13 130.393 168.504 130.225 169.295 130.399C169.414 129.853 169.61 129.552 170.145 129.145L170.123 129.081L169.829 127.965C169.799 127.955 168.956 127.709 168.956 127.709C168.804 127.897 168.649 128.011 168.376 128.185C168.096 128.364 167.759 128.534 167.376 128.687C167.336 128.701 167.302 128.719 167.27 128.74C167.229 128.766 167.227 128.772 167.23 128.799L167.233 128.936L167.239 129.185L167.006 129.268L165.962 129.633L165.969 129.918L166.002 129.928L166.191 129.979L166.244 130.17C166.311 130.421 166.249 130.803 166.227 130.912L166.156 131.301L165.782 131.17L165.503 131.074C165.222 130.995 165.004 130.737 164.908 130.384C164.907 130.388 164.904 130.391 164.9 130.394L164.712 130.664L164.436 130.486L164.241 130.359C163.901 130.134 163.659 129.642 163.857 129.126L164.323 128.244L165.106 127.938C165.08 127.861 164.951 127.605 164.933 127.531C164.919 127.538 164.903 127.543 164.89 127.551L164.586 127.957L164.028 127.935C164.028 127.935 163.783 127.885 163.827 127.652L163.837 126.843L162.126 126.252L163.966 125.924L163.986 125.741L164.031 125.379L164.39 125.45C164.493 125.471 164.577 125.523 164.643 125.588C165.145 125.488 166.16 125.493 166.704 126.207L166.537 126.442L166.541 126.448C166.631 126.476 166.69 126.474 166.705 126.468L167.81 125.907C167.833 125.886 167.859 125.852 167.889 125.818C167.989 125.691 168.143 125.504 168.373 125.357C168.56 125.237 168.769 125.165 168.995 125.135C169.044 125.07 169.111 125.002 169.198 124.938L169.247 124.905C169.804 124.549 170.347 124.791 170.782 124.983C170.855 125.017 170.928 125.048 171 125.078C171.371 125.23 171.882 125.471 171.904 125.481L172.133 125.588L172.097 125.842C172.069 126.037 172.002 126.288 171.723 126.466C171.666 126.503 171.599 126.537 171.522 126.567C171.456 126.595 171.391 126.611 171.324 126.623C171.351 126.683 171.383 126.756 171.408 126.819L171.837 127.892C172.755 126.926 172.918 125.656 172.161 124.471L169.877 120.892Z" fill="#FFDD2D"/>
<path d="M160.241 126.643L167.592 121.947C166.982 121.8 166.678 121.314 166.571 120.94C166.431 120.957 166.303 120.951 166.182 120.934C166.031 121.331 165.564 122.534 165.438 122.84L165.411 122.905L162.19 124.223L162.132 124.26C162.063 124.304 161.96 124.367 161.84 124.424C161.893 124.575 161.838 124.736 161.71 124.819C161.695 124.828 161.678 124.837 161.66 124.843C161.577 124.878 161.487 124.882 161.402 124.846C161.317 124.813 161.252 124.75 161.216 124.665L161.187 124.596C160.754 124.575 160.179 124.279 159.983 123.705L159.962 123.645L159.984 123.588C159.987 123.58 160.016 123.514 160.062 123.424L159.832 123.525C159.744 123.561 159.645 123.521 159.607 123.436C159.569 123.348 159.607 123.245 159.695 123.211L160.244 122.971L159.16 121.173L159.398 119.907L160.489 120.593L161.086 122.608L161.571 122.395C161.656 122.358 161.757 122.397 161.796 122.485C161.829 122.563 161.801 122.65 161.731 122.695C161.724 122.7 161.716 122.705 161.708 122.708L161.311 122.879C161.323 122.887 161.334 122.888 161.346 122.897C161.435 122.952 161.556 122.955 161.622 122.947L163.844 121.577C163.879 121.426 163.964 121.051 164.048 120.658C163.375 120.798 162.878 120.454 162.646 120.163C162.26 120.227 161.928 120.166 161.651 119.987C161.31 119.764 161.16 119.419 161.1 119.243C160.738 119.323 160.304 119.323 159.788 119.21L156.476 121.326C156.862 121.619 157.248 121.958 157.513 122.372L160.241 126.643Z" fill="#FFDD2D"/>
<path d="M164.444 126.549C164.387 126.578 164.368 126.649 164.398 126.704C164.43 126.762 164.5 126.783 164.556 126.749C164.612 126.72 164.633 126.649 164.603 126.592C164.569 126.539 164.5 126.515 164.444 126.549Z" fill="black"/>
<path d="M175 128.939L174.321 129.077L174.11 128.415L173.881 127.692C173.881 127.692 173.252 128.835 172.145 130.099C171.83 130.457 171.57 130.694 171.57 130.694L171.838 131.113C171.838 131.113 171.193 131.705 170.457 132.174L170.449 132.18L170.438 132.187L170.424 132.196L170.416 132.201C169.68 132.671 168.872 133.008 168.872 133.008L168.604 132.589C168.604 132.589 168.279 132.725 167.823 132.86C166.21 133.333 164.91 133.422 164.91 133.422L165.468 133.935L165.983 134.403L165.571 134.961L165.111 135.576C166.021 135.469 167.297 135.346 168.332 135.026L168.489 135.729C168.489 135.729 169.933 135.527 171.796 134.344L171.797 134.345L171.803 134.341L171.811 134.336L171.818 134.331L171.823 134.328L171.822 134.327C173.682 133.133 174.47 131.908 174.47 131.908L173.897 131.471C174.623 130.666 175.273 129.559 175.749 128.781L175 128.939ZM165.781 135.202L166.486 134.33L165.667 133.629C166.205 133.603 167.306 133.375 167.919 133.205L168.25 134.676C167.318 134.963 166.496 135.128 165.781 135.202ZM171.619 134.035C170.578 134.7 169.236 135.218 168.808 135.316L168.415 133.53C168.939 133.377 169.944 132.929 170.607 132.499L170.609 132.498L170.629 132.485L170.647 132.474L170.649 132.472C171.318 132.051 172.146 131.329 172.506 130.916L173.961 132.025C173.692 132.373 172.658 133.371 171.619 134.035ZM173.615 131.25L172.42 130.33C172.833 129.845 173.501 128.943 173.752 128.465L174.044 129.502L175.13 129.23C174.762 129.849 174.27 130.523 173.615 131.25Z" fill="black"/>
<path d="M155.86 109.366C156.969 108.658 158.091 108.461 158.833 108.543C158.833 108.543 158.415 107.569 158.415 106.473L157.588 107.145L156.483 106.445L155.883 107.483L154.46 107.174L154.145 108.593L152.95 108.702L153.121 109.998L152.164 110.466C153.157 110.927 153.866 111.715 153.866 111.715C154.105 111.007 154.753 110.073 155.86 109.366ZM153.304 110.374L153.569 110.242L153.532 109.947L153.415 109.076L154.186 109.007L154.484 108.979L154.549 108.688L154.776 107.666L155.8 107.889L156.092 107.952L156.242 107.694L156.626 107.026L157.37 107.495L157.62 107.655L157.851 107.47L158.068 107.291C158.117 107.606 158.185 107.889 158.252 108.119C157.404 108.168 156.464 108.488 155.636 109.017C154.811 109.543 154.126 110.261 153.723 111.011C153.542 110.856 153.314 110.672 153.049 110.497L153.304 110.374Z" fill="black"/>
<path d="M176.33 112.752C177.764 111.836 177.306 110.063 177.286 109.988L177.116 109.369L176.589 109.729L176.587 109.731C176.397 109.852 174.789 110.82 172.752 110.103L172.561 110.037C171.229 109.568 169.965 109.121 168.464 109.508C168.479 109.453 168.504 109.379 168.546 109.289C168.926 108.431 168.971 107.657 168.675 106.98C168.224 105.965 167.167 105.602 167.122 105.589L166.406 105.347L166.533 106.095C166.54 106.143 166.722 107.353 165.84 107.916L165.775 107.958C165.712 107.993 165.653 108.028 165.592 108.059C165.355 107.619 164.863 107.017 163.887 106.781C162.713 106.496 161.777 106.938 161.325 107.228C161.083 107.382 160.941 107.515 160.926 107.528L160.399 108.033L161.086 108.288C161.621 108.482 162.333 109.014 162.254 109.581C162.228 109.761 162.082 109.987 161.945 110.209C161.659 110.656 161.272 111.272 161.697 111.938C161.973 112.37 162.593 112.608 163.441 112.606C165.948 112.595 167.802 113.07 169.108 114.067C171.121 115.598 170.891 117.352 170.342 118.548L170.097 119.086L170.679 119.19C170.755 119.202 171.457 119.313 172.155 118.948C172.285 118.877 172.41 118.807 172.522 118.735C172.947 118.464 173.265 118.167 173.501 117.889C173.511 118.084 173.504 118.292 173.473 118.518C173.337 119.479 172.862 120.181 171.929 120.797L171.582 121.027L171.78 121.398C171.822 121.471 172.215 122.144 173.188 122.307C173.337 122.333 173.497 122.331 173.654 122.313C173.477 122.959 173.473 123.89 174.113 125.073C174.646 126.061 174.645 126.553 174.645 126.558L174.637 127.4L175.343 126.963C176.499 126.224 177.179 125.337 177.387 124.31C177.509 123.702 177.445 123.145 177.328 122.691C177.639 122.735 177.996 122.72 178.385 122.584C178.533 122.532 178.684 122.459 178.836 122.362C179.162 122.153 179.391 121.909 179.417 121.883L179.787 121.477L179.322 121.184C179.286 121.16 178.375 120.556 178.01 119.099C177.851 118.469 177.642 117.948 177.454 117.558C177.829 117.526 178.284 117.408 178.772 117.098C179.878 116.391 179.835 115.249 179.835 115.2L179.81 114.68L179.299 114.77C177.629 115.062 176.393 113.77 175.823 113.007C175.957 112.953 176.107 112.888 176.263 112.795L176.33 112.752ZM179.377 115.218C179.377 115.218 179.422 116.139 178.536 116.705L178.526 116.712C177.459 117.385 176.613 117.007 176.613 117.007C176.613 117.007 177.217 117.816 177.565 119.206C177.985 120.88 179.08 121.57 179.08 121.57C179.08 121.57 178.875 121.795 178.589 121.978C178.479 122.048 178.358 122.11 178.232 122.15C177.209 122.505 176.468 121.834 176.468 121.834C176.468 121.834 178.305 124.528 175.121 126.561L175.097 126.577C175.097 126.577 175.131 126.014 174.51 124.857C173.359 122.722 174.553 121.567 174.553 121.567C174.553 121.567 173.762 121.942 173.262 121.858C172.478 121.723 172.178 121.178 172.178 121.178C173.289 120.447 173.776 119.595 173.92 118.587C174.075 117.496 173.69 116.673 173.69 116.673C173.69 116.673 173.439 117.606 172.275 118.35C172.172 118.416 172.06 118.481 171.941 118.542C171.362 118.849 170.755 118.74 170.755 118.74C171.468 117.184 171.448 115.277 169.381 113.704C167.725 112.444 165.488 112.141 163.435 112.148C162.754 112.153 162.267 111.986 162.08 111.694C161.64 111.006 162.599 110.363 162.703 109.645C162.82 108.814 161.975 108.127 161.241 107.858C161.241 107.858 161.358 107.745 161.57 107.609C161.991 107.341 162.787 106.982 163.783 107.223C165.107 107.543 165.351 108.654 165.351 108.654L165.592 108.56C165.737 108.506 165.866 108.43 166.001 108.352C166.03 108.334 166.059 108.317 166.088 108.298C167.242 107.561 166.983 106.017 166.983 106.017C166.983 106.017 169.18 106.752 168.133 109.095C167.952 109.497 167.935 109.773 168.1 109.952L168.213 110.065L168.356 110.006C169.894 109.526 171.137 110.012 172.606 110.528C174.838 111.315 176.609 110.255 176.824 110.118L176.846 110.103C176.846 110.103 177.254 111.617 176.085 112.363C176.066 112.376 176.049 112.386 176.028 112.398C175.479 112.722 175.071 112.691 175.071 112.691C175.071 112.691 176.688 115.687 179.377 115.218Z" fill="black"/>
<path d="M170.163 108.646C170.881 108.591 171.437 108.776 171.927 108.942C172.407 109.102 172.867 109.26 173.35 109.139C173.523 109.097 173.688 109.024 173.84 108.927C174.438 108.544 174.804 107.793 174.706 107.138L174.609 106.481L174.033 106.801C174.006 106.817 173.252 107.207 171.937 106.898C171.397 106.772 170.89 106.848 170.464 107.12C169.945 107.452 169.727 107.959 169.701 108.013L169.421 108.699L170.163 108.646ZM170.712 107.505C170.979 107.334 171.348 107.227 171.838 107.344C173.364 107.698 174.257 107.202 174.257 107.202C174.323 107.649 174.065 108.244 173.597 108.543C173.489 108.613 173.369 108.665 173.237 108.697C172.464 108.887 171.624 108.074 170.126 108.19C170.126 108.19 170.298 107.77 170.712 107.505Z" fill="black"/>
<path d="M173.665 113.58L173.677 113.599C171.688 111.194 168.598 110.512 165.768 110.705C165.507 110.725 165.272 110.75 165.044 110.776C165.746 110.468 166.782 109.823 167.133 108.623C167.133 108.623 166.493 110.298 163.483 111.071C164.459 111.08 166.203 110.859 168.08 111.107C172.859 111.855 172.355 115.885 172.355 115.885C172.717 114.032 171.974 112.768 171.007 111.966C172.203 112.564 173.323 113.503 174.19 114.988C175.431 117.117 175.444 119.635 175.172 121.839C175.046 122.905 175.467 123.847 175.467 123.847C175.467 123.847 175.213 122.941 175.378 121.736C175.695 119.414 175.789 117.152 174.492 114.807C174.886 115.131 176.157 115.921 177.294 115.797C177.298 115.796 175.792 115.832 173.665 113.58Z" fill="black"/>
<path d="M163.559 133.637C163.556 133.635 163.111 133.427 162.437 132.53C161.632 131.452 160.786 131.064 160.125 130.953C160.21 130.818 160.276 130.676 160.315 130.528C160.575 129.577 160.13 128.938 160.081 128.87L159.831 128.532L159.475 128.751C158.524 129.336 157.687 129.472 156.759 129.193C156.541 129.126 156.348 129.045 156.176 128.954C156.527 128.856 156.928 128.694 157.354 128.423C157.468 128.35 157.582 128.267 157.701 128.179C158.326 127.699 158.522 127.017 158.543 126.941L158.693 126.369L158.102 126.365C156.782 126.361 155.097 125.83 154.554 123.362C154.199 121.758 154.546 119.877 155.612 117.606C155.97 116.837 156.013 116.175 155.737 115.744C155.311 115.077 154.591 115.168 154.065 115.24C153.807 115.272 153.54 115.309 153.366 115.257C152.817 115.092 152.634 114.22 152.683 113.654L152.742 112.923L152.06 113.189C152.041 113.198 151.863 113.27 151.62 113.425C151.167 113.714 150.375 114.376 150.139 115.561C149.942 116.548 150.28 117.248 150.578 117.648C150.524 117.69 150.468 117.729 150.411 117.77L150.346 117.811C149.462 118.376 148.442 117.701 148.402 117.675L147.776 117.245L147.691 117.999C147.687 118.043 147.57 119.158 148.303 119.991C148.792 120.545 149.514 120.829 150.451 120.845C150.552 120.845 150.628 120.853 150.685 120.863C149.704 122.062 149.58 123.397 149.445 124.802L149.424 125.003C149.22 127.152 147.662 128.207 147.472 128.328L146.922 128.656L147.416 129.067C147.475 129.117 148.89 130.279 150.325 129.363L150.393 129.316C150.541 129.215 150.664 129.108 150.77 129.006C151.221 129.844 151.873 131.508 150.906 132.902L150.611 133.327L151.072 133.569C151.116 133.59 152.135 134.109 153.243 133.401C153.726 133.091 154.025 132.728 154.213 132.4C154.487 132.735 154.873 133.144 155.377 133.552C156.546 134.497 156.709 135.577 156.716 135.62L156.786 136.166L157.311 136C157.345 135.988 157.665 135.881 157.99 135.674C158.143 135.576 158.273 135.47 158.38 135.359C158.668 135.062 158.834 134.743 158.923 134.444C159.285 134.742 159.764 135.033 160.366 135.179C161.387 135.422 162.476 135.178 163.632 134.44L164.327 133.983L163.559 133.637ZM163.361 134.073C160.178 136.106 158.505 133.308 158.505 133.308C158.505 133.308 158.802 134.262 158.05 135.042C157.962 135.138 157.856 135.221 157.745 135.292C157.459 135.475 157.169 135.565 157.169 135.565C157.169 135.565 157.002 134.283 155.659 133.198C154.547 132.297 154.066 131.409 154.066 131.409C154.066 131.409 154.055 132.334 152.995 133.02L152.984 133.027C152.099 133.592 151.281 133.164 151.281 133.164C152.837 130.923 150.801 128.196 150.801 128.196C150.801 128.196 150.658 128.578 150.132 128.943C150.114 128.956 150.096 128.967 150.077 128.98C148.907 129.727 147.706 128.72 147.706 128.72L147.73 128.705C147.946 128.567 149.65 127.408 149.875 125.051C150.024 123.501 150.108 122.17 151.186 120.976L151.303 120.87L151.247 120.72C151.154 120.495 150.898 120.394 150.457 120.389C147.89 120.352 148.148 118.051 148.148 118.051C148.148 118.051 149.437 118.936 150.594 118.197C150.623 118.179 150.648 118.161 150.678 118.142C150.803 118.051 150.929 117.964 151.037 117.856L151.224 117.678C151.224 117.678 150.319 116.989 150.587 115.653C150.786 114.646 151.447 114.076 151.866 113.808C152.079 113.672 152.229 113.615 152.229 113.615C152.167 114.394 152.434 115.448 153.237 115.692C153.93 115.899 154.916 115.301 155.355 115.989C155.541 116.281 155.488 116.794 155.197 117.41C154.327 119.271 153.661 121.428 154.109 123.459C154.669 125.994 156.389 126.815 158.103 126.822C158.103 126.822 157.947 127.418 157.424 127.814C157.318 127.897 157.213 127.971 157.108 128.038C155.945 128.781 154.993 128.616 154.993 128.616C154.993 128.616 155.577 129.311 156.629 129.631C157.608 129.923 158.586 129.839 159.716 129.139C159.716 129.139 160.085 129.638 159.878 130.407C159.742 130.895 159.07 131.456 159.07 131.456C159.07 131.456 160.621 130.859 162.073 132.801C162.861 133.852 163.383 134.058 163.383 134.058L163.361 134.073Z" fill="black"/>
<path d="M147.901 125.497C148.055 125.398 148.19 125.28 148.301 125.14C148.616 124.751 148.665 124.269 148.721 123.766C148.778 123.25 148.842 122.669 149.194 122.041L149.554 121.392L148.813 121.358C148.752 121.358 148.202 121.343 147.684 121.674C147.257 121.946 146.974 122.374 146.862 122.917C146.59 124.24 145.92 124.76 145.895 124.778L145.361 125.164L145.916 125.531C146.468 125.892 147.304 125.878 147.901 125.497ZM147.308 123.014C147.409 122.52 147.662 122.23 147.93 122.059C148.342 121.795 148.795 121.816 148.795 121.816C148.062 123.127 148.445 124.231 147.945 124.854C147.864 124.958 147.765 125.045 147.657 125.114C147.188 125.413 146.541 125.398 146.163 125.148C146.162 125.147 146.987 124.546 147.308 123.014Z" fill="black"/>
<path d="M153.253 128.363C152.269 126.953 151.888 125.542 151.849 124.205C152.17 125.419 153.003 126.626 154.837 127.076C154.837 127.076 150.97 125.838 152.301 121.187C152.867 119.379 153.799 117.891 154.2 117.002C152.234 119.407 150.446 119.284 150.446 119.284C151.682 119.47 152.703 118.801 153.277 118.292C153.159 118.487 153.034 118.692 152.909 118.919C151.542 121.407 150.862 124.496 152.207 127.313L152.194 127.293C153.344 130.168 152.68 131.519 152.68 131.519C153.27 130.54 153.087 129.056 152.958 128.562C154.541 130.724 156.633 131.59 158.874 132.279C160.036 132.635 160.754 133.245 160.754 133.245C160.754 133.245 160.075 132.468 159.052 132.136C156.942 131.456 154.662 130.385 153.253 128.363Z" fill="black"/>
<path d="M159.63 116.852L159.961 117.37C160 117.04 160.371 116.865 160.371 116.865L160.848 117.612C160.848 117.612 161.071 117.986 161.043 118.228L161.415 117.991L161.785 117.754C161.557 117.677 161.308 117.318 161.308 117.318L160.831 116.571C160.831 116.571 161.146 116.307 161.461 116.412L161.13 115.894L160.381 116.373L159.63 116.852Z" fill="black"/>
<path d="M157.349 113.985C157.707 114.023 157.864 113.966 157.871 113.967L157.992 113.951L157.68 113.463L156.572 113.651C156.573 113.652 156.761 113.928 157.349 113.985Z" fill="black"/>
<path d="M159.424 112.66C159.622 112.101 159.448 111.814 159.448 111.814L158.812 112.74L159.124 113.228L159.188 113.126C159.191 113.119 159.307 113.001 159.424 112.66Z" fill="black"/>
<path d="M159.726 109.67C159.254 108.93 157.591 109.056 156.224 109.929L156.223 109.929L156.219 109.932L156.215 109.934C154.849 110.807 154.035 112.263 154.508 113.003L154.652 113.168L157.21 115.97L156.867 116.641L155.981 118.38L155.985 118.376C155.985 118.376 155.771 118.745 155.688 118.941C155.39 119.663 155.627 120.287 156.085 120.314C155.877 119.816 155.929 119.121 156.589 118.7C157.065 118.396 157.585 118.411 158.115 118.594C158.249 118.64 158.384 118.694 158.52 118.759C158.689 118.842 158.847 118.908 159.003 118.971L155.35 121.304C155.965 121.676 156.588 122.088 156.987 122.713L162.181 130.845C163.438 132.813 165.544 132.791 167.171 131.752C168.43 130.948 168.562 130.782 169.701 131.034C169.948 129.896 170.154 129.846 171.414 129.042C173.043 128.001 173.945 126.102 172.688 124.133L167.494 116.001C167.095 115.377 166.982 114.638 166.905 113.923L163.251 116.257C163.259 116.091 163.265 115.919 163.261 115.731C163.26 115.58 163.266 115.435 163.281 115.295C163.339 114.734 163.543 114.258 164.018 113.954C164.679 113.533 165.33 113.777 165.695 114.176C165.863 113.748 165.399 113.27 164.614 113.24C164.403 113.231 163.979 113.27 163.979 113.27L163.984 113.267L162.034 113.34L161.283 113.369L159.816 109.869L159.726 109.67ZM155.279 113.026L157.616 112.455L159.553 115.487L157.662 115.64L155.279 113.026ZM159.79 119.212C160.306 119.327 160.739 119.325 161.101 119.246C161.16 119.422 161.311 119.768 161.652 119.991C161.929 120.168 162.263 120.229 162.647 120.166C162.879 120.456 163.374 120.8 164.049 120.661C163.965 121.053 163.879 121.427 163.844 121.58L161.623 122.95C161.557 122.956 161.436 122.954 161.347 122.898C161.335 122.89 161.324 122.889 161.313 122.879L161.709 122.709C161.718 122.705 161.725 122.7 161.732 122.696C161.802 122.651 161.832 122.565 161.798 122.485C161.758 122.397 161.658 122.358 161.573 122.396L161.088 122.608L160.491 120.594L159.4 119.908L159.162 121.175L160.247 122.973L159.697 123.213C159.609 123.246 159.572 123.351 159.609 123.437C159.647 123.523 159.746 123.563 159.834 123.527L160.064 123.425C160.017 123.516 159.989 123.581 159.986 123.59L159.963 123.647L159.984 123.708C160.18 124.281 160.756 124.577 161.188 124.598L161.217 124.667C161.254 124.752 161.318 124.815 161.403 124.849C161.487 124.885 161.578 124.881 161.66 124.847C161.677 124.839 161.694 124.83 161.709 124.82C161.837 124.738 161.892 124.577 161.841 124.426C161.96 124.368 162.063 124.306 162.132 124.261L162.19 124.224L165.41 122.905L165.438 122.842C165.565 122.533 166.03 121.331 166.182 120.935C166.304 120.953 166.432 120.959 166.573 120.942C166.68 121.316 166.983 121.803 167.595 121.949L160.242 126.645L157.515 122.377C157.251 121.963 156.865 121.624 156.478 121.331L159.791 119.215L159.79 119.212ZM165.85 120.84C165.696 121.243 165.297 122.274 165.148 122.639L162.224 123.84C162.214 123.812 162.206 123.786 162.196 123.758C162.144 123.599 162.059 123.39 161.921 123.169L164.147 121.798L164.161 121.728C164.173 121.673 164.438 120.549 164.545 119.93C164.698 119.983 164.869 120.017 165.065 120.019C165.182 120.308 165.438 120.664 165.85 120.84ZM161.169 123.187C161.314 123.278 161.482 123.294 161.591 123.294C161.667 123.418 161.777 123.616 161.852 123.804C161.868 123.846 161.881 123.887 161.892 123.928C161.9 123.954 161.906 123.976 161.91 123.993C161.795 124.067 161.558 124.198 161.328 124.248C161.073 124.303 160.523 124.12 160.327 123.656C160.381 123.543 160.513 123.295 160.706 123.172C160.855 123.076 161.001 123.082 161.169 123.187ZM160.56 122.835L159.519 121.108L159.64 120.462L160.198 120.811L160.77 122.741L160.56 122.835ZM170.823 128.679C170.68 128.77 170.549 128.857 170.433 128.938L170.121 127.761C170.083 127.595 169.726 127.578 169.527 127.491C169.743 127.49 170.276 127.448 170.523 127.41C170.522 127.454 170.823 128.679 170.823 128.679ZM171.093 126.943L171.572 128.142C171.454 128.243 171.322 128.341 171.184 128.438L170.742 127.272C170.611 126.925 169.734 127.352 168.947 127.009C168.893 127.357 168.565 127.66 168.193 127.898C167.853 128.114 167.478 128.276 167.246 128.367C167.188 128.392 167.134 128.418 167.086 128.449C166.967 128.526 166.882 128.632 166.888 128.807L166.893 128.946L165.612 129.392L165.63 130.029C165.638 130.129 165.676 130.194 165.784 130.223L165.912 130.258C165.965 130.453 165.89 130.847 165.89 130.847L165.592 130.745C165.367 130.681 165.217 130.399 165.195 130.062L165.157 129.032L166.186 128.567L165.825 128.325C165.345 128.007 165.283 127.251 165.108 126.906C165.16 127.011 165.084 127.09 164.98 127.157C164.884 127.217 164.767 127.267 164.696 127.312C164.669 127.33 164.647 127.347 164.64 127.365L164.484 127.684L164.169 127.634C164.123 127.614 164.063 127.539 164.084 127.442L164.215 126.619L163.252 126.324L164.272 126.221L164.323 125.785C164.428 125.807 164.507 125.992 164.507 125.992C164.752 125.844 165.666 125.788 166.261 126.64C166.28 126.665 166.299 126.695 166.317 126.724C166.317 126.724 166.33 126.731 166.354 126.741C166.444 126.777 166.683 126.862 166.859 126.771L167.992 126.196L167.997 126.193C168.114 126.119 168.258 125.832 168.556 125.642C168.718 125.538 168.926 125.465 169.197 125.464C169.197 125.464 169.245 125.325 169.396 125.216C169.408 125.208 169.421 125.199 169.433 125.192C169.911 124.886 170.386 125.194 170.872 125.391C171.241 125.542 171.758 125.785 171.758 125.785C171.736 125.96 171.687 126.079 171.54 126.173C171.499 126.199 171.45 126.225 171.394 126.248C170.821 126.48 170.071 125.468 169.725 125.57C169.706 125.575 169.689 125.585 169.675 125.594C169.58 125.654 169.592 125.765 169.592 125.765C169.956 126.04 169.972 126.236 170.293 126.423C170.532 126.56 170.831 126.609 170.961 126.639C170.963 126.641 171.041 126.811 171.093 126.943ZM164.726 129.585L164.853 129.678C164.89 129.806 164.619 130.196 164.619 130.196L164.427 130.072C164.223 129.939 164.039 129.612 164.174 129.255L164.538 128.506L165.258 128.236C165.376 128.446 165.592 128.521 165.592 128.521L164.846 128.817L164.624 129.348C164.588 129.438 164.639 129.528 164.726 129.585ZM171.839 127.889L171.41 126.816C171.384 126.754 171.353 126.68 171.327 126.62C171.392 126.609 171.458 126.592 171.524 126.564C171.601 126.534 171.668 126.5 171.725 126.463C172.004 126.285 172.072 126.034 172.1 125.839L172.136 125.585L171.906 125.478C171.884 125.467 171.374 125.226 171.003 125.075C170.93 125.045 170.858 125.015 170.784 124.98C170.35 124.788 169.805 124.547 169.248 124.903L169.199 124.936C169.111 125 169.044 125.069 168.996 125.133C168.768 125.162 168.561 125.235 168.374 125.355C168.144 125.502 167.99 125.689 167.89 125.816C167.86 125.85 167.834 125.883 167.811 125.905L166.705 126.466C166.69 126.472 166.631 126.475 166.54 126.445L166.537 126.44L166.704 126.205C166.159 125.492 165.143 125.487 164.641 125.587C164.575 125.523 164.491 125.47 164.389 125.449L164.029 125.379L163.984 125.742L163.965 125.925L162.124 126.253L163.836 126.844L163.825 127.653C163.781 127.887 164.026 127.936 164.026 127.936L164.583 127.957L164.888 127.551C164.902 127.542 164.916 127.538 164.93 127.531C164.95 127.604 165.078 127.86 165.104 127.938L164.322 128.244L163.856 129.125C163.657 129.642 163.899 130.134 164.24 130.359L164.435 130.485L164.711 130.663L164.898 130.394C164.901 130.39 164.904 130.387 164.904 130.383C165.001 130.736 165.217 130.993 165.499 131.073L165.78 131.17L166.154 131.301L166.224 130.912C166.248 130.802 166.308 130.421 166.242 130.17L166.189 129.979L166 129.928L165.968 129.918L165.96 129.632L167.004 129.268L167.238 129.184L167.231 128.935L167.228 128.799C167.226 128.772 167.227 128.766 167.269 128.739C167.301 128.718 167.336 128.702 167.375 128.687C167.758 128.533 168.095 128.364 168.375 128.185C168.646 128.011 168.802 127.897 168.954 127.708C168.954 127.708 169.797 127.953 169.828 127.964L170.121 129.08L170.144 129.144C169.608 129.551 169.412 129.851 169.293 130.398C168.503 130.224 168.129 130.393 166.831 131.221C165.278 132.213 163.641 131.97 162.707 130.507L160.423 126.931L169.875 120.894L172.162 124.468C172.921 125.654 172.757 126.923 171.839 127.889ZM166.455 114.955C166.556 115.431 166.701 115.924 166.965 116.337L168.671 119.005C168.057 119.265 167.608 118.706 167.588 118.682L167.5 118.566L167.373 118.632C167.118 118.763 166.893 118.761 166.674 118.716C166.228 118.616 165.943 118.173 165.942 118.169C165.953 118.194 165.923 118.799 166.556 119.034C166.823 119.133 167.107 119.118 167.407 118.992C167.683 119.285 168.23 119.597 168.857 119.297L169.692 120.604L168.057 121.648C167.033 121.708 166.878 120.761 166.873 120.72L166.847 120.537L166.668 120.574C165.657 120.791 165.357 119.828 165.347 119.786L165.304 119.645L165.159 119.663C164.284 119.779 163.835 118.873 163.821 118.833C163.722 119.135 163.867 119.528 164.226 119.775C164.205 119.913 164.17 120.087 164.132 120.277C163.32 120.544 162.886 119.912 162.867 119.882L162.802 119.783L162.687 119.806C162.349 119.878 162.065 119.845 161.842 119.699C161.594 119.539 161.479 119.278 161.435 119.145C161.526 119.113 161.614 119.075 161.694 119.032C161.778 118.99 161.863 118.943 161.944 118.891L161.948 118.888L161.954 118.885C162.035 118.833 162.112 118.777 162.185 118.718C162.593 118.397 162.96 117.898 163.145 117.068L166.454 114.954L166.455 114.955ZM162.184 113.885L163.071 113.85L163.081 113.844L163.303 113.836C163.004 114.17 162.842 114.532 162.762 114.922C162.759 114.935 162.756 114.949 162.753 114.963C162.736 115.055 162.723 115.152 162.713 115.247C162.711 115.265 162.71 115.284 162.708 115.304C162.699 115.401 162.695 115.497 162.694 115.595C162.695 115.612 162.694 115.629 162.692 115.645C162.69 115.76 162.694 115.879 162.699 116C162.748 117.091 162.318 118.036 161.666 118.454C161.014 118.869 159.975 118.862 159.006 118.359C158.901 118.305 158.797 118.253 158.692 118.206C158.671 118.197 158.652 118.187 158.634 118.18C158.546 118.143 158.46 118.107 158.374 118.076C158.351 118.067 158.332 118.061 158.311 118.054C158.222 118.025 158.132 117.996 158.044 117.973C158.029 117.971 158.014 117.965 157.998 117.962C157.609 117.871 157.215 117.866 156.785 117.999L156.889 117.799L156.896 117.795L157.3 117.005L157.72 116.198L160.113 116.037L160.115 116.031L160.122 116.031L161.275 113.928L162.184 113.885ZM160.796 113.64L159.861 115.292L157.924 112.259L159.423 110.38L160.796 113.64ZM157.557 112.024L154.921 112.531C154.828 111.991 155.422 111.103 156.52 110.4C157.62 109.698 158.676 109.534 159.126 109.846L157.557 112.024Z" fill="black"/>
<path d="M191.692 108.083L188.626 103.283L191.425 101.496L190.309 99.7491L182.673 104.626L183.789 106.373L186.588 104.585L189.654 109.385L191.692 108.083ZM195.528 101.779L193.095 97.9697L191.125 99.2281L195.306 105.775L197.045 104.664L198.008 98.6845L200.442 102.494L202.412 101.236L198.23 94.6893L196.491 95.8001L195.528 101.779ZM207.485 94.568L209.04 97.0023L211.01 95.7438L206.829 89.1973L204.858 90.4558L206.387 92.8488L203.221 94.8709L201.692 92.4779L199.722 93.7363L203.904 100.283L205.874 99.0244L204.319 96.5901L207.485 94.568ZM216.496 92.2395C216.944 91.9532 217.326 91.6516 217.636 91.2985C218.471 90.3585 218.6 89.0947 217.871 87.9532C217.177 86.8667 216.124 86.4745 214.994 86.7119C214.453 86.8253 213.929 87.1408 213.439 87.4534L211.415 88.7465L210.29 86.9861L208.32 88.2443L212.502 94.7908L216.496 92.2395ZM214.083 89.2109C214.355 89.0371 214.613 88.8723 214.897 88.8073C215.293 88.7089 215.659 88.8624 215.87 89.1925C216.09 89.5363 216.084 89.9467 215.859 90.284C215.703 90.5191 215.486 90.6579 215.146 90.875L213.461 91.951L212.399 90.2869L214.083 89.2109ZM221.368 85.6419L225.3 86.6159L227.922 84.9413L222.47 83.6216L223.619 78.4727L221.146 80.0521L220.34 84.0328L219.797 84.3797L218.225 81.9179L216.255 83.176L220.437 89.7225L222.406 88.4644L220.825 85.9888L221.368 85.6419ZM227.68 75.6268C225.031 77.3191 224.408 79.847 225.655 81.7999C226.903 83.7529 229.458 84.2507 232.108 82.5584C234.744 80.8744 235.367 78.3461 234.12 76.393C232.873 74.4401 230.316 73.9428 227.68 75.6268ZM231.088 80.963C229.771 81.8047 228.42 81.5446 227.734 80.4718C227.049 79.3991 227.39 78.0775 228.708 77.2359C230.012 76.4025 231.369 76.6398 232.054 77.7125C232.739 78.7853 232.393 80.1297 231.088 80.963ZM238.344 68.5438L236.374 69.8023L236.796 70.4624C234.358 72.0969 233.553 74.1021 234.748 75.9726C235.943 77.843 238.048 77.8733 240.556 76.3489L240.977 77.009L242.948 75.7505L242.526 75.0904C244.976 73.4476 245.834 71.5249 244.639 69.6545C243.445 67.784 241.287 67.6713 238.766 69.2039L238.344 68.5438ZM239.66 74.9461C238.266 75.759 237.308 75.577 236.745 74.6968C236.183 73.8165 236.377 72.8021 237.701 71.8791L239.66 74.9461ZM239.671 70.6206C241.078 69.799 242.066 70.0587 242.628 70.9389C243.191 71.8192 242.967 72.7559 241.63 73.6875L239.671 70.6206ZM248.865 61.8235L246.895 63.082L247.317 63.7421C244.879 65.3766 244.075 67.3811 245.27 69.2515C246.465 71.1219 248.569 71.153 251.077 69.6286L251.498 70.2887L253.469 69.0302L253.047 68.3701C255.499 66.7266 256.356 64.8042 255.161 62.9338C253.966 61.0633 251.809 60.9502 249.287 62.4836L248.865 61.8235ZM250.181 68.2257C248.787 69.0383 247.829 68.8563 247.267 67.9761C246.705 67.0959 246.899 66.0814 248.222 65.1588L250.181 68.2257ZM250.192 63.9003C251.6 63.0786 252.588 63.338 253.15 64.2183C253.712 65.0985 253.488 66.0356 252.151 66.9672L250.192 63.9003Z" fill="black"/>
</g>
</g>
<g clip-path="url(#clip3_153_2691)">
<rect x="202" y="222.043" width="215.572" height="54.1813" rx="4" transform="rotate(-32.5682 202 222.043)" fill="white"/>
<path d="M218.11 225.469L380.01 122.056L396.731 148.236L234.832 251.648L218.11 225.469Z" fill="white"/>
<path d="M296.42 197.226C297.175 198.341 298.059 199.053 299.073 199.362C300.087 199.671 301.121 199.49 302.174 198.818C303.227 198.145 303.818 197.289 303.948 196.248C304.094 195.198 303.812 194.101 303.104 192.957C302.374 191.849 301.507 191.147 300.502 190.853C299.503 190.533 298.477 190.71 297.424 191.382C296.372 192.055 295.768 192.909 295.612 193.944C295.457 194.979 295.726 196.073 296.42 197.226ZM247.125 228.682C247.927 229.936 248.845 230.701 249.88 230.975C250.906 231.236 251.96 231.019 253.043 230.327C254.142 229.626 254.789 228.755 254.984 227.715C255.185 226.651 254.885 225.491 254.084 224.237C253.301 223.012 252.408 222.286 251.401 222.056C250.386 221.811 249.321 222.044 248.207 222.756C247.108 223.458 246.457 224.321 246.251 225.346C246.052 226.345 246.343 227.457 247.125 228.682V228.682ZM280.774 199.272C283.608 201.421 286.33 203.597 288.942 205.802C288.013 202.565 287.152 199.199 286.36 195.704L289.152 193.921L292.352 208.316C292.609 209.491 292.741 210.439 292.75 211.157C292.726 211.896 292.538 212.559 292.183 213.147C291.854 213.741 291.269 214.305 290.43 214.841C289.957 215.144 289.693 215.303 289.637 215.316L287.309 213.74C287.637 213.615 288.014 213.416 288.442 213.142C288.961 212.811 289.333 212.468 289.556 212.112C289.769 211.806 289.884 211.498 289.902 211.189C289.929 210.895 289.899 210.563 289.813 210.193L277.845 201.143L280.774 199.272ZM266.309 208.512L276.952 201.714L278.342 203.89L274.405 206.405L280.327 215.677L277.512 217.475L271.59 208.203L267.699 210.688L266.309 208.512ZM254.842 215.836L257.611 214.068L260.391 218.421L265.129 215.394L262.349 211.041L265.096 209.287L272.408 220.735L269.661 222.49L266.577 217.661L261.839 220.687L264.923 225.516L262.154 227.285L254.842 215.836ZM290.091 193.321L292.677 191.669L293.676 193.234C293.687 192.376 293.919 191.578 294.372 190.842C294.831 190.081 295.587 189.364 296.64 188.691C297.723 188 298.839 187.627 299.988 187.575C301.115 187.557 302.194 187.867 303.225 188.506C304.263 189.121 305.158 190.018 305.91 191.196C306.673 192.391 307.12 193.594 307.251 194.809C307.388 195.998 307.211 197.101 306.721 198.116C306.503 198.616 306.174 199.093 305.732 199.545C305.315 200.002 304.847 200.397 304.329 200.728C303.429 201.303 302.714 201.664 302.184 201.811C301.095 202.125 300.157 202.085 299.37 201.695L302.787 207.044L299.995 208.828L290.091 193.321ZM244.324 230.502C243.523 229.248 243.113 227.967 243.094 226.66C243.099 225.422 243.44 224.257 244.118 223.165C244.795 222.073 245.698 221.166 246.828 220.445C247.987 219.704 249.178 219.263 250.398 219.122C251.674 218.967 252.888 219.17 254.042 219.731C255.186 220.277 256.158 221.177 256.959 222.432C257.77 223.701 258.188 224.977 258.212 226.26C258.226 227.527 257.905 228.722 257.247 229.845C256.595 230.943 255.703 231.852 254.574 232.573C253.46 233.285 252.261 233.711 250.975 233.851C249.674 234.001 248.439 233.8 247.271 233.248C246.108 232.671 245.126 231.757 244.324 230.502V230.502ZM237.58 231.044L248.924 235.736L245.605 237.856L235.881 233.884L233.432 235.448L238.052 242.68L235.145 244.537L226.587 231.139L224.39 232.543L224.132 228.909L227.771 226.585L231.84 232.955L234.289 231.39L235.072 221.921L238.368 219.816L237.58 231.044" fill="#262424"/>
<path d="M383.867 142.423L381.876 143.695L385.105 148.751L383.137 150.008L375.824 138.56L377.792 137.303L380.862 142.109L382.876 140.822L383.606 133.589L385.711 132.244L384.904 140.517L393.391 143.458L391.147 144.891L383.867 142.423ZM367.311 152.074C367.871 152.95 368.526 153.606 369.277 154.04C370.048 154.507 370.854 154.726 371.696 154.698C372.538 154.671 373.363 154.399 374.172 153.883C374.981 153.366 375.57 152.725 375.939 151.957C376.317 151.204 376.454 150.393 376.35 149.523C376.261 148.643 375.942 147.774 375.392 146.912L375.333 146.821C374.783 145.96 374.133 145.311 373.382 144.876C372.631 144.44 371.827 144.242 370.969 144.279C370.127 144.306 369.317 144.568 368.539 145.065C367.761 145.562 367.178 146.179 366.789 146.917C366.41 147.669 366.258 148.49 366.331 149.379C366.406 150.268 366.713 151.137 367.253 151.982L367.311 152.074ZM377.405 145.626C378.158 146.804 378.572 148.008 378.648 149.236C378.719 150.49 378.459 151.666 377.872 152.764C377.275 153.847 376.389 154.765 375.215 155.515C374.024 156.275 372.815 156.687 371.586 156.747C370.337 156.843 369.163 156.604 368.065 156.029C366.982 155.443 366.06 154.553 365.298 153.36L365.239 153.269C364.496 152.105 364.099 150.911 364.048 149.689C363.972 148.461 364.233 147.305 364.83 146.221C365.417 145.122 366.306 144.193 367.497 143.433C368.671 142.682 369.876 142.264 371.11 142.178C372.344 142.092 373.502 142.341 374.585 142.926C375.683 143.502 376.604 144.371 377.347 145.535L377.405 145.626ZM358.299 151.989L353.332 155.162L355.053 157.956C355.954 159.402 356.598 160.629 356.984 161.637C357.371 162.646 357.526 163.494 357.45 164.181L363.584 160.263L358.299 151.989ZM354.383 166.141L355.458 165.454C355.596 164.727 355.491 163.858 355.146 162.845C354.805 161.807 354.162 160.514 353.218 158.969L350.555 154.7L359.253 149.144L365.552 159.006L367.246 157.924L370.07 162.345L368.17 163.558L366.36 160.724L357.273 166.528L359.083 169.362L357.206 170.561L354.383 166.141ZM345.731 166.4C344.579 167.22 343.865 167.953 343.59 168.598C343.314 169.242 343.407 169.927 343.87 170.653L343.943 170.766C344.319 171.355 344.83 171.667 345.476 171.702C346.136 171.726 346.878 171.476 347.703 170.95C348.359 170.531 348.879 170.017 349.265 169.41C349.65 168.801 349.85 168.174 349.866 167.525C349.872 166.862 349.687 166.236 349.31 165.646L348.528 164.422L345.731 166.4ZM352.11 169.827L351.125 168.285C351.099 169.153 350.849 169.973 350.374 170.744C349.89 171.5 349.199 172.165 348.298 172.74C347.017 173.559 345.826 173.914 344.726 173.808C343.643 173.692 342.768 173.113 342.102 172.07L342.029 171.956C341.296 170.808 341.144 169.681 341.577 168.575C342.015 167.444 343.059 166.288 344.71 165.105L347.602 162.971L347.109 162.2C346.588 161.384 345.96 160.924 345.227 160.817C344.483 160.696 343.662 160.923 342.761 161.498C342.014 161.976 341.431 162.56 341.014 163.253C340.602 163.92 340.3 164.794 340.109 165.873L338.126 165.544C338.44 163.109 339.627 161.234 341.687 159.918C343.167 158.973 344.541 158.584 345.81 158.753C347.077 158.922 348.108 159.626 348.899 160.865L353.895 168.686L352.11 169.827ZM334.351 165.05L341.664 176.499L339.787 177.698L336.877 173.141C335.496 170.98 334.494 169.343 333.869 168.232C333.917 168.946 333.914 170.118 333.86 171.749L333.774 174.389L333.652 181.616L331.547 182.961L324.234 171.513L326.089 170.328L329.433 175.565C330.042 176.517 330.429 177.142 330.598 177.439L332 179.736C331.944 178.302 331.947 176.407 332.009 174.048L332.223 166.41L334.351 165.05ZM316.162 172.583L309.158 177.057L311.936 181.507C313.224 183.557 314.142 185.332 314.692 186.832C315.232 188.317 315.492 189.63 315.469 190.772L324.212 185.188L316.162 172.583ZM317.153 169.493L326.319 183.842L328.264 182.6L331.522 187.701L329.486 189.002L327.342 185.647L315.12 193.454L317.263 196.809L315.203 198.125L311.944 193.024L313.295 192.161C313.44 190.303 312.912 188.182 311.712 185.799C311.138 184.698 310.525 183.621 309.874 182.568L306.098 176.554L317.153 169.493" fill="#00A99B"/>
</g>
<defs>
<clipPath id="clip0_153_2691">
<rect width="159.582" height="32.1096" fill="white" transform="translate(28.8883 109.262) rotate(-32.5682)"/>
</clipPath>
<clipPath id="clip1_153_2691">
<rect x="113" y="120.944" width="174.519" height="53.3653" rx="4" transform="rotate(-32.5682 113 120.944)" fill="white"/>
</clipPath>
<clipPath id="clip2_153_2691">
<rect width="127.624" height="33.9597" fill="white" transform="translate(137.984 116.499) rotate(-32.5682)"/>
</clipPath>
<clipPath id="clip3_153_2691">
<rect x="202" y="222.043" width="215.572" height="54.1813" rx="4" transform="rotate(-32.5682 202 222.043)" fill="white"/>
</clipPath>
</defs>
</svg>
