<svg width="57" height="40" viewBox="0 0 57 40" fill="none" xmlns="http://www.w3.org/2000/svg">
<path d="M0 4C0 1.79086 1.79086 0 4 0H53C55.2091 0 57 1.79086 57 4V36C57 38.2091 55.2091 40 53 40H4C1.79086 40 0 38.2091 0 36V4Z" fill="white"/>
<path d="M37.1596 10H19.8404C14.4282 10 10 14.5 10 20C10 25.5 14.4282 30 19.8404 30H37.1596C42.5718 30 47 25.5 47 20C47 14.5 42.5718 10 37.1596 10Z" fill="white"/>
<path d="M37.1596 10.81C38.3749 10.81 39.5557 11.055 40.6677 11.535C41.7452 12 42.7096 12.665 43.546 13.51C44.3775 14.355 45.0319 15.34 45.4895 16.435C45.9618 17.565 46.2029 18.765 46.2029 20C46.2029 21.235 45.9618 22.435 45.4895 23.565C45.0319 24.66 44.3775 25.64 43.546 26.49C42.7145 27.335 41.7452 28 40.6677 28.465C39.5557 28.945 38.3749 29.19 37.1596 29.19H19.8404C18.6251 29.19 17.4443 28.945 16.3323 28.465C15.2548 28 14.2904 27.335 13.454 26.49C12.6225 25.645 11.9681 24.66 11.5105 23.565C11.0382 22.435 10.7971 21.235 10.7971 20C10.7971 18.765 11.0382 17.565 11.5105 16.435C11.9681 15.34 12.6225 14.36 13.454 13.51C14.2855 12.665 15.2548 12 16.3323 11.535C17.4443 11.055 18.6251 10.81 19.8404 10.81H37.1596ZM37.1596 10H19.8404C14.4282 10 10 14.5 10 20C10 25.5 14.4282 30 19.8404 30H37.1596C42.5718 30 47 25.5 47 20C47 14.5 42.5718 10 37.1596 10Z" fill="#3C4043"/>
<path d="M27.6439 20.71V23.735H26.6992V16.265H29.2036C29.8383 16.265 30.3795 16.48 30.8224 16.91C31.275 17.34 31.5013 17.865 31.5013 18.485C31.5013 19.12 31.275 19.645 30.8224 20.07C30.3845 20.495 29.8432 20.705 29.2036 20.705H27.6439V20.71ZM27.6439 17.185V19.79H29.2233C29.5972 19.79 29.9121 19.66 30.1581 19.405C30.4091 19.15 30.537 18.84 30.537 18.49C30.537 18.145 30.4091 17.84 30.1581 17.585C29.9121 17.32 29.6021 17.19 29.2233 17.19H27.6439V17.185Z" fill="#3C4043"/>
<path d="M33.9713 18.455C34.6699 18.455 35.221 18.645 35.6245 19.025C36.0279 19.405 36.2296 19.925 36.2296 20.585V23.735H35.3293V23.025H35.2899C34.9012 23.61 34.3796 23.9 33.7302 23.9C33.1742 23.9 32.7117 23.735 32.3378 23.4C31.9638 23.065 31.7769 22.65 31.7769 22.15C31.7769 21.62 31.9737 21.2 32.3673 20.89C32.7609 20.575 33.2874 20.42 33.9417 20.42C34.5027 20.42 34.9652 20.525 35.3243 20.735V20.515C35.3243 20.18 35.1964 19.9 34.9356 19.665C34.6749 19.43 34.3698 19.315 34.0205 19.315C33.494 19.315 33.0758 19.54 32.7707 19.995L31.9392 19.465C32.3968 18.79 33.0758 18.455 33.9713 18.455ZM32.7511 22.165C32.7511 22.415 32.8544 22.625 33.066 22.79C33.2726 22.955 33.5186 23.04 33.7991 23.04C34.1976 23.04 34.5519 22.89 34.8618 22.59C35.1718 22.29 35.3293 21.94 35.3293 21.535C35.034 21.3 34.6257 21.18 34.0992 21.18C33.7154 21.18 33.3956 21.275 33.1398 21.46C32.879 21.655 32.7511 21.89 32.7511 22.165Z" fill="#3C4043"/>
<path d="M41.3664 18.62L38.2174 25.98H37.2432L38.4142 23.405L36.3379 18.62H37.3662L38.862 22.29H38.8816L40.338 18.62H41.3664Z" fill="#3C4043"/>
<path d="M23.8867 20.1C23.8867 19.787 23.8591 19.4875 23.8079 19.1995H19.8481V20.8495L22.1287 20.85C22.0362 21.399 21.7385 21.867 21.2824 22.179V23.2495H22.6399C23.4325 22.504 23.8867 21.402 23.8867 20.1Z" fill="#4285F4"/>
<path d="M21.2827 22.179C20.9048 22.438 20.4182 22.5895 19.8489 22.5895C18.7493 22.5895 17.8164 21.8365 17.4823 20.8215H16.082V21.9255C16.7758 23.3245 18.2017 24.2845 19.8489 24.2845C20.9875 24.2845 21.944 23.904 22.6402 23.249L21.2827 22.179Z" fill="#34A853"/>
<path d="M17.3505 20.0025C17.3505 19.7175 17.3972 19.442 17.4823 19.183V18.079H16.082C15.7952 18.6575 15.6338 19.3105 15.6338 20.0025C15.6338 20.6945 15.7957 21.3475 16.082 21.926L17.4823 20.822C17.3972 20.563 17.3505 20.2875 17.3505 20.0025Z" fill="#FABB05"/>
<path d="M19.8489 17.415C20.4704 17.415 21.0268 17.6325 21.4662 18.0575L22.6692 16.836C21.9386 16.1445 20.986 15.72 19.8489 15.72C18.2022 15.72 16.7758 16.68 16.082 18.079L17.4823 19.183C17.8164 18.168 18.7493 17.415 19.8489 17.415Z" fill="#E94235"/>
</svg>
