<svg width="90" height="40" viewBox="0 0 90 40" fill="none" xmlns="http://www.w3.org/2000/svg">
<path d="M0 4C0 1.79086 1.79086 0 4 0H86C88.2091 0 90 1.79086 90 4V36C90 38.2091 88.2091 40 86 40H4C1.79086 40 0 38.2091 0 36V4Z" fill="#0D0D0D"/>
<rect x="8" y="8" width="24" height="24" rx="4" fill="#313335"/>
<path d="M16.0094 16.1172V15.3151C16.0094 14.671 16.2404 14.1241 16.7026 13.6745C17.1647 13.2248 17.7268 13 18.3888 13H21.5738C21.886 13 22.192 13.0608 22.4918 13.1823C22.7916 13.3038 23.0539 13.474 23.2787 13.6927C23.516 13.9115 23.6909 14.1667 23.8033 14.4583C23.9282 14.75 23.9906 15.0538 23.9906 15.3698C23.9906 15.5521 23.9906 15.7161 23.9906 15.862C23.9906 15.9957 23.9906 16.0747 23.9906 16.099C23.9906 16.099 23.9906 16.105 23.9906 16.1172H25.6019C25.9141 16.1172 26.2139 16.178 26.5012 16.2995C26.8009 16.4089 27.0632 16.5729 27.2881 16.7917C27.5129 17.0104 27.6877 17.2656 27.8126 17.5573C27.9375 17.8368 28 18.1285 28 18.4323V24.6667C28 24.9705 27.9375 25.2622 27.8126 25.5417C27.6877 25.8333 27.5129 26.0885 27.2881 26.3073C27.0632 26.526 26.8009 26.6962 26.5012 26.8177C26.2139 26.9392 25.9079 27 25.5831 27H14.3794C13.7299 27 13.1678 26.7752 12.6932 26.3255C12.2311 25.8759 12 25.329 12 24.6849V18.4505C12 17.8064 12.2373 17.2595 12.7119 16.8099C13.1866 16.3481 13.7549 16.1172 14.4169 16.1172H16.0094ZM13.6112 21.2578V24.6849C13.6112 24.8915 13.6862 25.0677 13.8361 25.2135C13.9859 25.3715 14.1671 25.4505 14.3794 25.4505C14.3794 25.4505 14.9664 25.4505 16.1405 25.4505C17.3021 25.4505 18.5824 25.4505 19.9813 25.4505C21.3802 25.4505 22.6667 25.4505 23.8407 25.4505C25.0023 25.4505 25.5831 25.4505 25.5831 25.4505C25.6955 25.4505 25.8017 25.4262 25.9016 25.3776C26.0016 25.3411 26.089 25.2865 26.1639 25.2135C26.2389 25.1406 26.2951 25.0556 26.3326 24.9583C26.37 24.8611 26.3888 24.7639 26.3888 24.6667V21.2578L24.3466 22.2422C24.2966 22.2786 24.2404 22.303 24.178 22.3151C24.1155 22.3273 24.0531 22.3333 23.9906 22.3333H16.0094C15.9469 22.3333 15.8845 22.3273 15.822 22.3151C15.7596 22.303 15.7034 22.2786 15.6534 22.2422L13.6112 21.2578ZM26.3888 19.526V18.4323C26.3888 18.3351 26.37 18.2378 26.3326 18.1406C26.2951 18.0434 26.2389 17.9583 26.1639 17.8854C26.089 17.8125 26.0016 17.7578 25.9016 17.7214C25.8017 17.6849 25.7018 17.6667 25.6019 17.6667C25.6019 17.6667 25.0211 17.6667 23.8595 17.6667C22.6854 17.6667 21.3989 17.6667 20 17.6667C18.6136 17.6667 17.3333 17.6667 16.1593 17.6667C14.9977 17.6667 14.4169 17.6667 14.4169 17.6667C14.192 17.6667 13.9984 17.7457 13.8361 17.9036C13.6862 18.0495 13.6112 18.2318 13.6112 18.4505V19.526L16.1967 20.7839C16.1967 20.7839 16.5902 20.7839 17.377 20.7839C18.1764 20.7839 19.0507 20.7839 20 20.7839C20.9493 20.7839 21.8236 20.7839 22.623 20.7839C23.4098 20.7839 23.8033 20.7839 23.8033 20.7839L26.3888 19.526ZM22.3981 16.1172C22.3981 16.1172 22.3981 15.9957 22.3981 15.7526C22.3981 15.4974 22.3981 15.3698 22.3981 15.3698C22.3981 15.2604 22.3731 15.1571 22.3232 15.0599C22.2857 14.9627 22.2295 14.8715 22.1546 14.7865C22.0796 14.7135 21.9859 14.6589 21.8735 14.6224C21.7736 14.5738 21.6737 14.5495 21.5738 14.5495H18.3888C18.1639 14.5495 17.9766 14.6285 17.8267 14.7865C17.6768 14.9323 17.6019 15.1085 17.6019 15.3151V16.099C17.6019 16.099 17.6019 16.105 17.6019 16.1172H22.3981Z" fill="white"/>
<path d="M41.0391 13.9766V14.3359C41.0391 14.763 40.9857 15.1458 40.8789 15.4844C40.7721 15.8229 40.6185 16.1107 40.418 16.3477C40.2174 16.5846 39.9766 16.7656 39.6953 16.8906C39.4167 17.0156 39.1042 17.0781 38.7578 17.0781C38.4219 17.0781 38.1133 17.0156 37.832 16.8906C37.5534 16.7656 37.3112 16.5846 37.1055 16.3477C36.9023 16.1107 36.7448 15.8229 36.6328 15.4844C36.5208 15.1458 36.4648 14.763 36.4648 14.3359V13.9766C36.4648 13.5495 36.5195 13.168 36.6289 12.832C36.7409 12.4935 36.8984 12.2057 37.1016 11.9688C37.3047 11.7292 37.5456 11.5469 37.8242 11.4219C38.1055 11.2969 38.4141 11.2344 38.75 11.2344C39.0964 11.2344 39.4089 11.2969 39.6875 11.4219C39.9688 11.5469 40.2096 11.7292 40.4102 11.9688C40.6133 12.2057 40.7682 12.4935 40.875 12.832C40.9844 13.168 41.0391 13.5495 41.0391 13.9766ZM40.293 14.3359V13.9688C40.293 13.6302 40.2578 13.3307 40.1875 13.0703C40.1198 12.8099 40.0195 12.5911 39.8867 12.4141C39.7539 12.237 39.5911 12.1029 39.3984 12.0117C39.2083 11.9206 38.9922 11.875 38.75 11.875C38.5156 11.875 38.3034 11.9206 38.1133 12.0117C37.9258 12.1029 37.7643 12.237 37.6289 12.4141C37.4961 12.5911 37.3932 12.8099 37.3203 13.0703C37.2474 13.3307 37.2109 13.6302 37.2109 13.9688V14.3359C37.2109 14.6771 37.2474 14.9792 37.3203 15.2422C37.3932 15.5026 37.4974 15.7227 37.6328 15.9023C37.7708 16.0794 37.9336 16.2135 38.1211 16.3047C38.3112 16.3958 38.5234 16.4414 38.7578 16.4414C39.0026 16.4414 39.2201 16.3958 39.4102 16.3047C39.6003 16.2135 39.7604 16.0794 39.8906 15.9023C40.0234 15.7227 40.1237 15.5026 40.1914 15.2422C40.2591 14.9792 40.293 14.6771 40.293 14.3359ZM45.035 12.7734V13.3711H42.8983V12.7734H45.035ZM43.0037 12.7734V17H42.2811V12.7734H43.0037ZM45.6756 12.7734V17H44.9491V12.7734H45.6756ZM49.82 12.7734V13.3711H47.777V12.7734H49.82ZM50.4567 12.7734V17H49.7341V12.7734H50.4567ZM47.6012 12.7734H48.3278L48.2184 14.8125C48.2002 15.1276 48.1703 15.4062 48.1286 15.6484C48.0895 15.888 48.0348 16.0938 47.9645 16.2656C47.8968 16.4375 47.8109 16.5781 47.7067 16.6875C47.6052 16.7943 47.4828 16.8737 47.3395 16.9258C47.1963 16.9753 47.0309 17 46.8434 17H46.6169V16.3633L46.7731 16.3516C46.8851 16.3438 46.9802 16.3177 47.0583 16.2734C47.139 16.2292 47.2067 16.1641 47.2614 16.0781C47.3161 15.9896 47.3604 15.8763 47.3942 15.7383C47.4307 15.6003 47.458 15.4362 47.4762 15.2461C47.4971 15.056 47.5127 14.8346 47.5231 14.582L47.6012 12.7734ZM54.273 16.2773V14.1016C54.273 13.9349 54.2391 13.7904 54.1714 13.668C54.1063 13.543 54.0073 13.4466 53.8745 13.3789C53.7417 13.3112 53.5777 13.2773 53.3823 13.2773C53.2001 13.2773 53.0399 13.3086 52.9019 13.3711C52.7665 13.4336 52.6597 13.5156 52.5816 13.6172C52.506 13.7188 52.4683 13.8281 52.4683 13.9453H51.7456C51.7456 13.7943 51.7847 13.6445 51.8628 13.4961C51.9409 13.3477 52.0529 13.2135 52.1987 13.0938C52.3472 12.9714 52.5243 12.875 52.73 12.8047C52.9383 12.7318 53.1701 12.6953 53.4253 12.6953C53.7326 12.6953 54.0034 12.7474 54.2378 12.8516C54.4748 12.9557 54.6597 13.1133 54.7925 13.3242C54.9279 13.5326 54.9956 13.7943 54.9956 14.1094V16.0781C54.9956 16.2188 55.0073 16.3685 55.0308 16.5273C55.0568 16.6862 55.0946 16.8229 55.1441 16.9375V17H54.3902C54.3537 16.9167 54.3251 16.806 54.3042 16.668C54.2834 16.5273 54.273 16.3971 54.273 16.2773ZM54.398 14.4375L54.4058 14.9453H53.6753C53.4696 14.9453 53.286 14.9622 53.1245 14.9961C52.9631 15.0273 52.8277 15.0755 52.7183 15.1406C52.6089 15.2057 52.5256 15.2878 52.4683 15.3867C52.411 15.4831 52.3823 15.5964 52.3823 15.7266C52.3823 15.8594 52.4123 15.9805 52.4722 16.0898C52.5321 16.1992 52.6219 16.2865 52.7417 16.3516C52.8641 16.4141 53.0139 16.4453 53.1909 16.4453C53.4123 16.4453 53.6076 16.3984 53.7769 16.3047C53.9461 16.2109 54.0803 16.0964 54.1792 15.9609C54.2808 15.8255 54.3355 15.694 54.3433 15.5664L54.6519 15.9141C54.6336 16.0234 54.5842 16.1445 54.5034 16.2773C54.4227 16.4102 54.3146 16.5378 54.1792 16.6602C54.0464 16.7799 53.8876 16.8802 53.7027 16.9609C53.5204 17.0391 53.3146 17.0781 53.0855 17.0781C52.799 17.0781 52.5477 17.0221 52.3316 16.9102C52.118 16.7982 51.9514 16.6484 51.8316 16.4609C51.7144 16.2708 51.6558 16.0586 51.6558 15.8242C51.6558 15.5977 51.7001 15.3984 51.7886 15.2266C51.8771 15.0521 52.0047 14.9076 52.1714 14.793C52.3381 14.6758 52.5386 14.5872 52.773 14.5273C53.0073 14.4674 53.2691 14.4375 53.5581 14.4375H54.398ZM57.9525 12.7734V17H57.2259V12.7734H57.9525ZM59.3705 12.7734V13.3594H55.8353V12.7734H59.3705ZM62.6711 16.2773V14.1016C62.6711 13.9349 62.6372 13.7904 62.5695 13.668C62.5044 13.543 62.4055 13.4466 62.2727 13.3789C62.1398 13.3112 61.9758 13.2773 61.7805 13.2773C61.5982 13.2773 61.438 13.3086 61.3 13.3711C61.1646 13.4336 61.0578 13.5156 60.9797 13.6172C60.9042 13.7188 60.8664 13.8281 60.8664 13.9453H60.1437C60.1437 13.7943 60.1828 13.6445 60.2609 13.4961C60.3391 13.3477 60.451 13.2135 60.5969 13.0938C60.7453 12.9714 60.9224 12.875 61.1281 12.8047C61.3365 12.7318 61.5682 12.6953 61.8234 12.6953C62.1307 12.6953 62.4016 12.7474 62.6359 12.8516C62.8729 12.9557 63.0578 13.1133 63.1906 13.3242C63.326 13.5326 63.3937 13.7943 63.3937 14.1094V16.0781C63.3937 16.2188 63.4055 16.3685 63.4289 16.5273C63.4549 16.6862 63.4927 16.8229 63.5422 16.9375V17H62.7883C62.7518 16.9167 62.7232 16.806 62.7023 16.668C62.6815 16.5273 62.6711 16.3971 62.6711 16.2773ZM62.7961 14.4375L62.8039 14.9453H62.0734C61.8677 14.9453 61.6841 14.9622 61.5227 14.9961C61.3612 15.0273 61.2258 15.0755 61.1164 15.1406C61.007 15.2057 60.9237 15.2878 60.8664 15.3867C60.8091 15.4831 60.7805 15.5964 60.7805 15.7266C60.7805 15.8594 60.8104 15.9805 60.8703 16.0898C60.9302 16.1992 61.0201 16.2865 61.1398 16.3516C61.2622 16.4141 61.412 16.4453 61.5891 16.4453C61.8104 16.4453 62.0057 16.3984 62.175 16.3047C62.3443 16.2109 62.4784 16.0964 62.5773 15.9609C62.6789 15.8255 62.7336 15.694 62.7414 15.5664L63.05 15.9141C63.0318 16.0234 62.9823 16.1445 62.9016 16.2773C62.8208 16.4102 62.7128 16.5378 62.5773 16.6602C62.4445 16.7799 62.2857 16.8802 62.1008 16.9609C61.9185 17.0391 61.7128 17.0781 61.4836 17.0781C61.1971 17.0781 60.9458 17.0221 60.7297 16.9102C60.5161 16.7982 60.3495 16.6484 60.2297 16.4609C60.1125 16.2708 60.0539 16.0586 60.0539 15.8242C60.0539 15.5977 60.0982 15.3984 60.1867 15.2266C60.2753 15.0521 60.4029 14.9076 60.5695 14.793C60.7362 14.6758 60.9367 14.5872 61.1711 14.5273C61.4055 14.4674 61.6672 14.4375 61.9562 14.4375H62.7961ZM67.5966 12.7734H68.3192L68.2567 14.3555C68.2411 14.7565 68.1955 15.1029 68.12 15.3945C68.0445 15.6862 67.9481 15.9349 67.8309 16.1406C67.7138 16.3438 67.5822 16.5143 67.4364 16.6523C67.2932 16.7904 67.1447 16.9062 66.9911 17H66.6317L66.6513 16.4102L66.7997 16.4062C66.8856 16.3047 66.969 16.2005 67.0497 16.0938C67.1304 15.9844 67.2046 15.8555 67.2723 15.707C67.3401 15.556 67.396 15.3724 67.4403 15.1562C67.4872 14.9375 67.5171 14.6706 67.5302 14.3555L67.5966 12.7734ZM67.7763 12.7734H70.3192V17H69.5966V13.4414H67.7763V12.7734ZM66.4677 16.4062H70.8622V18.2461H70.1395V17H67.1903V18.2461H66.4638L66.4677 16.4062ZM74.6472 12.7734V13.3711H72.6042V12.7734H74.6472ZM75.2839 12.7734V17H74.5612V12.7734H75.2839ZM72.4284 12.7734H73.155L73.0456 14.8125C73.0274 15.1276 72.9974 15.4062 72.9558 15.6484C72.9167 15.888 72.862 16.0938 72.7917 16.2656C72.724 16.4375 72.6381 16.5781 72.5339 16.6875C72.4323 16.7943 72.3099 16.8737 72.1667 16.9258C72.0235 16.9753 71.8581 17 71.6706 17H71.4441V16.3633L71.6003 16.3516C71.7123 16.3438 71.8073 16.3177 71.8855 16.2734C71.9662 16.2292 72.0339 16.1641 72.0886 16.0781C72.1433 15.9896 72.1876 15.8763 72.2214 15.7383C72.2579 15.6003 72.2852 15.4362 72.3034 15.2461C72.3243 15.056 72.3399 14.8346 72.3503 14.582L72.4284 12.7734ZM77.4634 14.9844H78.2447L77.022 17H76.2408L77.4634 14.9844ZM78.0689 12.7734H79.8345V17H79.1119V13.3594H78.0689C77.8632 13.3594 77.6952 13.3945 77.565 13.4648C77.4348 13.5326 77.3397 13.6211 77.2798 13.7305C77.2199 13.8398 77.19 13.9531 77.19 14.0703C77.19 14.1849 77.2173 14.2956 77.272 14.4023C77.3267 14.5065 77.4127 14.5924 77.5298 14.6602C77.647 14.7279 77.7981 14.7617 77.983 14.7617H79.3072V15.3555H77.983C77.7408 15.3555 77.5259 15.3229 77.3384 15.2578C77.1509 15.1927 76.9921 15.1029 76.8619 14.9883C76.7317 14.8711 76.6327 14.7344 76.565 14.5781C76.4973 14.4193 76.4634 14.2474 76.4634 14.0625C76.4634 13.8776 76.4986 13.707 76.5689 13.5508C76.6418 13.3945 76.746 13.2578 76.8814 13.1406C77.0194 13.0234 77.1874 12.9336 77.3853 12.8711C77.5858 12.806 77.8137 12.7734 78.0689 12.7734ZM38.957 26.5664V27.1562H36.7109V26.5664H38.957ZM37.3398 24.7734V29H36.6172V24.7734H37.3398ZM38.3398 26.9336V26.8438C38.3398 26.5391 38.3841 26.2565 38.4727 25.9961C38.5612 25.7331 38.6888 25.5052 38.8555 25.3125C39.0247 25.1172 39.2266 24.9661 39.4609 24.8594C39.6979 24.75 39.9635 24.6953 40.2578 24.6953C40.5573 24.6953 40.8255 24.75 41.0625 24.8594C41.2995 24.9661 41.5013 25.1172 41.668 25.3125C41.8372 25.5052 41.9661 25.7331 42.0547 25.9961C42.1432 26.2565 42.1875 26.5391 42.1875 26.8438V26.9336C42.1875 27.2383 42.1432 27.5208 42.0547 27.7812C41.9661 28.0417 41.8385 28.2695 41.6719 28.4648C41.5052 28.6576 41.3034 28.8086 41.0664 28.918C40.8294 29.0247 40.5625 29.0781 40.2656 29.0781C39.9688 29.0781 39.7018 29.0247 39.4648 28.918C39.2279 28.8086 39.0247 28.6576 38.8555 28.4648C38.6888 28.2695 38.5612 28.0417 38.4727 27.7812C38.3841 27.5208 38.3398 27.2383 38.3398 26.9336ZM39.0664 26.8438V26.9336C39.0664 27.1445 39.0911 27.3438 39.1406 27.5312C39.1901 27.7161 39.2643 27.8802 39.3633 28.0234C39.4648 28.1667 39.5898 28.2799 39.7383 28.3633C39.8893 28.444 40.0651 28.4844 40.2656 28.4844C40.4661 28.4844 40.6406 28.444 40.7891 28.3633C40.9401 28.2799 41.0651 28.1667 41.1641 28.0234C41.263 27.8802 41.3372 27.7161 41.3867 27.5312C41.4388 27.3438 41.4648 27.1445 41.4648 26.9336V26.8438C41.4648 26.6354 41.4388 26.4388 41.3867 26.2539C41.3372 26.0664 41.2617 25.901 41.1602 25.7578C41.0612 25.612 40.9362 25.4974 40.7852 25.4141C40.6341 25.3307 40.4583 25.2891 40.2578 25.2891C40.0599 25.2891 39.8867 25.3307 39.7383 25.4141C39.5898 25.4974 39.4648 25.612 39.3633 25.7578C39.2643 25.901 39.1901 26.0664 39.1406 26.2539C39.0911 26.4388 39.0664 26.6354 39.0664 26.8438ZM43.9647 25.5859V30.625H43.2381V24.7734H43.9022L43.9647 25.5859ZM46.8123 26.8516V26.9336C46.8123 27.2409 46.7759 27.526 46.703 27.7891C46.6301 28.0495 46.5233 28.276 46.3827 28.4688C46.2446 28.6615 46.0741 28.8112 45.8709 28.918C45.6678 29.0247 45.4347 29.0781 45.1717 29.0781C44.9035 29.0781 44.6665 29.0339 44.4608 28.9453C44.2551 28.8568 44.0806 28.7279 43.9373 28.5586C43.7941 28.3893 43.6795 28.1862 43.5936 27.9492C43.5103 27.7122 43.453 27.4453 43.4217 27.1484V26.7109C43.453 26.3984 43.5116 26.1185 43.5975 25.8711C43.6834 25.6237 43.7967 25.4128 43.9373 25.2383C44.0806 25.0612 44.2537 24.9271 44.4569 24.8359C44.66 24.7422 44.8944 24.6953 45.16 24.6953C45.4256 24.6953 45.6613 24.7474 45.867 24.8516C46.0728 24.9531 46.2459 25.099 46.3866 25.2891C46.5272 25.4792 46.6327 25.707 46.703 25.9727C46.7759 26.2357 46.8123 26.5286 46.8123 26.8516ZM46.0858 26.9336V26.8516C46.0858 26.6406 46.0636 26.4427 46.0194 26.2578C45.9751 26.0703 45.9061 25.9062 45.8123 25.7656C45.7212 25.6224 45.604 25.5104 45.4608 25.4297C45.3176 25.3464 45.147 25.3047 44.9491 25.3047C44.7668 25.3047 44.6079 25.3359 44.4725 25.3984C44.3397 25.4609 44.2264 25.5456 44.1327 25.6523C44.0389 25.7565 43.9621 25.8763 43.9022 26.0117C43.8449 26.1445 43.8019 26.2826 43.7733 26.4258V27.4375C43.8254 27.6198 43.8983 27.7917 43.992 27.9531C44.0858 28.112 44.2108 28.2409 44.367 28.3398C44.5233 28.4362 44.7199 28.4844 44.9569 28.4844C45.1522 28.4844 45.3202 28.444 45.4608 28.3633C45.604 28.2799 45.7212 28.1667 45.8123 28.0234C45.9061 27.8802 45.9751 27.7161 46.0194 27.5312C46.0636 27.3438 46.0858 27.1445 46.0858 26.9336ZM47.9059 28.6172C47.9059 28.4948 47.9437 28.3919 48.0192 28.3086C48.0973 28.2227 48.2093 28.1797 48.3552 28.1797C48.501 28.1797 48.6117 28.2227 48.6872 28.3086C48.7653 28.3919 48.8044 28.4948 48.8044 28.6172C48.8044 28.737 48.7653 28.8385 48.6872 28.9219C48.6117 29.0052 48.501 29.0469 48.3552 29.0469C48.2093 29.0469 48.0973 29.0052 48.0192 28.9219C47.9437 28.8385 47.9059 28.737 47.9059 28.6172ZM55.1322 24.7734V25.3711H53.0892V24.7734H55.1322ZM55.7689 24.7734V29H55.0463V24.7734H55.7689ZM52.9134 24.7734H53.64L53.5306 26.8125C53.5124 27.1276 53.4824 27.4062 53.4408 27.6484C53.4017 27.888 53.347 28.0938 53.2767 28.2656C53.209 28.4375 53.1231 28.5781 53.0189 28.6875C52.9173 28.7943 52.7949 28.8737 52.6517 28.9258C52.5085 28.9753 52.3431 29 52.1556 29H51.9291V28.3633L52.0853 28.3516C52.1973 28.3438 52.2923 28.3177 52.3705 28.2734C52.4512 28.2292 52.5189 28.1641 52.5736 28.0781C52.6283 27.9896 52.6726 27.8763 52.7064 27.7383C52.7429 27.6003 52.7702 27.4362 52.7884 27.2461C52.8093 27.056 52.8249 26.8346 52.8353 26.582L52.9134 24.7734ZM57.8742 27.8555L59.8234 24.7734H60.55V29H59.8234V25.918L57.8742 29H57.1555V24.7734H57.8742V27.8555ZM61.9327 29V24.7734H62.6553V28.4062H64.6006V24.7734H65.3272V29H61.9327ZM65.8272 28.4062L65.7569 30.2539H65.1123V29H64.5616V28.4062H65.8272Z" fill="#C4CBD4"/>
</svg>
