<svg width="52" height="40" viewBox="0 0 52 40" fill="none" xmlns="http://www.w3.org/2000/svg">
<path d="M0 4C0 1.79086 1.79086 0 4 0H48C50.2091 0 52 1.79086 52 4V36C52 38.2091 50.2091 40 48 40H4C1.79086 40 0 38.2091 0 36V4Z" fill="black"/>
<path d="M30.3268 12.1379H21.6738V27.8619H30.3268V12.1379Z" fill="#FF5F00"/>
<path d="M22.2232 20C22.2218 18.4857 22.5612 16.9909 23.2156 15.6288C23.8699 14.2667 24.8222 13.0729 26.0002 12.138C24.5414 10.9785 22.7894 10.2574 20.9444 10.0571C19.0995 9.85687 17.236 10.1856 15.567 11.0056C13.8981 11.8257 12.491 13.1041 11.5065 14.6946C10.5221 16.2851 10 18.1236 10 20C10 21.8764 10.5221 23.7149 11.5065 25.3054C12.491 26.8959 13.8981 28.1743 15.567 28.9944C17.236 29.8144 19.0995 30.1431 20.9444 29.9429C22.7894 29.7426 24.5414 29.0215 26.0002 27.862C24.8222 26.927 23.87 25.7333 23.2156 24.3712C22.5612 23.0091 22.2218 21.5143 22.2232 20Z" fill="#EB001B"/>
<path d="M42.0002 20C42.0003 21.8763 41.4783 23.7149 40.4939 25.3054C39.5095 26.8959 38.1024 28.1743 36.4335 28.9943C34.7646 29.8144 32.9012 30.1431 31.0562 29.9429C29.2113 29.7426 27.4593 29.0215 26.0005 27.862C27.1775 26.9261 28.129 25.7322 28.7833 24.3703C29.4376 23.0084 29.7775 21.5141 29.7775 20C29.7775 18.4859 29.4376 16.9916 28.7833 15.6297C28.129 14.2678 27.1775 13.0739 26.0005 12.138C27.4593 10.9785 29.2113 10.2574 31.0562 10.0571C32.9012 9.85687 34.7646 10.1856 36.4335 11.0057C38.1024 11.8257 39.5095 13.1041 40.4939 14.6946C41.4783 16.2851 42.0003 18.1237 42.0002 20Z" fill="#F79E1B"/>
<path d="M41.0565 26.1966V25.8747H41.1848V25.8091H40.8579V25.8747H40.9863V26.1966H41.0565ZM41.6911 26.1966V25.8085H41.5909L41.4757 26.0754L41.3604 25.8085H41.2601V26.1966H41.3309V25.9038L41.439 26.1563H41.5124L41.6204 25.9032V26.1966H41.6911Z" fill="#F79E1B"/>
</svg>
