<svg width="90" height="40" viewBox="0 0 90 40" fill="none" xmlns="http://www.w3.org/2000/svg">
<path d="M0 4C0 1.79086 1.79086 0 4 0H86C88.2091 0 90 1.79086 90 4V36C90 38.2091 88.2091 40 86 40H4C1.79086 40 0 38.2091 0 36V4Z" fill="white"/>
<path fill-rule="evenodd" clip-rule="evenodd" d="M28.8628 10V10.0087C28.8541 10.0087 26.1286 10 25.4017 12.6288C24.7355 15.0393 22.8579 21.6943 22.8059 21.8777H22.2868C22.2868 21.8777 20.3659 15.0742 19.691 12.6201C18.9642 9.99127 16.2299 10 16.2299 10H10V30H16.2299V18.1223H16.4895H16.7491L20.3832 30H24.7095L28.3436 18.131H28.8628V30H35.0927V10H28.8628Z" fill="#4DB45E"/>
<path fill-rule="evenodd" clip-rule="evenodd" d="M51.6192 10C51.6192 10 49.7934 10.1659 48.9368 12.0961L44.524 21.8777H44.0048V10H37.7749V30H43.6587C43.6587 30 45.5709 29.8253 46.4276 27.9039L50.7539 18.1223H51.273V30H57.503V10H51.6192Z" fill="#4DB45E"/>
<path fill-rule="evenodd" clip-rule="evenodd" d="M60.272 19.083V30H66.5019V23.6245H73.2509C76.1929 23.6245 78.6848 21.7293 79.6106 19.083H60.272Z" fill="#4DB45E"/>
<path fill-rule="evenodd" clip-rule="evenodd" d="M73.2508 10H59.3979C60.0902 13.8079 62.9196 16.8646 66.5797 17.8603C67.4103 18.0873 68.2842 18.2096 69.1841 18.2096H79.8615C79.9567 17.7555 79.9999 17.2926 79.9999 16.8122C79.9999 13.048 76.9801 10 73.2508 10Z" fill="url(#paint0_linear_37_6694)"/>
<defs>
<linearGradient id="paint0_linear_37_6694" x1="59.3996" y1="14.1048" x2="79.9999" y2="14.1048" gradientUnits="userSpaceOnUse">
<stop offset="0.3" stop-color="#00B4E6"/>
<stop offset="1" stop-color="#088CCB"/>
</linearGradient>
</defs>
</svg>
