<svg width="75" height="40" viewBox="0 0 75 40" fill="none" xmlns="http://www.w3.org/2000/svg">
<path d="M0 4C0 1.79086 1.79086 0 4 0H71C73.2091 0 75 1.79086 75 4V36C75 38.2091 73.2091 40 71 40H4C1.79086 40 0 38.2091 0 36V4Z" fill="#2B3242"/>
<path fill-rule="evenodd" clip-rule="evenodd" d="M38.2486 12.4975L38.2453 14.9947L38.1513 14.9205C37.9151 14.7339 37.5355 14.5175 37.2516 14.4074C36.86 14.2557 36.4847 14.1668 36.0901 14.1324C35.8011 14.1072 35.3419 14.1192 35.0763 14.1588C34.7415 14.2088 34.4606 14.2802 34.1632 14.3908C33.895 14.4906 33.475 14.7264 33.2434 14.9071C33.102 15.0174 33.0837 15.0336 32.9032 15.2075C32.5112 15.5851 32.1913 16.0507 31.9442 16.603C31.7979 16.93 31.6755 17.2899 31.5855 17.6575C31.5658 17.7378 31.5444 17.8245 31.5378 17.85C31.5004 17.9961 31.4362 18.387 31.4048 18.66C31.3491 19.143 31.3434 19.2563 31.344 19.8551C31.3446 20.4411 31.3515 20.5714 31.4048 21.0104C31.465 21.5052 31.5955 22.0564 31.7581 22.5021C31.8594 22.7796 32.0369 23.1528 32.1721 23.3724C32.6795 24.1964 33.3804 24.7662 34.2385 25.0523C34.7248 25.2144 35.1273 25.2763 35.694 25.2761C36.0108 25.2759 36.2395 25.2598 36.5064 25.2189C36.9121 25.1566 37.3149 25.0299 37.6381 24.8631C37.9208 24.7171 38.1432 24.5611 38.3696 24.3501L38.4594 24.2663L38.5047 24.3546C38.5632 24.4686 38.6764 24.6154 38.7762 24.7068C38.8767 24.7988 39.0515 24.914 39.172 24.9676C39.2236 24.9905 39.3201 25.0248 39.3866 25.0437L39.5075 25.0781L40.189 25.0835L40.8706 25.089L40.8666 18.2262C40.8628 11.7892 40.8611 11.3589 40.8395 11.2904C40.7793 11.0991 40.7553 11.0363 40.7017 10.9284C40.5966 10.7173 40.422 10.5027 40.2423 10.3639C40.058 10.2215 39.7973 10.0979 39.5612 10.041C39.4484 10.0139 39.4005 10.0115 38.8462 10.0061L38.252 10.0002L38.2486 12.4975ZM48.551 12.4976C48.551 14.0494 48.5463 14.9951 48.5384 14.9951C48.5315 14.9951 48.5217 14.9886 48.5167 14.9806C48.5013 14.956 48.2502 14.7759 48.1216 14.6972C47.6014 14.379 46.9991 14.184 46.3758 14.1319C46.2908 14.1248 46.1247 14.119 46.0065 14.1191C45.4238 14.1193 44.9133 14.2126 44.4079 14.4112C44.2355 14.4788 43.95 14.6278 43.7775 14.74C43.5479 14.8893 43.3605 15.0413 43.1598 15.2411C42.7071 15.6916 42.374 16.2248 42.1023 16.9338C42.0415 17.0927 42.0457 17.08 41.9722 17.3189C41.8039 17.866 41.6921 18.5104 41.6497 19.1779C41.632 19.4575 41.6317 20.2233 41.6493 20.4994C41.6745 20.8962 41.7401 21.3535 41.8255 21.7274C41.9356 22.2101 42.0741 22.6068 42.2733 23.0104C42.464 23.3967 42.6845 23.7273 42.9417 24.0121C43.1528 24.2459 43.3943 24.4525 43.6721 24.6368C43.8234 24.7372 44.1079 24.8889 44.2676 24.9544C44.7318 25.1447 45.1714 25.2406 45.7312 25.2737C46.2565 25.3048 46.8785 25.2363 47.3493 25.0954C47.6538 25.0042 47.9646 24.8622 48.219 24.6978C48.375 24.5971 48.47 24.5235 48.6486 24.3652C48.7059 24.3144 48.7547 24.2752 48.757 24.2782C48.7594 24.2811 48.7839 24.3249 48.8116 24.3756C48.8786 24.4978 48.9571 24.5969 49.072 24.7041C49.1801 24.8049 49.2849 24.8783 49.4097 24.9405C49.5134 24.9922 49.5723 25.0141 49.7058 25.0505C49.8001 25.0762 49.8501 25.0783 50.488 25.0834L51.1695 25.0888L51.1694 18.3058C51.1693 10.8037 51.1769 11.4227 51.0819 11.136C50.998 10.8828 50.8595 10.6662 50.6596 10.4756C50.4261 10.253 50.157 10.1113 49.82 10.0334C49.743 10.0156 49.6198 10.0107 49.1385 10.0059L48.551 10.0002V12.4976ZM52.1803 16.8231L52.1844 23.6462L52.2143 23.7723C52.2307 23.8417 52.2566 23.9343 52.2718 23.9781C52.3166 24.1071 52.3959 24.2651 52.4718 24.3762C52.5604 24.5061 52.7155 24.6676 52.8423 24.7619C52.9614 24.8506 53.1634 24.9547 53.3018 24.9988C53.5408 25.0748 53.5621 25.0768 54.2075 25.0832L54.8084 25.0892V18.3586C54.8084 11.1906 54.8108 11.4792 54.7479 11.2359C54.7218 11.1351 54.6439 10.9378 54.5967 10.8529C54.5166 10.7088 54.4325 10.5982 54.3124 10.4793C54.0807 10.2499 53.8276 10.1151 53.4857 10.0388C53.3769 10.0145 53.3058 10.0112 52.7706 10.0059L52.1763 10L52.1803 16.8231ZM60.3742 14.0669C59.9086 14.101 59.424 14.2014 58.9911 14.3535C58.5485 14.509 58.1052 14.7383 57.7423 14.9994C57.4598 15.2026 57.1352 15.4963 56.9251 15.7387C56.865 15.8081 56.8063 15.8753 56.7947 15.8881C56.7444 15.9433 56.5354 16.2354 56.4502 16.3695C56.3318 16.5557 56.2083 16.7766 56.1298 16.9428C55.9839 17.2518 55.8338 17.6621 55.7494 17.9828C55.6991 18.1737 55.6326 18.4995 55.6075 18.6774C55.5508 19.0806 55.5417 19.2215 55.542 19.6958C55.5423 20.1512 55.5539 20.3538 55.6012 20.7249C55.661 21.194 55.7702 21.6491 55.9343 22.1125C56.077 22.5155 56.3189 22.9779 56.5663 23.3203C56.9145 23.8023 57.3693 24.2224 57.8639 24.5189C58.0033 24.6025 58.3394 24.7708 58.4876 24.8312C58.8246 24.9685 59.2808 25.0914 59.6558 25.1458C59.9939 25.1948 60.2033 25.2096 60.5689 25.2101C60.9163 25.2105 61.1787 25.1943 61.4887 25.1533C61.9324 25.0945 62.1671 25.0556 62.583 24.9721C62.9654 24.8953 63.2675 24.8217 63.4223 24.7676C63.6561 24.6858 63.8689 24.562 64.0373 24.4098C64.2011 24.2617 64.3769 23.9856 64.4547 23.7541C64.491 23.6462 64.5209 23.5294 64.603 23.1748C64.6292 23.0616 64.6749 22.8674 64.7045 22.7432C64.7341 22.6191 64.7733 22.4518 64.7915 22.3714C64.8098 22.2911 64.8641 22.058 64.9123 21.8535C64.9605 21.6491 65 21.4773 65 21.4718C65 21.4663 64.9139 21.5264 64.8087 21.6053C64.7034 21.6843 64.5628 21.7852 64.4961 21.8295C64.025 22.1426 63.387 22.4563 62.8516 22.6383C62.6115 22.7199 62.4918 22.7553 62.2742 22.8093C61.8546 22.9134 61.4596 22.9753 61.0458 23.0017C60.5011 23.0365 60.1266 22.9993 59.7589 22.8741C59.6837 22.8485 59.6103 22.8239 59.5957 22.8196C59.5812 22.8152 59.5087 22.7822 59.4346 22.7462C59.2034 22.6338 58.9985 22.4889 58.8393 22.3252C58.7435 22.2266 58.6207 22.0654 58.5612 21.9602C58.5132 21.8754 58.4182 21.6588 58.4257 21.6514C58.4278 21.6493 58.5438 21.6356 58.6835 21.6209C59.1202 21.5749 59.3722 21.5422 59.7095 21.4877C60.4568 21.3671 61.1707 21.1906 61.7304 20.9882C61.8839 20.9327 62.1211 20.8403 62.1899 20.8092C62.7344 20.5632 63.0765 20.3645 63.4484 20.0782C63.7288 19.8623 64.0345 19.5444 64.2377 19.2576C64.4856 18.9074 64.6814 18.4465 64.7706 18.0027C64.8545 17.5856 64.8672 17.0915 64.8048 16.6682C64.7738 16.4574 64.7021 16.1868 64.629 16.0046C64.5551 15.8204 64.4494 15.6174 64.3562 15.4809C64.2037 15.2573 63.9762 15.0194 63.7512 14.848C63.5958 14.7297 63.4396 14.6332 63.2477 14.5371C63.0878 14.457 63.0475 14.439 62.9053 14.3839C62.5716 14.2546 62.0752 14.1389 61.6565 14.0928C61.3051 14.0541 60.7125 14.0421 60.3742 14.0669ZM15.2032 14.1003C15.1012 14.1076 14.9018 14.1306 14.693 14.1591C14.1626 14.2316 13.3132 14.3939 12.1287 14.6493C11.5984 14.7636 11.4976 14.7895 11.3334 14.8536C11.0659 14.958 10.8598 15.1003 10.7165 15.2792C10.6313 15.3856 10.5185 15.5919 10.4772 15.7168C10.4351 15.8444 10.4039 15.976 10.3494 16.2566C10.3189 16.4136 10.2795 16.6108 10.2619 16.6948C10.2443 16.7788 10.2048 16.976 10.1743 17.133C10.1438 17.29 10.0921 17.5505 10.0594 17.7118C10.0267 17.8731 10 18.0113 10 18.0189C10 18.0265 10.1344 17.989 10.2988 17.9356C10.6042 17.8364 11.0267 17.7034 11.3025 17.6198C12.0726 17.3862 12.851 17.1727 12.8687 17.1902C12.8751 17.1965 12.7859 17.316 12.4854 17.704C12.4024 17.8111 12.1128 18.1886 12.0389 18.286C11.9222 18.4397 11.8003 18.7195 11.737 18.9787C11.7138 19.0739 11.7126 19.3215 11.7089 24.5392C11.7068 27.5426 11.7079 30 11.7115 30C11.7187 30 12.9563 29.5318 13.2258 29.4271C13.4455 29.3418 13.6146 29.2509 13.7685 29.1356C13.9921 28.9681 14.1469 28.7803 14.2768 28.5194C14.3914 28.289 14.4278 28.1767 14.4656 27.9352C14.4807 27.8388 14.4844 27.5549 14.4846 26.4712C14.4848 25.7128 14.49 25.1267 14.4966 25.1267C14.5031 25.1267 14.5348 25.1362 14.5671 25.1477C14.6226 25.1675 14.8415 25.2329 14.9146 25.2515C15.0575 25.2879 15.3288 25.3363 15.5658 25.3678C15.7507 25.3924 16.6028 25.3924 16.7877 25.3678C17.2027 25.3127 17.4864 25.2519 17.7836 25.1544C18.103 25.0495 18.3304 24.9522 18.5967 24.8063C19.0378 24.5648 19.4578 24.2327 19.8049 23.8513C20.1628 23.458 20.4799 22.9547 20.7083 22.4179C20.7871 22.2327 20.9012 21.9116 20.9376 21.7732C20.949 21.7298 20.9725 21.6404 20.9898 21.5747C21.1198 21.0822 21.1992 20.4259 21.1986 19.8485C21.1983 19.6178 21.1705 19.1255 21.1449 18.899C21.1231 18.706 21.0652 18.336 21.0358 18.2022C21.0214 18.1363 21.0041 18.0555 20.9975 18.0227C20.9769 17.921 20.9067 17.6636 20.8579 17.511C20.6931 16.9953 20.4905 16.5737 20.2008 16.1437C20.1036 15.9994 20.0206 15.8928 19.8752 15.7254C19.6766 15.497 19.4391 15.2773 19.1835 15.0861C18.9172 14.8868 18.5298 14.6697 18.1909 14.5298C17.7933 14.3656 17.2884 14.2289 16.8481 14.1661C16.4378 14.1076 16.3619 14.1026 15.8142 14.0991C15.5151 14.0971 15.2402 14.0977 15.2032 14.1003ZM25.9522 14.1331C25.5394 14.1612 25.0419 14.2389 24.5221 14.3564C24.1328 14.4444 23.8464 14.5422 23.5477 14.6891C23.2595 14.8308 23.0674 14.9584 22.8846 15.1295C22.7491 15.2564 22.6554 15.3756 22.5832 15.513C22.4918 15.687 22.4852 15.7151 22.3935 16.323C22.2977 16.9585 22.2726 17.1243 22.2467 17.2921C22.2326 17.3833 22.2231 17.4599 22.2257 17.4625C22.2283 17.465 22.2431 17.4604 22.2586 17.4522C22.3089 17.4255 22.9698 17.1787 23.2733 17.0732C23.7728 16.8996 24.1617 16.7759 24.6032 16.6501C24.8369 16.5835 25.2308 16.4836 25.3665 16.4566C25.3969 16.4505 25.499 16.43 25.5933 16.411C25.6877 16.3919 25.8599 16.3634 25.976 16.3475C26.1347 16.3258 26.2538 16.3186 26.4557 16.3185C26.7475 16.3185 26.8669 16.3343 27.0532 16.3979C27.2533 16.4661 27.3984 16.5581 27.54 16.7065C27.6434 16.8149 27.6912 16.8816 27.7555 17.0068C27.8453 17.1817 27.8956 17.3282 27.938 17.538C27.9632 17.6628 27.9981 17.9299 27.9901 17.9367C27.9881 17.9384 27.9019 17.9499 27.7985 17.9622C27.4503 18.0037 26.9819 18.0696 26.8048 18.1021C26.7679 18.1089 26.7014 18.1206 26.6571 18.1281C26.5186 18.1516 25.9644 18.262 25.8447 18.2899C25.1876 18.4433 24.9196 18.5206 24.4994 18.6781C24.2846 18.7587 24.2571 18.7704 23.9984 18.892C23.6276 19.0662 23.2706 19.2893 22.9712 19.5338C22.8283 19.6505 22.5465 19.932 22.4302 20.0742C22.1662 20.3971 21.9616 20.7773 21.8427 21.1662C21.7937 21.3266 21.74 21.5985 21.7227 21.7742C21.7054 21.9503 21.7056 22.2499 21.7232 22.4194C21.7639 22.8117 21.8921 23.2276 22.0747 23.5599C22.2158 23.8166 22.4582 24.1312 22.6638 24.3244C23.0049 24.6449 23.4299 24.8982 23.891 25.056C24.0191 25.0998 24.32 25.1734 24.4751 25.1987C24.8375 25.258 25.5273 25.2502 26.0734 25.1808C26.8786 25.0785 27.5563 24.8146 28.0724 24.4025C28.1335 24.3537 28.1878 24.3189 28.193 24.3252C28.1982 24.3315 28.2374 24.3828 28.2802 24.4391C28.4644 24.6821 28.7543 24.8886 29.0673 24.9998C29.281 25.0757 29.293 25.0768 29.9838 25.0831L30.625 25.0889L30.6248 21.1939C30.6247 18.9583 30.6193 17.2365 30.6123 17.1523C30.5854 16.8307 30.4791 16.4495 30.3309 16.1431C30.1644 15.7989 29.9971 15.5668 29.7132 15.286C29.6054 15.1794 29.4749 15.0596 29.4232 15.0199C29.0655 14.7447 28.6606 14.5301 28.2282 14.3863C27.7902 14.2407 27.4112 14.166 26.939 14.1324C26.7244 14.1171 26.181 14.1174 25.9522 14.1331ZM61.1474 16.2417C61.4707 16.2994 61.7579 16.4324 61.9407 16.6093C62.139 16.801 62.2207 16.9948 62.2202 17.2719C62.2198 17.488 62.1694 17.6876 62.0624 17.8972C62.0167 17.9868 61.8907 18.1573 61.8022 18.2494C61.5412 18.5208 61.1002 18.7775 60.5571 18.9738C60.3997 19.0307 60.0378 19.1361 59.8169 19.1894C59.424 19.2842 58.7921 19.3917 58.3998 19.4303C58.3331 19.4369 58.253 19.4463 58.2219 19.4512C58.1765 19.4584 58.1653 19.4562 58.1653 19.4402C58.1653 19.3729 58.2117 18.9951 58.2399 18.8327C58.285 18.573 58.343 18.3467 58.4236 18.1158C58.5944 17.6267 58.8285 17.2382 59.1412 16.925C59.2751 16.7908 59.3349 16.7381 59.4409 16.661C59.8404 16.3704 60.3002 16.2211 60.8049 16.218C60.9493 16.2171 61.0476 16.2239 61.1474 16.2417ZM36.3117 16.4101C36.5859 16.4457 36.7607 16.4956 36.983 16.6016C37.5716 16.8824 37.9789 17.486 38.1619 18.3487C38.2398 18.7157 38.2656 18.9643 38.2744 19.4302C38.2907 20.2927 38.2023 21.0334 38.0153 21.6013C37.8765 22.0229 37.7023 22.3236 37.4533 22.5719C37.3793 22.6457 37.2734 22.736 37.2179 22.7727C37.0968 22.8527 36.9336 22.9348 36.8173 22.9741C36.5392 23.0683 36.1992 23.1017 35.8599 23.0681C35.3489 23.0174 34.9706 22.8405 34.6492 22.5018C34.5576 22.4053 34.4883 22.3115 34.4027 22.1685C34.165 21.7712 34.0273 21.2689 33.9524 20.5257C33.9284 20.2885 33.9287 19.2957 33.9528 19.0717C33.9786 18.8309 34.0067 18.6329 34.0376 18.4741C34.0752 18.2802 34.1521 17.9845 34.1997 17.85C34.5046 16.9893 35.0002 16.5203 35.7208 16.4108C35.8866 16.3856 36.1204 16.3853 36.3117 16.4101ZM46.7074 16.4094C46.9049 16.4343 46.9674 16.4475 47.1277 16.4982C47.264 16.5413 47.4148 16.6077 47.5238 16.6728C47.6411 16.7428 47.8039 16.8746 47.9072 16.9832C48.2864 17.3818 48.5148 17.9361 48.631 18.7397C48.655 18.9058 48.6851 19.3719 48.6851 19.5763C48.685 19.7848 48.6543 20.3382 48.6309 20.5522C48.5844 20.9764 48.4958 21.3829 48.3762 21.7208C48.3529 21.7865 48.3012 21.9074 48.2613 21.9894C48.0498 22.4238 47.7717 22.718 47.407 22.8933C47.1646 23.0098 46.9373 23.0633 46.6242 23.0775C46.44 23.0858 46.1818 23.0672 46.0199 23.034C45.6531 22.9587 45.3461 22.7978 45.099 22.5514C44.7935 22.2468 44.5751 21.7993 44.457 21.2361C44.3944 20.9373 44.3677 20.7226 44.3412 20.3066C44.3163 19.9134 44.3162 19.6189 44.3411 19.2642C44.3675 18.8873 44.3977 18.6622 44.4642 18.348C44.5033 18.1629 44.5195 18.1046 44.5973 17.869C44.6876 17.5956 44.7856 17.3925 44.9363 17.1662C45.0872 16.9397 45.3656 16.6849 45.5806 16.5767C45.6656 16.5339 45.8341 16.4715 45.9259 16.4488C46.1656 16.3895 46.4402 16.3757 46.7074 16.4094ZM16.184 16.6488C16.5322 16.6929 16.7664 16.7599 17.0429 16.8943C17.5926 17.1615 17.9802 17.625 18.2091 18.2891C18.2895 18.5225 18.3447 18.783 18.3862 19.1248C18.4182 19.3886 18.4153 19.8994 18.3801 20.2004C18.3443 20.5058 18.3312 20.5888 18.2899 20.7713C18.1616 21.3381 17.9562 21.7936 17.6732 22.139C17.5759 22.2577 17.4265 22.3981 17.2958 22.4937C17.1771 22.5805 16.9606 22.6917 16.8213 22.7375C16.5903 22.8134 16.3604 22.8461 16.0559 22.8461C15.6488 22.8461 15.2857 22.7777 14.9735 22.6423C14.8342 22.5819 14.642 22.4674 14.5456 22.3873L14.4848 22.3369L14.4882 19.5789L14.4916 16.8209L14.6729 16.7848C14.9095 16.7377 15.2182 16.6833 15.4114 16.6547C15.6135 16.6247 15.9726 16.6219 16.184 16.6488ZM27.9731 21.7599C27.9465 21.8649 27.8609 22.0365 27.7854 22.1358C27.7066 22.2394 27.5402 22.4022 27.4225 22.4909C27.3708 22.5298 27.2741 22.594 27.2076 22.6337C26.9065 22.8132 26.5844 22.9303 26.1871 23.0048C26.0684 23.0271 25.9841 23.0327 25.7575 23.0335C25.4908 23.0345 25.4676 23.0325 25.3303 22.9975C25.1457 22.9504 25.0315 22.9081 24.9048 22.8399C24.6319 22.6928 24.4588 22.5116 24.3676 22.2776C24.344 22.2169 24.3354 22.1623 24.3304 22.04C24.3197 21.7793 24.3634 21.5744 24.4703 21.3839C24.5005 21.3301 24.5645 21.2515 24.635 21.1818C24.8552 20.9642 25.1279 20.8215 25.6444 20.6535C26.0886 20.5091 26.5501 20.3871 27.0045 20.294C27.2709 20.2394 27.6993 20.1652 27.9059 20.1378L27.9865 20.1271L27.9899 20.9033C27.9929 21.5601 27.9903 21.6918 27.9731 21.7599Z" fill="#3FB0FF"/>
</svg>
