<svg width="226" height="386" viewBox="0 0 226 386" fill="none" xmlns="http://www.w3.org/2000/svg">
<path d="M193.231 254.164L195.809 253.906C200.966 253.39 205.51 254.763 209.444 258.025C213.377 261.286 215.59 265.451 216.083 270.519L217.902 289.197C218.395 294.266 217.027 298.789 213.799 302.767C210.57 306.746 206.377 308.993 201.221 309.509C201.221 309.509 201.149 309.516 201.005 309.531C200.862 309.545 200.791 309.552 200.791 309.552C200.645 311.028 200.442 312.657 200.181 314.438C200.05 316.059 199.775 317.695 199.357 319.345C198.421 323.094 196.817 326.69 194.55 330.134C192.41 333.418 189.399 335.913 185.515 337.618L187.46 357.599C187.713 360.206 186.994 362.471 185.301 364.396C183.765 366.45 181.707 367.606 179.13 367.864L142.603 371.519C140.025 371.777 137.713 371.059 135.667 369.362C133.78 367.797 132.709 365.711 132.456 363.104C132.456 363.104 132.307 361.585 132.011 358.543C131.715 355.503 131.568 353.982 131.568 353.982C131.568 353.982 129.992 354.14 126.841 354.456C123.833 354.756 122.328 354.906 122.328 354.906L123.216 364.029C123.47 366.636 122.75 368.9 121.058 370.824C119.521 372.88 117.536 374.028 115.101 374.272L78.3597 377.949C75.7813 378.207 73.4695 377.488 71.4242 375.792C69.5363 374.226 68.4654 372.141 68.2117 369.534C68.2117 369.534 67.8524 365.842 67.1337 358.457C66.415 351.073 66.0556 347.38 66.0556 347.38C61.0468 344.957 54.7101 340.036 47.0454 332.615C39.5099 325.035 34.9953 313.571 33.5015 298.222C31.9232 282.005 34.0704 269.143 39.9431 259.636C45.8299 250.275 52.5867 243.165 60.2136 238.308C67.8405 233.451 74.9132 230.331 81.4319 228.947C88.0938 227.549 91.4246 226.851 91.4246 226.851C91.4246 226.851 93.6449 226.628 98.0853 226.184C102.669 225.725 107.611 225.231 112.911 224.7C118.354 224.155 123.296 223.661 127.737 223.216C132.177 222.772 134.397 222.55 134.397 222.55L158.102 203.071C159.177 202.232 160.424 201.669 161.843 201.381C163.247 200.948 164.615 200.884 165.946 201.189C167.435 201.625 168.73 202.3 169.831 203.213C170.932 204.126 171.761 205.213 172.318 206.473L193.231 254.164ZM95.9482 273.331L141.714 268.751C144.292 268.493 146.356 267.409 147.905 265.499C149.584 263.43 150.298 261.093 150.044 258.487C149.79 255.88 148.648 253.801 146.616 252.25C144.714 250.54 142.474 249.814 139.896 250.072L94.1304 254.652C91.552 254.91 89.4233 256.073 87.7444 258.142C86.1947 260.052 85.5466 262.31 85.8003 264.916C86.0539 267.522 87.1317 269.681 89.0338 271.391C91.065 272.942 93.3699 273.589 95.9482 273.331Z" fill="#1975FF"/>
<path d="M174.108 250.409L171.545 262.696L165.138 261.359L167.702 249.072L174.108 250.409ZM159.137 318.261L156.799 329.465L150.393 328.128L152.73 316.925L159.137 318.261ZM166.505 305.543C166.835 303.96 166.829 302.553 166.485 301.323C166.169 300.098 165.472 298.923 164.392 297.8C163.339 296.682 161.843 295.501 159.903 294.255C156.633 292.124 153.806 289.998 151.419 287.878C149.067 285.735 147.38 283.341 146.361 280.694C145.348 278.02 145.218 274.878 145.971 271.268C146.689 267.825 148.12 265.009 150.262 262.819C152.405 260.629 155.042 259.151 158.173 258.385C161.338 257.596 164.823 257.599 168.628 258.393C171.53 258.998 174.066 259.991 176.235 261.371C178.41 262.723 180.17 264.423 181.514 266.471C182.864 268.491 183.738 270.803 184.138 273.408C184.537 276.012 184.413 278.869 183.764 281.979L171.977 279.519C172.325 277.853 172.454 276.345 172.364 274.993C172.275 273.642 171.978 272.464 171.473 271.46C170.996 270.463 170.335 269.658 169.491 269.048C168.653 268.409 167.672 267.973 166.55 267.739C164.88 267.39 163.441 267.438 162.234 267.881C161.028 268.325 160.059 269.065 159.329 270.1C158.631 271.114 158.132 272.342 157.831 273.786C157.535 275.202 157.524 276.489 157.797 277.647C158.097 278.811 158.784 279.969 159.858 281.12C160.938 282.243 162.477 283.492 164.476 284.865C167.746 286.996 170.554 289.147 172.901 291.317C175.248 293.488 176.932 295.896 177.951 298.543C178.97 301.189 179.103 304.317 178.35 307.927C177.603 311.509 176.144 314.392 173.974 316.576C171.81 318.732 169.11 320.168 165.875 320.884C162.646 321.572 159.088 321.511 155.2 320.699C152.681 320.174 150.245 319.318 147.893 318.132C145.546 316.918 143.519 315.336 141.812 313.386C140.104 311.436 138.912 309.072 138.234 306.294C137.563 303.488 137.615 300.225 138.391 296.504L150.219 298.972C149.796 300.999 149.703 302.747 149.939 304.216C150.181 305.657 150.643 306.869 151.323 307.851C152.037 308.812 152.907 309.573 153.933 310.134C154.958 310.696 156.032 311.094 157.155 311.328C158.907 311.694 160.411 311.674 161.667 311.27C162.95 310.871 163.995 310.177 164.802 309.186C165.642 308.173 166.209 306.959 166.505 305.543Z" fill="white"/>
<path d="M57.0683 252.352L16.355 265.789L12.2706 253.414L52.6118 240.1C55.9072 239.012 58.3605 237.635 59.9719 235.97C61.6187 234.292 62.5884 232.408 62.8807 230.318C63.1615 228.192 62.9178 225.966 62.1498 223.639C61.3935 221.347 60.2227 219.407 58.6377 217.819C57.0764 216.184 55.1293 215.107 52.7965 214.586C50.4874 214.019 47.8447 214.227 44.8682 215.209L30.7833 219.858C34.9448 232.466 37.278 239.535 41.4394 252.144L52.0955 284.43L36.1504 289.693L10.7363 212.692L40.7132 202.799C46.8078 200.787 52.3715 200.143 57.4042 200.867C62.4724 201.579 66.7983 203.436 70.3821 206.436C73.9658 209.437 76.5606 213.37 78.1664 218.235C79.8537 223.348 80.0977 228.135 78.8984 232.597C77.7345 237.047 75.2934 240.961 71.5751 244.338C67.8922 247.704 63.0566 250.375 57.0683 252.352ZM61.4228 255.724L65.5072 268.099L21.8706 282.501L17.7862 270.126L61.4228 255.724Z" fill="white"/>
<path d="M193.231 61.1647L195.809 60.906C200.966 60.3897 205.51 61.7629 209.444 65.0247C213.377 68.2864 215.59 72.4505 216.083 77.519L217.902 96.1973C218.395 101.266 217.027 105.789 213.799 109.767C210.57 113.746 206.377 115.993 201.221 116.509C201.221 116.509 201.149 116.516 201.005 116.531C200.862 116.545 200.791 116.552 200.791 116.552C200.645 118.028 200.442 119.657 200.181 121.438C200.05 123.059 199.775 124.695 199.357 126.345C198.421 130.094 196.817 133.69 194.55 137.134C192.41 140.418 189.399 142.913 185.515 144.618L187.46 164.599C187.713 167.206 186.994 169.471 185.301 171.396C183.765 173.45 181.707 174.606 179.13 174.864L142.603 178.519C140.025 178.777 137.713 178.059 135.667 176.362C133.78 174.797 132.709 172.711 132.456 170.104C132.456 170.104 132.307 168.585 132.011 165.543C131.715 162.503 131.568 160.982 131.568 160.982C131.568 160.982 129.992 161.14 126.841 161.456C123.833 161.756 122.328 161.906 122.328 161.906L123.216 171.029C123.47 173.636 122.75 175.9 121.058 177.824C119.521 179.88 117.536 181.028 115.101 181.272L78.3597 184.949C75.7813 185.207 73.4695 184.488 71.4242 182.792C69.5363 181.226 68.4654 179.141 68.2117 176.534C68.2117 176.534 67.8524 172.842 67.1337 165.457C66.415 158.073 66.0556 154.38 66.0556 154.38C61.0468 151.958 54.7101 147.036 47.0454 139.615C39.5099 132.035 34.9953 120.571 33.5015 105.222C31.9232 89.0049 34.0704 76.1427 39.9431 66.6363C45.8299 57.2744 52.5867 50.1648 60.2136 45.3076C67.8405 40.4513 74.9132 37.331 81.4319 35.9467C88.0938 34.5492 91.4246 33.851 91.4246 33.851C91.4246 33.851 93.6449 33.6287 98.0853 33.1841C102.669 32.7253 107.611 32.2302 112.911 31.6997C118.354 31.1551 123.296 30.661 127.737 30.2164C132.177 29.7718 134.397 29.5495 134.397 29.5495L158.102 10.0708C159.177 9.23216 160.424 8.66933 161.843 8.38034C163.247 7.94786 164.615 7.88421 165.946 8.18937C167.435 8.62488 168.73 9.29985 169.831 10.2133C170.932 11.1268 171.761 12.213 172.318 13.473L193.231 61.1647ZM95.9482 80.3311L141.714 75.7507C144.292 75.493 146.356 74.4088 147.905 72.499C149.584 70.4306 150.298 68.0924 150.044 65.4864C149.79 62.8805 148.648 60.8009 146.616 59.2499C144.714 57.5402 142.474 56.8137 139.896 57.0713L94.1304 61.6518C91.552 61.9094 89.4233 63.0735 87.7444 65.1419C86.1947 67.0517 85.5466 69.31 85.8003 71.916C86.0539 74.522 87.1317 76.6803 89.0338 78.391C91.065 79.9421 93.3699 80.5888 95.9482 80.3311Z" fill="#484C51"/>
</svg>
