<svg width="75" height="40" viewBox="0 0 75 40" fill="none" xmlns="http://www.w3.org/2000/svg">
<path d="M0 4C0 1.79086 1.79086 0 4 0H71C73.2091 0 75 1.79086 75 4V36C75 38.2091 73.2091 40 71 40H4C1.79086 40 0 38.2091 0 36V4Z" fill="#2E3640"/>
<path d="M46.5489 14.2301V23.5586C46.5489 23.7064 46.4373 23.8172 46.2885 23.8172H44.3727C44.2239 23.8172 44.1123 23.7064 44.1123 23.5586V14.2301C44.1123 14.0824 44.2239 13.9715 44.3727 13.9715H46.2885C46.4373 13.99 46.5489 14.1008 46.5489 14.2301ZM61.5032 13.99H59.3642C59.2526 13.99 59.1596 14.0639 59.1224 14.1747L57.4298 19.6979L55.5698 14.1747C55.5326 14.0639 55.4396 14.0085 55.328 14.0085H53.8215C53.7099 14.0085 53.6168 14.0824 53.5797 14.1747L51.7197 19.6979L50.0271 14.1747C49.9899 14.0639 49.8969 13.99 49.7853 13.99H47.6463C47.5719 13.99 47.4789 14.0269 47.4417 14.1008C47.3859 14.1747 47.3859 14.2486 47.4045 14.3225L50.5665 23.6694C50.6037 23.7803 50.6967 23.8357 50.8083 23.8357H52.5195C52.6311 23.8357 52.7241 23.7618 52.7613 23.6694L54.6026 18.2201L56.444 23.6694C56.4812 23.7803 56.5742 23.8357 56.6858 23.8357H58.397C58.5086 23.8357 58.6016 23.7618 58.6388 23.6694L61.8008 14.3225C61.8194 14.2486 61.8194 14.1562 61.7636 14.1008C61.6706 14.0269 61.5962 13.99 61.5032 13.99ZM64.7396 13.99H62.8238C62.675 13.99 62.5634 14.1008 62.5634 14.2486V23.5771C62.5634 23.7249 62.675 23.8357 62.8238 23.8357H64.7396C64.8884 23.8357 65 23.7249 65 23.5771V14.2486C65 14.1008 64.8698 13.99 64.7396 13.99ZM43.0149 23.5032C43.1265 23.6325 43.0335 23.8172 42.8661 23.8172H40.5225C40.4295 23.8172 40.3365 23.7803 40.2807 23.7064L39.8901 23.2261C39.0717 23.7433 38.1045 24.0574 37.0815 24.0574C34.2171 24.0574 31.8922 21.7483 31.8922 18.9036C31.8922 16.0589 34.2171 13.7499 37.0815 13.7499C39.9459 13.7499 42.2709 16.0589 42.2709 18.9036C42.2709 19.9196 41.9733 20.8801 41.4525 21.6929L43.0149 23.5032ZM38.3463 21.4343L37.3233 20.1967C37.2117 20.0674 37.3047 19.8642 37.4721 19.8642H39.6297C39.7413 19.5686 39.7971 19.2361 39.7971 18.9036C39.7971 17.3704 38.6439 16.0404 37.0629 16.0404C35.4819 16.0404 34.3287 17.3704 34.3287 18.9036C34.3287 20.4368 35.4819 21.7483 37.0629 21.7483C37.5279 21.7668 37.9557 21.6375 38.3463 21.4343ZM25.9588 23.4662C26.0146 23.8542 25.8844 24.0204 25.7728 24.0204C25.6426 24.0204 25.4752 23.8542 25.2706 23.5586C25.066 23.2446 24.9916 22.8936 25.1032 22.7274C25.159 22.6165 25.3078 22.5611 25.4752 22.6165C25.7914 22.7273 25.9216 23.2261 25.9588 23.4662ZM24.1174 24.2975C24.508 24.63 24.6382 25.0364 24.4336 25.3135C24.322 25.4612 24.136 25.5536 23.8942 25.5536C23.671 25.5536 23.4478 25.4797 23.2804 25.3319C22.927 25.0179 22.8154 24.5007 23.0572 24.2236C23.1502 24.1128 23.299 24.0574 23.485 24.0574C23.6896 24.0574 23.9128 24.1497 24.1174 24.2975ZM23.4478 27.5301C25.159 27.5301 27.019 28.1212 29.0836 29.9315C29.2882 30.1162 29.5672 29.8946 29.3812 29.6544C27.3538 27.1237 25.4938 26.6435 23.6338 26.2371C21.346 25.7383 20.1742 24.4637 19.3558 23.0599C19.1884 22.7828 19.114 22.8382 19.114 23.1892C19.0954 23.6325 19.1326 24.2051 19.2256 24.7778C19.1326 24.7778 19.0396 24.7778 18.9466 24.7778C15.6916 24.7778 13.0319 22.1547 13.0319 18.9036C13.0319 15.671 15.673 13.0294 18.9466 13.0294C22.2202 13.0294 24.8614 15.6525 24.8614 18.9036C24.8614 19.1253 24.8428 19.3654 24.8242 19.5871C24.3964 19.5132 23.5408 19.4947 22.9456 19.5501C22.7224 19.5686 22.7596 19.6794 22.927 19.6979C24.88 20.0489 26.2192 21.2496 26.5354 23.4293C26.5354 23.4847 26.6098 23.5032 26.6284 23.4478C27.4282 22.1178 27.8932 20.5661 27.8932 18.8851C27.8932 13.99 23.8942 10 18.9466 10C13.9991 10 10.0001 13.9715 10.0001 18.8851C10.0001 23.7803 13.9991 27.7703 18.9466 27.7703C20.2486 27.7887 21.5506 27.5301 23.4478 27.5301Z" fill="#FF8C00"/>
</svg>
