<svg width="78" height="40" viewBox="0 0 78 40" fill="none" xmlns="http://www.w3.org/2000/svg">
<path d="M0 4C0 1.79086 1.79086 0 4 0H74C76.2091 0 78 1.79086 78 4V36C78 38.2091 76.2091 40 74 40H4C1.79086 40 0 38.2091 0 36V4Z" fill="#219F38"/>
<path d="M38.6616 21.6566V25.3933H36.4839V13.3973H40.54C44.3913 13.3973 46.0257 14.7519 46.0257 17.4585C46.0257 20.2511 44.1104 21.6566 40.54 21.6566H38.6616ZM38.6616 15.3689V19.6877H40.6988C42.72 19.6877 43.7628 19.0358 43.7628 17.4076C43.7628 15.9349 42.8581 15.3689 40.7311 15.3689H38.6616Z" fill="white"/>
<path d="M47.1767 17.4228C47.7522 16.9935 48.7972 16.6528 50.2958 16.6528C52.8395 16.6528 54.0941 17.5086 54.0941 19.7378V25.3924H52.1766V23.85C51.7599 24.8453 50.6964 25.5292 49.3037 25.5292C47.545 25.5292 46.4976 24.5529 46.4976 22.8735C46.4976 20.9207 47.9432 20.3707 50.0864 20.3707H52.0546V19.9927C52.0546 18.7747 51.463 18.3991 50.2958 18.3991C48.6937 18.3991 47.7706 19.0161 47.1767 19.9256V17.4228ZM52.0546 22.3774V21.6745H50.3304C49.1287 21.6745 48.5532 21.8972 48.5532 22.6696C48.5532 23.3215 49.0413 23.732 49.946 23.732C51.3249 23.7293 51.9671 22.9593 52.0546 22.3774Z" fill="white"/>
<path d="M55.1045 16.8259H57.3858L59.7729 22.7031L61.7204 16.8259H63.882L60.3968 26.303C59.6302 28.3604 58.8452 28.8219 57.6965 28.8219C57.1579 28.8219 56.5663 28.6689 56.3038 28.4436V26.5766C56.5663 26.8341 56.9668 27.0058 57.3466 27.0058C57.9751 27.0058 58.4447 26.5954 58.7762 25.4286L55.1045 16.8259Z" fill="white"/>
<path d="M16.5439 17.4326V20.0642L20.0913 22.2504L28.5811 16.0968C28.2818 15.4449 27.9043 14.8359 27.4623 14.2752L20.0913 19.6188L16.5439 17.4326Z" fill="white"/>
<path d="M27.2529 19.6866C27.2552 19.7483 27.2552 19.8127 27.2552 19.8744C27.2552 23.7613 24.0416 26.9213 20.0937 26.9213C16.1458 26.9213 12.9276 23.7613 12.9276 19.8744C12.9276 15.9875 16.1412 12.8274 20.0914 12.8274C21.5877 12.8274 22.9781 13.2808 24.1291 14.0588L25.9384 12.7443C24.3409 11.4729 22.3036 10.711 20.0868 10.711C14.9418 10.711 10.7729 14.8151 10.7729 19.8771C10.7729 24.939 14.9441 29.0432 20.0868 29.0432C25.234 29.0432 29.403 24.939 29.403 19.8771C29.403 19.3164 29.35 18.7664 29.2533 18.2354L27.2529 19.6866Z" fill="white"/>
</svg>
