<svg width="68" height="40" viewBox="0 0 68 40" fill="none" xmlns="http://www.w3.org/2000/svg">
<path d="M0 4C0 1.79086 1.79086 0 4 0H64C66.2091 0 68 1.79086 68 4V36C68 38.2091 66.2091 40 64 40H4C1.79086 40 0 38.2091 0 36V4Z" fill="white"/>
<path d="M55.5423 17.7894V24.6349H53.0876V19.8329H50.7242V24.6349H48.2695V17.7889H55.5423V17.7894Z" fill="#0E0737"/>
<path fill-rule="evenodd" clip-rule="evenodd" d="M43.2282 24.8797C45.4256 24.8797 47.0573 23.538 47.0573 21.5041C47.0573 19.5354 45.8534 18.2572 43.8414 18.2572C42.9129 18.2572 42.1467 18.5827 41.5696 19.1444C41.7073 17.9835 42.6931 17.1361 43.7784 17.1361C44.0289 17.1361 45.9146 17.1321 45.9146 17.1321L46.9809 15.1C46.9809 15.1 44.6135 15.1537 43.5129 15.1537C40.9983 15.1973 39.2998 17.4735 39.2998 20.238C39.2998 23.4587 40.9564 24.8797 43.2282 24.8797ZM43.2416 20.0572C44.0575 20.0572 44.6231 20.591 44.6231 21.5038C44.6231 22.3254 44.1205 23.0023 43.2416 23.0042C42.4009 23.0042 41.8353 22.377 41.8353 21.5178C41.8353 20.6048 42.4009 20.0572 43.2416 20.0572Z" fill="#0E0737"/>
<path d="M37.302 22.3431C37.302 22.3431 36.7223 22.6758 35.8565 22.7388C34.8612 22.7682 33.9743 22.1422 33.9743 21.0299C33.9743 19.9449 34.7569 19.3231 35.8314 19.3231C36.4903 19.3231 37.3619 19.7778 37.3619 19.7778C37.3619 19.7778 37.9997 18.6123 38.3301 18.0295C37.7251 17.5728 36.9193 17.3225 35.9821 17.3225C33.6167 17.3225 31.7847 18.8583 31.7847 21.0161C31.7847 23.2015 33.5066 24.7016 35.9821 24.6564C36.674 24.6307 37.6286 24.3887 38.2104 24.0166L37.302 22.3431Z" fill="#0E0737"/>
<path d="M6 12.0947L9.40499 18.1555V21.8524L6.00398 27.9014L6 12.0947Z" fill="#5B57A2"/>
<path d="M19.0737 15.95L22.2643 14.0026L28.7941 13.9966L19.0737 19.9265V15.95Z" fill="#D90751"/>
<path d="M19.0556 12.059L19.0736 20.0833L15.6606 17.995V6L19.0558 12.059H19.0556Z" fill="#FAB718"/>
<path d="M28.7939 13.9966L22.264 14.0026L19.0556 12.059L15.6606 6L28.7937 13.9966H28.7939Z" fill="#ED6F26"/>
<path d="M19.0736 27.935V24.0418L15.6606 21.9931L15.6625 34L19.0736 27.935Z" fill="#63B22F"/>
<path d="M22.2564 26.0053L9.40475 18.1555L6 12.0947L28.7803 25.9974L22.2562 26.0053H22.2564Z" fill="#1487C9"/>
<path d="M15.6631 34L19.0737 27.935L22.2563 26.0053L28.7802 25.9974L15.6631 34Z" fill="#017F36"/>
<path d="M6.00391 27.9014L15.6886 21.9934L12.4327 20.004L9.40491 21.8524L6.00391 27.9014Z" fill="#984995"/>
</svg>
