<svg width="96" height="40" viewBox="0 0 96 40" fill="none" xmlns="http://www.w3.org/2000/svg">
<path d="M0 4C0 1.79086 1.79086 0 4 0H92C94.2091 0 96 1.79086 96 4V36C96 38.2091 94.2091 40 92 40H4C1.79086 40 0 38.2091 0 36V4Z" fill="#FFDD2D"/>
<path d="M32.2179 19.3554L32.5102 18.4248L31.5434 18.4549C31.4618 18.4549 30.8681 18.4381 30.2922 18.0226C30.3351 18.0268 30.378 18.0327 30.4218 18.0327C31.0146 18.0327 31.588 17.6775 31.818 17.1698L32.234 16.2526C31.7127 16.2593 31.2361 16.194 31.2361 16.194C31.2318 16.1931 30.8563 16.1454 30.4218 15.7039C30.1102 15.3873 29.7246 15.2197 29.3069 15.2197C29.1242 15.2197 28.9608 15.2523 28.8202 15.2968C28.8421 15.2222 28.8631 15.1468 28.875 15.0689C29.0079 14.2102 28.4522 13.5552 28.4522 13.556L27.7255 12.6606L27.275 13.7127C27.2733 13.716 27.1596 13.9623 26.9559 14.0829C26.8944 13.7738 26.7437 13.4262 26.4212 13.0936C25.8132 12.467 25.073 12.374 24.6856 12.374C24.5063 12.374 24.3783 12.3933 24.3471 12.3983L23.4697 12.5701C23.5202 12.3749 23.628 12.0356 23.825 11.7298L24.3093 10.9793L23.0908 11.1175L22.7026 10.2974L21.9515 10.6827L21.2568 10L20.5637 10.6827L19.8101 10.2974L19.4227 11.1175L18.2051 10.9793L18.6901 11.7298C18.8872 12.0356 18.995 12.374 19.0447 12.5692L18.2076 12.405L18.179 12.4C18.1369 12.3933 18.0098 12.374 17.8295 12.374C17.4422 12.374 16.702 12.4678 16.0957 13.0936C15.7723 13.4254 15.6216 13.7738 15.5593 14.0829C15.3573 13.964 15.2444 13.721 15.2444 13.721L14.793 12.663L14.0546 13.5644C13.9644 13.6808 13.519 14.2966 13.6403 15.0706C13.6529 15.1477 13.6731 15.223 13.695 15.2976C13.5552 15.2532 13.3918 15.2205 13.2091 15.2205C12.7915 15.2205 12.4058 15.3881 12.0934 15.7048C11.6605 16.1445 11.2867 16.194 11.2901 16.194C11.2901 16.194 10.8951 16.2643 10.2838 16.2534L10.6972 17.1707C10.9272 17.6792 11.5014 18.0335 12.0934 18.0335C12.138 18.0335 12.181 18.0276 12.2248 18.0235C11.6505 18.439 11.0568 18.4557 10.9852 18.4565L10 18.4248L10.2981 19.3545C10.448 19.8338 10.949 20.6279 11.909 20.7133C11.8046 21.1489 11.573 21.6365 11.0644 21.8467L10.331 22.1474L10.7309 22.8402C10.9566 23.2138 11.4863 23.6511 12.2407 23.6511C12.4041 23.6503 12.5615 23.6343 12.7132 23.6025C12.7519 23.7734 12.8007 23.9443 12.858 24.1135C13.0828 24.7786 12.8891 25.2427 12.8866 25.2478L12.5245 26.0025L13.3329 26.2145C13.343 26.2178 13.5872 26.284 13.8929 26.284C14.0318 26.284 14.164 26.2698 14.2887 26.2405C14.3829 26.2186 14.4731 26.1893 14.5598 26.1541C14.6642 26.3409 14.7914 26.511 14.9396 26.6634C15.4575 27.192 16.1909 27.4601 17.1205 27.4601H17.1239L17.7875 27.4517L16.4165 28.018L17.4574 28.5181C17.8355 28.7016 18.2842 28.9185 18.7407 29.0844L18.611 29.4379L18.9697 29.6004C19.0017 29.6146 19.6913 29.9221 20.8383 29.9874C20.8383 29.9874 21.1153 30 21.2677 30C21.4201 30 21.6938 29.9866 21.6938 29.9866C22.8331 29.9196 23.5177 29.6155 23.5497 29.6004L23.9092 29.4371L23.7779 29.0828C24.2478 28.9118 24.7126 28.6865 25.0747 28.5106L26.0961 28.0172L24.7294 27.4501L25.3955 27.4585C26.326 27.4585 27.0603 27.1904 27.5773 26.661C27.7246 26.5093 27.8518 26.3393 27.9571 26.1525C28.0438 26.1877 28.1347 26.217 28.2291 26.2388C28.3528 26.268 28.4851 26.2823 28.624 26.2823C28.9246 26.2823 29.1714 26.2162 29.1781 26.2145L29.9898 26.0009L29.6361 25.2603C29.6277 25.241 29.4341 24.7778 29.6589 24.1118C29.7161 23.9418 29.7641 23.7709 29.8029 23.6008C29.9553 23.6327 30.1144 23.6494 30.2787 23.6494C31.2394 23.6494 31.7 22.9768 31.7893 22.831L32.1851 22.1458L31.4516 21.8459C30.9422 21.6356 30.7115 21.1472 30.6079 20.7125C31.5544 20.632 32.063 19.8379 32.2179 19.3554ZM19.1086 12.8901L19.0986 12.8926L19.107 12.8817L19.1086 12.8901Z" fill="white"/>
<path d="M21.2574 12.8491C20.481 12.8499 19.8992 13.1029 19.772 13.4002L21.2574 13.9833L22.7428 13.4002C22.6165 13.1029 22.0346 12.8499 21.2574 12.8491Z" fill="white"/>
<path d="M21.2728 28.2836H21.2711H21.2584H21.2441H21.2433C20.7725 28.2869 20.125 28.1906 19.8126 28.1001L19.437 29.1112C19.6846 29.1992 20.5233 29.3667 21.2584 29.3667C21.9919 29.3667 22.8314 29.1983 23.0781 29.1112L22.7034 28.1001C22.3902 28.1914 21.7434 28.2869 21.2728 28.2836Z" fill="white"/>
<path d="M24.1146 27.2783C23.8351 27.4358 23.2111 27.672 22.8481 27.7818L23.153 28.6169C23.7146 28.4644 24.1777 28.2861 24.5609 28.0951L23.9285 27.8856L24.1146 27.2783Z" fill="white"/>
<path d="M18.4014 27.2783L18.5883 27.8856L17.9551 28.0951C18.3374 28.2861 18.803 28.4644 19.3622 28.6169L19.667 27.7818C19.3057 27.672 18.6809 27.4349 18.4014 27.2783Z" fill="white"/>
<path d="M21.2576 11.8823C21.8428 11.8823 22.4171 12.0213 22.8583 12.266C22.8988 12.1311 22.9552 11.9677 23.0318 11.7968L22.8651 11.8169L22.6899 11.8354L22.6158 11.677L22.3927 11.208L21.9859 11.419L21.8276 11.4994L21.7013 11.3755L21.2592 10.9399L20.818 11.3755L20.6917 11.4994L20.5334 11.419L20.1241 11.208L19.9035 11.677L19.8278 11.8354L19.6526 11.8169L19.4858 11.7968C19.5625 11.9685 19.6181 12.1311 19.6593 12.266C20.1014 12.0213 20.674 11.8823 21.2576 11.8823Z" fill="white"/>
<path d="M30.1928 17.3039C30.2686 17.3298 30.346 17.3415 30.4227 17.3415C30.7536 17.3415 31.0736 17.1288 31.1839 16.885C31.1839 16.885 30.5768 16.8482 29.9241 16.1889C29.7162 15.9752 29.4964 15.9116 29.3078 15.9116C29.0147 15.9116 28.7949 16.0657 28.7949 16.0657C29.5831 16.4829 29.7439 17.1531 30.1928 17.3039Z" fill="white"/>
<path d="M12.0929 17.3415C12.1695 17.3415 12.247 17.3298 12.3211 17.3039C12.7716 17.1531 12.9333 16.4829 13.7215 16.0657C13.7215 16.0657 13.5008 15.9116 13.2095 15.9116C13.02 15.9116 12.8002 15.9752 12.5914 16.1889C11.9397 16.8482 11.3325 16.885 11.3325 16.885C11.4412 17.1288 11.762 17.3415 12.0929 17.3415Z" fill="white"/>
<path d="M30.4069 20.0272C30.4204 20.028 30.4322 20.028 30.4465 20.028C31.2725 20.028 31.553 19.1476 31.553 19.1476H31.537C31.3854 19.1476 30.1568 19.1125 29.2886 18.0142C28.7169 17.2922 28.2487 16.6572 27.3232 16.4075L27.2323 16.3916L27.2121 16.2995C27.1868 16.1587 27.2837 16.0272 27.5035 15.8848C28.78 15.053 27.9135 13.9924 27.9135 13.9924C27.9135 13.9924 27.5489 14.841 26.733 14.841C26.7136 14.841 26.6925 14.8402 26.6723 14.8402C26.5797 14.8352 26.4905 14.8318 26.4003 14.8126L26.2496 14.7832C26.2496 14.7832 26.4821 14.1541 25.9212 13.5761C25.4985 13.1397 24.984 13.066 24.6867 13.066C24.5368 13.066 24.4417 13.0852 24.4417 13.0852C24.7238 13.4521 24.9275 14.0603 24.6017 14.4356C24.3205 14.7581 23.6333 14.774 23.6333 15.2548C23.6333 15.4584 23.8245 15.6963 24.168 15.9099C25.2012 16.5575 26.2269 17.4161 26.6529 18.5671C27.186 20.0029 26.5856 20.9554 25.7284 21.5016C25.7284 21.5016 25.997 21.7478 26.3869 21.7788C26.466 21.7864 26.5435 21.7897 26.6159 21.7897C27.4386 21.7897 27.8639 21.406 27.8639 21.406C27.8639 21.406 27.7939 21.9363 27.3653 22.4289C26.9704 22.8837 26.4517 23.151 25.661 23.1627C25.661 23.1627 25.6357 23.5279 25.9861 23.8438C26.21 24.0431 26.7279 24.1085 26.7279 24.1085C26.7279 24.1085 25.7587 24.3036 25.6518 25.7278C25.5936 26.4992 25.3957 26.7673 25.3957 26.7673H25.4135C27.6626 26.7673 27.6045 24.8482 27.6045 24.8482C27.6045 24.8482 27.7611 25.4161 28.3885 25.5644C28.4642 25.5845 28.5451 25.592 28.6225 25.592C28.8247 25.592 28.9998 25.5451 28.9998 25.5451C28.9998 25.5451 28.6714 24.8557 28.9973 23.8915C29.2676 23.0915 29.2238 22.4984 29.2238 22.4984C29.2238 22.4984 29.5269 22.9541 30.2781 22.9583H30.2856C30.9113 22.9583 31.1841 22.4867 31.1841 22.4867C29.6844 21.8676 29.8326 19.8689 29.8326 19.8689C29.8326 19.8689 30.0272 20.013 30.4069 20.0272ZM29.9555 22.1147C29.3459 21.8157 28.9602 21.0216 28.8668 20.735C28.7657 22.3099 27.9927 23.4031 27.0891 24.4552C26.6201 25.0006 26.4568 25.5308 26.4568 25.5308C26.4568 25.5308 26.5469 24.9303 26.9527 24.441C27.7957 23.4332 28.5965 22.1793 28.6562 20.7292C28.6975 19.7173 28.4356 18.8963 28.0272 18.2203C28.2554 18.9248 28.2234 19.7876 27.4479 20.5926C27.4479 20.5926 28.9914 18.7522 26.8332 16.8657C25.9692 16.1479 25.0244 15.7047 24.5377 15.3906C26.2959 15.961 27.154 15.3327 27.154 15.3327C26.5923 15.8169 25.8656 15.8085 25.4151 15.739C25.5372 15.7985 25.6644 15.8605 25.8016 15.9334C27.2837 16.7342 28.6158 18.0519 28.8432 19.8773V19.863C29.1884 21.6548 29.9555 22.1147 29.9555 22.1147Z" fill="white"/>
<path d="M15.7874 24.1085C15.7874 24.1085 16.3053 24.044 16.5293 23.8438C16.8787 23.5279 16.8544 23.1627 16.8544 23.1627C16.0628 23.1518 15.545 22.8837 15.1475 22.4298C14.7222 21.9372 14.6515 21.4069 14.6515 21.4069C14.6515 21.4069 15.0767 21.7906 15.8986 21.7906C15.9727 21.7906 16.0494 21.7872 16.1285 21.7797C16.5184 21.7487 16.7878 21.5024 16.7878 21.5024C15.9306 20.9562 15.3294 20.0029 15.8616 18.5671C16.2885 17.4169 17.3133 16.5575 18.3466 15.9099C18.6901 15.6963 18.8812 15.4592 18.8812 15.2548C18.8812 14.774 18.1949 14.7581 17.9137 14.4356C17.5878 14.0603 17.7925 13.4513 18.0737 13.0852C18.0737 13.0852 17.9802 13.066 17.8295 13.066C17.5331 13.066 17.0186 13.1397 16.5958 13.5761C16.0333 14.1541 16.2666 14.7832 16.2666 14.7832L16.1159 14.8126C16.0258 14.8318 15.9357 14.8352 15.8439 14.8402C15.8229 14.8402 15.8043 14.841 15.7841 14.841C14.9665 14.841 14.6035 13.9933 14.6035 13.9933C14.6035 13.9933 13.737 15.0538 15.0128 15.8856C15.2326 16.028 15.3286 16.1595 15.3033 16.3003L15.283 16.3925L15.1904 16.4084C14.2667 16.658 13.7977 17.293 13.2259 18.015C12.3594 19.1116 11.1325 19.1476 10.9793 19.1476H10.9624C10.9624 19.1476 11.2428 20.028 12.0689 20.028C12.0824 20.028 12.0942 20.028 12.1085 20.0272C12.4882 20.0138 12.6836 19.8689 12.6836 19.8689C12.6836 19.8689 12.8301 21.8668 11.3321 22.4867C11.3321 22.4867 11.6049 22.9583 12.2306 22.9583H12.2382C12.9901 22.9541 13.2924 22.4984 13.2924 22.4984C13.2924 22.4984 13.2486 23.0915 13.5181 23.8915C13.844 24.8557 13.5172 25.5451 13.5172 25.5451C13.5172 25.5451 13.6924 25.592 13.8936 25.592C13.972 25.592 14.052 25.5845 14.1269 25.5644C14.7534 25.4161 14.9109 24.8482 14.9109 24.8482C14.9109 24.8482 14.8536 26.7673 17.1028 26.7673H17.1187C17.1187 26.7673 16.9217 26.4992 16.8645 25.7278C16.7567 24.3036 15.7874 24.1085 15.7874 24.1085ZM15.4263 24.4552C14.5227 23.4031 13.7505 22.3099 13.6486 20.735C13.5552 21.0208 13.1712 21.8157 12.5615 22.1147C12.5615 22.1147 13.3278 21.6548 13.6722 19.863V19.8773C13.9004 18.0528 15.2317 16.7342 16.7146 15.9334C16.8502 15.8597 16.979 15.7977 17.1003 15.739C16.6497 15.8085 15.923 15.8169 15.3614 15.3327C15.3614 15.3327 16.2194 15.961 17.9768 15.3906C17.4902 15.7047 16.5462 16.1479 15.6822 16.8657C13.5231 18.7522 15.0675 20.5926 15.0675 20.5926C14.2911 19.7867 14.26 18.9248 14.4882 18.2203C14.0789 18.8972 13.8179 19.7173 13.86 20.7292C13.9189 22.1793 14.7197 23.4332 15.5609 24.441C15.9677 24.9294 16.0595 25.5308 16.0595 25.5308C16.0595 25.5308 15.8944 25.0006 15.4263 24.4552Z" fill="white"/>
<path d="M19.5949 17.092C19.6319 17.1313 19.6682 17.1741 19.7027 17.2168C19.7111 17.2269 19.7187 17.2361 19.7271 17.2478C19.7591 17.2905 19.792 17.3358 19.8231 17.3818C19.8298 17.3911 19.8366 17.402 19.8442 17.4128C19.8821 17.4698 19.9175 17.5285 19.9528 17.5888C20.277 18.1458 20.7966 18.4784 21.2572 18.4792C21.7186 18.4784 22.2365 18.1458 22.5624 17.5888C22.5986 17.5268 22.6348 17.4665 22.6726 17.4103C22.6786 17.402 22.6845 17.3944 22.6895 17.3861C22.7215 17.3383 22.7552 17.2914 22.7906 17.2461C22.7981 17.2361 22.8049 17.2277 22.8116 17.2193C22.8478 17.1749 22.8849 17.1314 22.9228 17.0911C22.9295 17.0845 22.9345 17.0786 22.9404 17.0736C23.1055 16.9052 23.3025 16.777 23.5602 16.7058L23.4457 16.6397H23.439L22.9825 16.3758L22.5135 16.1086L21.2605 16.7871L21.2572 16.7846L21.2546 16.7871L20.0008 16.1086L19.5326 16.3749L19.0754 16.6388H19.0703L18.9541 16.705C19.2126 16.7762 19.4088 16.9027 19.5747 17.0711C19.5822 17.0778 19.5873 17.0853 19.5949 17.092ZM20.7502 17.0376H21.2807H21.8104V17.3994C21.6858 17.2478 21.4433 17.2788 21.4433 17.2788V17.8007C21.4433 17.8007 21.4525 18.0571 21.5426 18.1684H21.2807H21.018C21.1098 18.0579 21.1182 17.8007 21.1182 17.8007V17.2788C21.1182 17.2788 20.8765 17.2478 20.7502 17.3994V17.0376Z" fill="white"/>
<path d="M21.1492 16.3354V14.2169L19.7935 13.7595L20.1513 15.8127L21.1492 16.3354ZM20.8578 14.7371V15.0772L20.7922 15.0471C20.7888 15.0446 20.6928 15.0228 20.5244 14.8904C20.2465 14.676 20.2415 14.4783 20.2415 14.4783L20.8578 14.7371Z" fill="white"/>
<path d="M22.3654 15.8127L22.7216 13.7595L21.3667 14.2169V16.3354L22.3654 15.8127ZM21.6581 14.7371L22.2744 14.4791C22.2744 14.4791 22.2694 14.6768 21.9907 14.8912C21.8231 15.0236 21.7263 15.0453 21.7229 15.0479L21.6572 15.078V14.7371H21.6581Z" fill="white"/>
<path d="M19.2318 21.247C19.364 21.2947 19.524 21.3048 19.6056 21.3048C19.609 21.2947 19.6132 21.2821 19.6175 21.267C19.625 21.2428 19.6318 21.2193 19.6369 21.1925C19.6596 21.0753 19.668 20.942 19.6697 20.8566C19.614 20.8222 19.5358 20.761 19.492 20.6698C19.4415 20.5642 19.3699 20.5156 19.2646 20.5156C19.1282 20.5156 18.9817 20.5969 18.9194 20.6355C18.8697 20.9278 19.0861 21.1933 19.2318 21.247Z" fill="white"/>
<path d="M22.2304 20.1226C21.9787 20.3949 21.4861 20.869 21.4616 20.8933L21.4322 20.9235L19.8752 20.8992C19.8743 21.0525 19.8491 21.1832 19.8247 21.2787C19.8205 21.2946 19.8163 21.3113 19.812 21.3281L21.6646 21.659C21.8574 21.525 22.3879 21.1396 22.5934 20.9888C22.4435 20.771 22.4291 20.513 22.4628 20.3312C22.3652 20.2684 22.2902 20.198 22.2304 20.1226Z" fill="white"/>
<path d="M22.4419 18.2598C22.0831 18.6141 21.7388 18.7448 21.4314 18.775C21.3758 18.7808 21.3194 18.7841 21.2622 18.7841H21.2579H21.2546C21.1973 18.7841 21.1401 18.7808 21.0845 18.775C21.0306 18.7699 20.9742 18.7616 20.9178 18.749C20.8975 18.8286 20.8723 18.9953 20.9447 19.1528C21.0095 19.296 21.1418 19.4024 21.3346 19.4728L21.3994 19.4979L21.4003 19.5674C21.4003 19.5883 21.4154 20.0391 21.9097 20.1638C21.9905 20.0809 22.0638 20.0064 22.1177 19.9443C22.0166 19.7081 22.0697 19.4669 22.2162 19.3488C22.2095 19.3739 22.1455 19.9653 22.6221 20.1848L22.7004 20.2217L22.6768 20.3046C22.6692 20.3297 22.5101 20.9019 23.0869 21.1146L23.1888 21.1532L23.1433 21.2521C23.1332 21.2738 22.9067 21.7932 23.4398 22.0881H24.5959V21.175C24.185 21.1247 24.0107 20.7963 23.966 20.5634C23.7749 20.5308 23.6267 20.4487 23.5256 20.3146C23.2831 19.9971 23.4919 19.7065 23.4945 19.6906C23.4936 19.6931 23.4945 20.003 23.6865 20.194C23.7816 20.2861 23.8945 20.3574 24.0654 20.3733L24.1496 20.3808L24.1572 20.4663C24.1588 20.4847 24.2052 20.9036 24.5967 20.9697L24.5959 19.105C24.5959 18.816 24.681 18.5253 24.7829 18.2573H22.4419V18.2598Z" fill="white"/>
<path d="M19.3304 19.1139L19.2993 20.3018L19.4348 20.3219L19.7666 19.1827L19.5982 18.8325L19.3304 19.1139Z" fill="white"/>
<path d="M22.9881 24.5617C22.9982 24.5617 23.01 24.5634 23.021 24.5659C23.2273 24.6245 23.2795 25.365 23.6416 25.4312C23.6769 25.4387 23.7098 25.4404 23.7384 25.4404C23.8429 25.4404 23.9052 25.396 23.9725 25.3173C23.9725 25.3173 23.7906 25.0324 23.6542 24.8407C23.4732 24.5893 23.3326 24.2852 22.9957 24.2852C22.9881 24.2852 22.978 24.2852 22.9696 24.2861C22.8585 24.2919 22.7903 24.3455 22.7903 24.3455C22.6538 24.2601 22.5267 24.2308 22.4113 24.2308C22.2 24.2308 22.0358 24.3272 21.954 24.3272H21.9507L21.1979 24.2534C21.08 24.2425 20.9874 24.1244 20.9537 24.0784C20.9453 24.0657 20.9411 24.0582 20.9411 24.0582C20.9411 24.0381 20.9411 24.0172 20.9394 23.9987C20.9141 23.3864 20.4375 23.1242 20.2683 23.12C20.2683 23.12 20.2885 23.0036 20.2422 22.9592L20.0763 23.1594L19.5315 22.8871L19.9197 23.3387L19.5904 23.7064C19.5491 23.7483 19.5542 23.8053 19.571 23.8287L19.7133 23.9535L19.8936 23.8446C19.9028 23.8379 19.9188 23.8362 19.939 23.8362C19.9887 23.8362 20.0637 23.8488 20.131 23.8488C20.2043 23.8488 20.2683 23.8329 20.2758 23.7642C20.2531 23.9912 20.0418 24.3857 20.1807 24.6957L20.2835 24.9294L19.6182 24.8339L19.3066 25.3575C19.2106 25.5317 19.1955 25.7202 19.2881 25.8224L19.4043 25.9674C19.4043 25.9674 19.5677 25.7947 19.6047 25.6817L19.5516 25.6239C19.507 25.5753 19.5096 25.5317 19.5365 25.479L19.7319 25.1564L20.5175 25.3407L20.5587 25.2704C20.6118 25.1824 20.6885 25.1556 20.7727 25.1556C20.8072 25.1556 20.8426 25.1598 20.8796 25.1657C21.0253 25.1942 21.2653 25.2327 21.5053 25.2327C21.7688 25.2327 22.0299 25.1858 22.1688 25.0308C22.4534 25.4505 23.0302 25.5175 22.9847 25.7302L22.8332 26.449C22.9334 26.4448 23.0302 26.4381 23.122 26.4255L23.266 25.6774C23.282 25.5962 23.2972 25.4864 23.2972 25.4864C23.2416 25.4304 23.1069 25.3114 23.0311 25.1673C22.9292 24.9729 22.9847 24.8716 22.8896 24.6186C22.893 24.6203 22.9216 24.5617 22.9881 24.5617ZM20.0493 23.5112C20.0106 23.5104 19.9828 23.4777 19.9845 23.4392C19.9879 23.4023 20.019 23.373 20.0569 23.3763C20.0956 23.378 20.1234 23.4115 20.1218 23.4484C20.1184 23.4852 20.0864 23.5137 20.0493 23.5112Z" fill="white"/>
<path d="M18.9767 25.2418C18.9767 25.2418 19.2368 25.1355 19.2604 25.0592L19.2259 24.9729C19.2014 24.9168 19.2048 24.8556 19.252 24.8222L19.5332 24.6286L20.0031 24.7183C20.0031 24.7183 19.918 24.6127 19.9265 24.4711L19.4785 24.3765L19.0558 24.6328C18.8747 24.7677 18.8612 24.988 18.921 25.1186L18.9767 25.2418Z" fill="white"/>
<path d="M22.2979 26.4599C22.3821 26.4565 22.4747 26.4549 22.5766 26.4549C22.5766 26.4549 22.8183 25.752 22.8317 25.7295C22.6962 25.67 22.4149 25.5216 22.3063 25.4538C22.3778 25.5602 22.5522 25.6825 22.5177 25.7763L22.2979 26.4599Z" fill="white"/>
<path d="M24.5981 22.2916H17.918V24.7913C17.918 25.8133 18.6616 26.4533 19.7587 26.4533C20.6758 26.4533 20.9174 26.4884 21.2585 26.8252C21.4934 26.5923 21.688 26.5052 22.0871 26.4725L22.0963 26.434L22.3068 25.7865C22.295 25.7722 21.9507 25.3827 21.9507 25.3827C21.8142 25.428 21.6997 25.4355 21.5069 25.4355C21.309 25.4355 21.0859 25.4128 20.8442 25.3676C20.8197 25.3618 20.797 25.3601 20.7743 25.3601C20.7448 25.3601 20.7423 25.3626 20.7347 25.3768L20.6926 25.4455L20.616 25.5712L20.472 25.5385L19.8312 25.3886L19.7436 25.5327L19.757 25.5477L19.8354 25.6332L19.8009 25.7446C19.7537 25.8903 19.6004 26.0604 19.5541 26.1073L19.3941 26.2782L19.2485 26.0948L19.139 25.9582C19.0236 25.8301 18.9967 25.6332 19.0615 25.4271C19.0598 25.4288 19.0573 25.4296 19.0548 25.4296L18.8738 25.5042L18.792 25.3282L18.7348 25.2035C18.6363 24.984 18.6724 24.6631 18.9378 24.4696L19.454 24.1798L19.9449 24.2761C19.9566 24.2292 19.9743 24.0616 19.9886 24.019C19.9794 24.0181 19.9701 24.0156 19.9608 24.0156L19.6779 24.1203L19.405 23.9327C19.405 23.9327 19.2981 23.8304 19.3949 23.7283L19.6594 23.3304L18.9899 22.4943L20.0189 22.9149L20.0872 22.8303L20.2261 22.6652L20.3836 22.8143C20.4282 22.8571 20.4534 22.9098 20.466 22.9626C20.7498 23.0723 21.2576 23.3966 21.3022 23.9234L21.1431 23.9871V23.9913C21.1793 24.034 21.2096 24.0516 21.2188 24.0533L21.9532 24.1253C21.9717 24.122 21.9953 24.1136 22.0214 24.1061C22.1123 24.0751 22.2496 24.0307 22.4121 24.0307C22.5443 24.0307 22.6723 24.0608 22.7952 24.1178C22.8407 24.1011 22.8963 24.0885 22.9603 24.0843L22.9956 24.0835C23.3889 24.0835 23.5842 24.3758 23.7409 24.6087C23.767 24.6488 23.7931 24.6874 23.82 24.7251C23.9573 24.9178 24.1366 25.2001 24.1442 25.2118L24.2251 25.3375L24.1257 25.4523C24.0491 25.5402 23.9345 25.6433 23.7375 25.6433C23.6971 25.6433 23.6525 25.6391 23.6045 25.6298C23.5624 25.6223 23.5245 25.6097 23.4874 25.5946C23.4815 25.6332 23.474 25.6793 23.4663 25.7186L23.3375 26.3871C24.108 26.1986 24.5973 25.6198 24.5973 24.7921L24.5981 22.2916Z" fill="#FFDD2D"/>
<path d="M17.9181 22.0905H23.1128C22.8535 21.8242 22.8569 21.4866 22.9234 21.2671C22.8476 21.231 22.7853 21.1875 22.7297 21.1406C22.5268 21.2897 21.907 21.7387 21.7453 21.8509L21.7108 21.8744L19.6722 21.5075H19.6309C19.5821 21.5075 19.5105 21.5058 19.4322 21.4966C19.4103 21.5879 19.3312 21.6508 19.2402 21.6508C19.2301 21.6508 19.2183 21.6499 19.2073 21.6474C19.1543 21.6382 19.108 21.6113 19.0769 21.567C19.0448 21.5234 19.0322 21.4715 19.0415 21.4179L19.0491 21.3743C18.8385 21.2269 18.6449 20.8976 18.7307 20.5508L18.7391 20.514L18.7686 20.493C18.7729 20.4897 18.8082 20.4663 18.8604 20.4361L18.7122 20.4135C18.6566 20.4034 18.6196 20.3523 18.6281 20.2979C18.6373 20.2426 18.6895 20.2032 18.7442 20.2141L19.097 20.2694L19.129 19.0329L19.6545 18.48L19.9821 19.1662L19.6359 20.3557L19.9476 20.4043C20.0023 20.4126 20.0402 20.4637 20.0318 20.5198C20.0233 20.5693 19.9812 20.6036 19.9315 20.6036C19.9265 20.6036 19.9206 20.6036 19.9155 20.6028L19.662 20.5618C19.6655 20.5693 19.6705 20.5734 19.6739 20.5818C19.7008 20.6371 19.7606 20.6773 19.7959 20.6941L21.3504 20.7184C21.4161 20.6547 21.5795 20.4955 21.747 20.3272C21.3648 20.1831 21.2258 19.8547 21.2022 19.6369C20.9883 19.5464 20.841 19.4108 20.7593 19.234C20.6599 19.0154 20.6953 18.7967 20.7214 18.6903C20.5142 18.6149 20.2962 18.4776 20.0738 18.2581H17.7329C17.8331 18.5261 17.9181 18.8168 17.9181 19.1058V22.0905Z" fill="#FFDD2D"/>
<path d="M20.0583 23.3762C20.0202 23.3729 19.9881 23.4022 19.9855 23.439C19.983 23.4775 20.0118 23.5102 20.0507 23.511C20.0879 23.5144 20.121 23.4859 20.1243 23.4482C20.1243 23.4114 20.0973 23.3771 20.0583 23.3762Z" fill="black"/>
<path d="M24.5888 27.909L24.2039 27.7623L24.31 27.367L24.4271 26.9355C24.4271 26.9355 23.745 27.3033 22.7842 27.5798C22.5114 27.6577 22.3051 27.6928 22.3051 27.6928V27.986C22.3051 27.986 21.7914 28.0748 21.2719 28.0748H21.2659H21.2584H21.2483H21.2423C20.7228 28.0748 20.2091 27.986 20.2091 27.986V27.6928C20.2091 27.6928 20.002 27.6577 19.73 27.5798C18.7692 27.3033 18.088 26.9355 18.088 26.9355L18.2033 27.367L18.3119 27.7623L17.9263 27.909L17.4985 28.0681C17.9895 28.3035 18.669 28.647 19.2913 28.8162L19.1448 29.2149C19.1448 29.2149 19.9338 29.5726 21.2483 29.576V29.5768H21.2525H21.2584H21.2634H21.2668V29.576C22.583 29.5726 23.3711 29.2149 23.3711 29.2149L23.2237 28.8162C23.846 28.647 24.5273 28.3035 25.0157 28.0681L24.5888 27.909ZM17.9549 28.0949L18.5881 27.8855L18.4012 27.2782C18.6799 27.4357 19.3056 27.6719 19.6677 27.7816L19.362 28.6168C18.8029 28.4635 18.3372 28.2851 17.9549 28.0949ZM21.2584 29.3665C20.5232 29.3665 19.6837 29.1982 19.437 29.1111L19.8125 28.1C20.1241 28.1905 20.7725 28.2868 21.2432 28.2834H21.2441H21.2584H21.271H21.2727C21.7434 28.2868 22.3901 28.1905 22.7034 28.1L23.078 29.1111C22.8314 29.199 21.9926 29.3665 21.2584 29.3665ZM23.153 28.6168L22.8482 27.7816C23.2111 27.6719 23.835 27.4357 24.1147 27.2782L23.9286 27.8855L24.561 28.0949C24.1778 28.2851 23.7146 28.4635 23.153 28.6168Z" fill="black"/>
<path d="M21.2577 12.1269C22.0409 12.1269 22.6673 12.3849 23.0134 12.6605C23.0134 12.6605 23.1161 12.0448 23.4673 11.5011L22.8366 11.5723L22.5065 10.8745L21.8724 11.1996L21.2577 10.5947L20.6447 11.1996L20.0098 10.8745L19.6805 11.5723L19.0498 11.5011C19.4009 12.0448 19.5037 12.6605 19.5037 12.6605C19.8506 12.3849 20.4754 12.1269 21.2577 12.1269ZM19.6519 11.8169L19.827 11.8354L19.9028 11.677L20.1234 11.2079L20.5327 11.4182L20.691 11.4986L20.8173 11.3746L21.2585 10.939L21.7006 11.3746L21.827 11.4986L21.9853 11.4182L22.392 11.2079L22.6151 11.677L22.6892 11.8354L22.8644 11.8169L23.0311 11.7968C22.9545 11.9686 22.898 12.131 22.8576 12.266C22.4164 12.0214 21.8421 11.8823 21.2569 11.8823C20.6742 11.8823 20.1007 12.0214 19.6578 12.266C19.6166 12.131 19.561 11.9677 19.4843 11.7968L19.6519 11.8169Z" fill="black"/>
<path d="M30.4454 20.2969C31.4585 20.2969 31.7969 19.2716 31.8112 19.228L31.9241 18.867L31.5443 18.8787H31.5427C31.4088 18.8787 30.2913 18.8494 29.4989 17.8475L29.424 17.7545C28.9061 17.0995 28.4152 16.477 27.5378 16.193C27.563 16.1705 27.5992 16.142 27.6489 16.1101C28.1146 15.8052 28.3857 15.4349 28.4539 15.0052C28.5533 14.3585 28.139 13.8433 28.1205 13.8224L27.8384 13.4756L27.6624 13.8869C27.6506 13.9128 27.3542 14.5713 26.7311 14.5713H26.6847C26.6418 14.5688 26.6014 14.5671 26.561 14.5637C26.5829 14.2697 26.5289 13.8148 26.1147 13.3884C25.617 12.8749 25.0057 12.7979 24.6857 12.7979C24.5147 12.7979 24.4011 12.8188 24.3893 12.8205L23.9632 12.9042L24.2259 13.2486C24.4322 13.5141 24.6192 14.0042 24.3977 14.2605C24.3269 14.3418 24.1813 14.4079 24.0415 14.4741C23.7544 14.6056 23.3628 14.7882 23.3628 15.254C23.3628 15.5556 23.5977 15.8705 24.0238 16.1386C25.2853 16.9277 26.0633 17.7512 26.3993 18.66C26.9189 20.0582 26.241 20.8557 25.5825 21.2754L25.2869 21.4647L25.5454 21.7009C25.5799 21.7311 25.8966 22.0083 26.3639 22.0486C26.4523 22.0544 26.5374 22.0594 26.6166 22.0594C26.9163 22.0594 27.1715 22.0125 27.3786 21.9497C27.3213 22.0494 27.2514 22.1508 27.163 22.253C26.7867 22.6868 26.3235 22.8846 25.6574 22.8946L25.4098 22.8988L25.3905 23.1459C25.3879 23.1953 25.3695 23.6536 25.8056 24.0431C25.8722 24.1034 25.953 24.1529 26.0372 24.1939C25.7416 24.4586 25.441 24.9193 25.383 25.7093C25.3341 26.3685 25.1758 26.6123 25.1741 26.6148L24.9004 27.0303L25.3947 27.0371C26.2115 27.0371 26.8371 26.8125 27.2708 26.3685C27.5268 26.1055 27.6734 25.809 27.7601 25.546C27.9024 25.6665 28.086 25.7721 28.3251 25.8282C28.416 25.8492 28.5154 25.8609 28.6224 25.8609C28.8531 25.8609 29.0459 25.8123 29.0678 25.8073L29.3836 25.7235L29.2438 25.4303C29.2337 25.4069 28.9701 24.8188 29.2539 23.9794C29.376 23.6167 29.4383 23.2917 29.4686 23.0387C29.6673 23.1417 29.9335 23.2272 30.2778 23.228C31.0593 23.228 31.4037 22.6475 31.4197 22.6232L31.5738 22.3568L31.2884 22.2395C30.357 21.855 30.1507 20.8221 30.1094 20.2626C30.1936 20.2785 30.2897 20.2936 30.3982 20.2969H30.4454ZM31.1839 22.4866C31.1839 22.4866 30.9111 22.9583 30.2854 22.9583H30.2778C29.5267 22.9541 29.2236 22.4984 29.2236 22.4984C29.2236 22.4984 29.2674 23.0915 28.9962 23.8915C28.6703 24.8557 28.9987 25.5451 28.9987 25.5451C28.9987 25.5451 28.8236 25.592 28.6215 25.592C28.544 25.592 28.4632 25.5845 28.3874 25.5643C27.7601 25.4161 27.6035 24.8481 27.6035 24.8481C27.6035 24.8481 27.6615 26.7673 25.4124 26.7673H25.3947C25.3947 26.7673 25.5926 26.4992 25.6515 25.7277C25.7585 24.3036 26.7277 24.1085 26.7277 24.1085C26.7277 24.1085 26.2106 24.044 25.9867 23.8438C25.6363 23.5279 25.6608 23.1627 25.6608 23.1627C26.4523 23.1518 26.9702 22.8838 27.3651 22.4289C27.7929 21.9363 27.8636 21.406 27.8636 21.406C27.8636 21.406 27.4384 21.7897 26.6157 21.7897C26.5433 21.7897 26.4658 21.7863 26.3866 21.7788C25.9976 21.7478 25.7282 21.5015 25.7282 21.5015C26.5845 20.9553 27.1858 20.002 26.6528 18.5662C26.2258 17.4161 25.2002 16.5566 24.1678 15.9091C23.8242 15.6955 23.6331 15.4584 23.6331 15.254C23.6331 14.7732 24.3202 14.7581 24.6023 14.4347C24.9273 14.0594 24.7236 13.4505 24.4415 13.0844C24.4415 13.0844 24.5366 13.0651 24.6865 13.0651C24.9838 13.0651 25.4983 13.1396 25.921 13.5752C26.4827 14.1532 26.2494 14.7824 26.2494 14.7824L26.4001 14.8117C26.4902 14.831 26.5795 14.8343 26.6721 14.8385C26.6923 14.8385 26.7125 14.8393 26.7327 14.8393C27.5487 14.8393 27.9133 13.9907 27.9133 13.9907C27.9133 13.9907 28.7807 15.0521 27.5041 15.8831C27.2843 16.0255 27.1874 16.157 27.2127 16.2978L27.233 16.3899L27.3239 16.4058C28.2493 16.6555 28.7175 17.2905 29.2893 18.0125C30.1574 19.1108 31.386 19.146 31.5376 19.146H31.5536C31.5536 19.146 31.2732 20.0263 30.4471 20.0263C30.4336 20.0263 30.4218 20.0263 30.4075 20.0255C30.0278 20.0121 29.8332 19.8672 29.8332 19.8672C29.8332 19.8672 29.6842 21.8668 31.1839 22.4866Z" fill="black"/>
<path d="M28.6664 16.3037C29.0445 16.5039 29.2643 16.772 29.4571 17.0098C29.6466 17.2419 29.8268 17.4655 30.108 17.5585C30.2082 17.5929 30.3143 17.6088 30.4221 17.6088C30.8448 17.6088 31.2692 17.3516 31.43 16.9956L31.5917 16.6388L31.2002 16.6153C31.1816 16.6145 30.6781 16.5692 30.1173 15.9988C29.8865 15.7651 29.6078 15.6419 29.3072 15.6419C28.9401 15.6419 28.668 15.8245 28.6377 15.843L28.2773 16.0951L28.6664 16.3037ZM29.308 15.9117C29.4966 15.9117 29.7164 15.9753 29.9245 16.1889C30.577 16.8482 31.1842 16.885 31.1842 16.885C31.0739 17.128 30.7539 17.3416 30.4229 17.3416C30.3463 17.3416 30.2697 17.3299 30.193 17.3039C29.7442 17.1531 29.5834 16.483 28.7944 16.0658C28.7944 16.0658 29.015 15.9117 29.308 15.9117Z" fill="black"/>
<path d="M28.8426 19.8631V19.8765C28.6153 18.052 27.2831 16.7343 25.8011 15.9326C25.6638 15.8597 25.5375 15.7978 25.4146 15.7383C25.8659 15.8078 26.5926 15.8162 27.1534 15.332C27.1534 15.332 26.2953 15.9603 24.5371 15.3898C25.0239 15.7039 25.9695 16.1471 26.8326 16.865C28.9908 18.7514 27.4465 20.5918 27.4465 20.5918C28.222 19.7869 28.254 18.9241 28.0258 18.2196C28.4342 18.8956 28.6953 19.7165 28.6548 20.7284C28.5951 22.1785 27.7942 23.4325 26.9513 24.4403C26.5463 24.9295 26.4554 25.5301 26.4554 25.5301C26.4554 25.5301 26.6187 24.9998 27.0877 24.4545C27.9913 23.4024 28.7634 22.3091 28.8645 20.7343C28.958 21.02 29.3428 21.8149 29.9533 22.114C29.955 22.1148 29.1878 21.6549 28.8426 19.8631Z" fill="black"/>
<path d="M17.3414 26.614C17.3405 26.6115 17.1839 26.3677 17.1334 25.7084C17.0745 24.9185 16.7746 24.4577 16.4783 24.193C16.5642 24.1528 16.6433 24.1034 16.7098 24.0423C17.1452 23.6527 17.1266 23.1945 17.1241 23.1451L17.1073 22.898L16.858 22.8938C16.1937 22.8828 15.7296 22.6852 15.3532 22.2521C15.2657 22.1499 15.195 22.0485 15.1377 21.9488C15.3448 22.0116 15.5983 22.0586 15.8989 22.0586C15.9798 22.0586 16.0631 22.0535 16.1515 22.0477C16.6189 22.0075 16.9355 21.731 16.9708 21.7001L17.2294 21.4638L16.9338 21.2745C16.2728 20.854 15.5974 20.0565 16.1162 18.6592C16.4521 17.7503 17.2294 16.9268 18.4925 16.1377C18.9186 15.8696 19.1518 15.5547 19.1518 15.2531C19.1518 14.7874 18.7611 14.6039 18.4739 14.4732C18.3341 14.4071 18.1885 14.3409 18.1178 14.2596C17.8955 14.0041 18.0832 13.5133 18.2887 13.2477L18.5531 12.9034L18.1253 12.8196C18.1127 12.818 18.0007 12.797 17.8289 12.797C17.5089 12.797 16.8993 12.8741 16.4008 13.3876C15.9856 13.8148 15.9309 14.2697 15.952 14.5628C15.9115 14.5662 15.8711 14.5679 15.829 14.5704H15.7836C15.1587 14.5704 14.8632 13.912 14.8514 13.886L14.6754 13.4747L14.3908 13.8215C14.3748 13.8425 13.9588 14.3585 14.0598 15.0043C14.1272 15.4341 14.3983 15.8043 14.864 16.1093C14.9145 16.1411 14.9499 16.1696 14.9752 16.1922C14.0986 16.4761 13.6085 17.0994 13.0906 17.7545L13.0156 17.8475C12.2241 18.8493 11.1042 18.8787 10.9703 18.8787L10.5889 18.867L10.705 19.228C10.7185 19.2716 11.0562 20.2969 12.07 20.2969L12.1189 20.2953C12.2258 20.2919 12.3218 20.2776 12.4077 20.2609C12.3656 20.8196 12.1593 21.8525 11.2271 22.2378L10.9425 22.3551L11.0966 22.6215C11.1118 22.6458 11.457 23.2263 12.2401 23.2263C12.582 23.2255 12.8481 23.14 13.0477 23.037C13.078 23.29 13.1403 23.615 13.2624 23.9777C13.5462 24.8171 13.2818 25.4052 13.2716 25.4286L13.1319 25.7218L13.4485 25.8056C13.4695 25.8106 13.6641 25.8592 13.8939 25.8592C14.0017 25.8592 14.1011 25.8475 14.1904 25.8265C14.4304 25.7704 14.6156 25.6649 14.7562 25.5442C14.8421 25.8072 14.9895 26.1038 15.2447 26.3668C15.6791 26.8108 16.3039 27.0353 17.1207 27.0353L17.6159 27.0286L17.3414 26.614ZM17.1022 26.7673C14.853 26.7673 14.9104 24.8481 14.9104 24.8481C14.9104 24.8481 14.7537 25.4161 14.1264 25.5643C14.0514 25.5844 13.9714 25.592 13.8931 25.592C13.691 25.592 13.5167 25.5451 13.5167 25.5451C13.5167 25.5451 13.8434 24.8556 13.5175 23.8915C13.2481 23.0914 13.2919 22.4984 13.2919 22.4984C13.2919 22.4984 12.9896 22.9541 12.2376 22.9583H12.23C11.6044 22.9583 11.3316 22.4866 11.3316 22.4866C12.8304 21.8676 12.683 19.8688 12.683 19.8688C12.683 19.8688 12.4886 20.0129 12.1079 20.0272C12.0944 20.028 12.0818 20.028 12.0684 20.028C11.2414 20.028 10.9619 19.1476 10.9619 19.1476H10.9787C11.1311 19.1476 12.358 19.1124 13.2262 18.0142C13.798 17.2921 14.267 16.6579 15.1907 16.4075L15.2833 16.3916L15.3036 16.2994C15.3289 16.1587 15.2328 16.0272 15.0131 15.8848C13.7365 15.0529 14.6038 13.9924 14.6038 13.9924C14.6038 13.9924 14.9667 14.8402 15.7844 14.8402C15.8046 14.8402 15.8231 14.8393 15.8442 14.8393C15.9359 14.8343 16.0269 14.8309 16.1162 14.8117L16.2669 14.7823C16.2669 14.7823 16.0336 14.1532 16.5961 13.5752C17.0189 13.1388 17.5334 13.0651 17.8297 13.0651C17.9805 13.0651 18.074 13.0843 18.074 13.0843C17.7927 13.4512 17.589 14.0594 17.9139 14.4347C18.1952 14.7572 18.8815 14.7731 18.8815 15.254C18.8815 15.4575 18.6904 15.6955 18.3468 15.9091C17.3135 16.5566 16.288 17.4161 15.8619 18.5662C15.3297 20.0021 15.9301 20.9545 16.7881 21.5015C16.7881 21.5015 16.5187 21.7478 16.1288 21.7788C16.0496 21.7863 15.973 21.7897 15.8989 21.7897C15.077 21.7897 14.6518 21.406 14.6518 21.406C14.6518 21.406 14.7225 21.9363 15.1478 22.4288C15.5452 22.8837 16.0631 23.1518 16.8547 23.1627C16.8547 23.1627 16.8799 23.5279 16.5296 23.8437C16.3048 24.0431 15.7877 24.1084 15.7877 24.1084C15.7877 24.1084 16.7578 24.3036 16.8639 25.7277C16.922 26.4992 17.1182 26.7673 17.1182 26.7673H17.1022Z" fill="black"/>
<path d="M12.0928 17.6098C12.2014 17.6098 12.3075 17.5938 12.4077 17.5595C12.6906 17.4665 12.87 17.2428 13.0594 17.0108C13.2531 16.7729 13.4712 16.5048 13.8493 16.3046L14.2383 16.0969L13.8771 15.8447C13.8467 15.8255 13.5756 15.6437 13.2093 15.6437C12.9079 15.6437 12.6283 15.766 12.3984 16.0005C11.8376 16.5702 11.3349 16.6162 11.3163 16.6171L10.9248 16.6397L11.0857 16.9974C11.2473 17.3517 11.6708 17.6098 12.0928 17.6098ZM12.5912 16.1899C12.8001 15.9762 13.0199 15.9126 13.2093 15.9126C13.5007 15.9126 13.7213 16.0667 13.7213 16.0667C12.9331 16.4847 12.7715 17.1541 12.3209 17.3048C12.2469 17.3308 12.1694 17.3425 12.0928 17.3425C11.7618 17.3425 11.4418 17.1297 11.3324 16.886C11.3324 16.8852 11.9386 16.8482 12.5912 16.1899Z" fill="black"/>
<path d="M13.8604 20.7293C13.8183 19.7173 14.0793 18.8963 14.4885 18.2203C14.2603 18.9248 14.2915 19.7877 15.0679 20.5927C15.0679 20.5927 13.5235 18.7523 15.6826 16.8658C16.5466 16.1479 17.4914 15.7047 17.9772 15.3906C16.2198 15.961 15.3617 15.3328 15.3617 15.3328C15.9225 15.817 16.6493 15.8086 17.1007 15.7383C16.9786 15.7977 16.8505 15.8597 16.7149 15.9326C15.2313 16.7343 13.8999 18.052 13.6717 19.8765V19.8623C13.3273 21.6541 12.561 22.114 12.561 22.114C13.1707 21.8149 13.5547 21.0208 13.6482 20.7343C13.7501 22.3092 14.5222 23.4023 15.4258 24.4545C15.8948 24.9998 16.0599 25.5301 16.0599 25.5301C16.0599 25.5301 15.9681 24.9294 15.5614 24.4402C14.7201 23.4342 13.9193 22.1793 13.8604 20.7293Z" fill="black"/>
<path d="M20.75 17.0375V17.3994C20.8755 17.2478 21.118 17.2788 21.118 17.2788V17.8007C21.118 17.8007 21.1096 18.057 21.0178 18.1684H21.2805H21.5424C21.4523 18.0579 21.443 17.8007 21.443 17.8007V17.2788C21.443 17.2788 21.6855 17.2478 21.8102 17.3994V17.0375H21.2805H20.75Z" fill="black"/>
<path d="M20.5241 14.8913C20.6917 15.0238 20.7885 15.0455 20.7919 15.0481L20.8576 15.0782V14.7372L20.2412 14.4792C20.2412 14.4801 20.2471 14.6769 20.5241 14.8913Z" fill="black"/>
<path d="M21.9903 14.8913C22.269 14.6769 22.2741 14.4792 22.2741 14.4792L21.6577 14.7372V15.0782L21.7225 15.0481C21.7268 15.0455 21.8227 15.0238 21.9903 14.8913Z" fill="black"/>
<path d="M23.1009 13.5033C23.1009 12.9864 22.226 12.5215 21.2601 12.5215H21.2593H21.2568H21.2542C20.2884 12.5215 19.4135 12.9864 19.4135 13.5033L19.4329 13.6306L19.8185 15.8329L19.4312 16.0565L18.4291 16.6388H18.4325C18.4325 16.6388 18.2068 16.7535 18.1024 16.8247C17.7209 17.0886 17.6401 17.4731 17.8615 17.6323C17.9163 17.319 18.1655 16.9906 18.632 16.9906C18.968 16.9906 19.224 17.1631 19.4312 17.422C19.4842 17.4873 19.5347 17.5569 19.5819 17.6323C19.64 17.7269 19.6981 17.8099 19.7562 17.8903H17.1753C17.3648 18.2698 17.5449 18.6719 17.5449 19.1083V24.7912C17.5449 26.1667 18.6085 26.8235 19.7587 26.8235C20.6479 26.8235 20.7676 26.7833 21.2585 27.2691C21.7469 26.7824 21.8664 26.8235 22.7565 26.8235C23.9076 26.8235 24.9695 26.1667 24.9695 24.7912V19.1083C24.9695 18.6719 25.1497 18.2698 25.34 17.8903H22.7582C22.8154 17.8107 22.8735 17.7269 22.9316 17.6323C22.9796 17.5569 23.0293 17.4873 23.0815 17.422C23.2903 17.1623 23.5455 16.9906 23.8815 16.9906C24.348 16.9906 24.5964 17.3181 24.652 17.6323C24.8735 17.4731 24.7934 17.0886 24.4094 16.8247C24.3067 16.7535 24.081 16.6388 24.081 16.6388H24.0844L23.0824 16.0565L22.6967 15.8329L23.0824 13.6306L23.1009 13.5033ZM19.7932 13.7596L21.149 14.217V16.3355L20.1512 15.812L19.7932 13.7596ZM20.0737 18.2597C20.296 18.48 20.5141 18.6165 20.7212 18.6919C20.6942 18.7983 20.6589 19.0178 20.7591 19.2364C20.8408 19.4123 20.989 19.5481 21.202 19.6385C21.2256 19.8564 21.3637 20.1839 21.7469 20.3288C21.5793 20.4972 21.4159 20.6555 21.3494 20.72L19.7958 20.6957C19.7604 20.6781 19.7006 20.6388 19.6737 20.5826C19.6703 20.5751 19.6653 20.5709 19.6628 20.5625L19.9162 20.6035C19.9221 20.6044 19.9271 20.6044 19.9322 20.6044C19.981 20.6044 20.024 20.5709 20.0324 20.5206C20.0408 20.4645 20.0029 20.4134 19.9482 20.405L19.6366 20.3564L19.9827 19.1677L19.6552 18.4817L19.1297 19.0346L19.0977 20.271L18.7449 20.2157C18.6901 20.2048 18.6379 20.245 18.6287 20.2995C18.6202 20.354 18.6573 20.405 18.7129 20.4151L18.8611 20.4377C18.808 20.4679 18.7735 20.4913 18.7693 20.4946L18.739 20.5156L18.7305 20.5525C18.6447 20.8993 18.8392 21.2285 19.0489 21.3759L19.0413 21.4195C19.0329 21.4731 19.0447 21.525 19.0767 21.5686C19.107 21.613 19.1541 21.6398 19.2063 21.649C19.2173 21.6507 19.229 21.6515 19.2392 21.6515C19.3301 21.6515 19.4093 21.5887 19.432 21.4974C19.5103 21.5066 19.5819 21.5083 19.6307 21.5083H19.672L21.7107 21.8743L21.7452 21.8518C21.9076 21.7386 22.5266 21.2897 22.7295 21.1413C22.7851 21.1891 22.8474 21.2327 22.9232 21.2687C22.8575 21.4881 22.8533 21.8258 23.1135 22.0922H17.918V19.1091C17.918 18.8201 17.8329 18.5295 17.7327 18.2614H20.0737V18.2597ZM22.5931 20.9889C22.3868 21.1397 21.8563 21.525 21.6643 21.659L19.8118 21.3282C19.816 21.3114 19.8202 21.2955 19.8244 21.2788C19.8488 21.1832 19.8733 21.0525 19.875 20.8993L21.4319 20.9244L21.4614 20.8942C21.485 20.8708 21.9784 20.3966 22.2302 20.1235C22.29 20.1981 22.3649 20.2693 22.4626 20.3321C22.4289 20.5131 22.4432 20.7711 22.5931 20.9889ZM19.4918 20.6697C19.5356 20.761 19.6147 20.8222 19.6695 20.8565C19.6678 20.942 19.6594 21.0752 19.6366 21.1925C19.6316 21.2184 19.6249 21.2427 19.6172 21.267C19.6131 21.2821 19.6088 21.2947 19.6055 21.3047C19.5238 21.3047 19.3629 21.2947 19.2316 21.2469C19.0859 21.1933 18.8687 20.9278 18.9192 20.6354C18.9824 20.5968 19.128 20.5156 19.2645 20.5156C19.3697 20.5148 19.4413 20.5642 19.4918 20.6697ZM19.299 20.302L19.3301 19.115L19.5979 18.8327L19.7663 19.1828L19.4345 20.3221L19.299 20.302ZM22.5763 26.4557C22.4752 26.4557 22.3817 26.4574 22.2975 26.4608L22.5182 25.778C22.5527 25.6833 22.3784 25.5619 22.3068 25.4555C22.4154 25.5234 22.6967 25.6716 22.8323 25.7311C22.818 25.7529 22.5763 26.4557 22.5763 26.4557ZM23.2684 25.68L23.1245 26.4273C23.0327 26.4398 22.935 26.4465 22.8348 26.4507L22.9864 25.732C23.0318 25.5183 22.455 25.4521 22.1704 25.0325C22.0315 25.1883 21.7696 25.2344 21.5069 25.2344C21.2669 25.2344 21.0269 25.1958 20.8812 25.1673C20.8441 25.1615 20.8088 25.1573 20.7743 25.1573C20.6901 25.1573 20.6134 25.1833 20.5604 25.272L20.5183 25.3424L19.7327 25.1581L19.5373 25.4798C19.5095 25.5318 19.5078 25.5762 19.5524 25.6247L19.6055 25.6825C19.5693 25.7965 19.4059 25.9682 19.4059 25.9682L19.2889 25.8232C19.1962 25.7202 19.2114 25.5326 19.3082 25.3583L19.6198 24.8348L20.285 24.9303L20.1815 24.6957C20.0425 24.3858 20.2539 23.9912 20.2766 23.7642C20.269 23.8329 20.2058 23.848 20.1318 23.848C20.0644 23.848 19.9895 23.8354 19.9398 23.8354C19.9204 23.8354 19.9035 23.837 19.8943 23.8438L19.7141 23.9527L19.5718 23.8278C19.5549 23.8035 19.5491 23.7474 19.5911 23.7055L19.9204 23.3386L19.5314 22.8871L20.0762 23.1594L20.2421 22.9592C20.2876 23.0036 20.2682 23.12 20.2682 23.12C20.4383 23.1242 20.9149 23.3864 20.9402 23.9979C20.9418 24.0163 20.9418 24.0373 20.9418 24.0573C20.9418 24.0573 20.9461 24.0649 20.9545 24.0775C20.9882 24.1236 21.0808 24.2417 21.1986 24.2525L21.9515 24.3263H21.9548C22.0374 24.3263 22.2016 24.23 22.412 24.23C22.5266 24.23 22.6546 24.2593 22.791 24.3447C22.791 24.3447 22.8592 24.2911 22.9704 24.2852C22.9788 24.2844 22.9881 24.2844 22.9965 24.2844C23.3342 24.2844 23.4739 24.5877 23.655 24.8398C23.7914 25.0316 23.9733 25.3165 23.9733 25.3165C23.9059 25.396 23.8436 25.4396 23.7392 25.4396C23.7106 25.4396 23.6777 25.437 23.6423 25.4304C23.2802 25.3642 23.2281 24.6237 23.0218 24.565C23.0108 24.5617 22.999 24.5608 22.9889 24.5608C22.9224 24.5608 22.8929 24.6195 22.8929 24.6195C22.9872 24.8716 22.9325 24.9738 23.0335 25.1682C23.1093 25.3123 23.244 25.4312 23.2996 25.4873C23.2996 25.489 23.2845 25.5979 23.2684 25.68ZM19.2257 24.973L19.2602 25.0593C19.2375 25.1347 18.9765 25.2419 18.9765 25.2419L18.92 25.1195C18.8602 24.9889 18.8728 24.7686 19.0548 24.6337L19.4775 24.3774L19.9255 24.472C19.917 24.6136 20.0021 24.7192 20.0021 24.7192L19.5322 24.6295L19.251 24.823C19.2038 24.8557 19.2004 24.9169 19.2257 24.973ZM23.3392 26.3862L23.4681 25.7177C23.4748 25.6783 23.4832 25.6323 23.4891 25.5937C23.5253 25.6088 23.564 25.6214 23.6061 25.6289C23.6541 25.6381 23.6987 25.6423 23.7392 25.6423C23.9363 25.6423 24.0508 25.5393 24.1274 25.4513L24.2268 25.3365L24.1459 25.2109C24.1383 25.1983 23.9598 24.9169 23.8217 24.7242C23.7947 24.6865 23.7686 24.6488 23.7425 24.6078C23.5859 24.3748 23.3897 24.0825 22.9965 24.0825L22.9611 24.0834C22.8963 24.0875 22.8407 24.1001 22.7961 24.1168C22.6723 24.059 22.5451 24.0298 22.4129 24.0298C22.2504 24.0298 22.1131 24.0742 22.0222 24.1051C21.9961 24.1127 21.9725 24.121 21.954 24.1244L21.2189 24.0523C21.2096 24.0507 21.1793 24.0331 21.1431 23.9895V23.9862L21.3022 23.9225C21.2576 23.3956 20.749 23.0714 20.4652 22.9617C20.4526 22.9089 20.4274 22.8561 20.3827 22.8134L20.2244 22.6643L20.0854 22.8302L20.0173 22.9148L18.9883 22.4942L19.6577 23.3303L19.3933 23.7282C19.2964 23.8304 19.4034 23.9326 19.4034 23.9326L19.6762 24.1194L19.9592 24.0147C19.9692 24.0147 19.9777 24.0172 19.9869 24.018C19.9735 24.0607 19.9558 24.2283 19.944 24.2752L19.453 24.1788L18.9369 24.4687C18.6716 24.6622 18.6354 24.983 18.734 25.2025L18.7912 25.3273L18.8728 25.5033L19.0531 25.4287C19.0556 25.4278 19.0581 25.427 19.0598 25.4254C18.995 25.6314 19.0211 25.8274 19.1373 25.9565L19.2467 26.0938L19.3924 26.2773L19.5524 26.1064C19.5996 26.0595 19.752 25.8895 19.7992 25.7437L19.8337 25.6322L19.7554 25.5468L19.7427 25.5318L19.8303 25.3876L20.4711 25.5376L20.6151 25.5703L20.6917 25.4446L20.7338 25.3759C20.7414 25.3617 20.7439 25.3591 20.7734 25.3591C20.7962 25.3591 20.8189 25.3617 20.8433 25.3667C21.085 25.4119 21.3081 25.4346 21.506 25.4346C21.698 25.4346 21.8125 25.427 21.9498 25.3818C21.9498 25.3818 22.2942 25.7705 22.306 25.7855L22.0955 26.4323L22.0862 26.4716C21.6871 26.5034 21.4926 26.5906 21.2576 26.8243C20.9166 26.4875 20.6749 26.4524 19.7579 26.4524C18.6607 26.4524 17.9171 25.8124 17.9171 24.7904V22.2915H24.5964L24.5981 24.7904C24.5989 25.6197 24.1097 26.1977 23.3392 26.3862ZM24.7833 18.2597C24.6815 18.5278 24.5964 18.8185 24.5964 19.1075L24.5973 20.9722C24.2057 20.9068 24.1594 20.4871 24.1577 20.4687L24.1501 20.3833L24.0659 20.3757C23.8958 20.3598 23.783 20.2877 23.6878 20.1956C23.4958 20.0046 23.4949 19.6947 23.4958 19.6921C23.4933 19.708 23.2845 19.9987 23.527 20.3162C23.6288 20.4503 23.7762 20.5324 23.9674 20.565C24.012 20.7979 24.1863 21.1263 24.5973 21.1765V22.0896H23.4419C22.9089 21.7948 23.1345 21.2754 23.1455 21.2536L23.191 21.1548L23.0891 21.1162C22.5123 20.9035 22.6706 20.3305 22.679 20.3062L22.7026 20.2224L22.6243 20.1855C22.1476 19.966 22.2125 19.3738 22.2184 19.3495C22.0719 19.4676 22.0188 19.7089 22.1199 19.9451C22.0651 20.0071 21.9919 20.0825 21.9119 20.1646C21.4184 20.0398 21.4033 19.5883 21.4033 19.5674L21.4024 19.4978L21.3376 19.4727C21.1448 19.4015 21.0125 19.2951 20.9477 19.1518C20.8745 18.9935 20.9005 18.8277 20.9208 18.748C20.9772 18.7606 21.0336 18.7699 21.0875 18.774C21.1431 18.7799 21.2003 18.7833 21.2576 18.7833H21.261H21.2652C21.3225 18.7833 21.3789 18.7799 21.4345 18.774C21.7418 18.7439 22.0862 18.6124 22.4449 18.2588H24.7833V18.2597ZM22.983 16.3748L23.4394 16.6388H23.4461L23.5607 16.7049C23.303 16.7761 23.106 16.9043 22.9409 17.0727C22.935 17.0777 22.9291 17.0844 22.9232 17.0903C22.8853 17.1305 22.8474 17.174 22.8121 17.2185C22.8053 17.2268 22.7986 17.236 22.791 17.2453C22.7556 17.2905 22.7228 17.3366 22.6908 17.3851C22.6857 17.3935 22.6798 17.4019 22.674 17.4094C22.6361 17.4655 22.5999 17.5259 22.5637 17.5878C22.2386 18.1449 21.7199 18.4775 21.2585 18.4783C20.7979 18.4775 20.2791 18.1449 19.9541 17.5878C19.9187 17.5275 19.8834 17.4689 19.8454 17.4119C19.8379 17.401 19.8311 17.3902 19.8244 17.3809C19.7924 17.3349 19.7604 17.2896 19.7276 17.247C19.7192 17.2352 19.7116 17.226 19.7031 17.2159C19.6678 17.1732 19.6316 17.1305 19.5953 17.0911C19.5878 17.0853 19.5827 17.0777 19.5752 17.071C19.4093 16.9026 19.2131 16.7753 18.9545 16.7049L19.0708 16.6388H19.0758L19.5322 16.3748L20.0012 16.1077L21.2542 16.7862L21.2568 16.7837L21.2601 16.7862L22.5131 16.1077L22.983 16.3748ZM22.3649 15.8128L21.3662 16.3363V14.217L22.7211 13.7596L22.3649 15.8128ZM21.2576 13.9841L19.7722 13.4002C19.8985 13.1029 20.4812 12.8498 21.2576 12.849C22.0348 12.8498 22.6175 13.1029 22.743 13.4002L21.2576 13.9841Z" fill="black"/>
<path d="M39.6516 22.8498V19.4956H41.6294V18.275H36.2339V19.4956H38.2116V22.8498H39.6516ZM43.5978 20.9373V18.275H42.2057V22.8498H43.4346L45.8347 20.1876V22.8498H47.2268V18.275H45.9979L43.5978 20.9373ZM51.9101 21.1487V22.8498H53.3023V18.275H51.9101V19.9473H49.6731V18.275H48.281V22.8498H49.6731V21.1487H51.9101ZM57.1789 22.8498C57.4956 22.8498 57.7836 22.821 58.0525 22.7441C58.773 22.5423 59.2429 21.956 59.2429 21.1583C59.2429 20.399 58.84 19.8705 58.1969 19.6301C57.8889 19.5148 57.5247 19.5052 57.1789 19.5052H55.7484V18.275H54.3565V22.8498H57.1789ZM56.9387 20.5817C57.131 20.5817 57.3133 20.5817 57.4765 20.6393C57.707 20.7162 57.8415 20.9084 57.8415 21.1391C57.8415 21.3794 57.707 21.5812 57.486 21.6773C57.3325 21.7446 57.1789 21.7446 56.9387 21.7446H55.7484V20.5817H56.9387ZM61.7389 21.1199L63.4 22.8498H65.2525L62.9392 20.4663L65.1664 18.275H63.4191L61.7389 19.9954H61.3551V18.275H59.9633V22.8498H61.3551V21.1199H61.7389ZM68.1169 18.1501C66.2448 18.1501 65.1218 19.2073 65.1218 20.572C65.1218 21.9368 66.2448 22.994 68.1169 22.994C69.9798 22.994 71.1032 21.9368 71.1032 20.572C71.1032 19.2073 69.9798 18.1501 68.1169 18.1501ZM68.1169 21.8792C67.1858 21.8792 66.591 21.3217 66.591 20.572C66.591 19.8224 67.1858 19.2745 68.1169 19.2745C69.0388 19.2745 69.6435 19.8224 69.6435 20.572C69.6435 21.3217 69.0388 21.8792 68.1169 21.8792ZM75.7393 18.0155H74.3471V18.4768C72.5999 18.5153 71.5531 19.2553 71.5531 20.5624C71.5531 21.8695 72.5999 22.5519 74.3471 22.5904V23.0517H75.7393V22.5904C77.4958 22.5519 78.5425 21.8695 78.5425 20.5624C78.5425 19.2553 77.4958 18.5153 75.7393 18.4768V18.0155ZM74.3471 21.61C73.3869 21.5716 72.9645 21.1775 72.9645 20.5624C72.9645 19.9473 73.3869 19.5052 74.3471 19.4668V21.61ZM75.7393 19.4668C76.7091 19.5052 77.1216 19.9473 77.1216 20.5624C77.1216 21.1775 76.7091 21.5716 75.7393 21.61V19.4668ZM83.1737 18.0155H81.7815V18.4768C80.0342 18.5153 78.9883 19.2553 78.9883 20.5624C78.9883 21.8695 80.0342 22.5519 81.7815 22.5904V23.0517H83.1737V22.5904C84.9309 22.5519 85.9773 21.8695 85.9773 20.5624C85.9773 19.2553 84.9309 18.5153 83.1737 18.4768V18.0155ZM81.7815 21.61C80.8217 21.5716 80.3992 21.1775 80.3992 20.5624C80.3992 19.9473 80.8217 19.5052 81.7815 19.4668V21.61ZM83.1737 19.4668C84.1435 19.5052 84.5563 19.9473 84.5563 20.5624C84.5563 21.1775 84.1435 21.5716 83.1737 21.61V19.4668Z" fill="black"/>
</svg>
