<svg width="78" height="40" viewBox="0 0 78 40" fill="none" xmlns="http://www.w3.org/2000/svg">
<path d="M0 4C0 1.79086 1.79086 0 4 0H74C76.2091 0 78 1.79086 78 4V36C78 38.2091 76.2091 40 74 40H4C1.79086 40 0 38.2091 0 36V4Z" fill="black"/>
<path d="M50.8009 13.5735C49.5925 13.1866 48.3151 12.9925 47.0289 13.0002C42.8695 13.0002 39.932 14.841 39.9112 17.4833C39.8852 19.4246 41.9986 20.5185 43.5974 21.1671C45.2378 21.834 45.7863 22.2542 45.7811 22.8503C45.7707 23.757 44.4709 24.1681 43.2621 24.1681C41.6009 24.1681 40.6936 23.9648 39.2977 23.4555L38.7803 23.2431L38.1902 26.2852C39.2015 26.6551 41.0238 26.9726 42.9059 27C47.3279 27 50.2186 25.1707 50.2524 22.3593C50.2888 20.8086 49.145 19.637 46.7377 18.6686C45.2742 18.0406 44.3669 17.6204 44.3669 16.9832C44.3669 16.4191 45.1442 15.8162 46.7689 15.8162C47.8503 15.7932 48.9249 15.9714 49.9223 16.3392L50.3122 16.4922L50.9023 13.5529L50.8009 13.5735ZM61.5945 13.2469H58.345C57.3338 13.2469 56.5721 13.4912 56.1301 14.3728L49.8807 26.8104H54.3026L55.1865 24.771L60.5833 24.7756C60.7106 25.2529 61.1006 26.8104 61.1006 26.8104H65L61.5945 13.2469ZM33.9295 13.1327H38.1434L35.5074 26.7031H31.2987L33.9295 13.1281V13.1327ZM23.2321 20.6122L23.6688 22.4963L27.7866 13.2469H32.2501L25.6185 26.7922H21.1654L17.5259 15.3229C17.467 15.1337 17.3285 14.9713 17.1386 14.8684C15.8268 14.2731 14.4369 13.8213 13 13.5232L13.0572 13.2377H19.8396C20.7598 13.2697 21.5007 13.5232 21.7477 14.3865L23.2295 20.619V20.6122H23.2321ZM56.3953 21.9962L58.0746 18.2005C58.0538 18.2416 58.4204 17.4171 58.6336 16.9078L58.9221 18.0794L59.897 21.9939H56.3927V21.9962H56.3953Z" fill="white"/>
</svg>
