<svg width="115" height="40" viewBox="0 0 115 40" fill="none" xmlns="http://www.w3.org/2000/svg">
<path d="M0 4C0 1.79086 1.79086 0 4 0H111C113.209 0 115 1.79086 115 4V36C115 38.2091 113.209 40 111 40H4C1.79086 40 0 38.2091 0 36V4Z" fill="#09152F"/>
<path d="M28.0505 10C22.5158 10 18.1133 14.4937 18.1133 20C18.1133 25.5696 22.5788 30 28.0505 30C33.5223 30 37.9878 25.5063 37.9878 20C38.0506 14.4937 33.5223 10 28.0505 10ZM28.0505 23.7342C26.0379 23.7342 24.3398 22.0253 24.3398 20C24.3398 17.9747 26.0379 16.2658 28.0505 16.2658C30.0631 16.2658 31.7612 17.9747 31.7612 20C31.7612 22.0253 30.126 23.7342 28.0505 23.7342Z" fill="#8B3FFD"/>
<path d="M18.1133 12.9115V27.4684H14.5284L10 12.9115H18.1133Z" fill="#8B3FFD"/>
<path d="M101.951 15.5063L99.7493 20.9494C99.6865 21.0127 99.6865 21.1392 99.6865 21.2025L99.6233 21.3291L99.5605 21.2025C99.5605 21.1392 99.4977 21.0127 99.4977 20.9494L97.2964 15.5063H94.4663L98.1769 24.8101L96.6048 28.3544H99.4349L104.655 15.5063H101.951Z" fill="white"/>
<path d="M81.0699 16.0127C80.5667 15.6329 79.9379 15.3798 79.183 15.3165C77.9254 15.1899 76.7305 15.6329 75.9129 16.4557V15.4431H73.334V24.7469H75.9129V19.8734C75.9129 18.7975 76.1013 18.481 76.2901 18.2279C76.6045 17.7216 77.1705 17.4684 77.8626 17.4684C78.5542 17.4684 79.183 17.7848 79.4979 18.2912C79.6863 18.6709 79.7491 19.1772 79.7491 19.4304C79.7491 20.2532 79.7491 24.7469 79.7491 24.7469H82.328V19.114C82.328 17.6582 81.8876 16.6456 81.0699 16.0127Z" fill="white"/>
<path d="M68.4284 15.5696C67.1707 15.1266 65.7871 15.1899 64.529 15.7595C63.7114 16.1393 62.9569 16.7722 62.5165 17.595C62.0761 18.2912 61.8877 19.1772 61.8877 20.1266C61.8877 21.076 62.0761 21.962 62.5165 22.6582C62.9569 23.3544 63.523 23.9874 64.2774 24.3671C65.0322 24.7469 65.9127 25 66.7303 25C67.1707 25 67.6108 24.9367 68.0512 24.8102C68.4284 24.6836 68.806 24.557 69.1832 24.3671C69.9381 23.9241 70.5669 23.3544 70.9445 22.6582C71.3845 21.962 71.5733 21.076 71.5733 20.1266C71.6361 18.038 70.4413 16.2658 68.4284 15.5696ZM69.1832 20.2532C69.1204 21.076 68.8688 21.7722 68.3656 22.2152C67.9884 22.5317 67.4223 22.7216 66.7303 22.7848C66.0387 22.7848 65.5355 22.595 65.095 22.2152C64.5922 21.7722 64.3406 21.076 64.2774 20.2532C64.2146 19.3038 64.5922 18.5443 65.2838 18.038C65.6611 17.7848 66.1643 17.595 66.6675 17.595C67.2335 17.595 67.674 17.7848 68.114 18.038C68.8688 18.481 69.246 19.3038 69.1832 20.2532Z" fill="white"/>
<path d="M58.9314 16.0126C58.4282 15.6329 57.7993 15.3798 57.0445 15.3164C56.9189 15.3164 56.7301 15.3164 56.6045 15.3164C55.5981 15.3164 54.7176 15.7595 53.9628 16.6456L53.8372 16.8354H53.5856C53.3968 16.519 53.1451 16.2658 52.8935 16.076C52.3903 15.6962 51.7615 15.443 51.0067 15.3798C49.8118 15.2532 48.8684 15.6329 48.0508 16.519V15.5696H45.4722V24.8734H48.0508V20V19.8734C48.0508 18.8608 48.1766 18.6076 48.3653 18.2912C48.6797 17.7848 49.2458 17.4684 49.8746 17.5316C50.5038 17.5316 51.0699 17.8481 51.3843 18.3544C51.6359 18.7342 51.6359 19.1772 51.6359 19.6202V24.8101H54.2144V19.8101C54.2144 18.8608 54.34 18.5443 54.5288 18.2278C54.8432 17.7215 55.4092 17.4684 56.0385 17.4684C56.6673 17.4684 57.1705 17.7848 57.4849 18.2912C57.6737 18.6076 57.7365 18.9874 57.7365 19.2405C57.7365 19.3671 57.7365 19.4937 57.7365 19.557V24.7468H60.3151V19.0506C60.3151 18.5443 60.2523 18.038 60.1263 17.5949C59.875 16.962 59.4974 16.3924 58.9314 16.0126Z" fill="white"/>
<path d="M92.0134 21.9621C91.6362 22.3418 90.7554 23.038 89.5605 23.1013C88.5541 23.1646 87.7996 22.8481 87.2336 22.2785C86.982 22.0253 86.7932 21.6456 86.6676 21.2659H93.7743V21.2026C93.8375 20.8228 93.9003 20.5064 93.9003 20.1266C93.9003 19.8102 93.8375 19.3671 93.7115 18.7975C93.3971 17.7215 92.7683 16.8988 91.9506 16.2659C91.007 15.5697 90.1266 15.3798 89.8749 15.3798C88.0513 15.0633 85.9756 15.8861 84.9063 17.595C84.1515 18.7975 84.2147 20 84.2147 20.3798C84.2147 20.8228 84.2775 22.2152 85.4095 23.4811C86.7304 24.9368 88.5541 25 89.1201 25.0633C91.6362 25.1266 93.3343 23.5443 93.7115 23.2279L92.0134 21.9621ZM87.6108 18.038C87.9881 17.7849 88.4285 17.595 88.9945 17.595C89.5605 17.595 90.0009 17.7849 90.441 18.038C90.8186 18.3545 91.133 18.7342 91.3214 19.1773H86.7932C86.856 18.7342 87.1704 18.2912 87.6108 18.038Z" fill="white"/>
</svg>
