<svg width="171" height="165" viewBox="0 0 171 165" fill="none" xmlns="http://www.w3.org/2000/svg">
<path d="M94.3914 8.82627C109.154 10.504 121.913 15.0459 132.665 22.4521C143.538 29.7632 151.58 39.0855 156.794 50.4189C162.008 61.7523 163.854 74.1134 162.332 87.5022C161.261 96.9279 158.945 104.91 155.385 111.449C151.944 117.893 147.561 122.603 142.239 125.578C136.916 128.554 130.938 129.665 124.306 128.911C118.85 128.291 114.384 126.59 110.907 123.808C107.431 121.026 105.098 117.235 103.91 112.435C97.0741 121.097 87.3979 124.717 74.8813 123.294C68.0347 122.516 61.9711 120.091 56.6908 116.019C51.4104 111.947 47.4589 106.67 44.8364 100.188C42.333 93.611 41.5317 86.3593 42.4325 78.4332C43.3211 70.6141 45.7169 63.8343 49.6201 58.0937C53.6425 52.2582 58.6299 47.9427 64.5823 45.1474C70.6417 42.3642 77.1482 41.3677 84.1018 42.1579C94.6928 43.3615 102.528 47.8323 107.609 55.5702L108.686 46.091L130.51 48.5711L124.594 100.627C123.815 107.482 125.993 111.201 131.128 111.785C134.872 112.21 138.016 110.289 140.56 106.021C143.211 101.766 145.054 95.086 146.088 85.9817C147.318 75.1635 145.887 65.345 141.796 56.5261C137.825 47.6122 131.554 40.3357 122.984 34.6966C114.534 28.9625 104.425 25.4268 92.6568 24.0895C80.8891 22.7522 70.1726 24.0839 60.5073 28.0848C50.9612 31.9906 43.175 38.0494 37.1488 46.261C31.2297 54.4848 27.6371 64.1665 26.3712 75.306C25.0809 86.6597 26.3912 97.0612 30.3019 106.511C34.2248 115.853 40.3459 123.492 48.6653 129.428C57.0794 135.484 67.1168 139.174 78.7776 140.499C90.3313 141.812 101.137 140.653 111.193 137.022L114.648 152.387C109.554 154.304 103.618 155.528 96.8393 156.059C90.1553 156.71 83.5505 156.665 77.0247 155.923C61.8337 154.197 48.773 149.458 37.8426 141.706C26.9001 134.061 18.8585 124.251 13.7178 112.275C8.5772 100.299 6.80416 87.295 8.39874 73.2635C9.98114 59.3392 14.6147 47.172 22.2993 36.7619C30.091 26.3641 40.2297 18.674 52.7156 13.6918C65.2015 8.70961 79.0934 7.08776 94.3914 8.82627ZM81.9556 105.383C87.8394 106.052 92.8726 104.671 97.055 101.24C101.25 97.7026 103.743 92.4527 104.534 85.4905C105.313 78.6355 104.049 73.0672 100.743 68.7857C97.4372 64.5042 92.8422 62.0291 86.9584 61.3605C80.9676 60.6797 75.9283 62.1141 71.8407 65.6639C67.7652 69.1065 65.344 74.2018 64.5771 80.9497C63.7981 87.8048 65.002 93.4206 68.189 97.797C71.3759 102.173 75.9647 104.702 81.9556 105.383Z" fill="#313335"/>
</svg>
