<svg width="32" height="32" viewBox="0 0 32 32" fill="none" xmlns="http://www.w3.org/2000/svg">
<path d="M8.81069 16C8.81069 14.654 9.13897 13.4271 9.79552 12.3191C10.4521 11.2112 11.3343 10.3289 12.4423 9.67235C13.5502 9.01578 14.7772 8.6875 16.1231 8.6875C17.2885 8.6875 18.3636 8.93782 19.3484 9.43845C20.3415 9.93908 21.1622 10.6244 21.8105 11.4943C22.4589 12.3561 22.861 13.3327 23.017 14.4242H20.0378C19.8737 13.5789 19.4182 12.8895 18.6714 12.3561C17.9245 11.8144 17.0751 11.5436 16.1231 11.5436C15.3024 11.5436 14.5556 11.7446 13.8826 12.1468C13.2096 12.5489 12.6721 13.0865 12.2699 13.7595C11.8678 14.4324 11.6667 15.1793 11.6667 16C11.6667 16.8207 11.8678 17.5675 12.2699 18.2405C12.6721 18.9135 13.2096 19.4511 13.8826 19.8532C14.5556 20.2554 15.3024 20.4564 16.1231 20.4564C17.0751 20.4564 17.8794 20.1897 18.536 19.6562C19.2007 19.1146 19.6193 18.4211 19.7916 17.5758H22.7708C22.6148 18.6673 22.2332 19.648 21.6259 20.518C21.0186 21.3797 20.2389 22.0609 19.2869 22.5616C18.3431 23.0622 17.2885 23.3125 16.1231 23.3125C14.7772 23.3125 13.5502 22.9842 12.4423 22.3277C11.3343 21.6711 10.4521 20.7888 9.79552 19.6809C9.13897 18.5729 8.81069 17.346 8.81069 16ZM16 29C14.2109 29 12.5284 28.6635 10.9527 27.9905C9.38518 27.3176 8.0023 26.386 6.80408 25.196C5.61407 23.9978 4.67847 22.6149 3.9973 21.0473C3.32432 19.4798 2.99194 17.7973 3.00015 16C3.00836 14.2027 3.34894 12.5202 4.02192 10.9526C4.7031 9.3851 5.63869 8.00631 6.8287 6.81629C8.01871 5.61806 9.39749 4.68245 10.965 4.00947C12.5326 3.33649 14.2109 3 16 3C17.7973 3 19.4798 3.33649 21.0473 4.00947C22.623 4.68245 24.0018 5.61806 25.1836 6.81629C26.3736 8.00631 27.3051 9.3851 27.9781 10.9526C28.6511 12.5202 28.9916 14.2027 28.9998 16C29.0081 17.7973 28.6757 19.4798 28.0027 21.0473C27.3297 22.6149 26.3982 23.9978 25.2082 25.196C24.0182 26.386 22.6353 27.3176 21.0596 27.9905C19.4839 28.6635 17.7973 29 16 29ZM16 26.1439C17.4034 26.1439 18.7206 25.8813 19.9517 25.3561C21.1827 24.8308 22.2619 24.1045 23.1893 23.1771C24.1167 22.2497 24.843 21.1746 25.3683 19.9517C25.8935 18.7206 26.152 17.4075 26.1438 16.0123C26.1356 14.6089 25.8689 13.2917 25.3436 12.0606C24.8184 10.8295 24.0921 9.75032 23.1647 8.82292C22.2373 7.89552 21.1622 7.16919 19.9393 6.64394C18.7165 6.11869 17.4034 5.85606 16 5.85606C14.6048 5.85606 13.2958 6.11869 12.073 6.64394C10.8501 7.16919 9.77501 7.89962 8.84762 8.83523C7.92023 9.76263 7.18981 10.8419 6.65636 12.0729C6.13111 13.2958 5.86438 14.6089 5.85618 16.0123C5.84797 17.3993 6.10649 18.7083 6.63174 19.9394C7.15698 21.1622 7.8833 22.2374 8.81069 23.1648C9.74628 24.0922 10.8255 24.8226 12.0483 25.3561C13.2794 25.8813 14.5966 26.1439 16 26.1439Z" fill="#8D97A5"/>
</svg>
