<svg width="326" height="143" viewBox="0 0 326 143" fill="none" xmlns="http://www.w3.org/2000/svg">
<rect x="175" y="68.3171" width="121" height="37" rx="4" transform="rotate(-15 175 68.3171)" fill="white"/>
<ellipse cx="282.969" cy="58.1315" rx="8.72978" ry="8.72535" transform="rotate(-15 282.969 58.1315)" fill="#EF5A63"/>
<path fill-rule="evenodd" clip-rule="evenodd" d="M280.442 54.1699L279.57 63.6806L281.963 63.0394L282.136 61.4062L285.099 60.6123L286.065 61.9402L288.686 61.238L282.948 53.4981L280.442 54.1699ZM282.279 59.659L282.427 56.5674L284.216 59.1399L282.279 59.659Z" fill="white"/>
<ellipse cx="265.193" cy="62.8947" rx="8.72978" ry="8.72535" transform="rotate(-15 265.193 62.8947)" fill="#009ADE"/>
<path d="M259.931 59.666L262.25 68.3218L264.415 67.7417L263.469 64.211L267.264 66.9784L270.454 66.1234L265.276 62.7503L267.793 57.5592L264.831 58.3531L263.042 62.6165L262.096 59.0859L259.931 59.666Z" fill="white"/>
<ellipse cx="247.416" cy="67.6578" rx="8.72979" ry="8.72535" transform="rotate(-15 247.416 67.6578)" fill="#37B349"/>
<path d="M250.245 62.2611L242.383 64.3679L244.702 73.0237L246.981 72.4131L245.303 66.149L248.721 65.233L250.4 71.4971L252.565 70.9169L250.245 62.2611Z" fill="white"/>
<ellipse cx="194.087" cy="81.9471" rx="8.72978" ry="8.72535" transform="rotate(-15 194.087 81.9471)" fill="#00B49B"/>
<path d="M188.825 78.7185L191.145 87.3743L193.31 86.7942L192.364 83.2635L196.158 86.0309L199.349 85.1759L194.17 81.8028L196.688 76.6117L193.725 77.4056L191.936 81.669L190.99 78.1384L188.825 78.7185Z" fill="white"/>
<ellipse cx="211.863" cy="77.1839" rx="8.72978" ry="8.72535" transform="rotate(-15 211.863 77.1839)" fill="#5F6AAF"/>
<path d="M209.149 82.5498L206.83 73.894L208.995 73.3139L209.911 76.7306L213.215 75.8452L212.3 72.4284L214.579 71.8177L216.898 80.4736L214.619 81.0842L213.673 77.5536L210.368 78.439L211.314 81.9697L209.149 82.5498Z" fill="white"/>
<ellipse cx="229.64" cy="72.4208" rx="8.72979" ry="8.72535" transform="rotate(-15 229.64 72.4208)" fill="#F9A61A"/>
<path d="M233.97 71.2606C234.611 73.6508 233.191 76.1079 230.8 76.7487C228.408 77.3895 225.951 75.9713 225.31 73.5811C224.67 71.1908 226.089 68.7337 228.481 68.0929C230.872 67.4521 233.33 68.8703 233.97 71.2606ZM227.475 73.0009C227.795 74.1961 229.024 74.9052 230.22 74.5848C231.416 74.2644 232.125 73.0358 231.805 71.8407C231.485 70.6456 230.256 69.9365 229.06 70.2569C227.865 70.5772 227.155 71.8058 227.475 73.0009Z" fill="white"/>
<rect x="123" y="37.7876" width="146" height="37" rx="4" transform="rotate(-15 123 37.7876)" fill="white"/>
<g clip-path="url(#clip0_153_2872)">
<path fill-rule="evenodd" clip-rule="evenodd" d="M209.234 27.4959C207.051 28.3671 205.644 30.0521 205.163 32.3674C204.725 34.4787 205.166 36.4144 205.311 36.9573C205.456 37.4975 206.04 39.3837 207.476 40.9884C209.047 42.744 211.108 43.5054 213.437 43.1907C213.929 43.1241 214.503 43.0035 215.141 42.8325C217.094 42.3093 219.079 41.4663 219.099 41.4578L219.22 41.3901L218.314 38.0088C218.314 38.0088 216.195 38.7401 215.059 39.0445C213.648 39.4226 213.014 39.4958 212.732 39.4906C211.018 39.4594 210.216 37.1036 209.951 36.0932C209.92 35.9723 209.795 35.5065 209.762 35.3871C209.479 34.3549 208.982 31.8666 210.461 31.0593C210.893 30.8233 211.695 30.5449 212.78 30.2544C213.912 29.9509 216.026 29.4694 216.026 29.4694L215.136 26.1484L214.999 26.1481C214.98 26.1505 213.029 26.3743 211.054 26.9036C210.375 27.0856 209.762 27.2849 209.234 27.4959Z" fill="#343433"/>
<path fill-rule="evenodd" clip-rule="evenodd" d="M243.531 12.6328L247.582 11.5473L253.209 32.5454L249.158 33.6309L243.531 12.6328Z" fill="#343433"/>
<path fill-rule="evenodd" clip-rule="evenodd" d="M174.839 43.2481L168.727 44.8858C168.517 43.4686 168.415 41.8601 170.966 41.1764C173.918 40.3854 174.352 41.7293 174.772 43.029C174.787 43.0772 174.803 43.1249 174.818 43.1722L174.839 43.2481ZM169.992 37.7732C168.313 38.2233 166.113 39.2916 165.045 41.3414C164.116 43.0836 163.927 45.3687 164.528 47.6117L164.682 48.1842C164.782 48.5581 165.361 50.506 166.922 52.1211C168.542 53.7978 170.659 54.4879 173.044 54.1166C173.454 54.053 173.889 53.9598 174.337 53.8398C177.117 53.095 179.533 51.573 179.639 51.5075L179.815 51.3982L179.008 48.3866C179.008 48.3866 175.606 49.7172 174.424 50.0734C170.813 51.1622 169.866 49.3411 169.446 47.949L179.539 45.2353L178.862 42.7062C178.289 40.4892 177.365 38.9809 175.849 38.147C174.019 37.1209 171.751 37.302 170.194 37.7193L169.992 37.7732Z" fill="#343433"/>
<path fill-rule="evenodd" clip-rule="evenodd" d="M198.639 36.8709L192.527 38.5086C192.317 37.0914 192.215 35.4829 194.767 34.7992C197.719 34.0082 198.153 35.3521 198.573 36.6518C198.588 36.7 198.603 36.7477 198.619 36.795L198.639 36.8709ZM193.793 31.396C192.113 31.8461 189.914 32.9144 188.846 34.9642C187.916 36.7064 187.728 38.9915 188.329 41.2345L188.482 41.807C188.583 42.1809 189.161 44.1288 190.723 45.7439C192.343 47.4206 194.46 48.1107 196.845 47.7394C197.255 47.6758 197.69 47.5826 198.138 47.4626C200.917 46.7178 203.334 45.1958 203.44 45.1303L203.616 45.021L202.809 42.0094C202.809 42.0094 199.407 43.34 198.225 43.6962C194.614 44.785 193.667 42.9639 193.247 41.5718L203.34 38.8581L202.662 36.329C202.09 34.112 201.165 32.6037 199.65 31.7698C197.819 30.7437 195.552 30.9248 193.995 31.3421L193.793 31.396Z" fill="#343433"/>
<path fill-rule="evenodd" clip-rule="evenodd" d="M239.909 25.8121L233.797 27.4497C233.587 26.0326 233.485 24.4241 236.036 23.7404C238.989 22.9494 239.422 24.2932 239.842 25.593C239.858 25.6411 239.873 25.6888 239.889 25.7362L239.909 25.8121ZM235.063 20.3372C233.383 20.7873 231.183 21.8555 230.115 23.9053C229.186 25.6475 228.997 27.9326 229.598 30.1756L229.752 30.7481C229.852 31.1221 230.431 33.07 231.992 34.6851C233.613 36.3618 235.73 37.0519 238.114 36.6805C238.525 36.617 238.96 36.5238 239.407 36.4038C242.187 35.659 244.604 34.1369 244.709 34.0715L244.886 33.9621L244.079 30.9505C244.079 30.9505 240.676 32.2812 239.495 32.6374C235.883 33.7262 234.937 31.905 234.516 30.513L244.61 27.7993L243.932 25.2701C243.359 23.0531 242.435 21.5448 240.919 20.711C239.089 19.6849 236.821 19.8659 235.264 20.2832L235.063 20.3372Z" fill="#343433"/>
<path fill-rule="evenodd" clip-rule="evenodd" d="M178.461 30.0688L182.512 28.9833L188.139 49.9815L184.087 51.067L178.461 30.0688Z" fill="#343433"/>
<path fill-rule="evenodd" clip-rule="evenodd" d="M223.117 27.5933L226.662 26.6435L225.78 23.3546L222.236 24.3044L220.812 18.9917L216.508 20.145L220.372 34.5654L224.676 33.4121L223.117 27.5933Z" fill="#BF3936"/>
<path fill-rule="evenodd" clip-rule="evenodd" d="M156.809 50.5318C157.275 50.585 157.657 50.7566 157.946 51.0423L158.087 51.2559L162.553 50.0593L162.407 49.6659C161.119 46.4871 158.611 46.2779 156.185 46.0757C155.371 46.008 153.927 45.9194 152.874 45.855C152.289 45.819 151.828 45.7906 151.707 45.7801C150.303 45.6567 149.124 45.4484 148.919 44.1443C148.745 43.04 149.539 42.3544 151.659 41.7786C153.804 41.2089 158.231 40.4036 158.276 40.3957L158.675 40.3145L157.782 36.9811L157.464 37.0107C157.432 37.0111 153.134 37.3509 150.591 38.0162L150.486 38.0441C148.64 38.5386 147.193 39.2599 146.183 40.189C144.603 41.6427 144.118 43.5568 144.739 45.877C145.423 48.4287 147.547 49.6815 151.841 50.0666C152.989 50.1692 156.118 50.4527 156.809 50.5318Z" fill="#BF3936"/>
<path fill-rule="evenodd" clip-rule="evenodd" d="M158.474 52.8349C158.258 54.0065 156.91 54.5005 155.518 54.8735L155.351 54.9183C153.13 55.5134 148.223 56.3008 148.174 56.3088L147.792 56.378L148.766 60.0139L149.06 59.99C149.097 59.9895 153.306 59.7717 156.219 58.9912C161.122 57.6775 163.422 55.0705 162.929 51.587L158.467 52.8096L160.653 52.7364L158.474 52.8349Z" fill="#343433"/>
<path fill-rule="evenodd" clip-rule="evenodd" d="M227.194 35.7202C226.008 36.0887 225.329 35.8596 225.083 34.9301L220.778 36.0835C221.687 39.3321 224.3 40.082 226.371 39.737C226.612 39.6654 226.785 39.6259 226.877 39.6013C228.264 39.2297 230.069 38.3475 230.101 38.4663L229.219 35.1774C229.202 35.1104 227.712 35.6324 227.194 35.7202Z" fill="#343433"/>
</g>
<g clip-path="url(#clip1_153_2872)">
<rect x="31.6484" y="106.635" width="141.546" height="37.5658" rx="4" transform="rotate(-15 31.6484 106.635)" fill="white"/>
<path d="M41.1637 112.382L163.005 79.7348L168.579 100.539L46.738 133.186L41.1637 112.382Z" fill="white"/>
<path d="M95.956 110.874C96.2205 111.769 96.643 112.428 97.2241 112.851C97.8055 113.275 98.4923 113.381 99.2844 113.168C100.077 112.956 100.613 112.522 100.893 111.868C101.185 111.211 101.216 110.431 100.986 109.526C100.736 108.641 100.322 107.992 99.7445 107.581C99.1746 107.154 98.4937 107.047 97.7011 107.259C96.909 107.472 96.3655 107.901 96.0705 108.546C95.7757 109.191 95.7376 109.967 95.956 110.874ZM58.8644 120.794C59.1315 121.791 59.5655 122.492 60.1665 122.897C60.7642 123.291 61.4707 123.378 62.2858 123.159C63.1127 122.938 63.6868 122.507 64.0075 121.868C64.3371 121.213 64.368 120.387 64.1009 119.391C63.8401 118.417 63.4143 117.747 62.8228 117.377C62.2286 116.996 61.5121 116.918 60.6736 117.142C59.8468 117.364 59.2716 117.788 58.9471 118.416C58.6313 119.028 58.6036 119.82 58.8644 120.794V120.794ZM85.6931 108.816C87.0727 110.841 88.377 112.86 89.606 114.874C89.6353 112.549 89.732 110.154 89.8965 107.69L91.9979 107.127L91.2798 117.263C91.2182 118.09 91.1218 118.741 90.9903 119.214C90.8353 119.693 90.5904 120.087 90.2545 120.395C89.9335 120.713 89.4573 120.957 88.8257 121.126C88.4695 121.221 88.2727 121.268 88.235 121.265L87.0654 119.725C87.2963 119.714 87.5725 119.666 87.8943 119.58C88.2847 119.475 88.5846 119.331 88.7935 119.146C88.9859 118.991 89.117 118.815 89.1868 118.616C89.2599 118.429 89.3044 118.205 89.3204 117.943L83.4882 109.407L85.6931 108.816ZM74.8067 111.733L82.8166 109.587L83.28 111.316L80.317 112.11L82.2913 119.479L80.1726 120.046L78.1983 112.678L75.2701 113.463L74.8067 111.733ZM66.1768 114.046L68.2608 113.487L69.1876 116.946L72.7535 115.991L71.8267 112.532L73.8939 111.978L76.3316 121.075L74.2644 121.629L73.2362 117.792L69.6703 118.748L70.6985 122.585L68.6145 123.143L66.1768 114.046ZM92.7043 106.938L94.6506 106.416L94.9837 107.659C95.1534 107.099 95.4517 106.626 95.8779 106.242C96.3124 105.842 96.9259 105.536 97.7182 105.324C98.5333 105.106 99.3085 105.104 100.043 105.319C100.758 105.552 101.38 105.99 101.909 106.634C102.447 107.262 102.841 108.045 103.092 108.981C103.346 109.93 103.399 110.817 103.251 111.642C103.111 112.452 102.79 113.137 102.288 113.696C102.055 113.977 101.757 114.218 101.392 114.418C101.042 114.628 100.671 114.785 100.281 114.89C99.6038 115.071 99.084 115.152 98.7218 115.134C97.9752 115.103 97.3905 114.873 96.9682 114.446L98.1073 118.697L96.0061 119.26L92.7043 106.938ZM56.7505 121.379C56.4834 120.383 56.4684 119.453 56.7049 118.592C56.9432 117.781 57.3801 117.091 58.0152 116.522C58.6503 115.953 59.3929 115.554 60.2428 115.327C61.1156 115.093 61.9506 115.062 62.7475 115.235C63.5823 115.41 64.3099 115.807 64.9314 116.426C65.5495 117.033 65.992 117.835 66.2591 118.831C66.5294 119.84 66.5502 120.768 66.3216 121.614C66.0894 122.449 65.6595 123.163 65.0307 123.756C64.4104 124.335 63.675 124.737 62.8253 124.965C61.9868 125.189 61.1487 125.209 60.3108 125.021C59.4614 124.836 58.7202 124.436 58.0878 123.82C57.4632 123.189 57.0176 122.376 56.7505 121.379V121.379ZM52.3913 120.269L58.6579 125.811L56.1601 126.48L50.779 121.763L48.9359 122.257L50.4758 128.004L48.2881 128.59L45.4353 117.943L43.7819 118.386L44.3099 115.947L47.0485 115.213L48.4049 120.275L50.248 119.781L52.5435 113.741L55.024 113.076L52.3913 120.269" fill="#262424"/>
<path d="M161.566 93.9312L160.067 94.3328L161.144 98.3504L159.662 98.7473L157.225 89.6497L158.706 89.2527L159.729 93.072L161.245 92.6659L163.081 88.0804L164.666 87.6558L162.583 92.9061L167.379 96.6795L165.691 97.1319L161.566 93.9312ZM149.282 96.6633C149.469 97.3599 149.758 97.9323 150.149 98.3805C150.546 98.854 151.014 99.1725 151.55 99.3374C152.087 99.5028 152.659 99.5037 153.268 99.3407C153.877 99.1776 154.37 98.8847 154.749 98.4614C155.131 98.0498 155.372 97.5479 155.471 96.9543C155.583 96.3583 155.547 95.7183 155.363 95.0339L155.344 94.9615C155.161 94.2771 154.873 93.7104 154.482 93.2616C154.091 92.8127 153.622 92.5076 153.073 92.3456C152.537 92.1805 151.976 92.1762 151.39 92.3331C150.805 92.49 150.319 92.7682 149.934 93.1676C149.551 93.5787 149.299 94.084 149.176 94.6833C149.054 95.2823 149.083 95.9187 149.263 96.5909L149.282 96.6633ZM156.879 94.6278C157.13 95.5641 157.162 96.4436 156.977 97.2655C156.783 98.103 156.395 98.8184 155.816 99.4111C155.233 99.9918 154.499 100.401 153.616 100.638C152.72 100.878 151.878 100.885 151.092 100.657C150.285 100.449 149.589 100.037 149.006 99.4211C148.434 98.802 148.021 98.0179 147.767 97.0694L147.748 96.997C147.5 96.0721 147.476 95.203 147.677 94.3902C147.862 93.568 148.246 92.8665 148.83 92.2853C149.409 91.6924 150.147 91.2761 151.043 91.0361C151.927 90.7992 152.767 90.7865 153.562 90.9981C154.357 91.21 155.04 91.6253 155.613 92.2442C156.196 92.8603 156.612 93.6305 156.86 94.5554L156.879 94.6278ZM143.611 94.6495L139.873 95.6511L140.427 97.858C140.721 99.0021 140.894 99.9465 140.946 100.692C140.999 101.437 140.935 102.027 140.756 102.462L145.372 101.225L143.611 94.6495ZM138.448 103.08L139.257 102.863C139.482 102.417 139.582 101.824 139.556 101.084C139.539 100.329 139.379 99.342 139.077 98.1235L138.208 94.7451L144.754 92.9912L146.854 100.828L148.129 100.486L149.07 103.999L147.64 104.382L147.037 102.13L140.198 103.963L140.802 106.215L139.389 106.593L138.448 103.08ZM132.938 101.371C132.055 101.658 131.466 101.984 131.169 102.347C130.872 102.709 130.801 103.179 130.956 103.756L130.98 103.846C131.105 104.313 131.368 104.629 131.769 104.792C132.181 104.952 132.697 104.949 133.318 104.783C133.811 104.651 134.238 104.427 134.596 104.112C134.955 103.797 135.201 103.429 135.334 103.007C135.464 102.573 135.466 102.122 135.341 101.654L135.08 100.681L132.938 101.371ZM136.312 105.004L135.984 103.779C135.803 104.342 135.489 104.826 135.043 105.228C134.594 105.619 134.031 105.905 133.353 106.087C132.388 106.345 131.569 106.32 130.896 106.011C130.234 105.7 129.792 105.13 129.57 104.3L129.546 104.21C129.301 103.298 129.42 102.526 129.903 101.894C130.395 101.248 131.274 100.716 132.541 100.299L134.771 99.5281L134.607 98.9153C134.433 98.267 134.125 97.8285 133.682 97.5992C133.236 97.3584 132.674 97.3287 131.997 97.5103C131.434 97.661 130.955 97.9178 130.56 98.2814C130.173 98.6295 129.817 99.1371 129.491 99.8036L128.302 99.1567C128.963 97.6279 130.069 96.6561 131.619 96.2407C132.733 95.9422 133.674 95.9859 134.443 96.372C135.21 96.7583 135.727 97.4442 135.99 98.4287L137.656 104.644L136.312 105.004ZM126.013 98.0127L128.451 107.11L127.039 107.489L126.069 103.868C125.608 102.151 125.287 100.859 125.104 99.9943C124.998 100.473 124.774 101.241 124.43 102.299L123.873 104.012L122.422 108.726L120.837 109.15L118.4 100.053L119.795 99.6789L120.91 103.84C121.113 104.597 121.239 105.091 121.289 105.322L121.737 107.133C121.974 106.181 122.337 104.939 122.824 103.405L124.411 98.4419L126.013 98.0127ZM113.101 99.001L107.831 100.413L108.738 103.935C109.16 105.56 109.402 106.924 109.464 108.027C109.523 109.119 109.437 110.036 109.205 110.78L115.785 109.017L113.101 99.001ZM114.315 97.1892L117.37 108.592L118.834 108.2L119.921 112.254L118.388 112.665L117.673 109.998L108.475 112.463L109.189 115.129L107.639 115.545L106.553 111.491L107.569 111.219C108.014 110.031 108.084 108.526 107.78 106.702C107.627 105.855 107.445 105.016 107.234 104.184L105.995 99.4185L114.315 97.1892" fill="#00A99B"/>
</g>
<g clip-path="url(#clip2_153_2872)">
<rect y="70.3171" width="121" height="37" rx="4" transform="rotate(-15 0 70.3171)" fill="#FFDD2D"/>
<g clip-path="url(#clip3_153_2872)">
<path d="M45.2817 76.551L45.3268 75.4047L44.2488 75.7302C44.1569 75.7548 43.4841 75.9147 42.7099 75.6158C42.7594 75.6076 42.8094 75.6013 42.8587 75.5881C43.5254 75.4095 44.0621 74.8328 44.1659 74.1862L44.3543 73.0178C43.7701 73.1825 43.2142 73.2518 43.2142 73.2518C43.2092 73.2521 42.7723 73.311 42.1491 72.9399C41.7022 72.6737 41.2175 72.5994 40.7477 72.7253C40.5423 72.7803 40.3685 72.8667 40.2239 72.9596C40.2258 72.8682 40.2264 72.7761 40.216 72.6839C40.104 71.6675 39.2794 71.09 39.2796 71.091L38.1895 70.2917L38.0035 71.6238C38.0026 71.6282 37.9498 71.9425 37.7574 72.1411C37.594 71.8081 37.3186 71.4582 36.8546 71.1772C35.9799 70.6479 35.1191 70.7651 34.6835 70.8819C34.4818 70.9359 34.3438 70.9964 34.3102 71.0115L33.3758 71.4712C33.3731 71.2341 33.391 70.8157 33.5194 70.4087L33.8352 69.4093L32.507 69.9336L31.8205 69.118L31.0933 69.7825L30.104 69.2155L29.5325 70.2007L28.5676 69.9896L28.3818 71.039L26.9704 71.2487L27.7445 71.9561C28.0593 72.2444 28.2836 72.5967 28.399 72.8037L27.4076 72.8693L27.3739 72.8722C27.3245 72.8772 27.1757 72.8936 26.973 72.9479C26.5373 73.0646 25.7335 73.3944 25.2423 74.2887C24.9797 74.7634 24.9164 75.205 24.9405 75.5753C24.6771 75.501 24.4761 75.2587 24.4761 75.2587L23.6461 74.1916L23.0903 75.4391C23.0244 75.5987 22.7111 76.4331 23.0833 77.2767C23.121 77.3606 23.1667 77.4402 23.214 77.5184C23.0433 77.51 22.8496 77.5221 22.6441 77.5772C22.1744 77.703 21.7917 78.0098 21.5369 78.464C21.1841 79.0946 20.7786 79.2634 20.7825 79.2624C20.7825 79.2624 20.3597 79.4614 19.6689 79.6332L20.4134 80.5518C20.8269 81.0607 21.5807 81.2906 22.2465 81.1122C22.2966 81.0988 22.3431 81.0791 22.3911 81.0612C21.8718 81.7067 21.2093 81.9047 21.129 81.9272L20.0114 82.1879L20.6299 83.1554C20.9445 83.6552 21.7499 84.4072 22.8556 84.2151C22.8709 84.7419 22.759 85.3661 22.2511 85.7585L21.5179 86.3214L22.1788 86.9887C22.5464 87.3456 23.2753 87.6832 24.1238 87.4559C24.3073 87.4057 24.4795 87.3401 24.6403 87.2583C24.736 87.4409 24.8429 87.6206 24.9589 87.7957C25.4144 88.4843 25.338 89.0704 25.3367 89.0769L25.1594 90.0443L26.1332 90.0417C26.1456 90.0424 26.4403 90.0441 26.7841 89.952C26.9404 89.9101 27.0847 89.8541 27.2159 89.7832C27.3153 89.73 27.4078 89.6695 27.4946 89.6034C27.6689 89.7843 27.8637 89.9394 28.0769 90.0681C28.8204 90.5131 29.7269 90.5969 30.7723 90.3168L30.7761 90.3158L31.5198 90.1063L30.1506 91.1634L31.4735 91.4185C31.9546 91.5131 32.5255 91.6246 33.0893 91.6757L33.0512 92.1168L33.5041 92.1935C33.5444 92.2 34.4137 92.3418 35.7235 92.0705C35.7235 92.0705 36.0389 92.0013 36.2102 91.9554C36.3816 91.9094 36.6853 91.8118 36.6853 91.8118C37.9463 91.3922 38.6235 90.8401 38.6549 90.8133L39.0095 90.5192L38.7538 90.1559C39.2302 89.8199 39.6842 89.4236 40.0378 89.1145L41.0362 88.2456L39.3264 88.0126L40.0781 87.8214C41.1245 87.541 41.8686 87.0148 42.2887 86.257C42.4083 86.0402 42.4995 85.8085 42.561 85.5643C42.6692 85.5782 42.7804 85.5841 42.8931 85.5805C43.0412 85.5765 43.1943 85.5529 43.3505 85.511C43.6886 85.4205 43.9459 85.2709 43.953 85.2669L44.8008 84.7794L44.1774 84.0439C44.1621 84.0245 43.8031 83.556 43.8531 82.731C43.8656 82.5204 43.8675 82.3116 43.8593 82.1065C44.0404 82.0968 44.2245 82.0679 44.4092 82.0184C45.4896 81.7289 45.8027 80.8251 45.8587 80.6325L46.095 79.734L45.1788 79.614C44.5418 79.5284 44.1335 79.0425 43.8845 78.5794C44.9244 78.2027 45.2545 77.1464 45.2817 76.551ZM28.5687 73.1493L28.5582 73.1552L28.5643 73.1403L28.5687 73.1493Z" fill="white"/>
<path d="M30.9733 72.455C30.1004 72.6899 29.5231 73.1529 29.4707 73.5294L31.3189 73.7448L32.8117 72.6342C32.5791 72.3341 31.8476 72.2217 30.9733 72.455Z" fill="white"/>
<path d="M35.6927 90.0018L35.6908 90.0023L35.6766 90.0062L35.6605 90.0105L35.6595 90.0107C35.1312 90.1564 34.3736 90.2419 33.9947 90.2332L33.8803 91.4962C34.1856 91.5216 35.1799 91.4594 36.0066 91.2378C36.8315 91.0168 37.7243 90.5724 37.9752 90.3989L37.2457 89.3621C36.9213 89.5603 36.2231 89.8638 35.6927 90.0018Z" fill="white"/>
<path d="M38.5825 88.0024C38.3161 88.2657 37.6863 88.7223 37.3116 88.9565L37.9089 89.8144C38.4941 89.4717 38.9605 89.1293 39.3333 88.7966L38.5582 88.749L38.5825 88.0024Z" fill="white"/>
<path d="M32.1572 89.7241L32.5524 90.3583L31.9041 90.7873C32.3923 90.8893 32.9703 90.9518 33.6456 90.9568L33.7339 89.9152C33.2942 89.8993 32.5193 89.8179 32.1572 89.7241Z" fill="white"/>
<path d="M30.6781 71.3558C31.3363 71.1794 32.0245 71.1645 32.5953 71.3097C32.5996 71.1441 32.6133 70.9414 32.6474 70.724L32.4661 70.7971L32.2747 70.8708L32.1431 70.7131L31.7492 70.2469L31.3561 70.6095L31.2026 70.7487L31.0228 70.6458L30.3928 70.2836L30.0293 70.9119L29.9251 71.091L29.7225 71.0472L29.198 70.9305L29.0928 71.5305L29.0558 71.7333L28.8532 71.7651L28.6595 71.7925C28.7981 71.9647 28.9101 72.1327 28.9976 72.2737C29.4202 71.8623 30.0218 71.5316 30.6781 71.3558Z" fill="white"/>
<path d="M42.379 74.8282C42.4721 74.8349 42.5628 74.8249 42.649 74.8018C43.0211 74.7021 43.3162 74.3637 43.366 74.0533C43.366 74.0533 42.6719 74.1943 41.7371 73.6413C41.4382 73.461 41.1716 73.4549 40.9595 73.5117C40.6299 73.6 40.4297 73.8415 40.4297 73.8415C41.4432 74.0784 41.8282 74.792 42.379 74.8282Z" fill="white"/>
<path d="M22.035 80.3256C22.1212 80.3025 22.2047 80.2658 22.2802 80.214C22.7409 79.9067 22.7185 79.0959 23.4778 78.384C23.4778 78.384 23.1827 78.2753 22.855 78.3631C22.6419 78.4202 22.4142 78.5587 22.2444 78.8646C21.7123 79.8107 21.0407 80.0356 21.0407 80.0356C21.2372 80.28 21.6628 80.4253 22.035 80.3256Z" fill="white"/>
<path d="M43.4488 77.8607C43.4642 77.8575 43.4775 77.854 43.4936 77.8497C44.4226 77.6008 44.4697 76.515 44.4697 76.515L44.4517 76.5199C44.2812 76.5655 42.8888 76.8958 41.5778 75.9085C40.7148 75.2598 39.9947 74.6788 38.8779 74.6737L38.7708 74.683L38.72 74.5843C38.6487 74.4319 38.7175 74.2532 38.9213 74.025C40.1035 72.6944 38.8059 71.7495 38.8059 71.7495C38.8059 71.7495 38.6544 72.8244 37.7368 73.0703C37.715 73.0761 37.691 73.0815 37.6683 73.0876C37.5627 73.1098 37.4612 73.1328 37.354 73.1382L37.1755 73.1502C37.1755 73.1502 37.2453 72.3648 36.4384 71.8765C35.83 71.5076 35.229 71.5788 34.8947 71.6684C34.7261 71.7135 34.6249 71.7641 34.6249 71.7641C35.054 72.0963 35.4685 72.7265 35.2164 73.2514C34.9983 73.7029 34.2304 73.9281 34.3769 74.4749C34.4389 74.7064 34.7264 74.9193 35.1779 75.0587C36.5372 75.4837 37.9522 76.151 38.7821 77.3315C39.8191 78.8036 39.4341 80.0677 38.6365 80.9471C38.6365 80.9471 39.0136 81.1462 39.4615 81.0639C39.5528 81.0487 39.641 81.0291 39.7224 81.0073C40.6476 80.7594 41.009 80.1949 41.009 80.1949C41.009 80.1949 41.0919 80.819 40.76 81.5083C40.4545 82.1445 39.9525 82.6048 39.0668 82.8564C39.0668 82.8564 39.1497 83.2793 39.6399 83.5329C39.9525 83.6921 40.5549 83.6103 40.5549 83.6103C40.5549 83.6103 39.5243 84.1243 39.838 85.776C40.0077 86.6708 39.8668 87.0353 39.8668 87.0353L39.8868 87.0299C42.4162 86.3522 41.7661 84.1873 41.7661 84.1873C41.7661 84.1873 42.1153 84.7859 42.866 84.7655C42.9573 84.7656 43.0506 84.7498 43.1377 84.7265C43.365 84.6655 43.5476 84.5594 43.5476 84.5594C43.5476 84.5594 42.9683 83.8744 43.0409 82.6798C43.1012 81.6886 42.8712 81.0273 42.8712 81.0273C42.8712 81.0273 43.351 81.4542 44.1971 81.2326L44.2055 81.2304C44.9092 81.0418 45.0723 80.4233 45.0723 80.4233C43.197 80.1712 42.7547 77.8537 42.7547 77.8537C42.7547 77.8537 43.0174 77.9589 43.4488 77.8607ZM43.5772 80.3705C42.8005 80.2142 42.1248 79.4274 41.9324 79.1297C42.2986 80.951 41.7624 82.4271 41.0668 83.8958C40.7055 84.6573 40.6834 85.3095 40.6834 85.3095C40.6834 85.3095 40.6017 84.5994 40.909 83.9208C41.5499 82.5207 42.0685 80.8534 41.6939 79.1865C41.4319 78.0233 40.8873 77.1687 40.222 76.523C40.6933 77.2554 40.9202 78.2462 40.2933 79.3953C40.2933 79.3953 41.4684 76.8373 38.4664 75.3425C37.276 74.7865 36.0784 74.5673 35.4354 74.3567C37.5865 74.4756 38.3601 73.5025 38.3601 73.5025C37.8759 74.2224 37.0562 74.4318 36.5283 74.4886C36.6838 74.5194 36.8457 74.5516 37.0222 74.5931C38.933 75.0572 40.8326 76.1542 41.6445 78.1614L41.6402 78.1451C42.5744 80.0787 43.5772 80.3705 43.5772 80.3705Z" fill="white"/>
<path d="M28.2519 86.9072C28.2519 86.9072 28.8147 86.6778 29.0056 86.3826C29.3023 85.9182 29.1637 85.5102 29.1637 85.5102C28.2702 85.7364 27.6061 85.5876 27.0208 85.1911C26.3924 84.7591 26.1513 84.1774 26.1513 84.1774C26.1513 84.1774 26.7464 84.4856 27.6707 84.2379C27.7541 84.2156 27.8392 84.1887 27.9259 84.1563C28.3549 84.0035 28.5829 83.6422 28.5829 83.6422C27.4524 83.2795 26.4859 82.3766 26.6469 80.5835C26.7765 79.1469 27.6671 77.8608 28.6319 76.813C28.9531 76.4666 29.0958 76.1394 29.0336 75.907C28.887 75.3602 28.1104 75.5489 27.6958 75.2669C27.215 74.9384 27.2596 74.1841 27.4643 73.6831C27.4643 73.6831 27.3533 73.6894 27.1838 73.7348C26.8505 73.8242 26.2943 74.063 25.9519 74.6867C25.4954 75.5135 25.9494 76.1585 25.9494 76.1585L25.7888 76.2374C25.6934 76.2864 25.593 76.3174 25.4914 76.3507C25.4677 76.357 25.4471 76.3636 25.4244 76.3697C24.5049 76.6161 23.8384 75.7614 23.8384 75.7614C23.8384 75.7614 23.187 77.2286 24.8752 77.79C25.1658 77.8857 25.3138 78.0063 25.3283 78.174L25.3336 78.2849L25.2343 78.3309C24.2715 78.8931 23.9375 79.7565 23.5145 80.7499C22.8741 82.258 21.5053 82.6687 21.333 82.7148L21.314 82.7199C21.314 82.7199 21.8977 83.6366 22.8267 83.3877C22.8418 83.3836 22.8551 83.3801 22.8709 83.3749C23.2939 83.2451 23.4695 83.0215 23.4695 83.0215C23.4695 83.0215 24.243 85.2492 22.7472 86.4056C22.7472 86.4056 23.1978 86.8597 23.9014 86.6712L23.9099 86.6689C24.7543 86.4375 24.9554 85.8282 24.9554 85.8282C24.9554 85.8282 25.0869 86.5158 25.6337 87.3444C26.2939 88.3426 26.1366 89.2251 26.1366 89.2251C26.1366 89.2251 26.3479 89.2256 26.5742 89.165C26.6622 89.1414 26.7499 89.1087 26.8281 89.0632C27.4874 88.7058 27.4915 88.0125 27.4915 88.0125C27.4915 88.0125 28.0119 90.2122 30.5414 89.5344L30.5593 89.5296C30.5593 89.5296 30.2561 89.2841 29.9566 88.4241C29.4015 86.8371 28.2519 86.9072 28.2519 86.9072ZM27.9514 87.4104C26.6147 86.4863 25.4131 85.4758 24.8187 83.7156C24.8006 84.0687 24.611 85.0884 24.0165 85.6121C24.0165 85.6121 24.7381 84.8583 24.5795 82.7169L24.5839 82.7331C24.2846 80.5896 25.38 78.689 26.8036 77.3315C26.9337 77.2068 27.0597 77.0975 27.1782 76.9943C26.6927 77.2091 25.878 77.4376 25.0988 77.0563C25.0988 77.0563 26.2552 77.5122 28.0578 76.3339C27.6062 76.8377 26.6796 77.6262 25.9267 78.7028C24.0734 81.4987 26.371 83.1261 26.371 83.1261C25.2523 82.4437 24.9547 81.4729 24.9966 80.603C24.7426 81.496 24.6989 82.5072 25.0546 83.6453C25.5627 85.2765 26.8454 86.4612 28.0985 87.3537C28.7048 87.7865 28.9913 88.4427 28.9913 88.4427C28.9913 88.4427 28.644 87.8895 27.9514 87.4104Z" fill="white"/>
<path d="M30.3954 77.7812C30.449 77.8147 30.5027 77.8525 30.5546 77.8906C30.5671 77.8995 30.5784 77.9077 30.5915 77.9185C30.6405 77.9574 30.6912 77.999 30.7403 78.042C30.7507 78.0504 30.7616 78.0608 30.7734 78.0709C30.8334 78.1242 30.8911 78.1803 30.9492 78.2383C31.4835 78.774 32.1692 78.9956 32.6874 78.8577C33.2061 78.7177 33.6872 78.1835 33.884 77.4519C33.9058 77.3704 33.9282 77.2909 33.9536 77.2157C33.9577 77.2044 33.9621 77.194 33.9652 77.183C33.9866 77.1191 34.0102 77.0556 34.0362 76.9934C34.0416 76.9798 34.0467 76.9682 34.0517 76.9566C34.0789 76.8952 34.1073 76.8345 34.1377 76.7773C34.1432 76.7677 34.147 76.7595 34.1522 76.7521C34.2865 76.5109 34.469 76.3057 34.7371 76.1471L34.5882 76.1064L34.5806 76.1084L33.9869 75.9459L33.378 75.7833L32.1756 76.9325L32.171 76.9306L32.169 76.9343L30.5521 76.5405L30.1068 76.9845L29.673 77.4224L29.6673 77.4239L29.5567 77.5342C29.8691 77.5372 30.1283 77.6219 30.3662 77.7634C30.3767 77.7688 30.3848 77.7758 30.3954 77.7812ZM31.678 77.3711L32.2746 77.2112L32.8703 77.0516L32.9806 77.4631C32.7943 77.3283 32.531 77.4366 32.531 77.4366L32.69 78.0301C32.69 78.0301 32.7785 78.3188 32.9137 78.4183L32.6192 78.4972L32.3238 78.5764C32.3933 78.423 32.3244 78.128 32.3244 78.128L32.1654 77.5346C32.1654 77.5346 31.8842 77.5722 31.7883 77.7826L31.678 77.3711Z" fill="white"/>
<path d="M31.9131 76.4521L31.2676 74.043L29.6035 73.9314L30.6316 76.1584L31.9131 76.4521ZM31.0984 74.7224L31.2021 75.1091L31.119 75.0946C31.1144 75.0928 30.9999 75.0969 30.7701 74.9971C30.3923 74.837 30.3264 74.6137 30.3264 74.6137L31.0984 74.7224Z" fill="white"/>
<path d="M33.1218 75.4914L32.8968 73.0493L31.5124 73.9777L32.1579 76.3868L33.1218 75.4914ZM31.9986 74.4815L32.6131 74.0023C32.6131 74.0023 32.6678 74.2286 32.4196 74.5565C32.2715 74.7575 32.1692 74.8114 32.1662 74.8153L32.1015 74.8694L31.9976 74.4817L31.9986 74.4815Z" fill="white"/>
<path d="M31.2532 82.6154C31.4165 82.6298 31.5995 82.5931 31.6913 82.5685C31.6921 82.556 31.6929 82.5404 31.6931 82.522C31.6942 82.4921 31.6947 82.4634 31.6922 82.4314C31.682 82.2912 31.6509 82.1372 31.6267 82.0395C31.5537 82.0172 31.447 81.9712 31.37 81.8806C31.281 81.7758 31.1857 81.7421 31.0673 81.7739C30.9139 81.815 30.7739 81.9515 30.7156 82.0142C30.7488 82.3615 31.0731 82.5983 31.2532 82.6154Z" fill="white"/>
<path d="M34.2833 80.4333C34.0831 80.8188 33.6736 81.5064 33.6535 81.5414L33.6295 81.5846L31.8711 82.0261C31.9169 82.2007 31.9283 82.3569 31.93 82.4729C31.9301 82.4922 31.9305 82.5125 31.9308 82.5329L34.115 82.3509C34.2911 82.1404 34.7702 81.5423 34.9554 81.309C34.7204 81.1065 34.6257 80.8173 34.6082 80.6005C34.4792 80.5585 34.3735 80.5011 34.2833 80.4333Z" fill="white"/>
<path d="M33.9537 78.2513C33.6581 78.7623 33.3107 79.0147 32.9742 79.1416C32.9135 79.165 32.8511 79.1858 32.7866 79.203L32.7819 79.2043L32.7781 79.2053C32.7137 79.2226 32.6483 79.2361 32.584 79.2462C32.5219 79.2567 32.4559 79.2641 32.3887 79.2669C32.3901 79.3634 32.4125 79.5606 32.5419 79.7179C32.6585 79.8612 32.8396 79.9424 33.0779 79.9643L33.1585 79.9733L33.1806 80.0521C33.187 80.0759 33.3414 80.5839 33.9353 80.5768C34.0009 80.4582 34.0606 80.3514 34.1023 80.2645C33.9167 80.0264 33.9028 79.7361 34.0316 79.5576C34.0317 79.5882 34.14 80.2801 34.7429 80.3859L34.8422 80.4043L34.8409 80.5057C34.84 80.5366 34.8354 81.2352 35.5489 81.3033L35.6752 81.3164L35.6542 81.4426C35.6495 81.4703 35.553 82.1293 36.2423 82.3039L37.5425 81.9555L37.2643 80.9172C36.7869 80.9838 36.4908 80.663 36.3696 80.4116C36.1447 80.432 35.953 80.3833 35.7985 80.2614C35.429 79.9734 35.5753 79.5799 35.5733 79.5611C35.5732 79.5642 35.6685 79.9164 35.9427 80.0757C36.0777 80.1518 36.2264 80.1988 36.4234 80.1654L36.5204 80.1486L36.555 80.2435C36.5624 80.2639 36.7422 80.7263 37.2027 80.6835L36.6336 78.5633C36.5455 78.2347 36.5526 77.8785 36.5855 77.543L33.9529 78.2484L33.9537 78.2513Z" fill="white"/>
<path d="M30.7145 80.1603L31.0415 81.5204L31.2 81.5025L31.226 80.107L30.9299 79.7595L30.7145 80.1603Z" fill="white"/>
<path d="M36.4882 85.2525C36.4996 85.2494 36.5133 85.2478 36.5264 85.2474C36.7763 85.2519 37.0607 86.0782 37.488 86.0444C37.5301 86.0423 37.5675 86.0343 37.5997 86.0256C37.7172 85.9942 37.7737 85.9249 37.8255 85.8151C37.8255 85.8151 37.5341 85.546 37.3223 85.369C37.0421 85.1378 36.7913 84.8343 36.4125 84.9358C36.4039 84.9381 36.3926 84.9411 36.3834 84.9447C36.2602 84.9848 36.1998 85.0663 36.1998 85.0663C36.0203 85.0103 35.8685 85.0152 35.7387 85.05C35.501 85.1137 35.3457 85.2728 35.2538 85.2974L35.25 85.2984L34.3809 85.4415C34.245 85.4646 34.1049 85.3581 34.053 85.3159C34.0397 85.3041 34.0326 85.2969 34.0326 85.2969C34.0265 85.274 34.0201 85.2502 34.0126 85.2297C33.7976 84.541 33.1818 84.3864 32.9901 84.4327C32.9901 84.4327 32.9773 84.2942 32.9118 84.2577L32.7862 84.5353L32.0905 84.3899L32.6647 84.7864L32.4064 85.3037C32.3728 85.3639 32.3958 85.4271 32.4219 85.4487L32.62 85.5478L32.7895 85.3696C32.7978 85.3592 32.8153 85.3525 32.838 85.3464C32.8939 85.3314 32.9821 85.3231 33.0578 85.3028C33.1402 85.2807 33.2073 85.2433 33.1949 85.1629C33.2385 85.4279 33.121 85.9403 33.3717 86.2509L33.5585 86.4857L32.7812 86.5776L32.5904 87.2668C32.5355 87.4939 32.5759 87.7128 32.7112 87.8011L32.886 87.9309C32.886 87.9309 33.0172 87.6854 33.0244 87.5456L32.9471 87.4959C32.8821 87.4541 32.8717 87.4038 32.886 87.3357L33.0073 86.91L33.9471 86.8829L33.972 86.7904C34.0049 86.6744 34.0829 86.6208 34.1776 86.5954C34.2164 86.585 34.2575 86.5792 34.3009 86.5747C34.4735 86.5632 34.7551 86.5347 35.025 86.4623C35.3214 86.3829 35.6007 86.2509 35.7097 86.0329C36.1577 86.4243 36.8268 86.3267 36.8405 86.5823L36.8891 87.4454C37.0005 87.4104 37.1073 87.3736 37.2067 87.3316L37.1407 86.4375C37.134 86.3403 37.1175 86.211 37.1175 86.211C37.0379 86.1639 36.8502 86.0693 36.7211 85.9282C36.5472 85.7379 36.5788 85.6059 36.3947 85.3469C36.3991 85.3478 36.4134 85.2725 36.4882 85.2525ZM32.8631 84.9435C32.8193 84.9542 32.778 84.9255 32.7682 84.8812C32.7608 84.8382 32.7869 84.7955 32.8305 84.7879C32.8746 84.7781 32.916 84.8078 32.9254 84.8503C32.9328 84.8932 32.9055 84.9352 32.8631 84.9435Z" fill="white"/>
<path d="M32.1843 87.235C32.1843 87.235 32.4445 87.0357 32.4478 86.9418L32.3827 86.8541C32.3381 86.7977 32.3233 86.7271 32.3661 86.6748L32.6234 86.37L33.1792 86.3303C33.1792 86.3303 33.0513 86.2359 33.0177 86.0724L32.4851 86.0997L32.0877 86.5186C31.9252 86.7265 31.9772 86.9811 32.0843 87.1117L32.1843 87.235Z" fill="white"/>
<path d="M36.2899 87.6196C36.3836 87.5904 36.4873 87.5606 36.6019 87.5299C36.6019 87.5299 36.6595 86.6578 36.6677 86.6281C36.4972 86.6013 36.1357 86.5174 35.9929 86.473C36.1058 86.5724 36.3391 86.659 36.3289 86.7761L36.2899 87.6196Z" fill="white"/>
<path d="M37.6064 82.1859L30.0938 84.1989L30.8554 87.0415C31.1668 88.2036 32.1981 88.7074 33.432 88.3768C34.4633 88.1004 34.7457 88.0676 35.232 88.3478C35.4252 88.0121 35.6174 87.8544 36.0563 87.697L36.055 87.6504L36.0944 86.8506C36.0769 86.838 35.5709 86.4988 35.5709 86.4988C35.4312 86.5914 35.3048 86.6345 35.0879 86.6926C34.8653 86.7522 34.6075 86.7937 34.3219 86.8151C34.2926 86.8158 34.2666 86.8207 34.241 86.8276C34.2078 86.8365 34.2058 86.8401 34.2016 86.8586L34.1752 86.9493L34.1273 87.1153L33.9554 87.1216L33.189 87.1442L33.1344 87.3344L33.1541 87.3475L33.2683 87.4211L33.2634 87.5582C33.2548 87.7381 33.1342 87.9777 33.0965 88.045L32.9686 88.2875L32.7489 88.1228L32.5842 88.0005C32.4153 87.8896 32.3251 87.6738 32.3352 87.42C32.3338 87.4223 32.3312 87.424 32.3284 87.4248L32.1475 87.5641L32.002 87.3887L31.8996 87.2641C31.722 87.0441 31.6648 86.6684 31.9043 86.3684L32.3965 85.8832L32.9779 85.8449C32.9769 85.7879 32.9457 85.5921 32.9488 85.5393C32.9381 85.5411 32.927 85.541 32.9165 85.5438L32.6302 85.7481L32.2662 85.617C32.2662 85.617 32.1148 85.5329 32.1925 85.3876L32.3687 84.8555L31.3611 84.1064L32.6464 84.2746L32.6974 84.1578L32.8033 83.9283L33.0259 84.0504C33.0891 84.0855 33.1336 84.1379 33.1638 84.1941C33.5164 84.2334 34.1863 84.4491 34.397 85.0348L34.2374 85.1551L34.2387 85.1599C34.2924 85.1976 34.3319 85.2085 34.3428 85.2075L35.1906 85.0682C35.2104 85.0588 35.2344 85.0422 35.2614 85.0257C35.3543 84.9631 35.4951 84.8713 35.6778 84.8223C35.8265 84.7824 35.9796 84.7781 36.1352 84.8059C36.1813 84.7732 36.24 84.7421 36.3107 84.7181L36.3502 84.7065C36.7924 84.588 37.1012 84.8615 37.3484 85.0792C37.3899 85.117 37.431 85.153 37.4728 85.1877C37.6859 85.3655 37.9736 85.6324 37.9857 85.6435L38.1149 85.762L38.0381 85.9225C37.9788 86.0455 37.8814 86.1973 37.6598 86.2566C37.6143 86.2688 37.5629 86.2775 37.5061 86.2814C37.4565 86.2856 37.41 86.2827 37.3637 86.2767C37.3688 86.3223 37.3744 86.377 37.3778 86.424L37.4366 87.223C38.2457 86.7765 38.6195 85.9708 38.3674 85.0297L37.6064 82.1859Z" fill="#FFDD2D"/>
<path d="M30.0333 83.9705L35.8754 82.4051C35.5025 82.1803 35.4035 81.7954 35.4114 81.5258C35.3152 81.5076 35.2318 81.4769 35.155 81.4403C34.9722 81.671 34.412 82.3684 34.2644 82.5447L34.2328 82.5818L31.8282 82.7789L31.7819 82.7913C31.727 82.806 31.6459 82.8257 31.555 82.8388C31.5582 82.9493 31.4884 83.0446 31.3861 83.072C31.3747 83.075 31.3612 83.0776 31.3481 83.078C31.2856 83.0836 31.2254 83.067 31.1769 83.0259C31.1276 82.986 31.0976 82.9308 31.0917 82.867L31.0869 82.8152C30.8052 82.711 30.4871 82.3949 30.478 81.9747L30.4762 81.9303L30.503 81.8976C30.5067 81.8925 30.5393 81.8552 30.5889 81.8051L30.4153 81.8241C30.3498 81.8294 30.2925 81.7824 30.2854 81.718C30.279 81.6523 30.3257 81.5918 30.3906 81.5877L30.8042 81.5443L30.4634 80.1286L30.8859 79.3415L31.4634 80.0231L31.4366 81.48L31.8018 81.4413C31.8659 81.4344 31.9241 81.4811 31.9317 81.5474C31.9373 81.6061 31.9004 81.6579 31.8445 81.6729C31.8388 81.6744 31.8322 81.6762 31.8263 81.6768L31.5287 81.7065C31.5348 81.714 31.5417 81.7172 31.5481 81.7257C31.5952 81.7805 31.6748 81.8082 31.7196 81.8166L33.4752 81.3758C33.5297 81.2836 33.6649 81.0534 33.8021 80.8114C33.3282 80.7628 33.0719 80.4312 32.979 80.1906C32.7109 80.1522 32.5038 80.0424 32.3581 79.8659C32.1797 79.6473 32.1529 79.388 32.1498 79.2592C31.8939 79.2358 31.6068 79.1454 31.2899 78.9628L28.6572 79.6682C28.8516 79.9427 29.0358 80.2478 29.1238 80.5764L30.0333 83.9705Z" fill="#FFDD2D"/>
<path d="M32.8313 84.7878C32.7874 84.7955 32.7602 84.8385 32.7685 84.8812C32.7774 84.9257 32.8197 84.9542 32.8638 84.9434C32.9067 84.936 32.9352 84.8937 32.9275 84.8498C32.9162 84.8079 32.8754 84.777 32.8313 84.7878Z" fill="black"/>
<path d="M39.3085 88.5768L38.831 88.526L38.8299 88.0444L38.8301 87.5186C38.8301 87.5186 38.175 88.1423 37.1788 88.7462C36.8957 88.917 36.6744 89.0192 36.6744 89.0192L36.7637 89.3525C36.7637 89.3525 36.2131 89.6083 35.6288 89.7649L35.6221 89.7667L35.6136 89.769L35.6022 89.772L35.5956 89.7738C35.0113 89.9304 34.4066 89.9841 34.4066 89.9841L34.3172 89.6508C34.3172 89.6508 34.0735 89.6732 33.7439 89.6666C32.5792 89.6418 31.701 89.4288 31.701 89.4288L31.9621 89.8846L32.2048 90.3015L31.8157 90.5844L31.3832 90.8943C32.007 91.0141 32.8759 91.1999 33.6273 91.2047L33.584 91.7023C33.584 91.7023 34.5803 91.8714 36.0597 91.4791L36.0599 91.48L36.0647 91.4787L36.0713 91.477L36.077 91.4755L36.0807 91.4744L36.0805 91.4735C37.5597 91.073 38.337 90.4288 38.337 90.4288L38.0498 90.0197C38.6981 89.6399 39.3596 89.0439 39.8371 88.6291L39.3085 88.5768ZM31.9046 90.7873L32.5529 90.3584L32.1577 89.724C32.5191 89.8191 33.2948 89.8992 33.7353 89.9149L33.6461 90.9567C32.9705 90.9509 32.3925 90.8883 31.9046 90.7873ZM36.0072 91.2378C35.1804 91.4594 34.185 91.5209 33.881 91.4962L33.9952 90.2332C34.3732 90.2423 35.1318 90.1564 35.6601 90.0107L35.6611 90.0104L35.6772 90.0061L35.6913 90.0023L35.6933 90.0018C36.2237 89.8638 36.9216 89.5594 37.2464 89.3621L37.9758 90.399C37.7252 90.5733 36.833 91.0166 36.0072 91.2378ZM37.9095 89.8143L37.3123 88.9565C37.6869 88.7223 38.3167 88.2657 38.5831 88.0023L38.5589 88.7491L39.3339 88.7966C38.9609 89.1283 38.4944 89.4708 37.9095 89.8143Z" fill="black"/>
<path d="M30.7536 71.6338C31.6344 71.3978 32.4175 71.5025 32.8907 71.7116C32.8907 71.7116 32.8186 70.9804 33.0479 70.2564L32.3603 70.5274L31.7765 69.8334L31.1624 70.3941L30.2868 69.8915L29.7816 70.7641L28.9686 70.5858L28.8109 71.4785L28.0799 71.5876C28.6404 72.1 28.9436 72.7692 28.9436 72.7692C29.2498 72.3513 29.8738 71.8695 30.7536 71.6338ZM28.8532 71.7653L29.0558 71.7334L29.0928 71.5306L29.198 70.9306L29.7223 71.0464L29.9249 71.0901L30.0291 70.9111L30.3926 70.2828L31.0225 70.6449L31.2024 70.7478L31.3559 70.6087L31.7493 70.247L32.1432 70.7132L32.2747 70.8709L32.4661 70.7972L32.6474 70.7241C32.6136 70.9425 32.5996 71.1443 32.5953 71.3099C32.0245 71.1647 31.3363 71.1795 30.6782 71.3559C30.0228 71.5315 29.4203 71.8625 28.9967 72.2741C28.9092 72.1331 28.7969 71.9641 28.6586 71.7929L28.8532 71.7653Z" fill="black"/>
<path d="M43.5755 78.1558C44.7148 77.8505 44.7831 76.5826 44.7859 76.5288L44.8028 76.0842L44.3792 76.212L44.3774 76.2124C44.2268 76.2528 42.9612 76.5562 41.7648 75.6557L41.6522 75.5725C40.8702 74.9837 40.1284 74.4238 39.0551 74.3653C39.0766 74.332 39.1087 74.2886 39.1548 74.2375C39.5856 73.7504 39.7777 73.2476 39.7235 72.7384C39.6382 71.9731 39.0153 71.5121 38.9881 71.4938L38.5652 71.1845L38.4926 71.7052C38.4873 71.7383 38.3545 72.5764 37.6537 72.7642L37.6016 72.7781C37.5526 72.7882 37.5066 72.7985 37.4601 72.8068C37.3952 72.4659 37.1959 71.9649 36.6001 71.6048C35.8839 71.1708 35.1729 71.2674 34.8131 71.3638C34.6208 71.4154 34.4994 71.4734 34.4866 71.4789L34.033 71.7025L34.4333 72.0149C34.7463 72.2547 35.1058 72.7557 34.9348 73.1139C34.88 73.2276 34.7364 73.3467 34.5994 73.4641C34.3165 73.7002 33.9318 74.0258 34.0737 74.5555C34.1656 74.8985 34.5258 75.1858 35.0866 75.3622C36.7457 75.8795 37.8716 76.5814 38.5264 77.5137C39.5368 78.9471 39.0174 80.0582 38.4047 80.7339L38.13 81.0382L38.4927 81.2289C38.5407 81.2529 38.9813 81.4727 39.5192 81.3777C39.6204 81.3577 39.7175 81.3377 39.8066 81.3139C40.1437 81.2235 40.4164 81.0933 40.6301 80.9594C40.5961 81.0901 40.5484 81.2264 40.4801 81.3693C40.1891 81.9761 39.7284 82.3405 38.9824 82.5526L38.7052 82.632L38.7588 82.9188C38.771 82.9758 38.8898 83.5025 39.499 83.814C39.5922 83.8625 39.6982 83.8944 39.8054 83.9157C39.5537 84.3058 39.3559 84.9203 39.5314 85.8361C39.6773 86.6005 39.5735 86.9254 39.5724 86.9287L39.3912 87.4837L39.9492 87.3424C40.8678 87.0963 41.5029 86.6524 41.8553 86.0169C42.0631 85.6406 42.1376 85.2592 42.155 84.934C42.3518 85.0283 42.5904 85.0929 42.8764 85.0847C42.9851 85.0811 43.1004 85.0645 43.2207 85.0323C43.4802 84.9628 43.6822 84.8494 43.7053 84.8371L44.0349 84.6467L43.7883 84.3554C43.7698 84.3318 43.2943 83.7425 43.3576 82.7025C43.3844 82.2532 43.3554 81.8648 43.3124 81.568C43.5673 81.6253 43.8927 81.6423 44.2802 81.5394C45.159 81.3039 45.3695 80.54 45.3801 80.5076L45.4722 80.1582L45.1155 80.1109C43.9509 79.9543 43.4042 78.8419 43.1872 78.218C43.2868 78.2107 43.3994 78.199 43.5225 78.17L43.5755 78.1558ZM45.0733 80.4233C45.0733 80.4233 44.9102 81.0419 44.2065 81.2304L44.198 81.2327C43.352 81.4543 42.8722 81.0274 42.8722 81.0274C42.8722 81.0274 43.1022 81.6887 43.041 82.6801C42.9683 83.8747 43.5477 84.5598 43.5477 84.5598C43.5477 84.5598 43.365 84.6659 43.1378 84.7268C43.0506 84.7501 42.9574 84.7659 42.8661 84.7659C42.1154 84.7863 41.7662 84.1877 41.7662 84.1877C41.7662 84.1877 42.4163 86.3526 39.8868 87.0303L39.867 87.0356C39.867 87.0356 40.0078 86.6712 39.839 85.776C39.5254 84.1245 40.5559 83.6104 40.5559 83.6104C40.5559 83.6104 39.9548 83.6929 39.6419 83.5327C39.1517 83.2792 39.0678 82.8564 39.0678 82.8564C39.9547 82.6055 40.4555 82.1447 40.761 81.5084C41.092 80.8194 41.01 80.1951 41.01 80.1951C41.01 80.1951 40.6486 80.7595 39.7235 81.0074C39.642 81.0292 39.5538 81.0487 39.4625 81.064C39.0156 81.1461 38.6375 80.9471 38.6375 80.9471C39.4341 80.068 39.8198 78.8028 38.7829 77.3306C37.9523 76.1514 36.537 75.4831 35.1787 75.0579C34.7272 74.9185 34.44 74.7065 34.3777 74.4741C34.2312 73.9273 34.9994 73.7031 35.2181 73.2503C35.4692 72.7256 35.0545 72.0945 34.6257 71.7633C34.6257 71.7633 34.7269 71.7127 34.8954 71.6675C35.2297 71.5779 35.8311 71.5076 36.4392 71.8756C37.247 72.3636 37.1763 73.1494 37.1763 73.1494L37.3548 73.1373C37.462 73.132 37.5634 73.109 37.6688 73.0858C37.6916 73.0797 37.7146 73.0746 37.7373 73.0685C38.6549 72.8226 38.8064 71.7477 38.8064 71.7477C38.8064 71.7477 40.1053 72.6933 38.9228 74.0229C38.719 74.2511 38.6501 74.4298 38.7215 74.5823L38.7723 74.681L38.8794 74.6717C39.9962 74.6767 40.7162 75.2577 41.5793 75.9065C42.8903 76.8937 44.2827 76.5636 44.4531 76.5179L44.4712 76.5131C44.4712 76.5131 44.424 77.5987 43.495 77.8476C43.4799 77.8517 43.4666 77.8552 43.4503 77.8586C43.0191 77.9578 42.7562 77.8516 42.7562 77.8516C42.7562 77.8516 43.1978 80.1704 45.0733 80.4233Z" fill="black"/>
<path d="M40.358 74.151C40.8441 74.2647 41.173 74.5033 41.4623 74.7157C41.7461 74.9224 42.0169 75.1225 42.3615 75.1435C42.4847 75.1524 42.6089 75.1385 42.7301 75.106C43.2055 74.9787 43.6045 74.5583 43.6768 74.105L43.7499 73.6504L43.3024 73.7418C43.2813 73.7464 42.7012 73.8467 41.8967 73.367C41.566 73.1708 41.215 73.1147 40.8769 73.2053C40.4641 73.3159 40.2138 73.6055 40.1853 73.6357L39.8569 74.031L40.358 74.151ZM40.9601 73.5118C41.1722 73.455 41.4388 73.4611 41.7378 73.6413C42.6726 74.1944 43.3666 74.0533 43.3666 74.0533C43.3166 74.3628 43.0218 74.7021 42.6496 74.8019C42.5635 74.825 42.4737 74.8348 42.3796 74.8283C41.8289 74.7921 41.4438 74.0785 40.4294 73.8418C40.4294 73.8418 40.6306 73.6001 40.9601 73.5118Z" fill="black"/>
<path d="M41.6406 78.1452L41.6447 78.1605C40.8331 76.1543 38.9335 75.0572 37.0225 74.5922C36.8459 74.5507 36.685 74.5183 36.5286 74.4877C37.0573 74.4307 37.8772 74.2213 38.3603 73.5017C38.3603 73.5017 37.5868 74.4747 35.4356 74.3558C36.0787 74.5663 37.2772 74.7853 38.4666 75.3416C41.4687 76.8364 40.2926 79.3947 40.2926 79.3947C40.9195 78.2456 40.6926 77.2548 40.2213 76.5224C40.8866 77.1681 41.4303 78.0229 41.6931 79.1858C42.0678 80.8528 41.5493 82.5201 40.9083 83.9201C40.6019 84.5985 40.6827 85.3089 40.6827 85.3089C40.6827 85.3089 40.7048 84.6567 41.0661 83.8952C41.7617 82.4265 42.2969 80.9506 41.9307 79.1293C42.1229 79.426 42.7979 80.214 43.5756 80.3701C43.5777 80.3706 42.5749 80.0788 41.6406 78.1452Z" fill="black"/>
<path d="M30.763 89.2883C30.7613 89.2857 30.5109 89.0557 30.2532 88.3212C29.9463 87.4407 29.4687 87.0071 29.0547 86.7954C29.139 86.7238 29.213 86.6437 29.2692 86.5542C29.6401 85.98 29.4796 85.4645 29.4617 85.4091L29.3675 85.1332L29.0859 85.2035C28.3354 85.3913 27.7533 85.3063 27.1981 84.9272C27.0684 84.8374 26.958 84.7434 26.8633 84.6474C27.1153 84.6564 27.4147 84.6334 27.7528 84.5428C27.8437 84.5184 27.9359 84.4875 28.0336 84.4542C28.5469 84.2677 28.8187 83.8579 28.8491 83.812L29.0678 83.4655L28.6777 83.3393C27.8062 83.0603 26.8037 82.3569 26.9613 80.6117C27.0622 79.4769 27.6854 78.3063 28.8655 77.0283C29.263 76.595 29.4293 76.1666 29.3374 75.8237C29.1955 75.294 28.7002 75.2032 28.3375 75.141C28.1601 75.1079 27.9761 75.0766 27.8718 75.0055C27.5439 74.7819 27.6055 74.1672 27.7557 73.8032L27.9482 73.3321L27.4415 73.3657C27.4269 73.3676 27.2945 73.3776 27.1013 73.4293C26.7414 73.5258 26.0793 73.7971 25.6751 74.5313C25.3384 75.1422 25.4155 75.6759 25.5285 76.0029C25.4841 76.019 25.4391 76.0331 25.3925 76.0486L25.3414 76.0623C24.6387 76.2505 24.1057 75.5909 24.0846 75.5649L23.7612 75.1502L23.5468 75.6304C23.5353 75.6591 23.2247 76.3712 23.5351 77.0752C23.7418 77.5435 24.1595 77.8828 24.7761 78.0893C24.8426 78.1103 24.8911 78.132 24.9264 78.1502C24.0271 78.7372 23.6659 79.5936 23.283 80.4946L23.2271 80.6229C22.6422 82.0007 21.3916 82.3716 21.241 82.412L20.8085 82.5135L21.0491 82.889C21.0776 82.9345 21.7698 83.9988 22.9099 83.6932L22.9644 83.6767C23.0836 83.6406 23.1873 83.5955 23.2788 83.5505C23.4016 84.1986 23.4843 85.4353 22.5534 86.1544L22.269 86.3736L22.5236 86.63C22.548 86.6531 23.1132 87.2092 23.9938 86.9732C24.3781 86.8692 24.6513 86.6919 24.8443 86.5146C24.9555 86.7931 25.1246 87.144 25.3725 87.5196C25.9474 88.3886 25.8292 89.137 25.825 89.1668L25.7571 89.5423L26.1387 89.5421C26.1639 89.5415 26.3975 89.5381 26.656 89.4688C26.7772 89.4363 26.8854 89.3931 26.9794 89.3423C27.2322 89.2062 27.4084 89.0304 27.5297 88.8508C27.7065 89.124 27.9626 89.4169 28.3297 89.6391C28.9536 90.013 29.7247 90.08 30.6433 89.8339L31.1981 89.6771L30.763 89.2883ZM30.5408 89.5347C28.0113 90.2124 27.491 88.0128 27.491 88.0128C27.491 88.0128 27.4879 88.7058 26.8276 89.0635C26.7494 89.1089 26.6617 89.1417 26.5736 89.1653C26.3464 89.2262 26.136 89.2253 26.136 89.2253C26.136 89.2253 26.2934 88.3429 25.6331 87.3447C25.0863 86.5161 24.9549 85.8285 24.9549 85.8285C24.9549 85.8285 24.7537 86.4378 23.9094 86.6691L23.9008 86.6714C23.1972 86.86 22.7467 86.4059 22.7467 86.4059C24.2437 85.2502 23.4689 83.0218 23.4689 83.0218C23.4689 83.0218 23.2941 83.2442 22.8704 83.3751C22.8555 83.3801 22.8413 83.3839 22.8261 83.388C21.8961 83.6372 21.3135 82.7203 21.3135 82.7203L21.3324 82.7152C21.5039 82.6692 22.8729 82.2595 23.5146 80.749C23.9376 79.7556 24.2719 78.8931 25.2344 78.33L25.3337 78.284L25.3284 78.1731C25.314 78.0054 25.1659 77.8848 24.8754 77.7891C23.1862 77.2279 23.8385 75.7605 23.8385 75.7605C23.8385 75.7605 24.505 76.6152 25.4245 76.3688C25.4472 76.3627 25.4679 76.3561 25.4915 76.3498C25.5932 76.3164 25.6945 76.2852 25.789 76.2364L25.9496 76.1576C25.9496 76.1576 25.4955 75.5126 25.952 74.6858C26.2945 74.0621 26.8506 73.8232 27.1839 73.7339C27.3534 73.6885 27.4644 73.6822 27.4644 73.6822C27.26 74.1842 27.2161 74.9372 27.6959 75.266C28.1105 75.548 28.8872 75.3593 29.0337 75.9061C29.0957 76.1375 28.9533 76.4657 28.632 76.8121C27.6673 77.8598 26.7757 79.1462 26.647 80.5826C26.486 82.3757 27.4514 83.2778 28.5831 83.6413C28.5831 83.6413 28.3551 84.0026 27.9261 84.1553C27.8393 84.1878 27.7542 84.2146 27.6708 84.237C26.7466 84.4846 26.1514 84.1764 26.1514 84.1764C26.1514 84.1764 26.3925 84.7582 27.0209 85.1902C27.6064 85.5876 28.2706 85.7364 29.1641 85.5103C29.1641 85.5103 29.3038 85.918 29.006 86.3826C28.8139 86.6771 28.2523 86.9072 28.2523 86.9072C28.2523 86.9072 29.4028 86.8369 29.956 88.4243C30.2564 89.2841 30.5588 89.5298 30.5588 89.5298L30.5408 89.5347Z" fill="black"/>
<path d="M22.1167 80.6303C22.2389 80.5976 22.3533 80.5475 22.4555 80.4782C22.7454 80.2872 22.8789 79.9789 23.0213 79.6579C23.1667 79.329 23.3302 78.9584 23.6944 78.6169L24.0687 78.2634L23.5855 78.0855C23.5456 78.0727 23.1853 77.9478 22.7733 78.0581C22.4343 78.149 22.1572 78.3723 21.9701 78.7082C21.5129 79.525 20.9616 79.7289 20.941 79.7354L20.5076 79.8791L20.7975 80.2374C21.0872 80.5916 21.6422 80.7575 22.1167 80.6303ZM22.2446 78.8655C22.4144 78.5596 22.6422 78.421 22.8553 78.3639C23.1829 78.2761 23.478 78.3848 23.478 78.3848C22.719 79.0977 22.7411 79.9076 22.2804 80.2148C22.205 80.2666 22.1214 80.3034 22.0353 80.3264C21.6631 80.4262 21.2383 80.2806 21.041 80.0364C21.0407 80.0355 21.7113 79.8108 22.2446 78.8655Z" fill="black"/>
<path d="M25.0548 83.6452C24.6991 82.5071 24.7425 81.4949 24.9968 80.6028C24.9548 81.4727 25.2527 82.4445 26.3712 83.126C26.3712 83.126 24.0736 81.4985 25.9269 78.7027C26.6798 77.6259 27.6073 76.8373 28.058 76.3337C26.2554 77.5119 25.099 77.0561 25.099 77.0561C25.8772 77.4377 26.6919 77.2092 27.1781 76.9932C27.0589 77.0976 26.9338 77.2067 26.8035 77.3304C25.3792 78.6891 24.2835 80.5887 24.5828 82.7322L24.5784 82.7161C24.7371 84.8575 24.0154 85.6113 24.0154 85.6113C24.61 85.0875 24.7999 84.0687 24.8177 83.7148C25.4121 85.475 26.6136 86.4854 27.9503 87.4096C28.644 87.8884 28.9912 88.4417 28.9912 88.4417C28.9912 88.4417 28.705 87.7863 28.0985 87.3525C26.8459 86.462 25.5629 85.2763 25.0548 83.6452Z" fill="black"/>
<path d="M31.6787 77.3711L31.789 77.7826C31.8839 77.5723 32.1661 77.5346 32.1661 77.5346L32.3251 78.128C32.3251 78.128 32.3937 78.422 32.3245 78.5764L32.6199 78.4972L32.9144 78.4183C32.7794 78.3197 32.6906 78.0301 32.6906 78.0301L32.5316 77.4366C32.5316 77.4366 32.7949 77.3282 32.9813 77.4631L32.871 77.0516L32.2753 77.2112L31.6787 77.3711Z" fill="black"/>
<path d="M30.7709 74.9984C30.9997 75.0984 31.1152 75.094 31.1198 75.0959L31.2028 75.1103L31.0989 74.7226L30.3271 74.615C30.3274 74.6159 30.394 74.838 30.7709 74.9984Z" fill="black"/>
<path d="M32.4195 74.5569C32.6677 74.229 32.6131 74.0027 32.6131 74.0027L31.9985 74.4818L32.1024 74.8696L32.1661 74.8158C32.1701 74.8116 32.2714 74.7579 32.4195 74.5569Z" fill="black"/>
<path d="M33.2454 72.6435C33.0879 72.0558 31.9623 71.7907 30.8761 72.0818L30.8752 72.082L30.8723 72.0828L30.8695 72.0836C29.7833 72.3746 28.941 73.1669 29.0985 73.7547L29.1591 73.8936L30.2638 76.2818L29.8964 76.6528L28.9468 77.6169L28.9506 77.6158C28.9506 77.6158 28.7318 77.8143 28.636 77.9268C28.2875 78.3418 28.3137 78.8034 28.6112 78.9177C28.5774 78.5449 28.7576 78.0964 29.2822 77.9558C29.6601 77.8546 30.0006 77.9736 30.3125 78.2056C30.392 78.2639 30.47 78.3277 30.546 78.3993C30.6401 78.4894 30.7308 78.5662 30.8207 78.6402L27.9181 79.4179C28.2468 79.7923 28.572 80.1953 28.7049 80.6916L30.4365 87.1539C30.8556 88.7181 32.2518 89.1444 33.5454 88.7978C34.5455 88.5299 34.6677 88.4481 35.3679 88.8526C35.7688 88.152 35.9158 88.1627 36.9168 87.8945C38.2113 87.5476 39.2054 86.4808 38.7863 84.9166L37.0547 78.4543C36.9217 77.958 37.0019 77.4464 37.1003 76.9575L34.1967 77.7355C34.2369 77.6277 34.2767 77.5149 34.3132 77.3898C34.3442 77.2897 34.3789 77.1956 34.4177 77.1056C34.5734 76.7474 34.808 76.4752 35.1859 76.3739C35.7105 76.2334 36.0897 76.531 36.2479 76.8714C36.4485 76.6237 36.2414 76.2106 35.7291 76.0262C35.5919 75.9762 35.3031 75.9137 35.3031 75.9137L35.3069 75.9127L34.0026 75.5526L33.5007 75.4145L33.2634 72.7939L33.2454 72.6435ZM29.6036 73.9318L31.2677 74.0433L31.9132 76.4524L30.6316 76.1578L29.6036 73.9318ZM31.2902 78.9645C31.6074 79.148 31.8943 79.2376 32.1502 79.2609C32.1523 79.3901 32.1794 79.6503 32.3587 79.8687C32.5041 80.0441 32.7122 80.1538 32.9793 80.1925C33.0722 80.4331 33.3273 80.7639 33.8024 80.8133C33.6653 81.0552 33.5297 81.2845 33.4746 81.3779L31.7199 81.8184C31.6748 81.8091 31.5956 81.7823 31.5482 81.7266C31.5421 81.7191 31.5352 81.7158 31.5298 81.707L31.8273 81.6774C31.8342 81.6765 31.8398 81.675 31.8455 81.6735C31.9005 81.6587 31.9386 81.6077 31.9327 81.548C31.9251 81.4817 31.8669 81.435 31.8028 81.4419L31.4376 81.4806L31.4646 80.0245L30.8872 79.3431L30.4648 80.1302L30.8055 81.5458L30.3919 81.5893C30.327 81.5934 30.2805 81.6549 30.2867 81.7195C30.2938 81.784 30.351 81.8309 30.4166 81.8257L30.5902 81.8067C30.5397 81.857 30.5081 81.894 30.5043 81.8991L30.4766 81.9321L30.4784 81.9766C30.4875 82.3968 30.8065 82.7126 31.0873 82.817L31.092 82.8688C31.0989 82.9324 31.1279 82.9878 31.1772 83.0277C31.2248 83.0691 31.286 83.0854 31.3475 83.0801C31.3604 83.0787 31.3738 83.0761 31.3853 83.073C31.4875 83.0457 31.5574 82.9503 31.5552 82.8397C31.646 82.8266 31.727 82.8069 31.7819 82.7922L31.8284 82.7797L34.2326 82.5817L34.2645 82.5456C34.4128 82.368 34.9721 81.671 35.1551 81.4411C35.2322 81.4787 35.3155 81.5095 35.4117 81.5276C35.4047 81.7969 35.5029 82.1821 35.8767 82.4067L30.0337 83.9723L29.1247 80.5801C29.0367 80.2515 28.8525 79.9466 28.6581 79.6719L31.2907 78.9665L31.2902 78.9645ZM34.9552 81.3089C34.7692 81.5425 34.29 82.1405 34.1149 82.3508L31.9307 82.5328C31.9303 82.5125 31.9302 82.4931 31.9298 82.4728C31.9282 82.3568 31.9158 82.2009 31.871 82.0261L33.6297 81.5855L33.6536 81.5422C33.673 81.5085 34.0835 80.8206 34.2834 80.4342C34.3734 80.501 34.4793 80.5594 34.6083 80.6014C34.6256 80.8173 34.7203 81.1064 34.9552 81.3089ZM31.3702 81.8805C31.4473 81.9711 31.5549 82.0169 31.6269 82.0394C31.651 82.137 31.6822 82.291 31.6924 82.4313C31.6946 82.4623 31.6944 82.492 31.6933 82.5219C31.6932 82.5403 31.6922 82.5559 31.6915 82.5683C31.5997 82.5929 31.4157 82.63 31.2534 82.6153C31.0733 82.5982 30.748 82.3617 30.7158 82.014C30.775 81.9511 30.9141 81.8148 31.0676 81.7737C31.1857 81.741 31.2812 81.7757 31.3702 81.8805ZM31.0413 81.5204L30.7146 80.1612L30.9297 79.7595L31.2259 80.1069L31.1999 81.5024L31.0413 81.5204ZM36.6021 87.5306C36.4884 87.561 36.3838 87.5911 36.2901 87.6203L36.3302 86.7774C36.3402 86.6594 36.1071 86.5738 35.9942 86.4744C36.1371 86.5189 36.4986 86.6027 36.6692 86.6295C36.6597 86.6585 36.6021 87.5306 36.6021 87.5306ZM37.1441 86.4399L37.2099 87.333C37.1105 87.3749 37.0027 87.412 36.8913 87.447L36.8427 86.584C36.8287 86.3273 36.1599 86.4259 35.712 86.0344C35.6032 86.2535 35.3227 86.3848 35.0272 86.464C34.7573 86.5363 34.4757 86.5648 34.3032 86.5763C34.2597 86.5808 34.2186 86.5867 34.1798 86.5971C34.0852 86.6225 34.0068 86.6751 33.9743 86.792L33.9483 86.8848L33.0087 86.9119L32.887 87.3366C32.8715 87.4041 32.8832 87.4551 32.9482 87.4968L33.0254 87.5466C33.0194 87.6871 32.8881 87.9315 32.8881 87.9315L32.7123 87.802C32.5766 87.7128 32.5366 87.4948 32.5924 87.2675L32.7832 86.5782L33.5605 86.4863L33.3725 86.2508C33.1218 85.9402 33.2393 85.4279 33.1957 85.1629C33.2081 85.2433 33.1416 85.2795 33.0583 85.3018C32.9826 85.3221 32.8944 85.3304 32.8386 85.3453C32.8168 85.3512 32.7983 85.3582 32.79 85.3686L32.6205 85.5467L32.4224 85.4477C32.3961 85.4251 32.3724 85.3631 32.4069 85.3028L32.6654 84.7863L32.0904 84.3901L32.786 84.5355L32.9115 84.2579C32.9763 84.2947 32.9899 84.4329 32.9899 84.4329C33.1825 84.3864 33.7984 84.541 34.0132 85.2287C34.0206 85.2491 34.027 85.273 34.0331 85.2958C34.0331 85.2958 34.0402 85.3031 34.0535 85.3149C34.1054 85.3572 34.2455 85.4635 34.3814 85.4404L35.2506 85.2974L35.2543 85.2964C35.3472 85.2715 35.5025 85.1125 35.7392 85.049C35.868 85.0145 36.0208 85.0093 36.2003 85.0653C36.2003 85.0653 36.2607 84.9838 36.3839 84.9436C36.3931 84.9402 36.4036 84.9373 36.413 84.9348C36.7928 84.8331 37.0424 85.1358 37.3228 85.368C37.5347 85.545 37.826 85.8141 37.826 85.8141C37.7745 85.9249 37.7177 85.9932 37.6003 86.0247C37.5681 86.0333 37.5304 86.0403 37.4885 86.0434C37.0611 86.0772 36.7769 85.2509 36.527 85.2463C36.5136 85.2458 36.5001 85.2484 36.4888 85.2515C36.4139 85.2715 36.3987 85.3471 36.3987 85.3471C36.5815 85.6054 36.5511 85.7381 36.724 85.9287C36.8531 86.0697 37.0408 86.1644 37.1205 86.2114C37.121 86.2133 37.1371 86.3417 37.1441 86.4399ZM32.3821 86.8541L32.4473 86.9419C32.4447 87.0345 32.1838 87.235 32.1838 87.235L32.083 87.1129C31.976 86.9824 31.923 86.7281 32.0865 86.5199L32.4838 86.101L33.0165 86.0736C33.0501 86.2371 33.1779 86.3316 33.1779 86.3316L32.6222 86.3713L32.3649 86.676C32.3218 86.7274 32.3366 86.798 32.3821 86.8541ZM37.4389 87.2217L37.3801 86.4226C37.3756 86.3758 37.3711 86.3209 37.366 86.2753C37.4113 86.2816 37.4587 86.2842 37.5083 86.2801C37.5651 86.2761 37.6165 86.2674 37.662 86.2552C37.8837 86.1958 37.981 86.0441 38.0404 85.921L38.1172 85.7606L37.988 85.6421C37.9756 85.63 37.6891 85.3638 37.4751 85.1863C37.4333 85.1515 37.3924 85.1165 37.3506 85.0777C37.1035 84.8601 36.7938 84.5868 36.3515 84.7053L36.312 84.7169C36.2403 84.7412 36.1817 84.7722 36.1366 84.8047C35.9797 84.7763 35.8278 84.7813 35.6791 84.8211C35.4964 84.8701 35.3555 84.962 35.2627 85.0246C35.2356 85.041 35.2117 85.0576 35.1919 85.0671L34.3432 85.2066C34.3323 85.2076 34.2928 85.1967 34.2388 85.1581L34.2378 85.1542L34.3974 85.0339C34.1866 84.4482 33.5159 84.2327 33.1633 84.1935C33.133 84.1372 33.0885 84.0848 33.0253 84.0497L32.8018 83.9279L32.6961 84.1584L32.6452 84.2751L31.3598 84.107L32.3674 84.8559L32.1913 85.3881C32.1135 85.5335 32.265 85.6175 32.265 85.6175L32.6287 85.7477L32.915 85.5434C32.9263 85.5403 32.9366 85.5407 32.9472 85.5388C32.9451 85.5914 32.9763 85.7873 32.9773 85.8442L32.3958 85.8826L31.9036 86.3678C31.6643 86.6677 31.7213 87.0435 31.8991 87.2634L32.0014 87.388L32.1469 87.5635L32.3268 87.4244C32.3294 87.4227 32.332 87.4209 32.3334 87.4186C32.3233 87.6724 32.4124 87.8874 32.5823 87.9992L32.7473 88.1224L32.9671 88.2871L33.0949 88.0445C33.1337 87.977 33.2533 87.7377 33.2619 87.5577L33.2667 87.4206L33.1527 87.3471L33.1339 87.3338L33.1885 87.1435L33.9548 87.1209L34.1267 87.1147L34.1746 86.9487L34.201 86.8578C34.2052 86.8394 34.2072 86.8358 34.2404 86.8269C34.266 86.82 34.2923 86.8161 34.3213 86.8144C34.6068 86.793 34.8647 86.7516 35.0873 86.6919C35.3032 86.6341 35.4296 86.5909 35.5702 86.4982C35.5702 86.4982 36.076 86.8364 36.0938 86.85L36.0542 87.6488L36.0558 87.6964C35.6166 87.8528 35.4244 88.0105 35.2314 88.3471C34.7452 88.0669 34.4627 88.0998 33.4315 88.3761C32.1975 88.7067 31.1663 88.203 30.8549 87.0408L30.0935 84.1993L37.6051 82.1865L38.3684 85.0276C38.622 85.9704 38.2479 86.7751 37.4389 87.2217ZM36.5868 77.5453C36.554 77.8809 36.5469 78.2371 36.6349 78.5657L37.2041 80.6859C36.7438 80.7296 36.5638 80.2663 36.5563 80.2459L36.5217 80.151L36.4247 80.1678C36.2286 80.2009 36.0797 80.153 35.9447 80.0769C35.6705 79.9176 35.5751 79.5654 35.5753 79.5622C35.5774 79.5811 35.4311 79.9746 35.8005 80.2625C35.9559 80.3843 36.1467 80.4332 36.3716 80.4128C36.4928 80.6641 36.7888 80.985 37.2664 80.9183L37.5446 81.9566L36.2452 82.3048C35.5559 82.1302 35.6514 81.4715 35.6571 81.4435L35.6782 81.3173L35.5518 81.3042C34.8383 81.2361 34.8418 80.5368 34.8438 80.5066L34.8448 80.4042L34.7455 80.386C34.1426 80.28 34.0351 79.587 34.0344 79.5576C33.9055 79.736 33.9194 80.0264 34.105 80.2646C34.0623 80.3516 34.003 80.4593 33.938 80.5768C33.345 80.5836 33.1904 80.0747 33.184 80.0509L33.1618 79.9721L33.0813 79.963C32.8427 79.9402 32.6616 79.859 32.545 79.7156C32.4145 79.5577 32.3932 79.3613 32.3918 79.2646C32.459 79.2619 32.5253 79.2555 32.5871 79.2439C32.6514 79.2338 32.7168 79.2204 32.7813 79.2032L32.785 79.2021L32.7898 79.2009C32.8542 79.1836 32.9166 79.1628 32.9773 79.1394C33.3138 79.0125 33.661 78.7592 33.9567 78.249L36.5866 77.5444L36.5868 77.5453ZM33.9878 75.9445L34.5815 76.1071L34.5891 76.105L34.738 76.1458C34.47 76.3044 34.2874 76.5095 34.1531 76.7507C34.148 76.7582 34.1435 76.7676 34.1385 76.776C34.1082 76.8332 34.0788 76.8942 34.0526 76.9553C34.0476 76.9669 34.0428 76.9794 34.0371 76.9921C34.0111 77.0542 33.9883 77.1165 33.967 77.1814C33.9639 77.1925 33.9598 77.2038 33.9555 77.2141C33.93 77.2893 33.9077 77.3688 33.8858 77.4502C33.69 78.1817 33.208 78.7162 32.6893 78.8562C32.171 78.994 31.4863 78.7721 30.951 78.2366C30.8929 78.1786 30.8353 78.1227 30.7753 78.0693C30.7634 78.0592 30.7525 78.0489 30.7422 78.0404C30.6922 77.9977 30.6424 77.9558 30.5924 77.9172C30.5794 77.9064 30.568 77.8982 30.5555 77.8893C30.5027 77.8513 30.449 77.8137 30.3962 77.7798C30.386 77.7754 30.378 77.7684 30.3674 77.7631C30.1296 77.6216 29.8701 77.5359 29.5579 77.5338L29.6684 77.4235L29.6741 77.422L30.107 76.9843L30.5531 76.5392L32.1689 76.9332L32.171 76.9296L32.1755 76.9314L33.378 75.7823L33.9878 75.9445ZM33.1214 75.4916L32.1578 76.3879L31.5121 73.9778L32.8964 73.0494L33.1214 75.4916ZM31.3189 73.7458L29.4705 73.5294C29.522 73.1532 30.1002 72.6899 30.9731 72.455C31.8474 72.2217 32.5798 72.3339 32.8116 72.6342L31.3189 73.7458Z" fill="black"/>
<path d="M54.7063 78.2846L53.6843 74.4703L55.9085 73.8743L55.5366 72.4863L49.4687 74.1122L49.8406 75.5002L52.0648 74.9042L53.0868 78.7186L54.7063 78.2846ZM58.5615 74.9206L57.7503 71.8932L56.1848 72.3126L57.5787 77.5149L58.9607 77.1446L60.8488 73.394L61.6599 76.4214L63.2255 76.0019L61.8316 70.7996L60.4495 71.1699L58.5615 74.9206ZM67.9741 72.6562L68.4925 74.5906L70.0582 74.1711L68.6642 68.9688L67.0985 69.3883L67.608 71.29L65.0923 71.9641L64.5828 70.0624L63.0172 70.4819L64.4112 75.6842L65.9767 75.2647L65.4584 73.3303L67.9741 72.6562ZM74.4179 73.0029C74.7741 72.9075 75.0892 72.7879 75.3682 72.6194C76.1169 72.1729 76.4667 71.3645 76.2237 70.4574C75.9923 69.594 75.3782 69.1143 74.5817 69.0348C74.2002 68.9965 73.7877 69.0953 73.3988 69.1995L71.79 69.6306L71.4151 68.2317L69.8499 68.6511L71.2438 73.8534L74.4179 73.0029ZM73.4567 70.496C73.6729 70.4381 73.8779 70.3831 74.079 70.3995C74.3617 70.4175 74.5715 70.5955 74.6418 70.8578C74.715 71.1311 74.6253 71.4011 74.406 71.577C74.2538 71.6998 74.0811 71.7461 73.811 71.8184L72.4723 72.1771L72.118 70.8547L73.4567 70.496ZM79.019 69.6616L81.4142 71.1282L83.4977 70.57L80.1698 68.5566L82.0068 65.3936L80.0418 65.9202L78.6764 68.3828L78.2448 68.4985L77.7206 66.5421L76.1554 66.9615L77.5493 72.1638L79.1146 71.7444L78.5875 69.7772L79.019 69.6616ZM85.287 64.3625C83.1816 64.9266 82.2408 66.4672 82.6566 68.0191C83.0725 69.5711 84.6575 70.435 86.7629 69.8708C88.8581 69.3094 89.7993 67.7687 89.3834 66.2167C88.9676 64.6647 87.3821 63.8011 85.287 64.3625ZM86.4232 68.603C85.3761 68.8836 84.5374 68.4289 84.309 67.5764C84.0806 66.724 84.5825 65.9217 85.6296 65.6412C86.6664 65.3634 87.5135 65.8041 87.7418 66.6565C87.9703 67.5091 87.46 68.3252 86.4232 68.603ZM93.8184 61.9125L92.2526 62.332L92.3932 62.8566C90.4399 63.4268 89.4882 64.5838 89.8865 66.0702C90.2847 67.5566 91.6699 68.0171 93.6466 67.5344L93.7872 68.059L95.3529 67.6394L95.2123 67.1148C97.1759 66.5418 98.1452 65.4504 97.7469 63.964C97.3486 62.4776 95.9459 61.9515 93.9589 62.437L93.8184 61.9125ZM93.3479 66.4196C92.2563 66.6652 91.6612 66.3444 91.4737 65.6449C91.2863 64.9454 91.6267 64.3154 92.6949 63.9824L93.3479 66.4196ZM94.2606 63.5628C95.3629 63.3143 95.9615 63.6927 96.1489 64.3922C96.3363 65.0917 95.9925 65.6641 94.9136 66L94.2606 63.5628ZM102.179 59.6722L100.613 60.0917L100.754 60.6163C98.8008 61.1865 97.85 62.3433 98.2482 63.8297C98.6465 65.316 100.031 65.7769 102.007 65.2941L102.148 65.8187L103.714 65.3992L103.573 64.8745C105.538 64.3013 106.506 63.21 106.108 61.7236C105.71 60.2372 104.308 59.711 102.32 60.1968L102.179 59.6722ZM101.709 64.1793C100.618 64.4248 100.022 64.104 99.835 63.4045C99.6476 62.705 99.988 62.075 101.056 61.7421L101.709 64.1793ZM102.621 61.3225C103.724 61.074 104.323 61.4523 104.51 62.1518C104.698 62.8513 104.353 63.4238 103.274 63.7598L102.621 61.3225Z" fill="black"/>
</g>
</g>
<defs>
<clipPath id="clip0_153_2872">
<rect width="108.258" height="22.2627" fill="white" transform="translate(143.013 39.5666) rotate(-15)"/>
</clipPath>
<clipPath id="clip1_153_2872">
<rect x="31.6484" y="106.635" width="141.546" height="37.5658" rx="4" transform="rotate(-15 31.6484 106.635)" fill="white"/>
</clipPath>
<clipPath id="clip2_153_2872">
<rect y="70.3171" width="121" height="37" rx="4" transform="rotate(-15 0 70.3171)" fill="white"/>
</clipPath>
<clipPath id="clip3_153_2872">
<rect width="88.4864" height="23.5455" fill="white" transform="translate(17.4443 72.6076) rotate(-15)"/>
</clipPath>
</defs>
</svg>
