<svg width="154" height="114" viewBox="0 0 154 114" fill="none" xmlns="http://www.w3.org/2000/svg">
<g clip-path="url(#clip0_37_4794)">
<path d="M120.527 0.906823L116.539 2.83705C107.599 7.1887 101.257 8.19882 96.1957 8.49543C91.136 8.78781 87.3154 7.95354 82.7219 9.24018C77.8232 10.6156 70.1718 13.9488 63.9493 22.8677C58.5972 21.9757 54.2412 22.4216 50.4189 23.7418C46.6422 25.0459 43.4261 26.9606 39.6215 28.9246C39.5868 28.9499 39.5954 29.0268 39.5692 29.0555C34.1166 31.8556 29.002 35.1727 21.6824 35.0823L18.617 35.0833L0.595819 80.2354L81.2324 112.419C85.9553 114.015 90.4381 112.097 93.6478 109.719C96.8516 107.344 99.2927 104.361 100.958 101.773C105.216 95.1849 115.989 75.6266 115.989 75.6266L116.281 75.2877L116.439 74.8905C117.444 71.9804 117.236 69.086 116.665 66.2525L127.061 54.0278L139.132 45.6796L142.459 43.486L140.68 39.8714L122.514 4.7613L120.527 0.906823ZM116.156 12.6318L130.586 40.5888L121.347 46.8441L120.793 47.0884L120.395 47.6935L112.031 57.5164C110.359 55.8939 108.53 54.4929 106.212 53.6657L105.946 53.5594L79.1937 43.0338L74.9637 41.3456L68.4294 57.7173C65.9992 62.0861 62.7242 62.8459 59.0272 62.8447C57.7994 62.8493 57.761 62.5646 56.7554 62.3934L66.5543 37.8422C72.1116 21.9034 79.4945 19.624 85.1903 18.0328C86.7652 17.5887 90.7238 17.9295 96.7086 17.5802C101.713 17.2802 108.366 15.8214 116.154 12.636L116.156 12.6318ZM59.3641 32.0582C58.9644 33.0105 58.3943 33.5666 58.0437 34.5924L44.5535 68.392L48.7835 70.0803C48.7835 70.0803 53.3299 71.8361 58.9608 71.8451C64.5874 71.8525 72.2588 69.6734 76.4678 62.1501L80.0512 53.172L102.84 62.1156L102.971 62.168C104.868 62.8075 106.435 64.172 107.329 65.9626C108.223 67.7532 108.37 69.8241 107.739 71.7219C107.696 71.7827 106.875 73.2725 106.686 73.5987L89.3686 66.6868L85.9961 75.1367L102.256 81.6265C100.504 84.7135 99.2762 86.5988 97.5597 89.548L82.6235 83.5866L79.251 92.0366L92.8674 97.4712C91.5517 99.3157 89.9675 100.953 88.1673 102.33C86.2621 103.749 84.9847 104.062 84.0762 103.758L12.4284 75.1621L25.0232 43.6059C33.3302 42.7092 39.68 39.1847 43.6959 37.1336C47.8606 35.0048 50.8114 33.3124 53.3895 32.4311C55.0741 31.8594 57.2856 32.0318 59.3641 32.0582Z" fill="#484C51"/>
</g>
<defs>
<clipPath id="clip0_37_4794">
<rect width="154" height="114" fill="white"/>
</clipPath>
</defs>
</svg>
