<svg width="115" height="23" viewBox="0 0 115 23" fill="none" xmlns="http://www.w3.org/2000/svg">
<path fill-rule="evenodd" clip-rule="evenodd" d="M46.4439 14.1367C45.9063 14.1867 45.4414 13.9828 45.0494 13.5251C44.8471 13.2753 44.6887 12.9874 44.5744 12.6615C44.2683 13.0751 43.9432 13.4456 43.5993 13.7729C43.0968 14.251 42.5891 14.5184 42.0762 14.5751C41.6826 14.6186 41.3043 14.5277 40.9413 14.3022C40.589 14.0635 40.3036 13.7208 40.0851 13.2741C39.5757 14.3445 38.8499 14.9319 37.9076 15.036C37.1681 15.1178 36.548 14.9147 36.0474 14.4268C35.8658 14.2498 35.7108 14.0477 35.5824 13.8203C35.3093 14.1672 35.0176 14.4788 34.7075 14.7551C34.1777 15.2362 33.538 15.526 32.7884 15.6245C32.1816 15.7043 31.7009 15.5919 31.3462 15.2875C30.99 14.9713 30.7681 14.48 30.6805 13.8137C30.6368 13.4806 30.6419 12.8747 30.6959 11.9962C30.7521 11.2263 30.7614 10.6986 30.7239 10.4131C30.6989 10.2227 30.6209 10.1361 30.49 10.1533C30.3354 10.1736 30.1418 10.4048 29.9094 10.8469C29.6755 11.277 29.4587 11.838 29.2592 12.5299C29.0596 13.2218 28.9183 13.9424 28.8352 14.6916C28.7793 15.2799 28.6747 15.6809 28.5212 15.8947C28.3797 16.107 28.1185 16.2381 27.7378 16.2882C27.3452 16.3397 27.0235 16.1944 26.7728 15.8522C26.5324 15.4964 26.377 15.0509 26.3067 14.5155C26.2473 14.0634 26.2208 13.4012 26.2272 12.5289C26.2223 11.755 26.2043 11.249 26.173 11.011C26.148 10.8207 26.07 10.7341 25.9392 10.7513C25.7607 10.7747 25.5628 11.0186 25.3454 11.4829C25.128 11.9472 24.9323 12.5296 24.758 13.2303C24.5957 13.9294 24.4795 14.6103 24.4092 15.2731C24.3518 15.8495 24.2472 16.2506 24.0953 16.4763C23.9537 16.6886 23.6985 16.8189 23.3297 16.8674C22.8776 16.9268 22.5251 16.731 22.2722 16.2801C22.1558 16.0617 22.0515 15.7739 21.9593 15.4169C21.6471 15.8611 21.3067 16.2542 20.9382 16.5962C20.4182 17.088 19.7845 17.3907 19.0371 17.5044C18.4677 17.591 18.0131 17.4356 17.6735 17.0382C17.3457 16.6389 17.1214 16.0419 17.0005 15.247C16.9215 16.0844 16.7138 16.7532 16.3772 17.2535C16.0387 17.742 15.6382 18.0214 15.1755 18.0918C14.6417 18.173 14.1657 17.9965 13.7477 17.5624C13.3397 17.1147 13.0798 16.523 12.9679 15.7875C12.8326 14.8977 12.7683 14.0761 12.7751 13.3225C12.7801 12.557 12.8558 11.7383 13.0024 10.8664C13.0669 10.4924 13.1942 10.2121 13.3843 10.0254C13.5743 9.83869 13.9007 9.71015 14.3634 9.63978C14.6244 9.60008 14.8087 9.61454 14.9162 9.68315C15.0356 9.74995 15.1079 9.8664 15.1332 10.0325C15.1476 10.1274 15.1311 10.4576 15.0836 11.0232C15.0317 11.4802 14.9973 11.8921 14.9802 12.2588C14.9324 13.5406 14.9401 14.3891 15.0032 14.8043C15.0411 15.0534 15.0979 15.2269 15.1734 15.3246C15.2472 15.4105 15.3493 15.4435 15.4798 15.4237C15.6578 15.3966 15.8502 15.1853 16.057 14.7897C16.2758 14.3923 16.4784 13.8092 16.6649 13.0404C16.8633 12.2698 17.0245 11.3349 17.1487 10.2357C17.1895 9.8654 17.293 9.58868 17.4594 9.40558C17.6376 9.22068 17.9225 9.09846 18.314 9.03891C18.5868 8.99741 18.7821 9.00413 18.8997 9.05907C19.0155 9.10215 19.0869 9.21267 19.1139 9.39062C19.1591 9.68721 19.1344 10.5224 19.0399 11.8962C18.9387 13.4653 18.9151 14.4278 18.9692 14.7837C19.0035 15.0091 19.078 15.1798 19.1928 15.2959C19.3058 15.4001 19.4393 15.4405 19.5936 15.417C19.8308 15.3809 20.088 15.1962 20.365 14.8627C20.6521 14.5156 21.0188 13.9743 21.4653 13.2388C21.5084 13.1698 21.5556 13.1116 21.6069 13.0643C21.5226 11.858 21.5821 10.6819 21.7854 9.53607C21.8472 9.17697 21.9869 8.90445 22.2045 8.71851C22.4325 8.51911 22.7666 8.39049 23.2068 8.33265C23.4447 8.30138 23.6152 8.30924 23.7182 8.35622C23.8212 8.4032 23.8836 8.50998 23.9055 8.67655C23.9305 8.86691 23.8976 9.30695 23.8067 9.99668C23.7502 10.4882 23.7098 10.9171 23.6853 11.2835C23.6592 11.6379 23.6568 12.08 23.678 12.6097C23.8773 11.6395 24.1548 10.8042 24.5106 10.1039C24.8783 9.402 25.2739 8.8659 25.6972 8.49559C26.1309 8.11182 26.556 7.89257 26.9724 7.83786C27.3888 7.78314 27.6928 7.84002 27.8844 8.0085C28.0879 8.17541 28.2154 8.45518 28.267 8.84781C28.317 9.22853 28.2947 9.93345 28.1999 10.9626C28.161 11.4034 28.1378 11.7332 28.1303 11.9521C28.5329 10.4105 29.0533 9.25888 29.6915 8.49724C30.3297 7.73561 30.9641 7.31336 31.5947 7.2305C32.368 7.12889 32.8055 7.46476 32.9071 8.23811C32.9681 8.70212 32.9474 9.55811 32.8451 10.8061C32.7551 11.8709 32.732 12.5698 32.7757 12.903C32.8383 13.3789 33.0421 13.5942 33.3871 13.5488C33.625 13.5176 33.8859 13.3381 34.1696 13.0103C34.4228 12.7165 34.738 12.28 35.1152 11.7007C35.1184 10.9883 35.2518 10.2928 35.5152 9.61413C35.8616 8.70657 36.3702 7.95613 37.041 7.3628C37.7225 6.75624 38.4747 6.40745 39.2977 6.31645C39.5601 6.28744 39.739 6.32199 39.8344 6.4201C39.9403 6.50497 40.0376 6.67531 40.1263 6.93111C40.3715 6.85571 40.6312 6.80284 40.9056 6.77251C41.49 6.70788 41.8053 6.8843 41.8515 7.30176C41.8792 7.55223 41.8557 8.15849 41.7809 9.12053C41.6583 10.5225 41.6266 11.4919 41.686 12.0286C41.7057 12.2075 41.7633 12.346 41.8587 12.4441C41.966 12.5409 42.0912 12.5814 42.2343 12.5656C42.4609 12.5405 42.7194 12.3671 43.0098 12.0452C43.2989 11.7114 43.6815 11.1862 44.1576 10.4695C44.201 10.4058 44.2478 10.352 44.2978 10.3081C44.2931 9.93565 44.3023 9.57821 44.3253 9.23572C44.3749 8.47186 44.4982 7.65897 44.6953 6.79703C44.7814 6.42747 44.9248 6.15503 45.1255 5.97971C45.3261 5.8044 45.6594 5.69508 46.1254 5.65178C46.3883 5.62735 46.5714 5.65251 46.6748 5.72727C46.7901 5.80092 46.8555 5.92138 46.8711 6.08866C46.8799 6.18425 46.8442 6.51296 46.7638 7.07481C46.6854 7.52801 46.6271 7.93717 46.5887 8.30228C46.4663 9.57909 46.4245 10.4266 46.4634 10.8448C46.4867 11.0957 46.5333 11.2722 46.603 11.3741C46.6716 11.4642 46.7716 11.5031 46.9031 11.4909C47.0823 11.4742 47.2867 11.2744 47.5163 10.8916C47.7578 10.5076 47.994 9.93726 48.225 9.18064C48.4679 8.42291 48.6833 7.49901 48.8713 6.40894C48.9336 6.0416 49.0531 5.77139 49.2298 5.59829C49.4185 5.42408 49.71 5.31866 50.1043 5.28201C50.3791 5.25647 50.5736 5.27455 50.6878 5.33625C50.8009 5.386 50.8658 5.50049 50.8824 5.67972C50.9102 5.97843 50.8369 6.81078 50.6625 8.17677C50.4701 9.73728 50.3906 10.6968 50.4239 11.0552C50.445 11.2822 50.5094 11.457 50.6172 11.5796C50.7239 11.6902 50.8549 11.7383 51.0103 11.7238C51.2492 11.7016 51.5167 11.5321 51.8127 11.2154C52.1195 10.8856 52.5171 10.3666 53.0057 9.65831C53.0182 9.6407 53.0309 9.62387 53.0438 9.60781C53.0261 8.35847 53.159 7.15083 53.4424 5.98486C53.5266 5.63034 53.6831 5.36713 53.912 5.19522C54.152 5.01053 54.4935 4.90314 54.9365 4.87305C55.1759 4.85679 55.3456 4.87533 55.4454 4.92869C55.5453 4.98205 55.6009 5.09253 55.6123 5.26014C55.6253 5.4517 55.5648 5.88881 55.4307 6.57146C55.3435 7.05849 55.2762 7.48403 55.2288 7.84808C55.1805 8.20016 55.1503 8.64122 55.1382 9.17126C55.3981 8.21546 55.7275 7.39925 56.1266 6.72265C56.5376 6.04524 56.966 5.53504 57.4118 5.19204C57.8687 4.83626 58.3067 4.64413 58.7258 4.61567C59.1448 4.58721 59.4446 4.66306 59.6252 4.84324C59.8178 5.0226 59.9276 5.30982 59.9544 5.70491C59.9804 6.08803 59.9138 6.79016 59.7547 7.81129C59.6882 8.2488 59.6443 8.57653 59.623 8.79447C60.1216 7.28121 60.7133 6.16454 61.3981 5.44448C62.0828 4.72442 62.7425 4.34284 63.377 4.29974C64.1552 4.24688 64.5708 4.60956 64.6236 5.38776C64.6553 5.85469 64.581 6.70769 64.4005 7.94677C64.2438 9.00382 64.1768 9.69996 64.1996 10.0352C64.2321 10.5141 64.422 10.7417 64.7692 10.7182C65.0086 10.7019 65.2802 10.5391 65.584 10.2298C65.8282 9.98002 66.1299 9.61778 66.4891 9.14312C66.4775 9.02882 66.4693 8.91182 66.4646 8.79211C66.4318 7.96476 66.5753 7.19048 66.8951 6.46927C67.2143 5.73607 67.6714 5.14753 68.2663 4.70365C68.8732 4.2593 69.5663 4.0217 70.3457 3.99085C71.0412 3.96332 71.607 4.15109 72.0433 4.55414C72.4791 4.94521 72.711 5.49447 72.7391 6.20192C72.7718 7.02927 72.5003 7.75458 71.9245 8.37784C71.3602 8.98863 70.3775 9.4959 68.9764 9.89963C69.298 10.4393 69.8784 10.6926 70.7178 10.6594C71.2573 10.638 71.8615 10.4279 72.5303 10.0292C73.2105 9.61794 73.7904 9.0966 74.2698 8.46514C74.407 8.29158 74.5656 8.20124 74.7454 8.19412C74.9013 8.18795 75.024 8.25515 75.1137 8.39571C75.2153 8.5358 75.2711 8.73175 75.2811 8.98355C75.3 9.46317 75.2008 9.83939 74.9835 10.1122C74.5612 10.6693 73.9514 11.1919 73.154 11.6798C72.3687 12.1672 71.5144 12.4292 70.5911 12.4658C69.3321 12.5156 68.3413 12.2126 67.6188 11.5566C67.4188 11.375 67.2446 11.173 67.0963 10.9506C66.7571 11.3523 66.3954 11.7037 66.0113 12.0049C65.4523 12.4519 64.7956 12.7009 64.0414 12.7522C63.4308 12.7936 62.958 12.6513 62.6232 12.3253C62.2875 11.9872 62.0969 11.483 62.0513 10.8126C62.0286 10.4773 62.0717 9.87301 62.1808 8.99961C62.2852 8.23478 62.3276 7.70869 62.3081 7.42135C62.2951 7.2298 62.2228 7.13849 62.0911 7.14743C61.9354 7.15801 61.7278 7.37658 61.4681 7.80316C61.2076 8.21777 60.956 8.76407 60.7134 9.44207C60.4708 10.1201 60.2845 10.8303 60.1545 11.5728C60.0618 12.1565 59.9322 12.5502 59.7656 12.7539C59.611 12.9569 59.3422 13.0713 58.9591 13.0974C58.564 13.1242 58.2521 12.959 58.0233 12.6016C57.8057 12.2315 57.6787 11.7771 57.6421 11.2383C57.6112 10.7834 57.6263 10.1208 57.6875 9.25069C57.7312 8.47795 57.7449 7.97185 57.7287 7.73241C57.7157 7.54085 57.6433 7.44954 57.5116 7.45848C57.332 7.47068 57.1192 7.70164 56.8731 8.15135C56.627 8.60106 56.395 9.17009 56.1772 9.85843C55.9713 10.546 55.8125 11.2183 55.7008 11.8754C55.6073 12.447 55.4777 12.8407 55.3119 13.0564C55.1573 13.2594 54.8944 13.3734 54.5233 13.3987C54.0683 13.4296 53.7288 13.2121 53.5047 12.7462C53.414 12.5465 53.3361 12.2931 53.2711 11.9861C52.9624 12.3599 52.6334 12.691 52.2839 12.9794C51.7362 13.44 51.0859 13.7053 50.3332 13.7753C49.7597 13.8286 49.3149 13.6469 48.999 13.2304C48.6951 12.8127 48.5059 12.2036 48.4315 11.4031C48.3039 12.2344 48.0575 12.8901 47.6923 13.3699C47.3261 13.8378 46.9099 14.0934 46.4439 14.1367ZM47.4852 4.3323C46.9355 4.38337 46.4411 4.31484 46.0018 4.12668C45.5625 3.93852 45.2121 3.66979 44.9507 3.32048C44.6892 2.97118 44.5391 2.58742 44.5002 2.16922C44.4724 1.87051 44.5458 1.62266 44.7203 1.42566C44.8938 1.21672 45.1298 1.09837 45.4285 1.07061C45.7392 1.04174 45.9729 1.09233 46.1296 1.22239C46.2863 1.35245 46.4226 1.58684 46.5384 1.92558C46.7045 2.41631 47.0564 2.63669 47.5941 2.58673C48.1557 2.53454 48.6252 2.33423 49.0026 1.98582C49.3788 1.62545 49.6355 1.20992 49.7725 0.739223C49.8459 0.49137 49.9379 0.314097 50.0485 0.207405C50.158 0.0887643 50.3083 0.0205606 50.4995 0.00279409C50.6787 -0.013862 50.8347 0.0439493 50.9675 0.176228C51.1112 0.295447 51.1924 0.456618 51.2113 0.659743L51.1955 0.878147C51.1215 1.37914 50.9449 1.87762 50.6656 2.3736C50.3863 2.86957 49.9808 3.30496 49.4492 3.67975C48.9165 4.04261 48.2618 4.26012 47.4852 4.3323ZM10.4053 5.03385C10.3024 4.04057 9.83143 3.61827 8.99251 3.76696C8.21266 3.90517 7.87629 4.48274 7.9834 5.49965C8.14645 6.96975 8.12344 8.28393 7.91437 9.44219C7.7171 10.5984 7.34589 11.5294 6.80073 12.2354C6.26529 12.9275 5.59582 13.3447 4.79235 13.4871C4.26063 13.5813 3.831 13.5295 3.50344 13.3316C3.17379 13.122 2.96708 12.7808 2.88331 12.3082C2.84352 12.0837 2.8249 11.8067 2.82743 11.4772C2.82788 11.1358 2.83909 10.7865 2.86107 10.4292C2.89321 9.71666 2.90352 9.0872 2.892 8.54083C2.89019 7.98055 2.83694 7.40501 2.73223 6.81422C2.70291 6.6488 2.64712 6.40276 2.56485 6.0761C2.35993 5.33245 1.89709 5.0245 1.17632 5.15224C0.739131 5.22972 0.42018 5.38984 0.219463 5.6326C0.0187465 5.87535 -0.0442915 6.17292 0.0303489 6.5253C0.167814 7.23215 0.249639 7.90013 0.275824 8.52921C0.313825 9.1562 0.321988 9.8555 0.300314 10.6271C0.284769 11.227 0.277822 11.7036 0.279473 12.0567C0.290846 12.3959 0.326897 12.7369 0.387628 13.0795C0.58029 14.1666 1.048 14.949 1.79077 15.4267C2.54535 15.9023 3.52525 16.0333 4.73046 15.8197C5.723 15.6438 6.53567 15.2438 7.16848 14.6198C7.7992 13.984 8.2716 13.1081 8.58567 11.9922C8.62502 12.558 8.63991 13.4328 8.63036 14.6166C8.61856 15.5815 8.62052 16.3489 8.63623 16.919C8.64985 17.4771 8.69541 17.9748 8.77289 18.412C8.89435 19.0973 9.30956 19.3772 10.0185 19.2515C10.4793 19.1698 10.7993 19.0156 10.9785 18.7889C11.1556 18.5503 11.2203 18.2281 11.1728 17.8222C11.0399 16.7976 10.8901 14.405 10.7233 10.6445C10.6066 7.92306 10.5006 6.05286 10.4053 5.03385ZM39.0519 12.6096C38.8476 12.9461 38.6143 13.1288 38.3519 13.1578C38.0895 13.1869 37.8709 13.1205 37.696 12.9587C37.5331 12.7956 37.4312 12.5292 37.3903 12.1595C37.3165 11.4915 37.3718 10.8455 37.5563 10.2215C37.7409 9.59743 38.0221 9.08341 38.4 8.67943C38.7885 8.26221 39.2325 8.01993 39.7322 7.95262L39.4342 11.3177C39.3836 11.8425 39.2561 12.2731 39.0519 12.6096ZM70.1097 5.76557C69.6661 5.78313 69.2986 6.05588 69.0072 6.58382C68.7279 7.11128 68.6027 7.74072 68.6316 8.47215L68.6331 8.50812C69.3339 8.31225 69.8814 8.03838 70.2758 7.6865C70.6702 7.33463 70.8587 6.93687 70.8411 6.49321C70.8321 6.26539 70.759 6.08814 70.6219 5.96147C70.4963 5.82233 70.3256 5.75703 70.1097 5.76557ZM100.354 10.7849C96.2443 8.57201 91.2728 7.65937 84.7753 7.88664C84.3345 7.90205 83.9648 7.5566 83.9494 7.11504C83.934 6.67348 84.2788 6.30303 84.7195 6.28761C91.3894 6.05432 96.6693 6.98444 101.11 9.37552C105.095 11.5214 108.335 14.8071 111.29 19.3362L112.569 14.1762C112.675 13.7474 113.108 13.4861 113.536 13.5925C113.964 13.699 114.225 14.133 114.118 14.5618L112.386 21.5495C112.28 21.9783 111.847 22.2396 111.419 22.1332L104.444 20.3979C104.016 20.2914 103.756 19.8575 103.862 19.4287C103.968 18.9999 104.401 18.7386 104.829 18.8451L109.881 20.1019C107.047 15.7844 104.008 12.7526 100.354 10.7849Z" fill="#484C51"/>
</svg>
