<svg width="264" height="24" viewBox="0 0 264 24" fill="none" xmlns="http://www.w3.org/2000/svg">
<path d="M20.616 5.04C18.104 4.96 15.664 4.912 13.296 4.896V17.424H7.296V4.896C4.912 4.912 2.48 4.96 0 5.04V0H20.616V5.04Z" fill="#F8FAFC"/>
<path d="M30.2749 17.664C27.5389 17.664 25.5229 17.04 24.2269 15.792C22.9469 14.528 22.3069 12.872 22.3069 10.824C22.3069 8.824 22.9469 7.2 24.2269 5.952C25.5229 4.704 27.5389 4.08 30.2749 4.08C32.1149 4.08 33.6509 4.384 34.8829 4.992C36.1309 5.584 37.0509 6.392 37.6429 7.416C38.2349 8.424 38.5309 9.56 38.5309 10.824C38.5309 12.888 37.8429 14.544 36.4669 15.792C35.1069 17.04 33.0429 17.664 30.2749 17.664ZM30.3709 13.584C31.4109 13.584 32.1869 13.336 32.6989 12.84C33.2109 12.344 33.4669 11.68 33.4669 10.848C33.4669 10.064 33.2109 9.424 32.6989 8.928C32.1869 8.416 31.4109 8.16 30.3709 8.16C29.3309 8.16 28.5709 8.408 28.0909 8.904C27.6109 9.4 27.3709 10.048 27.3709 10.848C27.3709 11.68 27.6109 12.344 28.0909 12.84C28.5709 13.336 29.3309 13.584 30.3709 13.584Z" fill="#F8FAFC"/>
<path d="M40.2188 4.344H55.7228V17.544H50.4668V8.856H45.4748V17.544H40.2188V4.344Z" fill="#F8FAFC"/>
<path d="M68.2168 10.92C70.9528 10.92 72.3208 11.792 72.3208 13.536C72.3208 14.784 71.8408 15.744 70.8808 16.416C69.9368 17.088 68.2248 17.424 65.7448 17.424H57.6328C57.7128 15.6 57.7528 13.416 57.7528 10.872C57.7528 8.328 57.7128 6.144 57.6328 4.32H62.6008V4.344H65.7208C67.2248 4.344 68.4008 4.472 69.2488 4.728C70.1128 4.968 70.7208 5.32 71.0728 5.784C71.4248 6.248 71.6008 6.84 71.6008 7.56C71.6008 9.176 70.4728 10.296 68.2168 10.92ZM62.6008 7.632V9.312H64.4248C65.1608 9.312 65.6808 9.248 65.9848 9.12C66.2888 8.976 66.4408 8.728 66.4408 8.376C66.4408 8.104 66.2808 7.912 65.9608 7.8C65.6568 7.688 65.1448 7.632 64.4248 7.632H62.6008ZM64.4248 14.112C65.3368 14.112 65.9608 14.048 66.2968 13.92C66.6328 13.776 66.8008 13.528 66.8008 13.176C66.8008 12.872 66.6248 12.648 66.2728 12.504C65.9208 12.36 65.3048 12.288 64.4248 12.288H62.6008V14.112H64.4248Z" fill="#F8FAFC"/>
<path d="M89.0162 4.32C88.9362 6.64 88.8962 8.736 88.8962 10.608C88.8962 12.448 88.9362 14.544 89.0162 16.896H84.0962L84.3602 8.592L80.6882 16.896H73.9922C74.0882 14.784 74.1362 12.688 74.1362 10.608C74.1362 8.496 74.0882 6.4 73.9922 4.32H78.7202L78.4802 12.84L82.1522 4.32H89.0162Z" fill="#F8FAFC"/>
<path d="M101.474 10.704C101.633 10.688 101.857 10.68 102.146 10.68C103.217 10.68 104.002 10.928 104.498 11.424C105.01 11.92 105.266 12.504 105.266 13.176C105.266 14.6 104.618 15.704 103.322 16.488C102.026 17.272 100.361 17.664 98.3295 17.664C96.5535 17.664 94.9855 17.36 93.6255 16.752C92.2815 16.144 91.3055 15.12 90.6975 13.68L91.7295 13.416C93.2175 13.048 94.3215 12.696 95.0415 12.36C95.2975 12.856 95.6575 13.24 96.1215 13.512C96.5855 13.768 97.2015 13.896 97.9695 13.896C98.8335 13.896 99.4895 13.816 99.9375 13.656C100.401 13.496 100.633 13.232 100.633 12.864C100.633 12.576 100.378 12.376 99.8655 12.264C99.3535 12.152 98.6175 12.096 97.6575 12.096H96.2895V8.928H97.1055C97.9855 8.928 98.6895 8.888 99.2175 8.808C99.7455 8.728 100.009 8.552 100.009 8.28C100.009 8.008 99.8575 7.792 99.5535 7.632C99.2495 7.472 98.8415 7.392 98.3295 7.392C97.4975 7.392 96.8415 7.544 96.3615 7.848C95.8975 8.152 95.4575 8.648 95.0415 9.336C93.7775 8.808 92.3935 8.432 90.8895 8.208C92.1215 5.472 94.6815 4.104 98.5695 4.104C99.7055 4.104 100.745 4.272 101.689 4.608C102.633 4.928 103.378 5.376 103.922 5.952C104.465 6.512 104.738 7.144 104.738 7.848C104.738 9.384 103.65 10.336 101.474 10.704Z" fill="#F8FAFC"/>
<path d="M114.673 17.664C111.937 17.664 109.921 17.04 108.625 15.792C107.345 14.528 106.705 12.872 106.705 10.824C106.705 8.824 107.345 7.2 108.625 5.952C109.921 4.704 111.937 4.08 114.673 4.08C116.513 4.08 118.049 4.384 119.281 4.992C120.529 5.584 121.449 6.392 122.041 7.416C122.633 8.424 122.929 9.56 122.929 10.824C122.929 12.888 122.241 14.544 120.865 15.792C119.505 17.04 117.441 17.664 114.673 17.664ZM114.769 13.584C115.809 13.584 116.585 13.336 117.097 12.84C117.609 12.344 117.865 11.68 117.865 10.848C117.865 10.064 117.609 9.424 117.097 8.928C116.585 8.416 115.809 8.16 114.769 8.16C113.729 8.16 112.969 8.408 112.489 8.904C112.009 9.4 111.769 10.048 111.769 10.848C111.769 11.68 112.009 12.344 112.489 12.84C112.969 13.336 113.729 13.584 114.769 13.584Z" fill="#F8FAFC"/>
<path d="M135.105 4.08C136.145 4.08 137.081 4.376 137.913 4.968C138.745 5.56 139.393 6.368 139.857 7.392C140.321 8.4 140.553 9.512 140.553 10.728C140.553 11.928 140.321 13.064 139.857 14.136C139.393 15.192 138.737 16.048 137.889 16.704C137.057 17.344 136.105 17.664 135.033 17.664C133.785 17.664 132.713 17.408 131.817 16.896C130.937 16.368 130.281 15.56 129.849 14.472C129.849 15.384 129.881 16.848 129.945 18.864C130.009 20.816 130.041 22.192 130.041 22.992H124.617C124.713 20.016 124.761 16.904 124.761 13.656C124.761 10.408 124.713 7.296 124.617 4.32H129.225L129.921 7.32C130.369 6.2 131.041 5.384 131.937 4.872C132.833 4.344 133.889 4.08 135.105 4.08ZM132.537 13.344C133.257 13.344 133.857 13.12 134.337 12.672C134.833 12.208 135.081 11.608 135.081 10.872C135.081 10.056 134.857 9.392 134.409 8.88C133.961 8.368 133.353 8.112 132.585 8.112C131.705 8.112 131.041 8.328 130.593 8.76C130.145 9.176 129.921 9.88 129.921 10.872C129.921 11.432 130.065 11.904 130.353 12.288C130.641 12.656 130.985 12.928 131.385 13.104C131.785 13.264 132.169 13.344 132.537 13.344Z" fill="#F8FAFC"/>
<path d="M152.322 11.592H142.002V6.912H152.322V11.592Z" fill="#F8FAFC"/>
<path d="M171.72 7.608C172.392 8.008 173.016 8.504 173.592 9.096C174.312 9.864 174.864 10.72 175.248 11.664C175.632 12.592 176.008 13.736 176.376 15.096C176.632 16.136 176.872 16.912 177.096 17.424H171.24C171.192 17.28 171.096 16.816 170.952 16.032C170.824 15.28 170.688 14.656 170.544 14.16C170.416 13.664 170.224 13.232 169.968 12.864C169.616 12.336 169.24 11.92 168.84 11.616C168.44 11.312 167.968 11.088 167.424 10.944C167.456 13.104 167.504 15.264 167.568 17.424H162.816C162.896 15.28 162.944 13.144 162.96 11.016C162.48 11.16 162.056 11.384 161.688 11.688C161.336 11.992 160.992 12.384 160.656 12.864C160.4 13.232 160.2 13.664 160.056 14.16C159.928 14.656 159.8 15.28 159.672 16.032C159.528 16.816 159.432 17.28 159.384 17.424H153.528C153.752 16.912 153.992 16.136 154.248 15.096C154.616 13.736 154.992 12.592 155.376 11.664C155.76 10.72 156.312 9.864 157.032 9.096C157.608 8.504 158.232 8.008 158.904 7.608L153.048 0H159.48C159.912 0.96 160.432 1.992 161.04 3.096C161.648 4.184 162.28 5.208 162.936 6.168C162.936 4.344 162.896 2.288 162.816 0H167.568C167.504 2.112 167.456 4.224 167.424 6.336C167.488 6.336 167.528 6.344 167.544 6.36C168.216 5.384 168.872 4.336 169.512 3.216C170.152 2.08 170.696 1.008 171.144 0H177.576L171.72 7.608Z" fill="#F8FAFC"/>
<path d="M194.644 4.32L194.092 5.712C192.572 9.76 190.98 13.664 189.316 17.424C188.452 19.344 187.204 20.88 185.572 22.032C183.94 23.2 181.892 23.76 179.428 23.712C179.124 22.384 178.868 21.344 178.66 20.592C178.468 19.856 178.212 19.112 177.892 18.36C178.772 18.568 179.596 18.672 180.364 18.672C181.612 18.672 182.604 18.408 183.34 17.88C182.764 16.168 182.084 14.328 181.3 12.36C180.516 10.392 179.38 7.712 177.892 4.32H183.58C183.772 5.12 184.036 6.048 184.372 7.104C184.708 8.16 185.044 9.176 185.38 10.152C185.476 10.456 185.628 10.92 185.836 11.544C186.06 12.152 186.236 12.664 186.364 13.08L186.988 11.184C188.188 7.712 188.9 5.424 189.124 4.32H194.644Z" fill="#F8FAFC"/>
<path d="M206.097 4.08C207.137 4.08 208.073 4.376 208.905 4.968C209.737 5.56 210.385 6.368 210.849 7.392C211.313 8.4 211.545 9.512 211.545 10.728C211.545 11.928 211.313 13.064 210.849 14.136C210.385 15.192 209.729 16.048 208.881 16.704C208.049 17.344 207.097 17.664 206.025 17.664C204.777 17.664 203.705 17.408 202.809 16.896C201.929 16.368 201.273 15.56 200.841 14.472C200.841 15.384 200.873 16.848 200.937 18.864C201.001 20.816 201.033 22.192 201.033 22.992H195.609C195.705 20.016 195.753 16.904 195.753 13.656C195.753 10.408 195.705 7.296 195.609 4.32H200.217L200.913 7.32C201.361 6.2 202.033 5.384 202.929 4.872C203.825 4.344 204.881 4.08 206.097 4.08ZM203.529 13.344C204.249 13.344 204.849 13.12 205.329 12.672C205.825 12.208 206.073 11.608 206.073 10.872C206.073 10.056 205.849 9.392 205.401 8.88C204.953 8.368 204.345 8.112 203.577 8.112C202.697 8.112 202.033 8.328 201.585 8.76C201.137 9.176 200.913 9.88 200.913 10.872C200.913 11.432 201.057 11.904 201.345 12.288C201.633 12.656 201.977 12.928 202.377 13.104C202.777 13.264 203.161 13.344 203.529 13.344Z" fill="#F8FAFC"/>
<path d="M228.354 4.32C228.274 6.752 228.234 8.936 228.234 10.872C228.234 12.808 228.274 14.992 228.354 17.424H223.146V13.056H218.442V17.424H213.234C213.314 15.6 213.354 13.416 213.354 10.872C213.354 8.328 213.314 6.144 213.234 4.32H218.442V8.688H223.146V4.32H228.354Z" fill="#F8FAFC"/>
<path d="M245.657 13.44C245.657 13.984 245.721 14.368 245.849 14.592C245.977 14.816 246.233 14.976 246.617 15.072L246.521 17.328C246.009 17.408 245.561 17.464 245.177 17.496C244.809 17.528 244.313 17.544 243.689 17.544C242.313 17.544 241.401 17.24 240.953 16.632C240.505 16.008 240.281 15.216 240.281 14.256V13.656C239.817 14.968 239.137 15.944 238.241 16.584C237.361 17.224 236.233 17.544 234.857 17.544C233.257 17.544 232.049 17.224 231.233 16.584C230.433 15.944 230.033 14.992 230.033 13.728C230.033 12.688 230.377 11.872 231.065 11.28C231.753 10.688 232.817 10.28 234.257 10.056C233.041 9.192 231.825 8.44 230.609 7.8C231.569 6.584 232.665 5.664 233.897 5.04C235.129 4.4 236.625 4.08 238.385 4.08C240.849 4.08 242.673 4.616 243.857 5.688C245.057 6.744 245.657 8.376 245.657 10.584V13.44ZM238.889 8.304C238.073 8.304 237.353 8.44 236.729 8.712C236.105 8.984 235.545 9.392 235.049 9.936C236.009 9.824 237.209 9.768 238.649 9.768C239.241 9.768 239.657 9.696 239.897 9.552C240.137 9.408 240.257 9.224 240.257 9C240.257 8.808 240.137 8.648 239.897 8.52C239.657 8.376 239.321 8.304 238.889 8.304ZM236.369 13.632C237.265 13.632 238.073 13.464 238.793 13.128C239.513 12.776 240.009 12.32 240.281 11.76V11.136C239.897 11.328 239.473 11.48 239.009 11.592C238.545 11.688 237.985 11.784 237.329 11.88L236.465 12.024C235.569 12.2 235.121 12.504 235.121 12.936C235.121 13.4 235.537 13.632 236.369 13.632Z" fill="#F8FAFC"/>
<path d="M263.014 17.544H257.759V8.856H254.35L254.326 9.6C254.31 10.368 254.279 11.048 254.23 11.64C254.199 12.216 254.118 12.84 253.99 13.512C253.446 16.44 251.23 17.904 247.342 17.904V14.088C248.094 13.992 248.606 13.76 248.878 13.392C249.15 13.008 249.286 12.416 249.286 11.616V4.32L263.014 4.344V17.544Z" fill="#F8FAFC"/>
</svg>
