<svg width="32" height="32" viewBox="0 0 32 32" fill="none" xmlns="http://www.w3.org/2000/svg">
<path fill-rule="evenodd" clip-rule="evenodd" d="M15.8602 3.06188C15.7081 3.15562 15.6322 3.24076 15.5838 3.37215C15.5506 3.46237 15.5431 3.54801 15.5531 3.72064C15.5635 3.89813 15.5875 4.00225 15.6603 4.18461C15.7784 4.48069 15.9565 4.80697 16 4.80697C16.0427 4.80697 16.2192 4.48534 16.3415 4.18461C16.4294 3.96842 16.4372 3.92687 16.4386 3.66847C16.4401 3.39964 16.4366 3.38227 16.3601 3.26917C16.2805 3.15164 16.0765 2.99917 16 3C15.978 3.00022 15.9151 3.02808 15.8602 3.06188ZM14.8771 4.23645C14.6707 4.30582 14.4458 4.46761 14.3317 4.6287C14.279 4.70316 14.2104 4.83599 14.1793 4.92384C14.1348 5.04944 14.1228 5.14573 14.1232 5.37437C14.1236 5.59617 14.1381 5.71409 14.1841 5.87128C14.2173 5.98464 14.278 6.14637 14.3191 6.23068C14.4209 6.43982 14.6144 6.70132 14.757 6.8225L14.8753 6.92299H16H17.1247L17.243 6.8225C17.491 6.61175 17.7371 6.19073 17.8309 5.81657C17.8584 5.70687 17.8761 5.52893 17.8764 5.36018C17.8768 5.1465 17.8641 5.04723 17.8205 4.92384C17.7059 4.5991 17.4628 4.35638 17.1362 4.24051C16.9579 4.17725 16.7767 4.16691 16.7625 4.21919C16.7573 4.23822 16.7316 4.33207 16.7054 4.4278C16.6182 4.74645 16.302 5.23778 16.0774 5.40358L15.9995 5.46116L15.906 5.40128C15.779 5.31985 15.5363 4.99188 15.4093 4.7298C15.3517 4.61119 15.2892 4.4431 15.2703 4.35627C15.2359 4.19883 15.2356 4.19842 15.1311 4.19236C15.0735 4.18901 14.9592 4.20887 14.8771 4.23645ZM12.8366 5.81356C12.7228 5.88553 12.6437 5.99722 12.6221 6.11644C12.6121 6.17179 12.6178 6.28547 12.6347 6.36909C12.666 6.52401 12.8937 7.03363 12.9316 7.03363C12.9431 7.03363 12.9966 6.94655 13.0505 6.84012C13.2592 6.42836 13.3044 6.1535 13.1918 5.98038C13.138 5.89751 12.978 5.76109 12.9351 5.76136C12.9263 5.76142 12.882 5.7849 12.8366 5.81356ZM18.9588 5.82415C18.9093 5.85873 18.8415 5.92904 18.8082 5.98038C18.6956 6.1535 18.7408 6.42836 18.9495 6.84012C19.0034 6.94655 19.0569 7.03363 19.0684 7.03363C19.0799 7.03363 19.1445 6.91831 19.2119 6.77735C19.4114 6.36043 19.4349 6.10546 19.2901 5.92705C19.2329 5.85649 19.1004 5.76125 19.0596 5.76125C19.0537 5.76125 19.0083 5.78955 18.9588 5.82415ZM5.98172 6.04911C5.59122 6.23792 5.27982 6.65576 5.11585 7.21082C4.98842 7.64215 4.94534 8.34196 5.02454 8.69325C5.11486 9.09371 5.25133 9.37693 5.53934 9.7616C5.85253 10.1799 6.30718 10.5906 6.93338 11.0208C7.11837 11.1479 7.29026 11.2643 7.31536 11.2795C7.35319 11.3024 7.35791 11.3314 7.34284 11.4488C7.33283 11.5267 7.31582 11.6053 7.30501 11.6235C7.2913 11.6465 7.20151 11.6039 7.00791 11.4828C6.58063 11.2155 5.85752 10.7064 5.54782 10.455C5.05353 10.0537 4.62601 9.60247 4.49792 9.34672L4.45809 9.26723L4.35022 9.38362C4.21268 9.53205 4.11644 9.71591 4.0588 9.94037C4.00505 10.1497 3.97965 10.79 4.0194 10.9337C4.17886 11.5106 4.26547 11.6804 4.55642 11.9865C4.78494 12.227 4.97783 12.3689 5.3182 12.5471C5.71337 12.7538 6.17549 12.9177 6.78167 13.066C6.97355 13.113 7.14558 13.1561 7.1639 13.1619C7.18479 13.1685 7.19725 13.2243 7.19725 13.3111V13.4498L7.07054 13.4346C6.29555 13.3417 5.655 13.2037 5.16223 13.0235C4.81621 12.8969 4.57829 12.7732 4.37495 12.6142C4.28247 12.5419 4.20161 12.4827 4.19524 12.4827C4.18889 12.4827 4.1636 12.5294 4.13906 12.5864C4.10638 12.6624 4.09131 12.7974 4.0827 13.0912C4.07277 13.43 4.07952 13.5298 4.12623 13.7334C4.15664 13.866 4.22087 14.0587 4.26894 14.1617C4.43467 14.5167 4.77153 14.7798 5.23663 14.9175C5.34138 14.9485 5.59725 14.9868 5.81951 15.0048C6.12547 15.0295 6.31982 15.029 6.67311 15.0028C6.92471 14.984 7.22059 14.9521 7.33062 14.9317C7.55373 14.8904 7.53698 14.8816 7.62842 15.0885C7.68265 15.2112 7.71039 15.1965 7.27727 15.2741C6.63435 15.3893 6.3039 15.4231 5.79681 15.4256C5.39639 15.4275 5.24237 15.4172 5.06324 15.3768C4.93854 15.3486 4.8041 15.3083 4.76448 15.2872C4.72484 15.266 4.67984 15.2487 4.66445 15.2487C4.62388 15.2487 4.63007 15.4566 4.67854 15.7228C4.72879 15.9989 4.88383 16.3575 5.02096 16.5149C5.15167 16.6649 5.34688 16.7918 5.54582 16.856C5.90108 16.9706 6.66294 16.8994 7.24558 16.697C7.53676 16.5959 7.95674 16.3976 8.19996 16.2465L8.33576 16.1621L8.42037 16.2713L8.50501 16.3805L8.2846 16.5282C7.92627 16.7684 7.62178 16.9392 7.22392 17.1232C6.85925 17.2918 6.37878 17.4261 6.04355 17.4531C5.92983 17.4623 5.83682 17.4803 5.83682 17.4932C5.83682 17.5609 5.96241 17.8805 6.03632 18.001C6.20083 18.2691 6.42847 18.4205 6.77997 18.4956C7.1635 18.5775 7.56696 18.5393 7.90083 18.3895C8.07563 18.311 8.40138 18.0964 8.60048 17.9286C8.82194 17.7419 9.16826 17.3954 9.32839 17.2002L9.44069 17.0633L9.53936 17.1161C9.59362 17.1452 9.64246 17.172 9.64791 17.1757C9.66695 17.1887 9.41314 17.5669 9.2035 17.8379C8.96777 18.1427 8.59472 18.5277 8.37041 18.6977C8.28943 18.7591 8.15437 18.8495 8.07032 18.8987C7.98624 18.9479 7.91758 18.9963 7.91771 19.0063C7.91787 19.0162 7.95367 19.0889 7.99734 19.1679C8.08302 19.3228 8.18932 19.4196 8.35761 19.4962C8.50656 19.564 8.91045 19.5601 9.14663 19.4886C9.63878 19.3397 10.0925 18.9101 10.4213 18.2818C10.5324 18.0695 10.7183 17.6153 10.7183 17.5562C10.7183 17.518 10.736 17.5126 10.8165 17.5262C10.9827 17.5541 10.9874 17.5753 10.907 17.9318C10.8123 18.3523 10.7091 18.6728 10.5846 18.933C10.45 19.2145 10.3458 19.368 10.197 19.5037C10.0918 19.5998 10.0785 19.6233 10.1028 19.6705C10.1184 19.7008 10.1943 19.7573 10.2714 19.7962C10.4634 19.8931 10.7306 19.9163 10.9546 19.8556C11.1587 19.8003 11.2827 19.7227 11.4259 19.5607C11.557 19.4125 11.6381 19.2785 11.694 19.1182C11.7546 18.9445 11.8118 18.5599 11.8119 18.326C11.812 18.2157 11.8218 18.1254 11.8337 18.1254C11.8636 18.1254 11.9798 18.2565 12.0594 18.3801C12.0958 18.4365 12.13 18.478 12.1355 18.4723C12.141 18.4666 12.1423 17.7845 12.1383 16.9564L12.1312 15.4507L11.8492 15.4328C11.5186 15.4119 11.3043 15.3597 11.0657 15.2421C10.8837 15.1524 10.6478 14.9425 10.5561 14.7887C10.3958 14.5197 10.2949 14.0286 10.3296 13.6863C10.3472 13.5137 10.4335 12.9996 10.4798 12.7926C10.5175 12.6237 10.5157 12.3064 10.4765 12.2297C10.4021 12.0839 10.2344 11.9073 9.7932 11.5102C9.53811 11.2806 9.23292 10.9854 9.11502 10.8542C8.79615 10.4993 8.49869 10.0147 8.41122 9.70747C8.39362 9.64565 8.3679 9.59116 8.35409 9.58637C8.34027 9.58161 8.25984 9.64158 8.17534 9.71969C8.09086 9.79778 8.01798 9.85706 8.01337 9.85141C8.00878 9.84577 7.87911 9.64822 7.7252 9.41242C7.14696 8.52648 6.63432 7.59416 6.40956 7.0198C6.27717 6.6814 6.18517 6.36051 6.16551 6.16838C6.15652 6.08042 6.14107 6.00331 6.1312 5.99697C6.12134 5.99067 6.05406 6.01412 5.98172 6.04911ZM25.8577 6.01711C25.852 6.03614 25.8402 6.11566 25.8314 6.19386C25.7607 6.821 25.173 8.03631 24.2748 9.41242C24.1209 9.64822 23.9912 9.84577 23.9866 9.85141C23.982 9.85706 23.9091 9.79778 23.8247 9.71969C23.7402 9.64158 23.6597 9.58161 23.6459 9.58637C23.6321 9.59116 23.6065 9.64515 23.5891 9.70636C23.543 9.86829 23.3753 10.1994 23.2266 10.422C23.0342 10.71 22.7394 11.0284 22.2866 11.4372C21.8094 11.8681 21.5928 12.0903 21.5328 12.2107C21.4979 12.2807 21.4921 12.3488 21.5039 12.5496C21.5121 12.6878 21.5372 12.8942 21.5598 13.0083C21.5823 13.1224 21.6206 13.3464 21.6447 13.5061C21.6812 13.7475 21.6837 13.8434 21.6595 14.0732C21.6304 14.3491 21.5533 14.6052 21.4439 14.7887C21.3506 14.9453 21.1025 15.1657 20.9263 15.2485C20.684 15.3624 20.4586 15.416 20.1442 15.4345L19.8679 15.4507L19.8655 16.8711C19.8641 17.6522 19.863 18.3287 19.863 18.3744C19.863 18.42 19.8641 18.4653 19.8655 18.475C19.8668 18.4848 19.8991 18.4443 19.9373 18.3852C20.0154 18.264 20.1355 18.1254 20.1624 18.1254C20.1721 18.1254 20.1872 18.2717 20.1958 18.4504C20.2214 18.9812 20.3277 19.2928 20.5747 19.5613C20.7485 19.7503 20.9572 19.8597 21.1923 19.8852C21.4622 19.9145 21.8284 19.8038 21.8961 19.6726C21.9218 19.6228 21.9101 19.6015 21.803 19.5037C21.6542 19.368 21.55 19.2145 21.4154 18.933C21.2909 18.6728 21.1877 18.3523 21.093 17.9318C21.0126 17.5753 21.0173 17.5541 21.1835 17.5262C21.264 17.5126 21.2817 17.518 21.2817 17.5562C21.2817 17.6153 21.4676 18.0695 21.5787 18.2818C21.8267 18.7556 22.1939 19.1691 22.5258 19.3481C22.7961 19.494 22.9897 19.545 23.2823 19.5476C23.5133 19.5496 23.5496 19.5425 23.6932 19.4669C23.8604 19.3789 23.9744 19.2548 24.0408 19.0889L24.0814 18.9875L23.9291 18.8984C23.8454 18.8494 23.7106 18.7591 23.6296 18.6977C23.4352 18.5503 23.048 18.1598 22.856 17.9176C22.685 17.7017 22.3487 17.2165 22.3487 17.1856C22.3487 17.1747 22.3961 17.1435 22.4541 17.1164L22.5596 17.0671L22.7009 17.2265C22.7786 17.3143 22.8463 17.3972 22.8513 17.4109C22.8564 17.4245 22.9884 17.5547 23.1447 17.7C23.4526 17.9862 23.796 18.2382 24.0453 18.3609C24.4032 18.537 24.8084 18.5835 25.22 18.4956C25.5715 18.4205 25.7992 18.2691 25.9637 18.001C26.0376 17.8805 26.1632 17.5609 26.1632 17.4932C26.1632 17.4803 26.0702 17.4623 25.9565 17.4532C25.4031 17.4089 24.7111 17.1468 24.0025 16.7131C23.7508 16.559 23.4957 16.3866 23.4957 16.3705C23.4957 16.3659 23.5352 16.3174 23.5835 16.2627L23.6713 16.1633L23.8302 16.2631C24.2674 16.5376 24.8458 16.7612 25.3569 16.8532C25.7704 16.9276 26.2301 16.9279 26.4616 16.8537C26.9222 16.7062 27.211 16.3227 27.3237 15.709C27.3681 15.4669 27.3759 15.2487 27.3401 15.2487C27.3273 15.2487 27.2748 15.2669 27.2236 15.2891C27.1725 15.3112 27.042 15.3515 26.9336 15.3786C26.7788 15.4172 26.6254 15.4276 26.2165 15.427C25.9304 15.4265 25.5943 15.4106 25.4696 15.3915C24.8728 15.3002 24.3609 15.2113 24.3454 15.1963C24.3358 15.1871 24.3573 15.1164 24.3929 15.0391L24.4578 14.8987L24.6103 14.9216C25.0261 14.9842 25.1811 14.9999 25.5435 15.0161C25.996 15.0363 26.4774 14.9968 26.7593 14.9165C27.2224 14.7844 27.5637 14.521 27.7269 14.1695C27.8858 13.8273 27.9087 13.7043 27.9096 13.1881C27.9101 12.8666 27.8992 12.6851 27.8751 12.6145C27.8557 12.5576 27.8295 12.5046 27.817 12.4965C27.8045 12.4885 27.7183 12.5413 27.6256 12.614C27.2856 12.8802 26.7545 13.0908 25.9765 13.268C25.8138 13.305 25.2138 13.4005 24.9281 13.4348L24.8 13.4502L24.808 13.3074L24.8161 13.1647L25.0962 13.0989C25.9397 12.9009 26.6208 12.6312 27.0724 12.3164C27.3025 12.1559 27.6218 11.8151 27.7406 11.6029C27.8258 11.4508 27.8775 11.3067 27.9806 10.9337C28.0203 10.79 27.995 10.1497 27.9412 9.94037C27.9162 9.84278 27.8657 9.70586 27.829 9.63611C27.7615 9.50754 27.5913 9.30177 27.5524 9.30177C27.5407 9.30177 27.4856 9.37336 27.4298 9.46082C27.1575 9.88826 26.4826 10.4822 25.5497 11.1154C24.9644 11.5125 24.7167 11.6599 24.6951 11.6236C24.6842 11.6054 24.6672 11.5267 24.6572 11.4488C24.6423 11.3325 24.647 11.3022 24.6836 11.2795C24.7082 11.2643 24.8566 11.1642 25.0135 11.0572C25.8311 10.4993 26.3521 9.99456 26.6802 9.44246C26.8161 9.2137 26.9151 8.96269 26.9756 8.69325C27.0546 8.34144 27.0114 7.64171 26.8842 7.21082C26.7227 6.66422 26.4224 6.25795 26.0256 6.04947C25.9555 6.01266 25.8914 5.98253 25.8831 5.98253C25.8749 5.98253 25.8634 5.99811 25.8577 6.01711ZM10.2782 6.22979C10.2195 6.26096 10.0455 6.38375 9.89142 6.50263C9.73737 6.62149 9.53931 6.76361 9.45128 6.81843C9.28881 6.91964 9.0013 7.03363 8.90855 7.03363C8.82231 7.03363 8.79804 7.09152 8.82696 7.22816C8.8487 7.33087 8.95686 7.70992 9.0666 8.0681C9.10301 8.1869 9.09656 8.36708 9.0479 8.59099C9.00365 8.79468 8.95385 8.92145 8.88692 9.0008C8.85243 9.04168 8.86555 9.04437 9.03742 9.03162C9.1963 9.01983 9.2345 9.02581 9.28214 9.06982C9.35958 9.14134 9.41127 9.27815 9.41127 9.41153C9.41127 9.47288 9.42226 9.52306 9.43568 9.52306C9.48169 9.52306 9.67221 9.27317 9.74095 9.12265C9.77875 9.03986 9.82417 8.89041 9.84194 8.79056C9.86685 8.65026 9.86709 8.55414 9.84301 8.3676C9.79777 8.01767 9.69107 7.74638 9.47337 7.42779C9.40839 7.33272 9.35915 7.25491 9.36395 7.25491C9.45334 7.25491 9.88238 7.18103 10.0937 7.12925C10.2463 7.09188 10.3755 7.06129 10.3807 7.06129C10.3861 7.06129 10.3981 7.16593 10.4076 7.29383C10.4477 7.83442 10.6425 8.18327 10.9972 8.34973C11.1575 8.42494 11.4552 8.49216 11.4845 8.45971C11.4959 8.44707 11.4886 8.43058 11.4681 8.42309C11.3762 8.38926 11.2175 8.20051 11.1401 8.03291C11.0661 7.87279 11.0552 7.81987 11.0539 7.61449C11.0529 7.45852 11.0729 7.29244 11.1134 7.12117C11.1642 6.9062 11.1694 6.84698 11.144 6.76737C11.1081 6.65432 10.8551 6.3625 10.7118 6.26871C10.5666 6.17367 10.4103 6.15964 10.2782 6.22979ZM21.3483 6.24127C21.1891 6.31839 20.901 6.62589 20.8562 6.76654C20.8306 6.84714 20.8355 6.90531 20.8865 7.12117C20.9254 7.28606 20.9475 7.4646 20.9478 7.61516C20.9481 7.82582 20.9389 7.87046 20.8612 8.03402C20.7815 8.202 20.6226 8.3897 20.5319 8.42309C20.5114 8.43058 20.5034 8.44635 20.5139 8.45811C20.5424 8.48983 20.8484 8.4219 21.0028 8.3496C21.3537 8.18527 21.549 7.84017 21.5918 7.30885C21.6015 7.18695 21.6185 7.08148 21.6294 7.07451C21.6403 7.06751 21.7676 7.09213 21.9122 7.12917C22.0569 7.16623 22.2692 7.20861 22.3841 7.22332C22.499 7.23804 22.5994 7.25674 22.6072 7.26484C22.615 7.27294 22.5676 7.36428 22.5017 7.46778C22.284 7.80997 22.2011 8.02636 22.157 8.3676C22.1329 8.55414 22.1331 8.65026 22.1581 8.79056C22.1758 8.89041 22.22 9.03695 22.2563 9.1162C22.324 9.26385 22.5201 9.52306 22.5641 9.52306C22.5777 9.52306 22.5887 9.47288 22.5887 9.41153C22.5887 9.26443 22.6477 9.1237 22.734 9.06508C22.7883 9.02824 22.8413 9.02086 22.9732 9.03184L23.1428 9.04594L23.0796 8.9493C23.0035 8.8331 22.9706 8.72107 22.9293 8.43839C22.8946 8.20028 22.9023 8.15293 23.058 7.64215C23.1805 7.24039 23.2056 7.11263 23.1708 7.06912C23.1551 7.04959 23.1195 7.03363 23.0914 7.03363C22.9992 7.03363 22.7116 6.91989 22.5487 6.81898C22.4607 6.76446 22.2717 6.62835 22.1288 6.51649C21.8285 6.28149 21.6494 6.17605 21.5511 6.17643C21.5129 6.17657 21.4217 6.20575 21.3483 6.24127ZM12.1157 6.63579C12.0554 6.658 11.9559 6.72059 11.8947 6.77489C11.6844 6.96154 11.603 7.23574 11.6539 7.5857C11.6705 7.69919 11.7199 7.87088 11.7638 7.96725C11.8077 8.06359 11.9098 8.21658 11.9907 8.30719L12.1379 8.47196H12.9312H13.7245L13.8722 8.31142C14.0451 8.12342 14.1347 7.9514 14.1991 7.68365C14.2557 7.44787 14.2405 7.20476 14.1574 7.02162C14.1257 6.95153 14.0462 6.84534 13.9807 6.78562C13.8524 6.66846 13.6454 6.58185 13.5278 6.59604C13.4666 6.60345 13.4511 6.62246 13.4333 6.71199C13.3816 6.97167 13.0615 7.44853 12.9389 7.44853C12.8779 7.44853 12.6969 7.2569 12.5891 7.07813C12.5441 7.0037 12.482 6.86368 12.451 6.76695C12.3971 6.59919 12.3906 6.59117 12.31 6.59325C12.2635 6.59444 12.1761 6.61361 12.1157 6.63579ZM18.2493 6.63571C18.0971 6.69252 17.9122 6.86794 17.8426 7.02162C17.7595 7.20476 17.7443 7.44787 17.8009 7.68365C17.8653 7.9514 17.9549 8.12342 18.1278 8.31142L18.2755 8.47196H19.0688H19.8621L20.0093 8.30719C20.0902 8.21658 20.1923 8.06359 20.2362 7.96725C20.2801 7.87088 20.3295 7.69919 20.3461 7.5857C20.397 7.23605 20.3156 6.96154 20.1058 6.77534C19.9893 6.672 19.8017 6.59106 19.6786 6.59106C19.6125 6.59106 19.6001 6.60791 19.549 6.76695C19.518 6.86368 19.4559 7.0037 19.4109 7.07813C19.3031 7.2569 19.1221 7.44853 19.0611 7.44853C18.9385 7.44853 18.6184 6.97164 18.5667 6.71199C18.5472 6.61407 18.5375 6.60442 18.4531 6.5995C18.4023 6.59654 18.3106 6.61283 18.2493 6.63571ZM14.895 7.31715C14.8883 7.35139 14.8754 7.45791 14.8664 7.55386C14.8487 7.74234 14.7708 7.98473 14.6776 8.1412C14.6178 8.24161 14.4597 8.39983 14.3954 8.42348C14.3757 8.43078 14.3667 8.44489 14.3755 8.45484C14.3843 8.4648 14.4775 8.45418 14.5825 8.43128C14.9236 8.3569 15.1982 8.17464 15.3597 7.91552C15.429 7.8043 15.4785 7.68002 15.5079 7.54296C15.5321 7.42983 15.5451 7.31875 15.5368 7.2961C15.5245 7.26293 15.4618 7.25491 15.2144 7.25491C14.9174 7.25491 14.9069 7.25696 14.895 7.31715ZM16.4632 7.2961C16.4549 7.31875 16.4679 7.42983 16.4921 7.54296C16.5903 8.0008 16.9035 8.30456 17.4078 8.43108C17.5145 8.45789 17.6106 8.47008 17.6212 8.45824C17.6318 8.44641 17.6243 8.43078 17.6046 8.42348C17.541 8.40005 17.3825 8.24208 17.3214 8.1412C17.2286 7.98799 17.152 7.74912 17.1339 7.55602C17.1028 7.22617 17.136 7.25491 16.7856 7.25491C16.5382 7.25491 16.4755 7.26293 16.4632 7.2961ZM15.0715 8.57127C14.766 8.79053 14.8173 8.78447 13.1058 8.80314C12.06 8.81454 11.5635 8.82956 11.5154 8.85122C11.477 8.86856 11.4192 8.9176 11.3868 8.96017C11.3417 9.01969 11.3301 9.06661 11.3366 9.16278L11.3452 9.28794L11.1418 9.30509C10.6958 9.34268 10.4056 9.55097 10.3461 9.87609C10.3132 10.056 10.3479 10.3734 10.4228 10.5782C10.4543 10.664 10.5167 10.7869 10.5617 10.8512L10.6433 10.9681L10.7675 10.8431C10.8359 10.7744 10.9458 10.69 11.0118 10.6556C11.158 10.5794 11.4482 10.5539 11.6523 10.5993C11.8007 10.6323 12.1321 10.7874 12.1321 10.8238C12.1321 10.8352 12.0885 10.8531 12.0352 10.8635C11.9818 10.8738 11.7688 10.9736 11.5617 11.0851C11.3546 11.1966 11.12 11.3078 11.0403 11.3321C10.9606 11.3564 10.8345 11.3762 10.7602 11.376C10.6366 11.3757 10.4349 11.332 10.3074 11.278C10.2575 11.2568 10.2575 11.258 10.3074 11.3481C10.4215 11.5539 10.7566 11.6795 11.0444 11.6243C11.1275 11.6084 11.2823 11.5647 11.3884 11.5273C11.4945 11.4899 11.5912 11.4593 11.6033 11.4593C11.6154 11.4593 11.6253 11.5526 11.6253 11.6667C11.6253 11.7808 11.6324 11.8742 11.641 11.8742C11.6496 11.8742 11.7172 11.8193 11.7912 11.7521C11.9647 11.5948 12.166 11.5146 12.3874 11.5146C12.8474 11.5146 13.1272 11.8197 13.288 12.4965C13.3096 12.5878 13.3353 12.7496 13.3449 12.8561C13.3545 12.9626 13.3686 13.084 13.3762 13.1258L13.3901 13.2019H16.0009H18.6117L18.625 13.112C18.6323 13.0625 18.6456 12.9412 18.6545 12.8423C18.6779 12.5835 18.7651 12.2477 18.8628 12.0401C18.9591 11.8355 19.1187 11.6554 19.2707 11.58C19.3491 11.541 19.4329 11.5288 19.6145 11.5299C19.895 11.5317 20.0234 11.5806 20.2187 11.7601C20.287 11.8228 20.35 11.8742 20.3588 11.8742C20.3676 11.8742 20.3747 11.7808 20.3747 11.6667C20.3747 11.5526 20.3846 11.4593 20.3967 11.4593C20.4088 11.4593 20.5074 11.4905 20.6157 11.5288C20.7241 11.567 20.881 11.6096 20.9644 11.6236C21.2528 11.6717 21.5809 11.5473 21.6926 11.3474C21.7425 11.258 21.7425 11.2568 21.6926 11.278C21.5651 11.332 21.3634 11.3757 21.2398 11.376C21.1655 11.3762 21.0394 11.3566 20.9597 11.3324C20.88 11.3082 20.6468 11.1973 20.4414 11.0858C20.236 10.9743 20.0229 10.8744 19.9679 10.8638C19.9129 10.8532 19.8679 10.8352 19.8679 10.8238C19.8679 10.7874 20.1993 10.6323 20.3477 10.5993C20.5518 10.5539 20.842 10.5794 20.9882 10.6556C21.0542 10.69 21.1642 10.7744 21.2325 10.8431L21.3567 10.9681L21.4383 10.8512C21.6802 10.5049 21.7431 9.89158 21.5619 9.64526C21.4125 9.44218 21.1861 9.33275 20.8582 9.30509L20.6548 9.28794L20.6634 9.16278C20.6699 9.06661 20.6583 9.01969 20.6132 8.96017C20.5808 8.9176 20.523 8.86845 20.4846 8.85099C20.4362 8.829 19.9476 8.81426 18.8942 8.803C17.1807 8.78466 17.2394 8.79166 16.9177 8.568C16.8199 8.49996 16.7354 8.4443 16.73 8.4443C16.7246 8.4443 16.7202 8.49951 16.7202 8.56698C16.7202 8.76193 16.7956 9.08129 16.8772 9.23215C16.9638 9.39225 17.137 9.53899 17.3392 9.62363C17.4169 9.65613 17.4791 9.69347 17.4775 9.70661C17.4729 9.74387 17.305 9.82054 17.187 9.8393C17.0873 9.85512 16.8732 9.82735 16.7669 9.78478C16.7321 9.77084 16.7202 9.77999 16.7202 9.82088C16.7202 9.91949 16.8008 10.1153 16.8746 10.1961C16.9144 10.2396 17.0414 10.3247 17.1569 10.3851L17.3668 10.4951L17.2236 10.592C16.7615 10.9048 16.3775 11.508 16.152 12.2753C16.1296 12.3513 16.0902 12.5287 16.0644 12.6694C16.0387 12.8101 16.0089 12.9253 15.9982 12.9253C15.9876 12.9253 15.9587 12.8101 15.934 12.6694C15.8625 12.262 15.7643 11.9598 15.5815 11.5845C15.515 11.4479 15.4087 11.2612 15.3453 11.1696C15.1994 10.9588 14.9613 10.7171 14.7764 10.592L14.6332 10.4951L14.8431 10.3851C14.9586 10.3247 15.0849 10.2398 15.1239 10.1965C15.2059 10.1054 15.2798 9.93403 15.2798 9.83482C15.2798 9.78063 15.2699 9.77006 15.2331 9.78489C15.2074 9.79524 15.1228 9.81598 15.045 9.831C14.8769 9.86347 14.6464 9.82298 14.5537 9.7447L14.4929 9.69331L14.5604 9.66648C14.721 9.60266 14.8745 9.51706 14.9614 9.44281C15.0916 9.33154 15.195 9.12016 15.2408 8.87171C15.2829 8.64371 15.2919 8.44242 15.2598 8.4474C15.2488 8.44909 15.164 8.50483 15.0715 8.57127ZM12.7843 9.51824C12.7704 9.5308 12.681 9.57525 12.5856 9.61699C12.4902 9.65873 12.3882 9.7039 12.3589 9.71737C12.2395 9.77214 11.9728 9.88264 11.9599 9.88264C11.9523 9.88264 11.9038 9.79551 11.852 9.68902L11.758 9.4954H12.2838C12.573 9.4954 12.7983 9.50569 12.7843 9.51824ZM20.2147 9.52386C20.2147 9.56081 20.0581 9.88264 20.0401 9.88264C20.0229 9.88264 19.7334 9.75925 19.58 9.68656C19.517 9.65671 19.415 9.61207 19.3532 9.58737C19.2915 9.56264 19.2296 9.53183 19.2157 9.51891C19.2017 9.50591 19.4194 9.4954 19.7025 9.4954C20.0356 9.4954 20.2147 9.50535 20.2147 9.52386ZM12.4852 17.3855C12.4917 20.9622 12.4955 21.2473 12.5387 21.3779C12.5642 21.4554 12.6125 21.5612 12.6461 21.6131C12.7179 21.7242 12.9223 21.8733 13.061 21.9158C13.115 21.9323 13.3332 21.9578 13.5459 21.9723C14.3689 22.0288 14.6074 22.0534 14.8263 22.1044C15.2434 22.2016 15.6571 22.3866 15.8993 22.5842L15.9987 22.6653L16.126 22.5641C16.3284 22.4033 16.714 22.2263 17.0585 22.1359C17.3714 22.0539 17.5574 22.0324 18.479 21.9721C18.8577 21.9473 18.9041 21.9383 19.0581 21.8597C19.2888 21.7419 19.3957 21.6047 19.4654 21.337C19.5206 21.1247 19.5211 21.0899 19.5211 17.3283V13.5338H15.9996H12.4782L12.4852 17.3855ZM15.0454 14.0543C15.0744 14.1352 15.118 14.2086 15.1423 14.2174C15.2527 14.2573 15.3208 14.4483 15.2506 14.5211C15.2295 14.543 15.2546 14.6457 15.3416 14.8931C15.7485 16.0506 16.1129 17.0895 16.3102 17.6552C16.4349 18.0127 16.5535 18.3488 16.5736 18.402C16.5937 18.4553 16.732 18.8474 16.8808 19.2733C17.2909 20.4468 17.281 20.4212 17.3261 20.4212C17.3576 20.4212 17.3632 20.402 17.3504 20.3382C17.3412 20.2926 17.3266 20.2197 17.3179 20.1763C17.3027 20.101 17.3072 20.0966 17.4134 20.0818C17.4747 20.0733 17.5297 20.0614 17.5355 20.0553C17.5494 20.0408 17.295 19.3572 17.2269 19.2264C17.1977 19.1701 17.1737 19.0918 17.1737 19.0523C17.1737 19.0117 17.1282 18.9179 17.0691 18.8365C17.0115 18.7573 16.9337 18.6288 16.8961 18.551C16.8375 18.4296 16.8186 18.4113 16.7635 18.4223C16.6912 18.4366 16.7124 18.4843 16.423 17.6552C16.3353 17.4042 16.2474 17.1552 16.2275 17.102C16.2076 17.0487 16.0694 16.6567 15.9206 16.2307C15.6618 15.4903 15.5705 15.2324 15.551 15.1866C15.5461 15.1752 15.5671 15.1658 15.5977 15.1658C15.6282 15.1658 15.6531 15.1564 15.6531 15.145C15.653 15.1336 15.6403 15.077 15.6248 15.0192C15.6048 14.9443 15.6052 14.8713 15.6264 14.7655C15.6813 14.4912 15.9329 14.2806 16.2057 14.2806C16.3934 14.2806 16.6331 14.4354 16.7205 14.6131C16.7917 14.7579 16.7923 15.0192 16.7218 15.1626C16.6726 15.2625 16.5482 15.3924 16.4378 15.459C16.3888 15.4886 16.3892 15.4937 16.4505 15.6293L16.5136 15.7691L16.4545 15.8339C16.3242 15.9769 16.2134 16.3 16.2134 16.5372C16.2134 16.6 16.2283 16.6394 16.2561 16.6505C16.2796 16.6598 16.3079 16.6521 16.3191 16.6334C16.3303 16.6147 16.3462 16.5158 16.3544 16.4136C16.363 16.3078 16.3973 16.1629 16.4342 16.0771C16.521 15.8749 16.6864 15.6644 16.8429 15.5569C17.2054 15.3079 17.7575 15.2956 18.0157 15.5306C18.1379 15.6419 18.1824 15.7345 18.2036 15.9217C18.2194 16.0611 18.2119 16.0931 18.1135 16.3044C18.0544 16.4312 17.9986 16.5802 17.9894 16.6356C17.9802 16.6909 17.9455 16.7781 17.9124 16.8292C17.8704 16.8941 17.8283 16.9247 17.773 16.9303C17.7295 16.9348 17.6699 16.9202 17.6405 16.8979C17.593 16.8619 17.5872 16.8255 17.5872 16.566C17.5872 16.3346 17.5783 16.2652 17.5441 16.2297C17.5044 16.1883 17.4967 16.1906 17.4454 16.2581C17.4148 16.2984 17.3817 16.3873 17.3718 16.4556C17.354 16.5793 17.3798 16.7056 17.4816 16.9913C17.5463 17.1728 17.5204 17.5509 17.4258 17.8073C17.3562 17.9962 17.3548 18.0116 17.3701 18.4371C17.3787 18.6778 17.3993 18.8996 17.4162 18.9322C17.4329 18.9646 17.4575 19.0819 17.4708 19.1928C17.4951 19.3961 17.6392 19.9451 17.6794 19.9879C17.7088 20.0192 17.861 19.9364 17.9685 19.8307C18.0493 19.7511 18.0559 19.7319 18.0509 19.5893C18.0479 19.5041 18.0541 19.4199 18.0647 19.4023C18.0895 19.3606 18.3384 19.3604 18.3632 19.402C18.3737 19.4195 18.3606 19.4502 18.3342 19.4703C18.2938 19.5009 18.2917 19.5137 18.3212 19.5505C18.351 19.5877 18.348 19.5964 18.3013 19.6091C18.2446 19.6245 18.214 19.7174 18.214 19.8746C18.214 19.9549 18.2167 19.9566 18.3132 19.9379C18.4841 19.9046 18.6184 19.7699 18.5343 19.716C18.5197 19.7066 18.4944 19.6732 18.4781 19.6416C18.45 19.5872 18.4535 19.5851 18.5447 19.6029C18.6248 19.6185 18.6408 19.6137 18.6408 19.5741C18.6408 19.548 18.6209 19.5038 18.5965 19.4759C18.5722 19.4479 18.5578 19.4194 18.5645 19.4123C18.5713 19.4053 18.6221 19.414 18.6774 19.4316C18.7865 19.4663 18.9076 19.5934 18.9076 19.6731C18.9076 19.7951 18.8678 19.905 18.7972 19.9782C18.7552 20.0218 18.7209 20.0766 18.7209 20.1C18.7209 20.1625 18.5735 20.3261 18.4818 20.3655C18.4382 20.3842 18.3957 20.422 18.3873 20.4494C18.3789 20.4768 18.3541 20.5146 18.3322 20.5335C18.2998 20.5614 18.2856 20.5581 18.256 20.5161C18.2219 20.4678 18.2172 20.4705 18.1809 20.5604C18.1597 20.6132 18.1239 20.6721 18.1015 20.6914C18.0674 20.7207 18.0535 20.7151 18.0167 20.6568C17.9673 20.5786 17.9206 20.5655 17.9206 20.6298C17.9206 20.6845 17.8192 20.8915 17.7924 20.8915C17.7812 20.8915 17.7508 20.8541 17.7248 20.8085C17.6988 20.7628 17.6674 20.7255 17.655 20.7255C17.6426 20.7255 17.6239 20.8033 17.6136 20.8984C17.591 21.1049 17.5102 21.3616 17.4198 21.5138C17.3474 21.6356 17.2281 21.7766 17.1975 21.7766C17.1867 21.7766 17.1698 21.738 17.1598 21.6909C17.145 21.6209 17.1312 21.6078 17.0843 21.6192C16.7327 21.7046 16.6044 21.7243 16.3001 21.7397C16.1057 21.7495 15.9467 21.7491 15.9467 21.7389C15.9467 21.7287 16.0007 21.6667 16.0667 21.6011C16.167 21.5014 16.1867 21.4648 16.1867 21.3784C16.1867 21.3216 16.1754 21.253 16.1615 21.2261C16.1432 21.1907 16.1533 21.1421 16.1981 21.0503C16.2787 20.8852 16.3067 20.6493 16.2664 20.475C16.2298 20.3166 16.1108 20.1914 15.954 20.1463C15.8109 20.1051 15.736 20.1106 15.6054 20.1721C15.5169 20.2138 15.4793 20.2532 15.4398 20.3457C15.4096 20.4166 15.3952 20.4932 15.4046 20.5333C15.4276 20.631 15.5193 20.7255 15.5912 20.7255C15.6658 20.7255 15.6748 20.6548 15.6027 20.6353C15.5292 20.6154 15.5037 20.4648 15.5589 20.3774C15.6176 20.2845 15.7214 20.2471 15.8666 20.2664C15.9584 20.2787 16.0071 20.3052 16.0734 20.3791C16.1524 20.4672 16.1601 20.4913 16.1601 20.6526C16.1601 20.8325 16.1109 21.0009 16.0307 21.0956C16.0065 21.1242 15.9386 21.1795 15.88 21.2184C15.7924 21.2765 15.7324 21.2913 15.5451 21.3009C15.3536 21.3107 15.2954 21.303 15.1821 21.2525C15.0252 21.1824 14.8832 21.0397 14.7955 20.8638C14.7449 20.7623 14.7334 20.6959 14.7332 20.5042C14.733 20.3108 14.7444 20.2449 14.7978 20.1324C14.8892 19.9399 15.065 19.7752 15.262 19.6976C15.3974 19.6444 15.4736 19.6334 15.6932 19.6358C15.9066 19.6381 15.9982 19.6528 16.1508 19.7093L16.3416 19.7798L16.3682 19.6711C16.3828 19.6113 16.3888 19.5388 16.3816 19.51C16.3743 19.4812 16.3337 19.4427 16.2912 19.4245C16.2488 19.4063 16.2206 19.3804 16.2287 19.3669C16.2367 19.3535 16.2815 19.3421 16.3283 19.3416L16.4135 19.3406L16.3534 19.2887C16.3204 19.2602 16.2934 19.2295 16.2934 19.2205C16.2934 19.2115 16.3306 19.2042 16.3761 19.2042C16.492 19.2042 16.587 19.32 16.6616 19.5524C16.6953 19.6575 16.7476 19.7809 16.7777 19.8265C16.8346 19.9126 16.956 20.02 16.9746 20.0007C16.9805 19.9946 16.8969 19.7351 16.789 19.424C16.5061 18.6089 16.4554 18.4758 16.4192 18.4519C16.4014 18.4401 16.3232 18.4304 16.2456 18.4301C16.1001 18.4297 15.378 18.3542 15.306 18.3319C15.2772 18.323 15.2517 18.3598 15.2175 18.4595C15.155 18.6422 14.9191 18.8847 14.6744 19.018C14.5018 19.1121 14.4895 19.1252 14.4569 19.2508C14.4379 19.3241 14.416 19.4898 14.4084 19.6191C14.3952 19.8405 14.3984 19.8597 14.4636 19.9495C14.5425 20.058 14.5521 20.1311 14.4907 20.1555C14.4362 20.1772 14.2561 20.1772 14.2016 20.1555C14.1522 20.1358 14.1456 20.0317 14.1908 19.9849C14.211 19.9639 14.2239 19.8228 14.2273 19.5852C14.2301 19.3832 14.2463 19.1658 14.2633 19.1019C14.2824 19.0299 14.3344 18.9458 14.4 18.8806C14.484 18.7971 14.5113 18.7448 14.5326 18.6269C14.5643 18.451 14.531 18.0951 14.4641 17.8945C14.4074 17.7245 14.4267 17.5314 14.5203 17.333C14.6407 17.0779 14.9209 16.9084 15.2223 16.9084H15.3778L15.4242 16.6129C15.4497 16.4504 15.47 16.2232 15.4692 16.1081C15.4678 15.8912 15.427 15.6092 15.3927 15.5793C15.382 15.5699 15.3162 15.5405 15.2467 15.5139C15.1772 15.4874 15.0962 15.4338 15.0667 15.395C15.0184 15.3314 15.013 15.2831 15.013 14.9147C15.013 14.6477 15.0029 14.4987 14.9838 14.4865C14.9673 14.4759 14.9599 14.424 14.9668 14.3673C14.9741 14.3076 14.9588 14.2107 14.9293 14.1285C14.8628 13.9433 14.8645 13.8872 14.9361 13.8984C14.977 13.9048 15.0072 13.948 15.0454 14.0543ZM16.04 14.4207C15.9528 14.4473 15.8382 14.5473 15.7686 14.6576C15.7079 14.7536 15.7091 15.0265 15.7705 15.1238C15.7971 15.1658 15.8357 15.1929 15.8616 15.1875C15.9086 15.1778 15.9116 15.1287 15.8787 14.903C15.8658 14.8146 15.8752 14.7729 15.9255 14.6955C15.9659 14.6334 16.0276 14.5846 16.0978 14.5592C16.1927 14.5249 16.2206 14.5249 16.3075 14.5592C16.5824 14.6677 16.6036 15.0476 16.3433 15.2017C16.2868 15.2352 16.2441 15.2741 16.2486 15.2883C16.253 15.3024 16.2767 15.3271 16.3013 15.3432C16.3346 15.365 16.3681 15.36 16.4331 15.3237C16.6054 15.2274 16.6972 14.9965 16.6553 14.7648C16.6291 14.6198 16.4795 14.46 16.3346 14.4221C16.1993 14.3868 16.1518 14.3866 16.04 14.4207ZM14.9026 15.3297C14.938 15.4524 15.0633 15.5759 15.1762 15.5993C15.2178 15.6079 15.2625 15.629 15.2754 15.6463C15.3146 15.6984 15.3663 16.1856 15.3472 16.3231C15.311 16.5839 15.3107 16.5843 15.1957 16.5683C15.1388 16.5604 15.019 16.5145 14.9296 16.4662C14.8094 16.4013 14.7123 16.3727 14.5571 16.3565C14.4404 16.3443 14.3173 16.3143 14.2799 16.2888C14.2429 16.2637 14.1831 16.1946 14.147 16.1354C14.1109 16.0761 14.0569 16.0196 14.0271 16.0097C13.9972 15.9999 13.9727 15.9754 13.9727 15.9554C13.9727 15.8976 14.1964 15.6318 14.3375 15.522C14.5537 15.3538 14.7561 15.237 14.8554 15.2233C14.8641 15.2221 14.8853 15.27 14.9026 15.3297ZM14.1872 16.7591C14.2819 16.7883 14.3659 16.8394 14.4321 16.908C14.4875 16.9655 14.5329 17.025 14.5329 17.0404C14.5329 17.0557 14.5118 17.0952 14.486 17.1283C14.442 17.1846 14.4313 17.1862 14.3132 17.1534C14.1341 17.1038 14.0502 17.14 14.0005 17.2884C13.9631 17.4001 13.9648 17.413 14.0444 17.6198C14.09 17.7381 14.135 17.8704 14.1445 17.9137C14.1542 17.9583 14.1434 18.0577 14.1195 18.1432C14.089 18.2519 14.0422 18.331 13.9516 18.4271C13.8765 18.5067 13.7748 18.5801 13.6987 18.6096C13.6287 18.6368 13.5662 18.6536 13.5598 18.647C13.5535 18.6404 13.5802 18.567 13.6193 18.4839C13.6701 18.3757 13.6929 18.278 13.6995 18.1393C13.7087 17.9483 13.7073 17.9437 13.6006 17.8073C13.541 17.7313 13.4608 17.6023 13.4224 17.5206C13.3647 17.3982 13.3552 17.3481 13.3682 17.2343C13.3953 16.9971 13.5391 16.8013 13.7303 16.7412C13.8458 16.7049 14.0353 16.7123 14.1872 16.7591ZM18.1952 17.6584C18.2661 17.7403 18.3618 17.8755 18.4079 17.9589C18.4716 18.0741 18.4926 18.1472 18.4955 18.264C18.4976 18.3484 18.5131 18.4443 18.53 18.4771C18.5681 18.5509 18.5702 18.697 18.5336 18.7205C18.4946 18.7455 18.2558 18.5866 18.2449 18.5284C18.2399 18.5015 18.2685 18.4441 18.3085 18.4008C18.3675 18.3369 18.3782 18.3057 18.3647 18.2357C18.3463 18.1406 18.1946 17.9336 18.0925 17.8642C18.0296 17.8214 18.0224 17.8239 17.8888 17.9334C17.8127 17.9958 17.6912 18.0779 17.6189 18.1159L17.4875 18.185L17.4998 18.093C17.5066 18.0424 17.5396 17.9014 17.5732 17.7797C17.6069 17.658 17.639 17.5412 17.6446 17.5202C17.6526 17.4904 17.6999 17.485 17.8605 17.4957L18.0662 17.5094L18.1952 17.6584ZM15.6988 18.5304C15.7363 18.5402 15.7599 18.5671 15.7599 18.6C15.7599 18.7344 15.6023 18.9194 15.3731 19.054C15.2998 19.0971 15.2308 19.1454 15.2198 19.1614C15.2088 19.1773 15.2052 19.2215 15.2117 19.2595C15.2597 19.5392 15.2593 19.5638 15.2074 19.5638C15.1797 19.5638 15.1438 19.5775 15.1275 19.5944C15.0797 19.644 15.0369 19.5267 15.0204 19.3001C15.0065 19.1097 15.01 19.0914 15.076 19.0101C15.1147 18.9624 15.1541 18.89 15.1634 18.8494C15.1728 18.8087 15.2178 18.7094 15.2634 18.6287L15.3465 18.4819L15.4921 18.4982C15.5721 18.5072 15.6652 18.5217 15.6988 18.5304ZM5.71187 19.1852C5.62115 19.2337 5.54611 19.2892 5.54515 19.3086C5.54419 19.328 5.57226 19.3552 5.60752 19.3691C5.66282 19.3909 5.6729 19.4156 5.68088 19.5483C5.68595 19.6329 5.6841 19.699 5.67677 19.6952C5.66943 19.6914 5.61251 19.6571 5.55028 19.6191C5.45417 19.5604 5.43707 19.5364 5.43691 19.46C5.43677 19.4106 5.4273 19.3701 5.41583 19.3701C5.40434 19.3701 5.31732 19.4231 5.22244 19.4877C5.06794 19.5929 5.04905 19.6158 5.04177 19.7064C5.0354 19.7859 5.0466 19.8169 5.09437 19.8516C5.15199 19.8934 5.15693 19.8921 5.19006 19.8265C5.20926 19.7885 5.23108 19.7574 5.23855 19.7574C5.24599 19.7574 5.30009 19.7828 5.35878 19.8138C5.4667 19.8709 5.56978 20.0083 5.56996 20.0953C5.57012 20.1635 5.48687 20.1999 5.33042 20.1999C5.17896 20.1999 5.08216 20.158 4.98525 20.0504C4.94966 20.011 4.91197 19.9787 4.90143 19.9787C4.8714 19.9787 4.79649 20.1927 4.79649 20.2786C4.79649 20.4951 4.98885 20.8078 5.17995 20.9018C5.29686 20.9593 5.46993 20.9593 5.58698 20.9017C5.63737 20.8769 5.71371 20.8124 5.75658 20.7585L5.83455 20.6604L5.86237 20.7363C5.90089 20.8413 5.8971 20.959 5.8516 21.072C5.81535 21.1619 5.81636 21.1696 5.86867 21.1986C5.89999 21.216 5.99383 21.2243 6.0833 21.2175C6.21059 21.208 6.24537 21.2143 6.2578 21.2491C6.27541 21.2984 6.59194 21.8878 7.14016 22.8921C7.34636 23.2698 7.52177 23.6007 7.52996 23.6275C7.54157 23.6654 7.5214 23.6834 7.43844 23.7092C7.37074 23.7302 7.30565 23.7781 7.25958 23.8407C7.20271 23.9181 7.18756 23.9681 7.18908 24.0734C7.19226 24.2923 7.33705 24.4743 7.55229 24.53C7.60727 24.5443 7.62277 24.5614 7.61044 24.5944C7.57008 24.7025 7.56861 24.7882 7.60551 24.8797C7.65171 24.9944 7.79389 25.1158 7.91014 25.1399C7.98696 25.1559 7.99091 25.1629 7.97824 25.2608C7.96084 25.3953 8.02044 25.4909 8.16643 25.5627C8.22757 25.5927 8.35873 25.6259 8.45791 25.6364L8.63823 25.6555L8.92066 26.1735C9.1155 26.5308 9.22631 26.7056 9.27795 26.7372C9.3783 26.7987 9.51226 26.7949 9.61867 26.7277C9.76632 26.6343 9.79907 26.4494 9.7027 26.2535C9.67223 26.1916 9.5101 25.9049 9.3424 25.6164L9.03745 25.0918L9.15255 24.9725C9.26376 24.8572 9.33125 24.7051 9.33125 24.5697C9.33125 24.4736 9.51749 24.3088 9.76538 24.1855C9.88606 24.1254 10.1588 24.0206 10.3716 23.9525C10.5843 23.8844 10.8424 23.7958 10.9451 23.7556C11.1926 23.6587 11.4583 23.5067 11.5651 23.4009C11.6512 23.3155 11.652 23.3153 11.744 23.3608C11.8312 23.4039 12.0262 23.4445 12.288 23.4739C12.3965 23.4861 12.4029 23.4831 12.388 23.427C12.3793 23.394 12.3645 23.2605 12.3552 23.1303C12.3266 22.731 12.4147 22.3855 12.5969 22.1823L12.6672 22.1039L12.598 22.0475C12.3859 21.8745 12.2608 21.6513 12.1964 21.331C12.1752 21.2256 12.1525 20.9762 12.146 20.7768C12.1395 20.5773 12.1276 20.4074 12.1198 20.3992C12.1119 20.391 12.1054 20.3995 12.1054 20.4179C12.1054 20.4807 11.9125 20.7647 11.7486 20.9431C11.6588 21.0409 11.5058 21.1746 11.4088 21.2402C11.2309 21.3605 10.8846 21.5 10.7637 21.5C10.7277 21.5 10.6608 21.5078 10.615 21.5173C10.5428 21.5322 10.5316 21.5462 10.5316 21.6216C10.5316 21.6782 10.5607 21.7452 10.6147 21.8132C10.6604 21.8707 10.6894 21.9264 10.6792 21.937C10.6689 21.9477 10.5715 21.9564 10.4627 21.9564H10.2649L10.2651 22.0532C10.2655 22.1996 10.3769 22.4212 10.4954 22.5113C10.552 22.5543 10.6092 22.599 10.6225 22.6105C10.6565 22.6402 10.3781 23.0146 10.1351 23.266C9.82175 23.5901 9.54206 23.7061 9.14295 23.6778C9.0291 23.6697 8.89927 23.6422 8.84854 23.6154C8.7986 23.589 8.68969 23.5007 8.60649 23.419C8.52331 23.3374 8.42128 23.2567 8.37975 23.2398C8.33824 23.2229 8.22058 23.1941 8.11833 23.1757L7.93241 23.1423L7.7818 22.8813C7.69898 22.7377 7.41395 22.2417 7.1484 21.7791L6.66561 20.938L6.74214 20.8476C6.82014 20.7555 6.868 20.6113 6.83753 20.5602C6.82825 20.5446 6.78456 20.5319 6.74044 20.5319C6.69634 20.5319 6.63403 20.5179 6.60197 20.5008C6.53197 20.4634 6.42367 20.3639 6.42367 20.337C6.42367 20.3264 6.46963 20.31 6.52581 20.3007C6.65454 20.2794 6.79077 20.1852 6.87242 20.061C6.92785 19.9767 6.93423 19.9409 6.92409 19.7701C6.91433 19.6054 6.89782 19.5514 6.81755 19.4213C6.74468 19.3031 6.68962 19.2503 6.58121 19.1942C6.50348 19.1541 6.40494 19.1212 6.36224 19.1212C6.29856 19.1212 6.28813 19.1299 6.30427 19.1696C6.31508 19.1962 6.32969 19.2813 6.33674 19.3587C6.34581 19.4586 6.33615 19.5268 6.30345 19.5938C6.24753 19.7084 6.15865 19.8127 6.11691 19.8127C6.10002 19.8127 6.05718 19.7807 6.0217 19.7415C5.96793 19.6822 5.95718 19.642 5.95704 19.4995C5.95686 19.3336 5.95899 19.3284 6.03021 19.3199C6.08204 19.3137 6.10357 19.2955 6.10357 19.2577C6.10357 19.1844 6.00983 19.0931 5.93685 19.0953C5.90385 19.0963 5.8026 19.1367 5.71187 19.1852ZM13.7611 19.5103C13.8343 19.5862 13.8696 19.6535 13.8929 19.7618C13.9214 19.8944 13.9187 19.9265 13.8661 20.0755C13.8339 20.1668 13.8016 20.2861 13.7943 20.3406C13.783 20.4263 13.7927 20.4499 13.8657 20.5135C13.9339 20.5731 13.9765 20.587 14.0881 20.586C14.2184 20.5848 14.3508 20.564 14.5091 20.5196C14.5764 20.5008 14.5803 20.5065 14.6237 20.6858C14.6485 20.7879 14.6872 20.9085 14.7098 20.9538C14.734 21.0024 14.741 21.0463 14.7269 21.0609C14.6868 21.1025 14.2925 21.1717 14.0661 21.1769C13.9487 21.1796 13.8006 21.1655 13.7369 21.1455C13.596 21.1014 13.3983 20.9188 13.3619 20.7993C13.2711 20.5014 13.3033 20.35 13.5074 20.1127C13.5878 20.0193 13.6608 19.9129 13.6697 19.8762C13.6937 19.7771 13.6647 19.6048 13.6037 19.4835L13.5499 19.3764L13.6055 19.3915C13.636 19.3998 13.706 19.4532 13.7611 19.5103ZM16.4535 19.9478C16.4535 19.9612 16.4775 19.9787 16.5068 19.9867C16.5888 20.0089 16.5701 20.0616 16.4802 20.0616C16.3853 20.0616 16.3763 20.093 16.4601 20.1312C16.5106 20.1541 16.5214 20.1834 16.5281 20.3153C16.5356 20.4629 16.5409 20.4738 16.6188 20.502C16.7158 20.537 16.8791 20.5406 16.9276 20.5087C16.9535 20.4916 16.9486 20.4742 16.907 20.4351C16.8769 20.4069 16.8338 20.3174 16.811 20.2362C16.7882 20.1551 16.7394 20.0515 16.7025 20.006C16.6522 19.944 16.6128 19.9233 16.5445 19.9233C16.4944 19.9233 16.4535 19.9344 16.4535 19.9478ZM24.0158 20.0522C23.9865 20.0603 23.9532 20.0761 23.9419 20.0871C23.9306 20.0981 23.9447 20.1622 23.9733 20.2296C24.0019 20.297 24.034 20.4315 24.0445 20.5287L24.0636 20.7053L23.933 20.6857C23.8612 20.675 23.7373 20.6357 23.6577 20.5983C23.5545 20.55 23.5048 20.539 23.4843 20.5602C23.4676 20.5776 23.4557 20.7094 23.4557 20.8776C23.4557 21.2012 23.479 21.2592 23.581 21.1899C23.6523 21.1416 23.9183 21.0574 23.9999 21.0574C24.0307 21.0574 24.0559 21.0694 24.0559 21.0839C24.0559 21.0985 24.0423 21.2054 24.0256 21.3214C24.009 21.4373 23.982 21.5362 23.9656 21.5412C23.5133 21.6772 23.2552 21.8271 23.0273 22.0862C22.9531 22.1706 22.8492 22.3253 22.7965 22.43C22.5838 22.8519 22.5473 23.1937 22.6571 23.7336L22.6754 23.8234L22.5625 23.7821C22.363 23.7092 22.1275 23.5407 21.9062 23.3127C21.6962 23.0963 21.3617 22.6776 21.3617 22.631C21.3617 22.6183 21.3947 22.59 21.435 22.5683C21.4754 22.5465 21.5347 22.4995 21.5668 22.4638C21.6502 22.3711 21.7339 22.1663 21.7345 22.0532L21.7351 21.9564H21.5373C21.4285 21.9564 21.3311 21.9477 21.3208 21.937C21.3106 21.9264 21.3396 21.8707 21.3853 21.8132C21.4393 21.7452 21.4684 21.6782 21.4684 21.6216C21.4684 21.5462 21.4572 21.5322 21.385 21.5173C21.3392 21.5078 21.2723 21.5 21.2363 21.5C21.1147 21.5 20.7687 21.3602 20.5912 21.2395C20.4942 21.1734 20.3409 21.04 20.2506 20.9432C20.0884 20.7691 19.8946 20.4831 19.8946 20.4179C19.8946 20.3995 19.8877 20.3915 19.8793 20.4002C19.8709 20.4089 19.8595 20.5767 19.854 20.7731C19.8364 21.3993 19.7378 21.716 19.4823 21.9666L19.3372 22.1089L19.4003 22.1744C19.5037 22.2815 19.598 22.506 19.6305 22.7219C19.6588 22.9099 19.6489 23.285 19.612 23.4262C19.5974 23.4817 19.6044 23.4846 19.7255 23.4735C19.9437 23.4535 20.1634 23.4066 20.2579 23.3599C20.3457 23.3165 20.3501 23.3172 20.4214 23.3866C20.5331 23.4953 20.766 23.6404 20.9882 23.7398C21.0983 23.7891 21.3623 23.8891 21.5751 23.9622C22.1521 24.1603 22.3965 24.2585 22.5887 24.3695C22.7057 24.437 22.8837 24.5928 23.1356 24.8479C23.5062 25.2235 23.5101 25.2264 23.6573 25.2454C23.8702 25.2728 24.0164 25.2306 24.139 25.1065L24.2419 25.0023L24.3459 25.0629C24.4652 25.1324 24.613 25.141 24.7174 25.0845C24.757 25.063 24.8245 25.0072 24.8674 24.9604C24.9357 24.8859 24.9578 24.8775 25.0462 24.8921C25.1016 24.9013 25.1747 24.9017 25.2085 24.8929C25.2631 24.8786 25.4743 24.6842 25.6136 24.5199C25.6464 24.4812 25.671 24.3945 25.6837 24.2732C25.6957 24.158 25.7373 24.0066 25.7921 23.8788C25.8797 23.6742 25.881 23.6655 25.882 23.2564C25.883 22.8866 25.8763 22.8235 25.8211 22.6755C25.7232 22.4135 25.6071 22.2239 25.4319 22.0397C25.2026 21.7986 24.957 21.6603 24.5458 21.5406C24.5291 21.5358 24.5021 21.4521 24.4858 21.3546C24.4416 21.0916 24.4453 21.0574 24.5178 21.0574C24.6023 21.0574 24.8568 21.1377 24.9217 21.1849C24.9508 21.2061 24.9831 21.2234 24.9933 21.2234C25.0036 21.2234 25.0264 21.1782 25.044 21.1229C25.0803 21.009 25.0667 20.6009 25.0252 20.5578C25.0078 20.5398 24.9494 20.5536 24.8541 20.5983C24.7745 20.6357 24.6505 20.675 24.5785 20.6858L24.4476 20.7054L24.4645 20.5177C24.4739 20.4131 24.506 20.2812 24.5369 20.2196C24.5757 20.1424 24.584 20.1003 24.5644 20.0801C24.5346 20.0491 24.1052 20.0273 24.0158 20.0522ZM13.9183 22.3367C13.9177 22.3405 13.9134 22.4074 13.9088 22.4854C13.9035 22.575 13.8677 22.6971 13.8116 22.8173C13.7433 22.9639 13.6613 23.0711 13.4543 23.2847C13.25 23.4956 13.1427 23.5833 13.0057 23.6514C12.9067 23.7007 12.8257 23.7531 12.8257 23.7679C12.8257 23.7827 12.8857 23.8412 12.959 23.898C13.0324 23.9548 13.0924 24.0095 13.0924 24.0196C13.0924 24.0297 12.9733 24.1565 12.8278 24.3013C12.5584 24.5695 12.1011 24.9629 11.8207 25.168C11.6621 25.2839 11.163 25.5937 11.1349 25.5937C11.1263 25.5937 11.0491 25.629 10.9634 25.672C10.8295 25.7393 10.5929 25.8253 10.3449 25.8969C10.3068 25.9079 10.2748 25.94 10.2703 25.9716C10.2659 26.0021 10.2879 26.0981 10.3192 26.1849C10.3933 26.39 10.5798 26.5845 10.8114 26.6979C10.9268 26.7545 11.0834 26.8001 11.2681 26.8309C11.5342 26.8752 11.5612 26.8752 11.7774 26.829C12.1347 26.7527 12.4155 26.5848 12.7849 26.2265C12.9891 26.0284 13.2948 25.6436 13.5013 25.3248C13.5823 25.1997 13.7412 24.9284 13.8544 24.7219C14.0599 24.347 14.0605 24.3464 14.1432 24.3644C14.1888 24.3744 14.2366 24.3926 14.2494 24.4051C14.2816 24.4364 13.9126 25.2151 13.6916 25.5821C13.3991 26.0679 13.1582 26.388 12.8281 26.7297C12.5246 27.0437 12.2266 27.275 11.9643 27.3999C11.8499 27.4544 11.8384 27.468 11.8543 27.5299C11.864 27.568 11.8752 27.6247 11.8791 27.656C11.883 27.6872 12.0266 27.9192 12.1982 28.1715C12.5676 28.7145 12.5974 28.7368 12.9099 28.7064C13.0492 28.6928 13.1643 28.6593 13.3084 28.5903C13.4999 28.4986 13.5255 28.475 13.7752 28.1602C14.1822 27.647 14.3026 27.471 14.4475 27.1781C14.6235 26.8223 14.7538 26.492 14.8919 26.0511C15.0019 25.7004 15.1687 25.0438 15.2261 24.7362C15.2417 24.6526 15.2637 24.5689 15.2749 24.5504C15.2887 24.5274 15.3206 24.5238 15.3742 24.5388C15.4507 24.5604 15.4529 24.5657 15.4454 24.7109C15.4337 24.9373 15.363 25.55 15.318 25.815C15.2699 26.0987 15.2218 26.3296 15.1195 26.7693C14.9246 27.6062 14.9059 27.7223 14.9255 27.9726L14.9396 28.1523L15.4563 28.5761L15.973 29L16.5181 28.6038L17.0633 28.2076L17.0815 28.0624C17.1107 27.8304 17.0773 27.6252 16.8414 26.5895C16.7876 26.3537 16.7209 26.0301 16.6931 25.8703C16.6394 25.5617 16.5675 24.9598 16.5546 24.7109C16.5471 24.5657 16.5493 24.5604 16.6258 24.5388C16.6794 24.5238 16.7113 24.5274 16.7251 24.5504C16.7363 24.5689 16.7584 24.6526 16.7742 24.7362C16.8232 24.9961 16.9851 25.6497 17.0721 25.9395C17.1769 26.2884 17.3123 26.6634 17.4145 26.8881C17.4581 26.9838 17.4938 27.0677 17.4938 27.0744C17.4938 27.0812 17.5707 27.2206 17.6647 27.3844C17.7586 27.5481 17.9001 27.7568 17.9789 27.848C18.0578 27.9393 18.1656 28.0675 18.2185 28.1328C18.2713 28.1981 18.4021 28.3195 18.5091 28.4025L18.7035 28.5534L18.9456 28.5517C19.2967 28.5493 19.4284 28.5208 19.525 28.4262C19.5701 28.382 19.6803 28.2463 19.7697 28.1246C19.8592 28.0029 19.9479 27.8869 19.9668 27.8668C20.0202 27.8101 20.1292 27.6067 20.1473 27.5299C20.1618 27.4683 20.149 27.4536 20.0285 27.3945C19.7563 27.2608 19.4743 27.042 19.1712 26.7294C18.6904 26.2335 18.3209 25.678 17.9409 24.8799C17.8177 24.6212 17.7364 24.419 17.75 24.4057C17.7632 24.3929 17.8111 24.3744 17.8565 24.3645C17.9387 24.3466 17.94 24.3482 18.1328 24.7004C18.3891 25.1688 18.5735 25.4565 18.8271 25.7834C19.1582 26.2102 19.5031 26.5232 19.8325 26.6956C19.9215 26.7422 20.0952 26.8018 20.2184 26.8281C20.4287 26.873 20.4601 26.8731 20.7271 26.8303C20.9197 26.7994 21.0685 26.7568 21.1879 26.6983C21.4203 26.5845 21.6066 26.3903 21.6808 26.1849C21.7121 26.0981 21.7341 26.0021 21.7297 25.9716C21.7248 25.9371 21.6915 25.9072 21.6418 25.8926C21.1653 25.7525 20.9437 25.6533 20.5237 25.392C20.1878 25.1831 20.0542 25.0851 19.7078 24.7934C19.4331 24.5621 18.9076 24.0534 18.9076 24.0188C18.9076 24.0091 18.9676 23.9548 19.041 23.898C19.1143 23.8412 19.1743 23.7845 19.1743 23.7719C19.1743 23.7594 19.1293 23.7255 19.0743 23.6964C18.7568 23.529 18.4372 23.2282 18.2447 22.9157C18.1421 22.7493 18.0676 22.5045 18.0858 22.3937C18.0918 22.3568 18.0743 22.3413 18.019 22.3347C17.9103 22.3218 17.2688 22.407 17.0951 22.4574C16.6526 22.5859 16.4317 22.7106 16.1547 22.9887L16.0027 23.1413L15.8206 22.9632C15.6949 22.8402 15.5604 22.7444 15.3858 22.6535C15.2468 22.5811 15.0456 22.4971 14.9387 22.4669C14.7004 22.3996 13.9238 22.3005 13.9183 22.3367Z" fill="#8D97A5"/>
</svg>
