<svg width="325" height="103" viewBox="0 0 325 103" fill="none" xmlns="http://www.w3.org/2000/svg">
<path fill-rule="evenodd" clip-rule="evenodd" d="M286.431 0.157983C286.316 0.0571862 286.169 0 286.016 0C282.523 0 281.175 4.54747 284.103 6.45085L302.173 18.1941C303.629 19.1406 305.349 17.4367 304.416 15.9715C304.334 15.8416 304.233 15.7243 304.117 15.6229L286.431 0.157983ZM259.902 8.82394C255.4 6.74523 256.882 0 261.841 0C262.735 0 263.611 0.259491 264.361 0.747025L313.86 32.9165C314.639 33.4231 315.696 33.688 316.195 34.4723L321.86 43.3696C324.989 48.2845 324.989 54.5667 321.86 59.4815L314.671 70.7736C314.003 71.8219 312.012 71.8138 310.88 72.3264L244.543 102.36C243.828 102.684 243.052 102.851 242.267 102.851C235.881 102.851 234.594 93.8132 240.726 92.0313L310.656 71.7115C311.644 71.4244 312.211 70.3932 311.923 69.4081L311.29 67.2433C311.002 66.2583 309.968 65.6925 308.98 65.9795L187.146 101.382C183.792 102.356 180.316 102.851 176.822 102.851H38.667L308.828 65.2556C309.847 65.1138 310.558 64.175 310.416 63.1589L310.103 60.9256C309.961 59.9095 309.02 59.2007 308 59.3425L21.3288 99.2356C13.3025 100.353 3.94907 99.1213 1.19739 91.4992C0.425548 89.3612 0 87.0203 0 84.5665C0 68.8532 12.8023 56.1491 28.5151 56.27L307.943 58.4209C308.972 58.4289 309.812 57.6035 309.82 56.5775L309.838 54.3228C309.846 53.2968 309.018 52.4586 307.989 52.4507L31.7943 50.3246C14.1953 50.1892 0 35.8841 0 18.2846C0 11.0651 7.87469 7.80594 15.0175 8.8557L308.026 51.9187C309.044 52.0683 309.991 51.3667 310.141 50.3517L310.471 48.1209C310.621 47.1059 309.918 46.1617 308.9 46.0121L16.3545 3.01723C13.9164 2.65891 13.6336 0 16.0979 0H152.103C155.69 0 159.258 0.521644 162.695 1.54855L309.058 45.279C310.044 45.5735 311.083 45.0155 311.378 44.0327L312.027 41.8727C312.323 40.8899 311.763 39.8544 310.777 39.5598L223.089 13.3602C215.554 11.1089 217.178 0 225.042 0C226.03 0 227.005 0.214412 227.902 0.628419L310.988 38.9912C311.922 39.4224 313.03 39.0172 313.462 38.0861L314.412 36.04C314.845 35.109 314.438 34.0047 313.505 33.5735L259.902 8.82394ZM272.946 96.0578C269.461 97.6358 270.586 102.851 274.412 102.851C275.091 102.851 275.756 102.657 276.328 102.291L306.984 82.6854C307.098 82.6123 307.195 82.515 307.268 82.4005C307.766 81.618 306.941 80.6668 306.096 81.0494L272.946 96.0578ZM293.151 101.045C291.466 101.957 290.751 100.16 292.365 99.1276L298.174 95.4129C298.497 95.2063 298.875 95.5835 298.669 95.9071C297.275 98.0966 295.363 99.8488 293.151 101.045Z" fill="url(#paint0_linear_37_6549)"/>
<defs>
<linearGradient id="paint0_linear_37_6549" x1="-54.5737" y1="52.825" x2="310.075" y2="52.825" gradientUnits="userSpaceOnUse">
<stop stop-color="#FFDD2D"/>
<stop offset="0.345783" stop-color="#FF7777"/>
<stop offset="0.687129" stop-color="#1975FF" stop-opacity="0.28"/>
<stop offset="0.893464" stop-color="#252627" stop-opacity="0"/>
</linearGradient>
</defs>
</svg>
