<svg width="185" height="74" viewBox="0 0 185 74" fill="none" xmlns="http://www.w3.org/2000/svg">
<path d="M118.157 71.1914L115.545 63.0514C114.933 61.1435 116.38 59.2 118.414 59.2H125.59H132.766C134.799 59.2 136.246 61.1435 135.634 63.0514L133.022 71.1914C132.626 72.4227 131.466 73.26 130.153 73.26H125.59H121.026C119.713 73.26 118.553 72.4227 118.157 71.1914Z" fill="url(#paint0_linear_37_6524)"/>
<path d="M118.157 71.1914L115.545 63.0514C114.933 61.1435 116.38 59.2 118.414 59.2H125.59H132.766C134.799 59.2 136.246 61.1435 135.634 63.0514L133.022 71.1914C132.626 72.4227 131.466 73.26 130.153 73.26H125.59H121.026C119.713 73.26 118.553 72.4227 118.157 71.1914Z" fill="url(#paint1_linear_37_6524)"/>
<path d="M11.3683 68.2314L8.75602 60.0914C8.14376 58.1835 9.59133 56.24 11.6245 56.24H18.8005H25.9766C28.0097 56.24 29.4573 58.1835 28.845 60.0914L26.2327 68.2314C25.8374 69.4628 24.6766 70.3 23.3641 70.3H18.8005H14.2368C12.9244 70.3 11.7635 69.4628 11.3683 68.2314Z" fill="url(#paint2_linear_37_6524)"/>
<path d="M11.3683 68.2314L8.75602 60.0914C8.14376 58.1835 9.59133 56.24 11.6245 56.24H18.8005H25.9766C28.0097 56.24 29.4573 58.1835 28.845 60.0914L26.2327 68.2314C25.8374 69.4628 24.6766 70.3 23.3641 70.3H18.8005H14.2368C12.9244 70.3 11.7635 69.4628 11.3683 68.2314Z" fill="url(#paint3_linear_37_6524)"/>
<path d="M50.4747 66.7514L47.8625 58.6114C47.2502 56.7035 48.6977 54.76 50.7309 54.76H57.9069H65.083C67.1162 54.76 68.5637 56.7035 67.9514 58.6114L65.3391 66.7514C64.9439 67.9828 63.783 68.82 62.4706 68.82H57.9069H53.3433C52.0309 68.82 50.87 67.9828 50.4747 66.7514Z" fill="url(#paint4_linear_37_6524)"/>
<path d="M157.263 66.7514L154.651 58.6114C154.038 56.7035 155.485 54.76 157.519 54.76H164.695H171.871C173.904 54.76 175.351 56.7035 174.739 58.6114L172.126 66.7514C171.732 67.9828 170.571 68.82 169.258 68.82H164.695H160.131C158.818 68.82 157.657 67.9828 157.263 66.7514Z" fill="url(#paint5_linear_37_6524)"/>
<mask id="mask0_37_6524" style="mask-type:alpha" maskUnits="userSpaceOnUse" x="0" y="0" width="185" height="67">
<path fill-rule="evenodd" clip-rule="evenodd" d="M5.87482 2.85732C2.60814 2.9329 0 5.56038 0 8.77567V57.8243C0 61.0396 2.60814 63.6671 5.87482 63.7427L129.35 66.6L179.312 63.9126C182.502 63.7411 185 61.1455 185 58.0015V8.5985C185 5.45453 182.502 2.85892 179.312 2.68732L129.35 0L5.87482 2.85732Z" fill="#F8FAFC"/>
</mask>
<g mask="url(#mask0_37_6524)">
<path fill-rule="evenodd" clip-rule="evenodd" d="M5.87482 2.85732C2.60814 2.9329 0 5.56038 0 8.77567V57.8243C0 61.0396 2.60814 63.6671 5.87482 63.7427L129.35 66.6L179.312 63.9126C182.502 63.7411 185 61.1455 185 58.0015V8.5985C185 5.45453 182.502 2.85892 179.312 2.68732L129.35 0L5.87482 2.85732Z" fill="url(#paint6_linear_37_6524)"/>
<path d="M51.1381 44.3999H12.0324C11.2017 44.3999 10.5283 45.0625 10.5283 45.8799C10.5283 46.6973 11.2017 47.3599 12.0324 47.3599H51.1381C51.9688 47.3599 52.6421 46.6973 52.6421 45.8799C52.6421 45.0625 51.9688 44.3999 51.1381 44.3999Z" fill="#484C51"/>
<path d="M95.508 57.7199C106.722 57.7199 115.813 46.7867 115.813 33.2999C115.813 19.8131 106.722 8.87988 95.508 8.87988C84.2939 8.87988 75.2031 19.8131 75.2031 33.2999C75.2031 46.7867 84.2939 57.7199 95.508 57.7199Z" fill="#484C51"/>
<path fill-rule="evenodd" clip-rule="evenodd" d="M93.2521 56.2399C104.051 56.2399 112.805 46.7867 112.805 33.2999C112.805 19.8131 104.051 10.3599 93.2521 10.3599L75.2033 8.87988V23.8911C74.2344 26.7868 73.6992 29.9653 73.6992 33.2999C73.6992 36.6345 74.2344 39.8129 75.2033 42.7087V57.7199L93.2521 56.2399Z" fill="url(#paint7_radial_37_6524)"/>
<path d="M75.9553 57.7199C87.1693 57.7199 96.2601 46.7867 96.2601 33.2999C96.2601 19.8131 87.1693 8.87988 75.9553 8.87988C64.7412 8.87988 55.6504 19.8131 55.6504 33.2999C55.6504 46.7867 64.7412 57.7199 75.9553 57.7199Z" fill="url(#paint8_radial_37_6524)"/>
<path d="M75.9553 57.7199C87.1693 57.7199 96.2601 46.7867 96.2601 33.2999C96.2601 19.8131 87.1693 8.87988 75.9553 8.87988C64.7412 8.87988 55.6504 19.8131 55.6504 33.2999C55.6504 46.7867 64.7412 57.7199 75.9553 57.7199Z" fill="url(#paint9_radial_37_6524)"/>
<path d="M75.9553 57.7199C87.1693 57.7199 96.2601 46.7867 96.2601 33.2999C96.2601 19.8131 87.1693 8.87988 75.9553 8.87988C64.7412 8.87988 55.6504 19.8131 55.6504 33.2999C55.6504 46.7867 64.7412 57.7199 75.9553 57.7199Z" fill="url(#paint10_linear_37_6524)"/>
<path fill-rule="evenodd" clip-rule="evenodd" d="M87.7234 48.7799C90.9321 44.921 93.0114 39.4577 93.0114 33.2999C93.0114 27.142 90.9321 21.6788 87.7234 17.8198C84.5163 13.9626 80.3244 11.8399 75.9553 11.8399C71.5861 11.8399 67.3943 13.9626 64.1872 17.8198C60.9784 21.6788 58.8992 27.142 58.8992 33.2999C58.8992 39.4577 60.9784 44.921 64.1872 48.7799C67.3943 52.6371 71.5861 54.7599 75.9553 54.7599C80.3244 54.7599 84.5163 52.6371 87.7234 48.7799ZM75.9553 57.7199C87.1693 57.7199 96.2601 46.7867 96.2601 33.2999C96.2601 19.8131 87.1693 8.87988 75.9553 8.87988C64.7413 8.87988 55.6504 19.8131 55.6504 33.2999C55.6504 46.7867 64.7413 57.7199 75.9553 57.7199Z" fill="url(#paint11_linear_37_6524)"/>
</g>
<defs>
<linearGradient id="paint0_linear_37_6524" x1="122.581" y1="61.42" x2="129.181" y2="74.088" gradientUnits="userSpaceOnUse">
<stop stop-color="#A7A7A7"/>
<stop offset="1" stop-color="#989898"/>
</linearGradient>
<linearGradient id="paint1_linear_37_6524" x1="124.838" y1="59.2" x2="130.684" y2="75.5405" gradientUnits="userSpaceOnUse">
<stop stop-opacity="0.58"/>
<stop offset="1" stop-opacity="0.08"/>
</linearGradient>
<linearGradient id="paint2_linear_37_6524" x1="15.7924" y1="58.46" x2="22.3917" y2="71.128" gradientUnits="userSpaceOnUse">
<stop stop-color="#A7A7A7"/>
<stop offset="1" stop-color="#989898"/>
</linearGradient>
<linearGradient id="paint3_linear_37_6524" x1="18.0485" y1="56.24" x2="23.8954" y2="72.5806" gradientUnits="userSpaceOnUse">
<stop stop-opacity="0.58"/>
<stop offset="1" stop-opacity="0.08"/>
</linearGradient>
<linearGradient id="paint4_linear_37_6524" x1="57.9069" y1="54.76" x2="57.9069" y2="68.82" gradientUnits="userSpaceOnUse">
<stop stop-color="#747474"/>
<stop offset="1" stop-color="#454545"/>
</linearGradient>
<linearGradient id="paint5_linear_37_6524" x1="164.695" y1="54.76" x2="164.695" y2="68.82" gradientUnits="userSpaceOnUse">
<stop stop-color="#747474"/>
<stop offset="1" stop-color="#454545"/>
</linearGradient>
<linearGradient id="paint6_linear_37_6524" x1="-7.0007e-07" y1="32.56" x2="185" y2="32.56" gradientUnits="userSpaceOnUse">
<stop stop-color="#F7F7F8"/>
<stop offset="0.667981" stop-color="#F7F7F8"/>
<stop offset="0.740974" stop-color="#DADCE1"/>
<stop offset="1" stop-color="#C2C5CE"/>
</linearGradient>
<radialGradient id="paint7_radial_37_6524" cx="0" cy="0" r="1" gradientUnits="userSpaceOnUse" gradientTransform="translate(89.4919 19.2399) rotate(63.6811) scale(93.2904 74.2306)">
<stop stop-color="white"/>
<stop offset="1" stop-color="#8F8F8F"/>
</radialGradient>
<radialGradient id="paint8_radial_37_6524" cx="0" cy="0" r="1" gradientUnits="userSpaceOnUse" gradientTransform="translate(75.9553 33.2999) rotate(90) scale(24.42 20.3049)">
<stop stop-color="#000096"/>
<stop offset="1" stop-color="#00001D"/>
</radialGradient>
<radialGradient id="paint9_radial_37_6524" cx="0" cy="0" r="1" gradientUnits="userSpaceOnUse" gradientTransform="translate(71.4431 28.1199) rotate(81.3326) scale(29.9419 24.8783)">
<stop stop-color="white" stop-opacity="0.24"/>
<stop offset="1" stop-color="white" stop-opacity="0"/>
</radialGradient>
<linearGradient id="paint10_linear_37_6524" x1="63.9227" y1="11.8399" x2="82.9382" y2="60.1514" gradientUnits="userSpaceOnUse">
<stop offset="0.0425223" stop-color="white" stop-opacity="0"/>
<stop offset="0.276681" stop-color="white" stop-opacity="0.29"/>
<stop offset="0.425668" stop-color="white" stop-opacity="0"/>
<stop offset="0.74472" stop-color="white" stop-opacity="0.22"/>
<stop offset="1" stop-color="white" stop-opacity="0"/>
</linearGradient>
<linearGradient id="paint11_linear_37_6524" x1="59.7114" y1="13.3199" x2="94.0118" y2="66.6529" gradientUnits="userSpaceOnUse">
<stop stop-color="#E9E9E9"/>
<stop offset="1" stop-color="#CDCDCD"/>
</linearGradient>
</defs>
</svg>
