<svg width="90" height="141" viewBox="0 0 90 141" fill="none" xmlns="http://www.w3.org/2000/svg">
<g filter="url(#filter0_d_37_4711)">
<path d="M7 5.04899C7 2.83985 8.79086 1.04899 11 1.04899L73 1.04899C75.2091 1.04899 77 2.83985 77 5.04899V117.049C77 119.258 75.2091 121.049 73 121.049H11C8.79086 121.049 7 119.258 7 117.049L7 5.04899Z" fill="url(#paint0_linear_37_4711)"/>
<path d="M53.9995 29.0489C53.9995 22.4889 48.6787 17.0489 42.1027 17.0489H42.0667L41.8179 17.0513C35.3531 17.1881 29.9995 22.6081 29.9995 29.0865V29.4417L30.0051 29.5697C30.0835 30.6689 31.1739 31.5529 32.2915 31.5529C33.4539 31.5529 34.5835 30.6009 34.5835 29.4425V29.0865L34.5859 28.8657C34.6923 24.7617 37.7459 21.4601 41.8875 21.4601C46.1027 21.4601 49.5003 24.7641 49.5003 28.9697C49.5003 33.1745 46.0403 36.4777 41.8259 36.4777H41.4683L41.3363 36.4825C40.2563 36.5641 39.6291 37.6505 39.6291 38.7641C39.6291 39.9217 40.5851 41.0489 41.7459 41.0489H42.1035L42.3547 41.0465C48.8147 40.9089 53.9995 35.5257 53.9995 29.0489Z" fill="#0D0D0D"/>
<path d="M38.2435 34.2993C38.1675 33.3833 37.2707 32.7993 36.3715 32.7993H33.2139L33.0907 32.8033C32.1931 32.8625 31.4995 33.5673 31.4995 34.5129C31.4995 34.9089 31.5771 35.2633 31.8171 35.5185L35.3851 39.2401L35.4739 39.3169C35.7299 39.5057 36.1299 39.5489 36.4531 39.5489C37.3939 39.5489 38.2499 38.7241 38.2499 37.7377V34.4257L38.2435 34.2993Z" fill="#0D0D0D"/>
<path fill-rule="evenodd" clip-rule="evenodd" d="M41.9991 24.5489C42.59 24.5484 43.1753 24.6644 43.7213 24.8903C44.2675 25.1162 44.7638 25.4475 45.1819 25.8654C45.5999 26.2833 45.9314 26.7795 46.1575 27.3256C46.3836 27.8717 46.4998 28.457 46.4995 29.0481C46.4997 29.6391 46.3835 30.2244 46.1574 30.7705C45.9313 31.3166 45.5999 31.8128 45.182 32.2308C44.7641 32.6488 44.268 32.9803 43.7219 33.2065C43.1758 33.4326 42.5906 33.549 41.9995 33.5489C41.4084 33.5493 40.823 33.4332 40.2768 33.2071C39.7305 32.9811 39.2343 32.6496 38.8163 32.2315C38.3983 31.8135 38.0669 31.3172 37.841 30.7709C37.615 30.2247 37.499 29.6392 37.4995 29.0481C37.4991 28.4571 37.6152 27.8717 37.8412 27.3256C38.0672 26.7795 38.3987 26.2833 38.8166 25.8654C39.2346 25.4476 39.7308 25.1162 40.277 24.8903C40.823 24.6644 41.4082 24.5484 41.9991 24.5489ZM41.9995 27.7361C41.9995 27.0057 42.5795 26.4241 43.3115 26.4241C44.0419 26.4241 44.6243 27.0057 44.6243 27.7369C44.6254 27.9095 44.5921 28.0807 44.5265 28.2404C44.4609 28.4001 44.3642 28.5452 44.2421 28.6673C44.12 28.7893 43.9748 28.8859 43.8151 28.9514C43.6553 29.0169 43.4842 29.0501 43.3115 29.0489C42.5803 29.0489 41.9995 28.4665 41.9995 27.7361Z" fill="#0D0D0D"/>
<path d="M23 49.9973V49.0492H27.6273V49.9973H25.8347V55.2931H24.7926V49.9973H23Z" fill="black"/>
<path d="M29.9 55.3845C29.4752 55.3845 29.1071 55.2839 28.7956 55.0827C28.4841 54.8815 28.2424 54.6 28.0706 54.2382C27.9007 53.8764 27.8158 53.4536 27.8158 52.9699C27.8158 52.4861 27.9007 52.0624 28.0706 51.6985C28.2424 51.3347 28.4841 51.0522 28.7956 50.851C29.1071 50.6498 29.4752 50.5492 29.9 50.5492C30.3248 50.5492 30.6929 50.6498 31.0045 50.851C31.316 51.0522 31.5567 51.3347 31.7266 51.6985C31.8984 52.0624 31.9843 52.4861 31.9843 52.9699C31.9843 53.4536 31.8984 53.8764 31.7266 54.2382C31.5567 54.6 31.316 54.8815 31.0045 55.0827C30.6929 55.2839 30.3248 55.3845 29.9 55.3845ZM29.9057 54.5004C30.136 54.5004 30.3286 54.4323 30.4834 54.2961C30.6382 54.1579 30.7534 53.9729 30.8289 53.7412C30.9063 53.5095 30.945 53.2514 30.945 52.9668C30.945 52.6803 30.9063 52.4211 30.8289 52.1894C30.7534 51.9557 30.6382 51.7697 30.4834 51.6315C30.3286 51.4933 30.136 51.4242 29.9057 51.4242C29.6697 51.4242 29.4734 51.4933 29.3167 51.6315C29.1619 51.7697 29.0457 51.9557 28.9683 52.1894C28.8928 52.4211 28.8551 52.6803 28.8551 52.9668C28.8551 53.2514 28.8928 53.5095 28.9683 53.7412C29.0457 53.9729 29.1619 54.1579 29.3167 54.2961C29.4734 54.4323 29.6697 54.5004 29.9057 54.5004Z" fill="black"/>
<path d="M33.0139 55.2931V50.6101H36.6868V55.2931H35.6985V51.5156H33.9937V55.2931H33.0139Z" fill="black"/>
<path d="M37.9004 55.2931V50.6101H39.727C40.2424 50.6101 40.6492 50.7209 40.9475 50.9424C41.2477 51.164 41.3978 51.4729 41.3978 51.8693C41.3978 52.1315 41.3128 52.3459 41.1429 52.5126C40.9749 52.6772 40.7455 52.788 40.4548 52.8449C40.6832 52.8652 40.8833 52.9272 41.0551 53.0309C41.2288 53.1345 41.3647 53.2707 41.4629 53.4394C41.5611 53.6081 41.6102 53.8022 41.6102 54.0217C41.6102 54.2798 41.5469 54.5044 41.4204 54.6955C41.2958 54.8845 41.1136 55.0319 40.8739 55.1376C40.636 55.2412 40.3472 55.2931 40.0073 55.2931H37.9004ZM38.8604 54.4242H40.0073C40.1961 54.4242 40.3443 54.3764 40.4519 54.2809C40.5595 54.1833 40.6134 54.0512 40.6134 53.8845C40.6134 53.6914 40.5595 53.54 40.4519 53.4303C40.3443 53.3185 40.1961 53.2626 40.0073 53.2626H38.8604V54.4242ZM38.8604 52.5492H39.7468C39.8865 52.5492 40.0064 52.5278 40.1064 52.4851C40.2065 52.4404 40.283 52.3784 40.3358 52.2992C40.3887 52.2179 40.4151 52.1213 40.4151 52.0095C40.4151 51.849 40.3538 51.7229 40.2311 51.6315C40.1102 51.54 39.9422 51.4943 39.727 51.4943H38.8604V52.5492Z" fill="black"/>
<path d="M43.604 53.7992L45.3456 50.6101H46.399V55.2931H45.4079V52.101L43.672 55.2931H42.6157V50.6101H43.604V53.7992Z" fill="black"/>
<path d="M47.3706 54.0095H48.3872C48.3966 54.1843 48.4693 54.3195 48.6053 54.415C48.7412 54.5105 48.9177 54.5583 49.1348 54.5583C49.3557 54.5583 49.5417 54.5065 49.6927 54.4028C49.8456 54.2971 49.9221 54.1376 49.9221 53.9242C49.9221 53.7981 49.8928 53.6874 49.8343 53.5918C49.7758 53.4943 49.6936 53.4191 49.5879 53.3662C49.4822 53.3134 49.3576 53.287 49.2141 53.287H48.5486V52.5034H49.2141C49.4274 52.5034 49.5889 52.4506 49.6984 52.3449C49.8097 52.2392 49.8654 52.1061 49.8654 51.9455C49.8654 51.7727 49.8069 51.6325 49.6899 51.5248C49.5747 51.417 49.4152 51.3632 49.2113 51.3632C49.0074 51.3632 48.8375 51.413 48.7015 51.5126C48.5675 51.6122 48.4976 51.7402 48.492 51.8967H47.481C47.4848 51.6244 47.5603 51.3876 47.7076 51.1864C47.8567 50.9851 48.0568 50.8286 48.3079 50.7168C48.5609 50.6051 48.846 50.5492 49.1631 50.5492C49.503 50.5492 49.7965 50.604 50.0438 50.7138C50.2912 50.8235 50.4818 50.977 50.6159 51.1742C50.7499 51.3693 50.8169 51.599 50.8169 51.8632C50.8169 52.1172 50.7433 52.3276 50.5961 52.4943C50.4488 52.6589 50.2506 52.7768 50.0014 52.8479V52.8967C50.1732 52.9069 50.328 52.9597 50.4658 53.0553C50.6036 53.1487 50.7131 53.2758 50.7943 53.4364C50.8755 53.5969 50.9161 53.7829 50.9161 53.9943C50.9161 54.2809 50.8396 54.5288 50.6867 54.7382C50.5338 54.9455 50.3233 55.1051 50.0552 55.2168C49.789 55.3286 49.4841 55.3845 49.1405 55.3845C48.8063 55.3845 48.5071 55.3307 48.2428 55.2229C47.9804 55.1132 47.7717 54.9557 47.6169 54.7504C47.4621 54.5451 47.38 54.2981 47.3706 54.0095Z" fill="black"/>
<path d="M53.78 55.3845C53.3552 55.3845 52.9871 55.2839 52.6756 55.0827C52.364 54.8815 52.1224 54.6 51.9506 54.2382C51.7807 53.8764 51.6957 53.4536 51.6957 52.9699C51.6957 52.4861 51.7807 52.0624 51.9506 51.6985C52.1224 51.3347 52.364 51.0522 52.6756 50.851C52.9871 50.6498 53.3552 50.5492 53.78 50.5492C54.2048 50.5492 54.5729 50.6498 54.8844 50.851C55.1959 51.0522 55.4366 51.3347 55.6065 51.6985C55.7783 52.0624 55.8642 52.4861 55.8642 52.9699C55.8642 53.4536 55.7783 53.8764 55.6065 54.2382C55.4366 54.6 55.1959 54.8815 54.8844 55.0827C54.5729 55.2839 54.2048 55.3845 53.78 55.3845ZM53.7856 54.5004C54.016 54.5004 54.2085 54.4323 54.3633 54.2961C54.5181 54.1579 54.6333 53.9729 54.7088 53.7412C54.7862 53.5095 54.8249 53.2514 54.8249 52.9668C54.8249 52.6803 54.7862 52.4211 54.7088 52.1894C54.6333 51.9557 54.5181 51.7697 54.3633 51.6315C54.2085 51.4933 54.016 51.4242 53.7856 51.4242C53.5497 51.4242 53.3533 51.4933 53.1966 51.6315C53.0418 51.7697 52.9257 51.9557 52.8483 52.1894C52.7728 52.4211 52.735 52.6803 52.735 52.9668C52.735 53.2514 52.7728 53.5095 52.8483 53.7412C52.9257 53.9729 53.0418 54.1579 53.1966 54.2961C53.3533 54.4323 53.5497 54.5004 53.7856 54.5004Z" fill="black"/>
<path d="M56.8938 57.0492V50.6101H57.9019V51.3845H57.9614C58.0143 51.2707 58.0888 51.1498 58.1851 51.0217C58.2814 50.8916 58.4117 50.7809 58.5759 50.6894C58.7402 50.5959 58.9497 50.5492 59.2046 50.5492C59.5406 50.5492 59.8437 50.6416 60.1136 50.8266C60.3855 51.0095 60.6007 51.2809 60.7593 51.6406C60.9198 51.9983 61 52.4374 61 52.9577C61 53.4719 60.9217 53.9089 60.765 54.2687C60.6083 54.6284 60.3949 54.9028 60.125 55.0918C59.855 55.2809 59.5491 55.3754 59.2074 55.3754C58.9582 55.3754 58.7515 55.3307 58.5873 55.2412C58.423 55.1518 58.2909 55.0441 58.1908 54.9181C58.0926 54.79 58.0162 54.6691 57.9614 54.5553H57.9189V57.0492H56.8938ZM57.8991 52.9516C57.8991 53.2544 57.9388 53.5197 58.0181 53.7473C58.0992 53.975 58.2153 54.1528 58.3664 54.2809C58.5193 54.4069 58.7043 54.4699 58.9214 54.4699C59.148 54.4699 59.3377 54.4048 59.4906 54.2748C59.6435 54.1427 59.7587 53.9628 59.8361 53.7351C59.9154 53.5055 59.955 53.2443 59.955 52.9516C59.955 52.6609 59.9163 52.4028 59.8389 52.1772C59.7615 51.9516 59.6464 51.7748 59.4935 51.6467C59.3405 51.5187 59.1498 51.4546 58.9214 51.4546C58.7024 51.4546 58.5165 51.5166 58.3635 51.6406C58.2106 51.7646 58.0945 51.9384 58.0152 52.162C57.9378 52.3855 57.8991 52.6487 57.8991 52.9516Z" fill="black"/>
<path d="M13.2706 81.8848V78.0491H14.6635C14.9265 78.0491 15.145 78.0928 15.3192 78.1802C15.4945 78.2664 15.6254 78.3843 15.7118 78.5342C15.7995 78.684 15.8433 78.8538 15.8433 79.0436C15.8433 79.1997 15.8149 79.3333 15.758 79.4444C15.7012 79.5543 15.6248 79.6436 15.5288 79.7122C15.4329 79.7809 15.3257 79.8302 15.2072 79.8602V79.8977C15.3363 79.9052 15.4601 79.947 15.5786 80.0231C15.6982 80.0981 15.7959 80.2042 15.8717 80.3415C15.9476 80.4789 15.9855 80.645 15.9855 80.8397C15.9855 81.0383 15.9399 81.2168 15.8486 81.3754C15.7574 81.5327 15.62 81.657 15.4364 81.7481C15.2528 81.8392 15.0219 81.8848 14.7435 81.8848H13.2706ZM13.9297 81.3042H14.6387C14.8779 81.3042 15.0503 81.2561 15.1557 81.16C15.2623 81.0626 15.3156 80.9378 15.3156 80.7854C15.3156 80.6718 15.289 80.5694 15.2357 80.4783C15.1824 80.3859 15.1065 80.3134 15.0082 80.261C14.9099 80.2073 14.7927 80.1805 14.6564 80.1805H13.9297V81.3042ZM13.9297 79.6804H14.5818C14.6955 79.6804 14.798 79.6586 14.8892 79.6149C14.9804 79.5699 15.0521 79.5068 15.1042 79.4257C15.1575 79.3433 15.1841 79.2459 15.1841 79.1335C15.1841 78.9849 15.1344 78.8626 15.0349 78.7664C14.9366 78.6703 14.7903 78.6222 14.596 78.6222H13.9297V79.6804Z" fill="#68717D"/>
<path d="M17.821 81.941C17.5485 81.941 17.3146 81.878 17.1192 81.7518C16.9249 81.6257 16.7751 81.4516 16.6696 81.2293C16.5654 81.0058 16.5133 80.7486 16.5133 80.4577C16.5133 80.1655 16.5666 79.9077 16.6732 79.6841C16.7798 79.4594 16.9302 79.2846 17.1245 79.1597C17.3199 79.0336 17.5509 78.9706 17.8174 78.9706C18.0389 78.9706 18.235 79.0136 18.4055 79.0998C18.5773 79.1847 18.7141 79.3052 18.816 79.4613C18.9178 79.6161 18.9759 79.7971 18.9901 80.0044H18.3753C18.3505 79.8658 18.2912 79.7503 18.1977 79.6579C18.1053 79.5643 17.9815 79.5175 17.8263 79.5175C17.6948 79.5175 17.5793 79.5549 17.4798 79.6298C17.3803 79.7035 17.3028 79.8096 17.2471 79.9482C17.1926 80.0868 17.1654 80.2529 17.1654 80.4464C17.1654 80.6425 17.1926 80.811 17.2471 80.9521C17.3016 81.092 17.378 81.2 17.4763 81.2761C17.5758 81.351 17.6925 81.3885 17.8263 81.3885C17.9211 81.3885 18.0058 81.3698 18.0804 81.3323C18.1562 81.2936 18.2196 81.238 18.2705 81.1656C18.3214 81.0932 18.3564 81.0052 18.3753 80.9015H18.9901C18.9747 81.1051 18.9178 81.2855 18.8195 81.4428C18.7212 81.5989 18.5874 81.7213 18.418 81.8099C18.2486 81.8973 18.0496 81.941 17.821 81.941Z" fill="#68717D"/>
<path d="M20.8265 81.941C20.5529 81.941 20.3166 81.8811 20.1176 81.7612C19.9198 81.6401 19.7676 81.469 19.6609 81.248C19.5543 81.0258 19.501 80.7642 19.501 80.4633C19.501 80.1674 19.5543 79.9077 19.6609 79.6841C19.7687 79.4594 19.9192 79.2846 20.1122 79.1597C20.3053 79.0336 20.5322 78.9706 20.7927 78.9706C20.9609 78.9706 21.1197 78.9993 21.2689 79.0567C21.4194 79.1129 21.552 79.2003 21.6669 79.3189C21.783 79.4375 21.8742 79.5886 21.9405 79.7722C22.0069 79.9545 22.04 80.1717 22.04 80.424V80.6318H19.8031V80.1749H21.4235C21.4223 80.045 21.3957 79.9295 21.3435 79.8284C21.2914 79.726 21.2186 79.6454 21.125 79.5868C21.0326 79.5281 20.9248 79.4987 20.8016 79.4987C20.6702 79.4987 20.5547 79.5324 20.4552 79.5999C20.3557 79.666 20.2781 79.7534 20.2224 79.8621C20.1679 79.9695 20.1401 80.0875 20.1389 80.2161V80.615C20.1389 80.7823 20.1679 80.9259 20.226 81.0458C20.284 81.1644 20.3651 81.2555 20.4694 81.3192C20.5736 81.3816 20.6956 81.4128 20.8354 81.4128C20.929 81.4128 21.0137 81.3991 21.0895 81.3716C21.1653 81.3429 21.231 81.3011 21.2867 81.2462C21.3424 81.1912 21.3844 81.1232 21.4128 81.042L22.0134 81.1132C21.9755 81.2805 21.9032 81.4266 21.7966 81.5514C21.6912 81.6751 21.5562 81.7712 21.3915 81.8399C21.2269 81.9073 21.0385 81.941 20.8265 81.941Z" fill="#68717D"/>
<path d="M26.305 79.008V81.8848H25.6867V79.008H26.305ZM26.0154 80.3078V80.8622C25.9455 80.8947 25.8661 80.924 25.7773 80.9502C25.6896 80.9752 25.5966 80.9952 25.4983 81.0102C25.4012 81.0252 25.3041 81.0326 25.2069 81.0326C24.8421 81.0326 24.5537 80.9465 24.3416 80.7742C24.1308 80.6006 24.0254 80.3303 24.0254 79.9632V79.0043H24.6401V79.9632C24.6401 80.0868 24.6609 80.1861 24.7023 80.261C24.7438 80.3359 24.8066 80.3909 24.8907 80.4258C24.9748 80.4595 25.0802 80.4764 25.2069 80.4764C25.3491 80.4764 25.4841 80.4614 25.612 80.4314C25.74 80.4015 25.8744 80.3603 26.0154 80.3078Z" fill="#68717D"/>
<path d="M26.7466 79.5643V79.008H29.1346V79.5643H28.2515V81.8848H27.6297V79.5643H26.7466Z" fill="#68717D"/>
<path d="M30.8249 81.941C30.5584 81.941 30.3274 81.8792 30.1319 81.7556C29.9365 81.632 29.7849 81.459 29.6771 81.2368C29.5705 81.0145 29.5172 80.7548 29.5172 80.4577C29.5172 80.1605 29.5705 79.9002 29.6771 79.6767C29.7849 79.4532 29.9365 79.2796 30.1319 79.156C30.3274 79.0324 30.5584 78.9706 30.8249 78.9706C31.0914 78.9706 31.3224 79.0324 31.5178 79.156C31.7133 79.2796 31.8643 79.4532 31.9709 79.6767C32.0787 79.9002 32.1326 80.1605 32.1326 80.4577C32.1326 80.7548 32.0787 81.0145 31.9709 81.2368C31.8643 81.459 31.7133 81.632 31.5178 81.7556C31.3224 81.8792 31.0914 81.941 30.8249 81.941ZM30.8284 81.3979C30.9729 81.3979 31.0938 81.356 31.1909 81.2724C31.288 81.1875 31.3603 81.0739 31.4077 80.9315C31.4562 80.7892 31.4805 80.6306 31.4805 80.4558C31.4805 80.2797 31.4562 80.1205 31.4077 79.9782C31.3603 79.8346 31.288 79.7204 31.1909 79.6355C31.0938 79.5505 30.9729 79.5081 30.8284 79.5081C30.6804 79.5081 30.5572 79.5505 30.4589 79.6355C30.3617 79.7204 30.2889 79.8346 30.2403 79.9782C30.1929 80.1205 30.1692 80.2797 30.1692 80.4558C30.1692 80.6306 30.1929 80.7892 30.2403 80.9315C30.2889 81.0739 30.3617 81.1875 30.4589 81.2724C30.5572 81.356 30.6804 81.3979 30.8284 81.3979Z" fill="#68717D"/>
<path d="M35.9942 80.1655V80.7217H34.5408V80.1655H35.9942ZM34.7398 79.008V81.8848H34.1197V79.008H34.7398ZM36.4153 79.008V81.8848H35.797V79.008H36.4153Z" fill="#68717D"/>
<path d="M37.4681 82.9636C37.3805 82.9636 37.2993 82.9561 37.2247 82.9411C37.1513 82.9274 37.0926 82.9112 37.0488 82.8925L37.1981 82.3643C37.2916 82.393 37.3751 82.4067 37.4486 82.4055C37.522 82.4042 37.5866 82.3799 37.6423 82.3324C37.6991 82.2863 37.7471 82.2088 37.7862 82.1002L37.8413 81.9448L36.8516 79.008H37.5339L38.1628 81.1806H38.1913L38.822 79.008H39.5061L38.4134 82.2332C38.3624 82.3855 38.2949 82.516 38.2108 82.6246C38.1267 82.7345 38.0237 82.8182 37.9017 82.8756C37.7808 82.9343 37.6363 82.9636 37.4681 82.9636Z" fill="#68717D"/>
<path d="M39.8736 81.8848L40.881 80.3996L39.8824 79.008H40.6251L41.4016 80.1674H41.5544V79.008H42.1976V80.1674H42.3468L43.1233 79.008H43.8659L42.8727 80.3996L43.8748 81.8848H43.1162L42.3397 80.7236H42.1976V81.8848H41.5544V80.7236H41.4122L40.6322 81.8848H39.8736Z" fill="#68717D"/>
<path d="M46.3304 80.1655V80.7217H44.8771V80.1655H46.3304ZM45.0761 79.008V81.8848H44.456V79.008H45.0761ZM46.7515 79.008V81.8848H46.1332V79.008H46.7515Z" fill="#68717D"/>
<path d="M48.6928 81.941C48.4263 81.941 48.1953 81.8792 47.9998 81.7556C47.8044 81.632 47.6528 81.459 47.545 81.2368C47.4384 81.0145 47.3851 80.7548 47.3851 80.4577C47.3851 80.1605 47.4384 79.9002 47.545 79.6767C47.6528 79.4532 47.8044 79.2796 47.9998 79.156C48.1953 79.0324 48.4263 78.9706 48.6928 78.9706C48.9593 78.9706 49.1903 79.0324 49.3857 79.156C49.5812 79.2796 49.7322 79.4532 49.8388 79.6767C49.9466 79.9002 50.0005 80.1605 50.0005 80.4577C50.0005 80.7548 49.9466 81.0145 49.8388 81.2368C49.7322 81.459 49.5812 81.632 49.3857 81.7556C49.1903 81.8792 48.9593 81.941 48.6928 81.941ZM48.6963 81.3979C48.8408 81.3979 48.9617 81.356 49.0588 81.2724C49.1559 81.1875 49.2282 81.0739 49.2756 80.9315C49.3241 80.7892 49.3484 80.6306 49.3484 80.4558C49.3484 80.2797 49.3241 80.1205 49.2756 79.9782C49.2282 79.8346 49.1559 79.7204 49.0588 79.6355C48.9617 79.5505 48.8408 79.5081 48.6963 79.5081C48.5483 79.5081 48.4251 79.5505 48.3268 79.6355C48.2296 79.7204 48.1568 79.8346 48.1082 79.9782C48.0608 80.1205 48.0372 80.2797 48.0372 80.4558C48.0372 80.6306 48.0608 80.7892 48.1082 80.9315C48.1568 81.0739 48.2296 81.1875 48.3268 81.2724C48.4251 81.356 48.5483 81.3979 48.6963 81.3979Z" fill="#68717D"/>
<path d="M13.0005 89.0491V87.6556H13.2173C13.2753 87.6082 13.3239 87.5439 13.3629 87.4627C13.402 87.3803 13.434 87.2836 13.4589 87.1724C13.485 87.0601 13.5063 86.9346 13.5229 86.796C13.5394 86.6561 13.5542 86.5057 13.5673 86.3446L13.6455 85.337H15.6177V87.6556H16.0405V89.0491H15.4187V88.2138H13.633V89.0491H13.0005ZM13.8782 87.6556H15.0029V85.8839H14.2034L14.1607 86.3446C14.137 86.6493 14.1056 86.9102 14.0665 87.1275C14.0275 87.3447 13.9647 87.5208 13.8782 87.6556Z" fill="#68717D"/>
<path d="M16.4324 88.2138L16.4289 87.6556H16.5231C16.5941 87.6556 16.6539 87.6388 16.7025 87.6051C16.7511 87.5714 16.7913 87.5152 16.8233 87.4365C16.8553 87.3566 16.8802 87.2492 16.898 87.1144C16.9157 86.9795 16.9282 86.8116 16.9353 86.6106L16.9832 85.337H18.9732V88.2138H18.3513V85.8932H17.5678L17.5251 86.8203C17.5145 87.0601 17.489 87.268 17.4487 87.444C17.4097 87.6188 17.354 87.763 17.2817 87.8767C17.2107 87.9903 17.1212 88.0752 17.0134 88.1314C16.9056 88.1863 16.7783 88.2138 16.6314 88.2138H16.4324Z" fill="#68717D"/>
<path d="M21.3342 88.2138V85.8876H20.7514C20.6034 85.8876 20.4897 85.9238 20.4103 85.9962C20.3309 86.0687 20.2918 86.1586 20.293 86.2659C20.2918 86.3733 20.3292 86.462 20.405 86.5319C20.4808 86.6018 20.5892 86.6368 20.7301 86.6368H21.5368V87.1312H20.7301C20.5122 87.1312 20.3238 87.095 20.1651 87.0226C20.0064 86.9502 19.8844 86.8478 19.7991 86.7154C19.7138 86.5831 19.6712 86.4283 19.6712 86.251C19.6712 86.0662 19.7144 85.9057 19.8009 85.7696C19.8885 85.6323 20.0129 85.5261 20.174 85.4512C20.3363 85.3751 20.5287 85.337 20.7514 85.337H21.9365V88.2138H21.3342ZM19.5717 88.2138L20.3339 86.7379H20.9682L20.2042 88.2138H19.5717Z" fill="#68717D"/>
<path d="M26.0313 85.4325C26.0148 85.2689 25.9449 85.1416 25.8217 85.0504C25.6997 84.9593 25.541 84.9137 25.3455 84.9137C25.2081 84.9137 25.0903 84.9356 24.9919 84.9793C24.8936 85.023 24.8184 85.0823 24.7663 85.1572C24.7142 85.2321 24.6875 85.3176 24.6863 85.4138C24.6863 85.4937 24.7035 85.563 24.7379 85.6217C24.7734 85.6803 24.8214 85.7303 24.8818 85.7715C24.9422 85.8115 25.0091 85.8452 25.0826 85.8726C25.156 85.9001 25.23 85.9232 25.3047 85.9419L25.6458 86.0318C25.7832 86.0655 25.9153 86.1111 26.042 86.1686C26.1699 86.226 26.2842 86.2984 26.3849 86.3858C26.4868 86.4732 26.5673 86.5787 26.6266 86.7023C26.6858 86.8259 26.7154 86.9708 26.7154 87.1369C26.7154 87.3616 26.6609 87.5595 26.5519 87.7306C26.443 87.9004 26.2854 88.0334 26.0793 88.1295C25.8744 88.2244 25.6262 88.2718 25.3349 88.2718C25.0518 88.2718 24.806 88.2256 24.5975 88.1332C24.3902 88.0408 24.2279 87.906 24.1107 87.7287C23.9946 87.5514 23.9318 87.3354 23.9223 87.0807H24.5708C24.5803 87.2143 24.6194 87.3254 24.6881 87.414C24.7568 87.5027 24.8462 87.5689 24.9564 87.6126C25.0677 87.6563 25.1921 87.6781 25.3295 87.6781C25.4729 87.6781 25.5984 87.6556 25.7062 87.6107C25.8152 87.5645 25.9005 87.5008 25.9621 87.4197C26.0237 87.3373 26.055 87.2411 26.0562 87.1312C26.055 87.0313 26.0272 86.9489 25.9727 86.884C25.9182 86.8178 25.8418 86.7629 25.7435 86.7192C25.6464 86.6742 25.5327 86.6343 25.4024 86.5993L24.9884 86.4869C24.6887 86.4058 24.4518 86.2828 24.2777 86.118C24.1047 85.9519 24.0183 85.7315 24.0183 85.4568C24.0183 85.2308 24.0763 85.0329 24.1924 84.8631C24.3097 84.6933 24.469 84.5616 24.6703 84.4679C24.8717 84.3731 25.0997 84.3256 25.3544 84.3256C25.6126 84.3256 25.8389 84.3731 26.0331 84.4679C26.2286 84.5616 26.382 84.6921 26.4933 84.8594C26.6047 85.0255 26.6621 85.2165 26.6657 85.4325H26.0313Z" fill="#68717D"/>
<path d="M27.4031 88.2138V84.378H29.7698V84.9605H28.0623V86.0019H29.6472V86.5843H28.0623V87.6313H29.784V88.2138H27.4031Z" fill="#68717D"/>
<path d="M33.7938 86.2959C33.7938 86.7092 33.7204 87.0632 33.5735 87.3579C33.4278 87.6513 33.2288 87.876 32.9765 88.0321C32.7254 88.1882 32.4405 88.2662 32.1219 88.2662C31.8033 88.2662 31.5178 88.1882 31.2655 88.0321C31.0144 87.8748 30.8154 87.6494 30.6685 87.356C30.5228 87.0613 30.45 86.708 30.45 86.2959C30.45 85.8826 30.5228 85.5293 30.6685 85.2358C30.8154 84.9412 31.0144 84.7158 31.2655 84.5597C31.5178 84.4036 31.8033 84.3256 32.1219 84.3256C32.4405 84.3256 32.7254 84.4036 32.9765 84.5597C33.2288 84.7158 33.4278 84.9412 33.5735 85.2358C33.7204 85.5293 33.7938 85.8826 33.7938 86.2959ZM33.1311 86.2959C33.1311 86.005 33.0879 85.7596 33.0014 85.5599C32.9161 85.3588 32.7977 85.2071 32.6461 85.1047C32.4944 85.0011 32.3197 84.9493 32.1219 84.9493C31.9241 84.9493 31.7494 85.0011 31.5978 85.1047C31.4461 85.2071 31.3271 85.3588 31.2406 85.5599C31.1554 85.7596 31.1127 86.005 31.1127 86.2959C31.1127 86.5868 31.1554 86.8328 31.2406 87.0338C31.3271 87.2336 31.4461 87.3853 31.5978 87.489C31.7494 87.5913 31.9241 87.6425 32.1219 87.6425C32.3197 87.6425 32.4944 87.5913 32.6461 87.489C32.7977 87.3853 32.9161 87.2336 33.0014 87.0338C33.0879 86.8328 33.1311 86.5868 33.1311 86.2959Z" fill="#68717D"/>
<path d="M13.5045 112.406L13 110.692H13.2673L13.6252 112.004H13.6425L13.9961 110.692H14.2677L14.617 112H14.6342L14.9921 110.692H15.2595L14.755 112.406H14.5049L14.1427 111.089H14.1168L13.7546 112.406H13.5045Z" fill="#68717D"/>
<path d="M16.0316 112.406L15.5271 110.692H15.7945L16.1524 112.004H16.1696L16.5232 110.692H16.7948L17.1441 112H17.1614L17.5192 110.692H17.7866L17.2821 112.406H17.032L16.6698 111.089H16.6439L16.2817 112.406H16.0316Z" fill="#68717D"/>
<path d="M18.5588 112.406L18.0543 110.692H18.3216L18.6795 112.004H18.6967L19.0503 110.692H19.322L19.6712 112H19.6885L20.0464 110.692H20.3137L19.8092 112.406H19.5591L19.1969 111.089H19.1711L18.8089 112.406H18.5588Z" fill="#68717D"/>
<path d="M20.6709 112.424C20.6177 112.424 20.5721 112.404 20.534 112.365C20.4959 112.325 20.4768 112.278 20.4768 112.223C20.4768 112.168 20.4959 112.121 20.534 112.081C20.5721 112.042 20.6177 112.022 20.6709 112.022C20.7241 112.022 20.7697 112.042 20.8078 112.081C20.8459 112.121 20.8649 112.168 20.8649 112.223C20.8649 112.26 20.8559 112.293 20.838 112.324C20.8207 112.354 20.7974 112.379 20.7679 112.397C20.7391 112.415 20.7068 112.424 20.6709 112.424Z" fill="#68717D"/>
<path d="M22.1022 110.692V110.915H21.2442V110.692H22.1022ZM21.4943 110.281H21.7487V111.915C21.7487 111.989 21.7591 112.045 21.7799 112.082C21.8015 112.119 21.8288 112.143 21.8619 112.156C21.8956 112.168 21.9312 112.174 21.9686 112.174C21.9966 112.174 22.0196 112.173 22.0376 112.17C22.0555 112.166 22.0699 112.163 22.0807 112.161L22.1324 112.397C22.1152 112.404 22.0911 112.411 22.0602 112.417C22.0293 112.425 21.9901 112.428 21.9427 112.428C21.8708 112.428 21.8004 112.412 21.7314 112.38C21.6631 112.348 21.6064 112.3 21.5611 112.234C21.5165 112.169 21.4943 112.086 21.4943 111.986V110.281Z" fill="#68717D"/>
<path d="M23.2005 112.442C23.051 112.442 22.9199 112.405 22.807 112.331C22.6949 112.258 22.6073 112.155 22.544 112.022C22.4815 111.89 22.4502 111.735 22.4502 111.558C22.4502 111.379 22.4815 111.223 22.544 111.09C22.6073 110.957 22.6949 110.854 22.807 110.78C22.9199 110.706 23.051 110.67 23.2005 110.67C23.35 110.67 23.4808 110.706 23.5929 110.78C23.7057 110.854 23.7934 110.957 23.8559 111.09C23.9192 111.223 23.9508 111.379 23.9508 111.558C23.9508 111.735 23.9192 111.89 23.8559 112.022C23.7934 112.155 23.7057 112.258 23.5929 112.331C23.4808 112.405 23.35 112.442 23.2005 112.442ZM23.2005 112.205C23.3141 112.205 23.4075 112.175 23.4808 112.115C23.5541 112.055 23.6083 111.975 23.6436 111.877C23.6788 111.779 23.6964 111.673 23.6964 111.558C23.6964 111.443 23.6788 111.337 23.6436 111.238C23.6083 111.139 23.5541 111.059 23.4808 110.998C23.4075 110.937 23.3141 110.906 23.2005 110.906C23.087 110.906 22.9935 110.937 22.9202 110.998C22.8469 111.059 22.7927 111.139 22.7575 111.238C22.7222 111.337 22.7046 111.443 22.7046 111.558C22.7046 111.673 22.7222 111.779 22.7575 111.877C22.7927 111.975 22.8469 112.055 22.9202 112.115C22.9935 112.175 23.087 112.205 23.2005 112.205Z" fill="#68717D"/>
<path d="M24.3998 113.049V110.692H24.6456V110.964H24.6758C24.6945 110.934 24.7204 110.896 24.7534 110.85C24.7872 110.803 24.8353 110.762 24.8979 110.725C24.9611 110.688 25.0466 110.67 25.1544 110.67C25.2938 110.67 25.4167 110.706 25.5231 110.778C25.6295 110.85 25.7125 110.952 25.7721 111.085C25.8318 111.217 25.8616 111.373 25.8616 111.553C25.8616 111.735 25.8318 111.892 25.7721 112.026C25.7125 112.158 25.6298 112.261 25.5242 112.334C25.4185 112.406 25.2967 112.442 25.1587 112.442C25.0524 112.442 24.9672 112.424 24.9033 112.387C24.8393 112.35 24.7901 112.308 24.7556 112.261C24.7211 112.213 24.6945 112.174 24.6758 112.143H24.6542V113.049H24.3998ZM24.6499 111.549C24.6499 111.678 24.6683 111.793 24.7049 111.892C24.7416 111.99 24.7951 112.067 24.8655 112.123C24.936 112.178 25.0222 112.205 25.1242 112.205C25.2306 112.205 25.3194 112.176 25.3905 112.118C25.4624 112.059 25.5163 111.981 25.5522 111.882C25.5889 111.782 25.6072 111.671 25.6072 111.549C25.6072 111.428 25.5892 111.32 25.5533 111.223C25.5181 111.126 25.4645 111.049 25.3927 110.992C25.3215 110.935 25.232 110.906 25.1242 110.906C25.0208 110.906 24.9338 110.933 24.8634 110.988C24.7929 111.041 24.7398 111.116 24.7038 111.213C24.6679 111.309 24.6499 111.421 24.6499 111.549Z" fill="#68717D"/>
<path d="M27.605 110.692L26.9927 112.406H26.734L26.1217 110.692H26.3977L26.8548 112.058H26.872L27.3291 110.692H27.605Z" fill="#68717D"/>
<path d="M28.0015 112.406V110.692H28.2559V112.406H28.0015ZM28.1309 110.406C28.0813 110.406 28.0385 110.389 28.0026 110.354C27.9674 110.319 27.9498 110.277 27.9498 110.228C27.9498 110.178 27.9674 110.136 28.0026 110.101C28.0385 110.066 28.0813 110.049 28.1309 110.049C28.1805 110.049 28.2229 110.066 28.2581 110.101C28.294 110.136 28.312 110.178 28.312 110.228C28.312 110.277 28.294 110.319 28.2581 110.354C28.2229 110.389 28.1805 110.406 28.1309 110.406Z" fill="#68717D"/>
<path d="M29.9555 111.076L29.7269 111.143C29.7125 111.103 29.6913 111.065 29.6633 111.028C29.636 110.99 29.5986 110.959 29.5512 110.934C29.5038 110.909 29.443 110.897 29.369 110.897C29.2677 110.897 29.1833 110.921 29.1157 110.97C29.0489 111.017 29.0154 111.078 29.0154 111.152C29.0154 111.217 29.0384 111.269 29.0844 111.307C29.1304 111.345 29.2023 111.376 29.3 111.402L29.5458 111.464C29.6939 111.501 29.8042 111.558 29.8768 111.635C29.9493 111.711 29.9856 111.809 29.9856 111.928C29.9856 112.027 29.9583 112.114 29.9037 112.192C29.8498 112.269 29.7743 112.33 29.6773 112.375C29.5803 112.42 29.4675 112.442 29.3388 112.442C29.17 112.442 29.0302 112.404 28.9195 112.328C28.8088 112.252 28.7388 112.141 28.7093 111.995L28.9508 111.933C28.9738 112.025 29.0172 112.094 29.0812 112.141C29.1459 112.187 29.2303 112.21 29.3345 112.21C29.4531 112.21 29.5473 112.184 29.617 112.132C29.6874 112.079 29.7226 112.016 29.7226 111.942C29.7226 111.882 29.7025 111.832 29.6622 111.792C29.622 111.751 29.5602 111.721 29.4768 111.701L29.2009 111.634C29.0492 111.597 28.9378 111.539 28.8667 111.461C28.7963 111.382 28.761 111.283 28.761 111.165C28.761 111.068 28.7873 110.983 28.8397 110.908C28.8929 110.834 28.9651 110.776 29.0564 110.733C29.1484 110.691 29.2526 110.67 29.369 110.67C29.5329 110.67 29.6615 110.707 29.7549 110.781C29.8491 110.856 29.9159 110.954 29.9555 111.076Z" fill="#68717D"/>
<path d="M31.102 112.442C30.9525 112.442 30.8213 112.405 30.7085 112.331C30.5964 112.258 30.5087 112.155 30.4455 112.022C30.3829 111.89 30.3517 111.735 30.3517 111.558C30.3517 111.379 30.3829 111.223 30.4455 111.09C30.5087 110.957 30.5964 110.854 30.7085 110.78C30.8213 110.706 30.9525 110.67 31.102 110.67C31.2514 110.67 31.3822 110.706 31.4943 110.78C31.6072 110.854 31.6948 110.957 31.7574 111.09C31.8206 111.223 31.8522 111.379 31.8522 111.558C31.8522 111.735 31.8206 111.89 31.7574 112.022C31.6948 112.155 31.6072 112.258 31.4943 112.331C31.3822 112.405 31.2514 112.442 31.102 112.442ZM31.102 112.205C31.2155 112.205 31.3089 112.175 31.3822 112.115C31.4555 112.055 31.5098 111.975 31.545 111.877C31.5802 111.779 31.5978 111.673 31.5978 111.558C31.5978 111.443 31.5802 111.337 31.545 111.238C31.5098 111.139 31.4555 111.059 31.3822 110.998C31.3089 110.937 31.2155 110.906 31.102 110.906C30.9884 110.906 30.895 110.937 30.8217 110.998C30.7484 111.059 30.6941 111.139 30.6589 111.238C30.6237 111.337 30.6061 111.443 30.6061 111.558C30.6061 111.673 30.6237 111.779 30.6589 111.877C30.6941 111.975 30.7484 112.055 30.8217 112.115C30.895 112.175 30.9884 112.205 31.102 112.205Z" fill="#68717D"/>
<path d="M32.3013 112.406V110.692H32.5471V110.951H32.5643C32.5945 110.866 32.6491 110.797 32.7282 110.744C32.8072 110.691 32.8963 110.665 32.9955 110.665C33.0142 110.665 33.0376 110.665 33.0656 110.666C33.0936 110.667 33.1148 110.668 33.1292 110.67V110.937C33.1206 110.935 33.1008 110.932 33.0699 110.927C33.0397 110.922 33.0077 110.92 32.9739 110.92C32.8935 110.92 32.8216 110.937 32.7584 110.972C32.6958 111.006 32.6462 111.054 32.6096 111.115C32.5737 111.175 32.5557 111.244 32.5557 111.321V112.406H32.3013Z" fill="#68717D"/>
<path d="M33.4871 112.424C33.434 112.424 33.3883 112.404 33.3502 112.365C33.3122 112.325 33.2931 112.278 33.2931 112.223C33.2931 112.168 33.3122 112.121 33.3502 112.081C33.3883 112.042 33.434 112.022 33.4871 112.022C33.5403 112.022 33.586 112.042 33.624 112.081C33.6621 112.121 33.6812 112.168 33.6812 112.223C33.6812 112.26 33.6722 112.293 33.6542 112.324C33.637 112.354 33.6136 112.379 33.5842 112.397C33.5554 112.415 33.5231 112.424 33.4871 112.424Z" fill="#68717D"/>
<path d="M34.8711 112.442C34.7159 112.442 34.5822 112.404 34.4701 112.328C34.358 112.252 34.2717 112.148 34.2114 112.014C34.151 111.881 34.1208 111.729 34.1208 111.558C34.1208 111.384 34.1517 111.23 34.2135 111.097C34.276 110.963 34.363 110.859 34.4744 110.783C34.5865 110.707 34.7173 110.67 34.8668 110.67C34.9832 110.67 35.0881 110.692 35.1815 110.736C35.275 110.781 35.3515 110.844 35.4111 110.924C35.4708 111.004 35.5078 111.098 35.5222 111.205H35.2678C35.2484 111.127 35.2053 111.058 35.1384 110.998C35.0723 110.937 34.9832 110.906 34.8711 110.906C34.7719 110.906 34.6849 110.933 34.6102 110.986C34.5362 111.039 34.4783 111.114 34.4367 111.211C34.3957 111.307 34.3752 111.42 34.3752 111.549C34.3752 111.681 34.3953 111.797 34.4356 111.895C34.4765 111.993 34.534 112.069 34.6081 112.124C34.6828 112.178 34.7705 112.205 34.8711 112.205C34.9372 112.205 34.9972 112.193 35.0511 112.17C35.105 112.146 35.1506 112.111 35.188 112.067C35.2254 112.022 35.252 111.969 35.2678 111.906H35.5222C35.5078 112.007 35.4722 112.098 35.4155 112.18C35.3594 112.26 35.285 112.324 35.1923 112.372C35.1003 112.418 34.9933 112.442 34.8711 112.442Z" fill="#68717D"/>
<path d="M36.6275 112.442C36.478 112.442 36.3468 112.405 36.234 112.331C36.1219 112.258 36.0342 112.155 35.971 112.022C35.9084 111.89 35.8772 111.735 35.8772 111.558C35.8772 111.379 35.9084 111.223 35.971 111.09C36.0342 110.957 36.1219 110.854 36.234 110.78C36.3468 110.706 36.478 110.67 36.6275 110.67C36.7769 110.67 36.9077 110.706 37.0198 110.78C37.1327 110.854 37.2203 110.957 37.2829 111.09C37.3461 111.223 37.3777 111.379 37.3777 111.558C37.3777 111.735 37.3461 111.89 37.2829 112.022C37.2203 112.155 37.1327 112.258 37.0198 112.331C36.9077 112.405 36.7769 112.442 36.6275 112.442ZM36.6275 112.205C36.741 112.205 36.8344 112.175 36.9077 112.115C36.981 112.055 37.0353 111.975 37.0705 111.877C37.1057 111.779 37.1233 111.673 37.1233 111.558C37.1233 111.443 37.1057 111.337 37.0705 111.238C37.0353 111.139 36.981 111.059 36.9077 110.998C36.8344 110.937 36.741 110.906 36.6275 110.906C36.5139 110.906 36.4205 110.937 36.3472 110.998C36.2739 111.059 36.2196 111.139 36.1844 111.238C36.1492 111.337 36.1316 111.443 36.1316 111.558C36.1316 111.673 36.1492 111.779 36.1844 111.877C36.2196 111.975 36.2739 112.055 36.3472 112.115C36.4205 112.175 36.5139 112.205 36.6275 112.205Z" fill="#68717D"/>
<path d="M37.8268 112.406V110.692H38.0726V110.96H38.0941C38.1286 110.868 38.1843 110.797 38.2612 110.747C38.3381 110.695 38.4305 110.67 38.5383 110.67C38.6475 110.67 38.7384 110.695 38.811 110.747C38.8843 110.797 38.9414 110.868 38.9824 110.96H38.9996C39.042 110.871 39.1056 110.801 39.1904 110.749C39.2752 110.696 39.3769 110.67 39.4955 110.67C39.6435 110.67 39.7646 110.718 39.8588 110.813C39.9529 110.909 40 111.057 40 111.259V112.406H39.7456V111.259C39.7456 111.132 39.7122 111.042 39.6453 110.988C39.5785 110.933 39.4998 110.906 39.4093 110.906C39.2928 110.906 39.2027 110.943 39.1387 111.016C39.0747 111.088 39.0428 111.179 39.0428 111.29V112.406H38.784V111.232C38.784 111.135 38.7535 111.056 38.6924 110.997C38.6313 110.936 38.5526 110.906 38.4563 110.906C38.3902 110.906 38.3284 110.924 38.2709 110.961C38.2141 110.997 38.1681 111.048 38.1329 111.113C38.0984 111.177 38.0812 111.251 38.0812 111.335V112.406H37.8268Z" fill="#68717D"/>
<path d="M14.8416 98.8141H14.5773C14.5616 98.7366 14.5343 98.6686 14.4952 98.6099C14.4568 98.5512 14.4099 98.502 14.3545 98.4621C14.2998 98.4216 14.2391 98.3911 14.1723 98.3709C14.1055 98.3506 14.0359 98.3404 13.9634 98.3404C13.8313 98.3404 13.7115 98.3745 13.6043 98.4426C13.4977 98.5107 13.4128 98.611 13.3496 98.7435C13.287 98.8761 13.2558 99.0387 13.2558 99.2314C13.2558 99.424 13.287 99.5867 13.3496 99.7192C13.4128 99.8518 13.4977 99.9521 13.6043 100.02C13.7115 100.088 13.8313 100.122 13.9634 100.122C14.0359 100.122 14.1055 100.112 14.1723 100.092C14.2391 100.072 14.2998 100.042 14.3545 100.002C14.4099 99.9611 14.4568 99.9115 14.4952 99.8528C14.5343 99.7935 14.5616 99.7254 14.5773 99.6486H14.8416C14.8217 99.7623 14.7854 99.8641 14.7328 99.9539C14.6803 100.044 14.6149 100.12 14.5368 100.183C14.4586 100.245 14.3709 100.293 14.2735 100.325C14.1769 100.358 14.0735 100.374 13.9634 100.374C13.7773 100.374 13.6117 100.328 13.4668 100.235C13.3218 100.143 13.2078 100.011 13.1247 99.8398C13.0416 99.6689 13 99.4661 13 99.2314C13 98.9967 13.0416 98.7939 13.1247 98.6229C13.2078 98.452 13.3218 98.3202 13.4668 98.2274C13.6117 98.1347 13.7773 98.0884 13.9634 98.0884C14.0735 98.0884 14.1769 98.1047 14.2735 98.1373C14.3709 98.1698 14.4586 98.2177 14.5368 98.2807C14.6149 98.343 14.6803 98.419 14.7328 98.5088C14.7854 98.5979 14.8217 98.6997 14.8416 98.8141Z" fill="#68717D"/>
<path d="M15.7763 100.383C15.6725 100.383 15.5784 100.363 15.4938 100.323C15.4093 100.283 15.3422 100.224 15.2924 100.148C15.2427 100.072 15.2178 99.9789 15.2178 99.8702C15.2178 99.7746 15.2363 99.6971 15.2732 99.6377C15.3102 99.5776 15.3596 99.5305 15.4214 99.4965C15.4832 99.4624 15.5514 99.4371 15.626 99.4204C15.7013 99.403 15.777 99.3893 15.853 99.3791C15.9525 99.3661 16.0331 99.3563 16.0949 99.3498C16.1574 99.3426 16.2029 99.3306 16.2313 99.3139C16.2604 99.2973 16.275 99.2683 16.275 99.227V99.2183C16.275 99.1111 16.2462 99.0278 16.1887 98.9684C16.1318 98.909 16.0455 98.8793 15.9297 98.8793C15.8096 98.8793 15.7155 98.9061 15.6473 98.9597C15.5791 99.0133 15.5311 99.0706 15.5034 99.1314L15.2647 99.0445C15.3073 98.9431 15.3642 98.8641 15.4352 98.8076C15.507 98.7504 15.5851 98.7106 15.6697 98.6881C15.7549 98.6649 15.8388 98.6533 15.9212 98.6533C15.9738 98.6533 16.0342 98.6599 16.1024 98.6729C16.1713 98.6852 16.2377 98.7109 16.3017 98.75C16.3663 98.7892 16.4199 98.8482 16.4626 98.9271C16.5052 99.0061 16.5265 99.1119 16.5265 99.2444V100.344H16.275V100.118H16.2622C16.2452 100.154 16.2168 100.193 16.177 100.234C16.1372 100.275 16.0842 100.311 16.0182 100.34C15.9521 100.369 15.8715 100.383 15.7763 100.383ZM15.8146 100.153C15.9141 100.153 15.9979 100.133 16.0661 100.093C16.135 100.053 16.1869 100.002 16.2217 99.9387C16.2572 99.8757 16.275 99.8094 16.275 99.7399V99.5052C16.2644 99.5182 16.2409 99.5302 16.2047 99.541C16.1691 99.5512 16.1279 99.5602 16.0811 99.5682C16.0349 99.5754 15.9898 99.5819 15.9457 99.5877C15.9024 99.5928 15.8672 99.5972 15.8402 99.6008C15.7748 99.6095 15.7137 99.6236 15.6569 99.6432C15.6008 99.662 15.5553 99.6906 15.5205 99.729C15.4864 99.7667 15.4693 99.8181 15.4693 99.8833C15.4693 99.9724 15.5017 100.04 15.5663 100.085C15.6317 100.13 15.7144 100.153 15.8146 100.153Z" fill="#68717D"/>
<path d="M18.1411 99.3922V99.6312H17.2374V99.3922H18.1411ZM17.2971 98.6751V100.344H17.0456V98.6751H17.2971ZM18.333 98.6751V100.344H18.0815V98.6751H18.333Z" fill="#68717D"/>
<path d="M18.8523 100.344V98.6751H19.1038V99.4009H19.2701L19.8584 98.6751H20.1823L19.5216 99.4791L20.1909 100.344H19.8669L19.3298 99.6399H19.1038V100.344H18.8523Z" fill="#68717D"/>
<path d="M20.4304 98.9141V98.6751H21.7605V98.9141H21.2233V100.344H20.9718V98.9141H20.4304Z" fill="#68717D"/>
<path d="M23.0402 99.2705V99.5095H22.0853V99.2705H23.0402Z" fill="#68717D"/>
<path d="M25.2095 98.1188V100.344H24.9452V98.3578H23.8454V100.344H23.5811V98.1188H25.2095Z" fill="#68717D"/>
<path d="M26.4549 100.379C26.2972 100.379 26.1611 100.343 26.0467 100.272C25.933 100.201 25.8453 100.101 25.7835 99.9724C25.7224 99.8434 25.6918 99.6935 25.6918 99.5226C25.6918 99.3516 25.7224 99.2009 25.7835 99.0706C25.8453 98.9395 25.9313 98.8373 26.0414 98.7642C26.1522 98.6903 26.2815 98.6533 26.4293 98.6533C26.5146 98.6533 26.5988 98.6678 26.6819 98.6968C26.765 98.7258 26.8407 98.7729 26.9089 98.8381C26.9771 98.9025 27.0314 98.988 27.0719 99.0945C27.1124 99.2009 27.1327 99.332 27.1327 99.4878V99.5964H25.8709V99.3748H26.8769C26.8769 99.2806 26.8584 99.1966 26.8215 99.1227C26.7853 99.0488 26.7334 98.9905 26.6659 98.9478C26.5991 98.9051 26.5202 98.8837 26.4293 98.8837C26.3291 98.8837 26.2424 98.909 26.1693 98.9597C26.0968 99.0097 26.041 99.0749 26.002 99.1553C25.9629 99.2357 25.9433 99.3219 25.9433 99.4139V99.5617C25.9433 99.6877 25.9647 99.7945 26.0073 99.8822C26.0506 99.9691 26.1107 100.035 26.1874 100.081C26.2641 100.126 26.3533 100.148 26.4549 100.148C26.521 100.148 26.5806 100.139 26.6339 100.12C26.6879 100.101 26.7345 100.072 26.7735 100.033C26.8126 99.9941 26.8428 99.9456 26.8641 99.8876L27.1071 99.9572C27.0815 100.041 27.0385 100.115 26.9781 100.179C26.9178 100.242 26.8432 100.291 26.7543 100.327C26.6655 100.361 26.5657 100.379 26.4549 100.379Z" fill="#68717D"/>
<path d="M27.4229 98.9141V98.6751H28.7529V98.9141H28.2158V100.344H27.9643V98.9141H27.4229Z" fill="#68717D"/>
<path d="M29.7811 100.379C29.6234 100.379 29.4873 100.343 29.3729 100.272C29.2593 100.201 29.1715 100.101 29.1097 99.9724C29.0486 99.8434 29.0181 99.6935 29.0181 99.5226C29.0181 99.3516 29.0486 99.2009 29.1097 99.0706C29.1715 98.9395 29.2575 98.8373 29.3676 98.7642C29.4785 98.6903 29.6078 98.6533 29.7555 98.6533C29.8408 98.6533 29.925 98.6678 30.0081 98.6968C30.0912 98.7258 30.1669 98.7729 30.2351 98.8381C30.3033 98.9025 30.3577 98.988 30.3982 99.0945C30.4387 99.2009 30.4589 99.332 30.4589 99.4878V99.5964H29.1971V99.3748H30.2031C30.2031 99.2806 30.1847 99.1966 30.1477 99.1227C30.1115 99.0488 30.0596 98.9905 29.9921 98.9478C29.9253 98.9051 29.8465 98.8837 29.7555 98.8837C29.6554 98.8837 29.5687 98.909 29.4955 98.9597C29.423 99.0097 29.3673 99.0749 29.3282 99.1553C29.2891 99.2357 29.2696 99.3219 29.2696 99.4139V99.5617C29.2696 99.6877 29.2909 99.7945 29.3335 99.8822C29.3769 99.9691 29.4369 100.035 29.5136 100.081C29.5904 100.126 29.6795 100.148 29.7811 100.148C29.8472 100.148 29.9069 100.139 29.9602 100.12C30.0142 100.101 30.0607 100.072 30.0998 100.033C30.1388 99.9941 30.169 99.9456 30.1904 99.8876L30.4333 99.9572C30.4078 100.041 30.3648 100.115 30.3044 100.179C30.244 100.242 30.1694 100.291 30.0806 100.327C29.9918 100.361 29.892 100.379 29.7811 100.379Z" fill="#68717D"/>
<path d="M30.9015 100.97V98.6751H31.1445V98.9402H31.1743C31.1928 98.9112 31.2184 98.8743 31.2511 98.8294C31.2845 98.7837 31.3321 98.7432 31.3939 98.7077C31.4564 98.6715 31.541 98.6533 31.6475 98.6533C31.7854 98.6533 31.9068 98.6885 32.012 98.7587C32.1171 98.829 32.1992 98.9286 32.2582 99.0575C32.3171 99.1865 32.3466 99.3386 32.3466 99.5139C32.3466 99.6906 32.3171 99.8438 32.2582 99.9735C32.1992 100.102 32.1175 100.202 32.0131 100.273C31.9086 100.344 31.7882 100.379 31.6518 100.379C31.5466 100.379 31.4624 100.361 31.3992 100.325C31.336 100.289 31.2873 100.248 31.2532 100.203C31.2191 100.156 31.1928 100.118 31.1743 100.088H31.153V100.97H30.9015ZM31.1488 99.5095C31.1488 99.6355 31.1669 99.7467 31.2031 99.8431C31.2394 99.9387 31.2923 100.014 31.3619 100.068C31.4315 100.122 31.5168 100.148 31.6177 100.148C31.7228 100.148 31.8106 100.12 31.8809 100.064C31.952 100.006 32.0052 99.9296 32.0408 99.8333C32.077 99.7362 32.0951 99.6283 32.0951 99.5095C32.0951 99.3922 32.0774 99.2864 32.0418 99.1923C32.007 99.0974 31.9541 99.0224 31.883 98.9673C31.8127 98.9116 31.7243 98.8837 31.6177 98.8837C31.5154 98.8837 31.4294 98.9101 31.3598 98.963C31.2902 99.0152 31.2376 99.0883 31.2021 99.1825C31.1665 99.2759 31.1488 99.3849 31.1488 99.5095Z" fill="#68717D"/>
<path d="M34.0052 98.0492L34.1331 98.2057C34.0834 98.255 34.0258 98.2894 33.9605 98.3089C33.8951 98.3285 33.8212 98.3404 33.7388 98.3448C33.6564 98.3491 33.5647 98.3535 33.4638 98.3578C33.3502 98.3622 33.256 98.3904 33.1814 98.4426C33.1068 98.4947 33.0493 98.57 33.0088 98.6686C32.9683 98.7671 32.9423 98.888 32.931 99.0314H32.9523C33.0077 98.9271 33.0844 98.8504 33.1825 98.8011C33.2805 98.7519 33.3857 98.7272 33.4979 98.7272C33.6258 98.7272 33.7409 98.7576 33.8432 98.8185C33.9455 98.8793 34.0265 98.9695 34.0862 99.089C34.1459 99.2086 34.1757 99.356 34.1757 99.5312C34.1757 99.7058 34.1452 99.8565 34.0841 99.9832C34.0237 100.11 33.9388 100.208 33.8294 100.277C33.7207 100.345 33.5931 100.379 33.4468 100.379C33.3004 100.379 33.1722 100.344 33.0621 100.273C32.9519 100.202 32.8663 100.097 32.8052 99.9582C32.7441 99.8184 32.7136 99.6457 32.7136 99.44V99.2618C32.7136 98.8902 32.7754 98.6084 32.899 98.4165C33.0233 98.2245 33.2102 98.1253 33.4596 98.1188C33.5477 98.1159 33.6262 98.1152 33.6951 98.1166C33.764 98.1181 33.824 98.1148 33.8752 98.1068C33.9264 98.0989 33.9697 98.0797 34.0052 98.0492ZM33.4468 100.148C33.5455 100.148 33.6304 100.123 33.7015 100.072C33.7732 100.022 33.8283 99.9503 33.8667 99.8583C33.905 99.7656 33.9242 99.6566 33.9242 99.5312C33.9242 99.4096 33.9047 99.306 33.8656 99.2205C33.8272 99.135 33.7722 99.0698 33.7004 99.0249C33.6287 98.98 33.5427 98.9576 33.4425 98.9576C33.3693 98.9576 33.3036 98.9702 33.2454 98.9956C33.1871 99.0209 33.1374 99.0583 33.0962 99.1075C33.055 99.1568 33.023 99.2169 33.0003 99.2879C32.9782 99.3589 32.9665 99.44 32.9651 99.5312C32.9651 99.7181 33.0081 99.8677 33.094 99.98C33.18 100.092 33.2976 100.148 33.4468 100.148Z" fill="#68717D"/>
<path d="M34.7825 100.97C34.7398 100.97 34.7018 100.966 34.6684 100.959C34.635 100.952 34.6119 100.946 34.5992 100.939L34.6631 100.713C34.7242 100.729 34.7782 100.735 34.8251 100.731C34.872 100.726 34.9135 100.705 34.9498 100.667C34.9867 100.629 35.0205 100.568 35.051 100.483L35.0979 100.353L34.4926 98.6751H34.7654L35.2173 100.005H35.2343L35.6862 98.6751H35.959L35.2642 100.587C35.2329 100.674 35.1942 100.745 35.148 100.801C35.1018 100.859 35.0482 100.901 34.9871 100.928C34.9267 100.956 34.8585 100.97 34.7825 100.97Z" fill="#68717D"/>
<path d="M36.351 100.97V98.6751H36.594V98.9402H36.6238C36.6423 98.9112 36.6679 98.8743 36.7006 98.8294C36.7339 98.7837 36.7816 98.7432 36.8434 98.7077C36.9059 98.6715 36.9904 98.6533 37.097 98.6533C37.2348 98.6533 37.3563 98.6885 37.4615 98.7587C37.5666 98.829 37.6487 98.9286 37.7077 99.0575C37.7666 99.1865 37.7961 99.3386 37.7961 99.5139C37.7961 99.6906 37.7666 99.8438 37.7077 99.9735C37.6487 100.102 37.567 100.202 37.4625 100.273C37.3581 100.344 37.2377 100.379 37.1013 100.379C36.9961 100.379 36.9119 100.361 36.8487 100.325C36.7855 100.289 36.7368 100.248 36.7027 100.203C36.6686 100.156 36.6423 100.118 36.6238 100.088H36.6025V100.97H36.351ZM36.5982 99.5095C36.5982 99.6355 36.6164 99.7467 36.6526 99.8431C36.6888 99.9387 36.7418 100.014 36.8114 100.068C36.881 100.122 36.9663 100.148 37.0672 100.148C37.1723 100.148 37.2601 100.12 37.3304 100.064C37.4014 100.006 37.4547 99.9296 37.4902 99.8333C37.5265 99.7362 37.5446 99.6283 37.5446 99.5095C37.5446 99.3922 37.5268 99.2864 37.4913 99.1923C37.4565 99.0974 37.4036 99.0224 37.3325 98.9673C37.2622 98.9116 37.1737 98.8837 37.0672 98.8837C36.9649 98.8837 36.8789 98.9101 36.8093 98.963C36.7396 99.0152 36.6871 99.0883 36.6515 99.1825C36.616 99.2759 36.5982 99.3849 36.5982 99.5095Z" fill="#68717D"/>
<path d="M39.2501 98.6751V98.9141H38.4913V100.344H38.2398V98.6751H39.2501Z" fill="#68717D"/>
<path d="M39.7798 100.04L39.7628 100.157C39.7507 100.24 39.7322 100.328 39.7073 100.422C39.6832 100.516 39.658 100.605 39.6317 100.688C39.6054 100.772 39.5837 100.838 39.5667 100.887H39.3748C39.3841 100.841 39.3962 100.78 39.4111 100.704C39.426 100.628 39.4409 100.542 39.4558 100.448C39.4715 100.355 39.4843 100.259 39.4942 100.161L39.507 100.04H39.7798Z" fill="#68717D"/>
<path d="M41.244 98.1188H41.504V99.8702H41.5253L42.7189 98.1188H42.9747V100.344H42.7104V98.5968H42.6891L41.4998 100.344H41.244V98.1188Z" fill="#68717D"/>
<path d="M43.4272 99.918H43.6957C43.7014 99.9934 43.7348 100.051 43.7959 100.09C43.8577 100.129 43.938 100.148 44.0368 100.148C44.1376 100.148 44.224 100.127 44.2957 100.085C44.3675 100.043 44.4034 99.9738 44.4034 99.8789C44.4034 99.8232 44.3899 99.7746 44.3629 99.7333C44.3359 99.6913 44.2979 99.6587 44.2488 99.6355C44.1998 99.6124 44.1419 99.6008 44.0751 99.6008H43.7938V99.3704H44.0751C44.1753 99.3704 44.2492 99.3473 44.2968 99.3009C44.3451 99.2545 44.3693 99.1966 44.3693 99.1271C44.3693 99.0525 44.3433 98.9927 44.2915 98.9478C44.2396 98.9022 44.1661 98.8793 44.0709 98.8793C43.975 98.8793 43.895 98.9014 43.8311 98.9456C43.7671 98.9891 43.7334 99.0452 43.7298 99.114H43.4655C43.4684 99.0242 43.4954 98.9449 43.5465 98.8761C43.5977 98.8065 43.6673 98.7522 43.7554 98.7131C43.8435 98.6733 43.9444 98.6533 44.0581 98.6533C44.1732 98.6533 44.273 98.674 44.3575 98.7153C44.4428 98.7558 44.5085 98.8113 44.5547 98.8815C44.6016 98.951 44.625 99.03 44.625 99.1184C44.625 99.2125 44.5991 99.2886 44.5472 99.3465C44.4954 99.4045 44.4304 99.4458 44.3522 99.4704V99.4878C44.414 99.4921 44.4677 99.5124 44.5131 99.5486C44.5593 99.5841 44.5952 99.6308 44.6208 99.6888C44.6463 99.746 44.6591 99.8094 44.6591 99.8789C44.6591 99.9803 44.6325 100.069 44.5792 100.144C44.5259 100.219 44.4527 100.277 44.3597 100.318C44.2666 100.358 44.1604 100.379 44.041 100.379C43.9252 100.379 43.8215 100.36 43.7298 100.321C43.6382 100.282 43.5654 100.228 43.5114 100.159C43.4581 100.09 43.43 100.009 43.4272 99.918Z" fill="#68717D"/>
<path d="M45.9676 99.9963L46.5389 98.6751H46.7776L46.07 100.344H45.8653L45.1705 98.6751H45.4049L45.9676 99.9963ZM45.324 98.6751V100.344H45.0724V98.6751H45.324ZM46.6113 100.344V98.6751H46.8628V100.344H46.6113Z" fill="#68717D"/>
<path d="M47.865 100.383C47.7612 100.383 47.6671 100.363 47.5825 100.323C47.498 100.283 47.4309 100.224 47.3811 100.148C47.3314 100.072 47.3065 99.9789 47.3065 99.8702C47.3065 99.7746 47.325 99.6971 47.3619 99.6377C47.3989 99.5776 47.4483 99.5305 47.5101 99.4965C47.5719 99.4624 47.6401 99.4371 47.7147 99.4204C47.79 99.403 47.8657 99.3893 47.9417 99.3791C48.0412 99.3661 48.1218 99.3563 48.1836 99.3498C48.2461 99.3426 48.2916 99.3306 48.32 99.3139C48.3491 99.2973 48.3637 99.2683 48.3637 99.227V99.2183C48.3637 99.1111 48.3349 99.0278 48.2774 98.9684C48.2205 98.909 48.1342 98.8793 48.0184 98.8793C47.8983 98.8793 47.8042 98.9061 47.736 98.9597C47.6678 99.0133 47.6198 99.0706 47.5921 99.1314L47.3534 99.0445C47.396 98.9431 47.4529 98.8641 47.5239 98.8076C47.5957 98.7504 47.6738 98.7106 47.7584 98.6881C47.8436 98.6649 47.9275 98.6533 48.0099 98.6533C48.0625 98.6533 48.1229 98.6599 48.1911 98.6729C48.26 98.6852 48.3264 98.7109 48.3904 98.75C48.455 98.7892 48.5086 98.8482 48.5513 98.9271C48.5939 99.0061 48.6152 99.1119 48.6152 99.2444V100.344H48.3637V100.118H48.3509C48.3339 100.154 48.3054 100.193 48.2657 100.234C48.2259 100.275 48.1729 100.311 48.1069 100.34C48.0408 100.369 47.9602 100.383 47.865 100.383ZM47.9033 100.153C48.0028 100.153 48.0866 100.133 48.1548 100.093C48.2237 100.053 48.2756 100.002 48.3104 99.9387C48.3459 99.8757 48.3637 99.8094 48.3637 99.7399V99.5052C48.3531 99.5182 48.3296 99.5302 48.2934 99.541C48.2578 99.5512 48.2166 99.5602 48.1697 99.5682C48.1236 99.5754 48.0785 99.5819 48.0344 99.5877C47.9911 99.5928 47.9559 99.5972 47.9289 99.6008C47.8635 99.6095 47.8024 99.6236 47.7456 99.6432C47.6895 99.662 47.644 99.6906 47.6092 99.729C47.5751 99.7667 47.558 99.8181 47.558 99.8833C47.558 99.9724 47.5904 100.04 47.655 100.085C47.7204 100.13 47.8031 100.153 47.9033 100.153Z" fill="#68717D"/>
<path d="M49.3858 99.9658L50.1744 98.6751H50.4643V100.344H50.2128V99.0532L49.4284 100.344H49.1343V98.6751H49.3858V99.9658ZM50.0082 98.1188H50.2426C50.2426 98.2361 50.2028 98.3321 50.1233 98.4067C50.0437 98.4813 49.9357 98.5186 49.7993 98.5186C49.665 98.5186 49.5581 98.4813 49.4785 98.4067C49.3997 98.3321 49.3602 98.2361 49.3602 98.1188H49.5947C49.5947 98.1753 49.61 98.2249 49.6405 98.2676C49.6718 98.3104 49.7247 98.3317 49.7993 98.3317C49.8739 98.3317 49.9272 98.3104 49.9592 98.2676C49.9918 98.2249 50.0082 98.1753 50.0082 98.1188Z" fill="#68717D"/>
<path d="M50.84 100.344V100.105H50.8997C50.9487 100.105 50.9896 100.095 51.0223 100.076C51.055 100.055 51.0812 100.02 51.1011 99.9702C51.1217 99.9195 51.1374 99.8492 51.148 99.7594C51.1594 99.6689 51.1676 99.5537 51.1725 99.4139L51.2024 98.6751H52.2937V100.344H52.0422V98.9141H51.4411L51.4155 99.5095C51.4098 99.6464 51.3978 99.767 51.3793 99.8713C51.3615 99.9749 51.3342 100.062 51.2972 100.132C51.261 100.202 51.2127 100.255 51.1523 100.291C51.0919 100.326 51.0162 100.344 50.9253 100.344H50.84Z" fill="#68717D"/>
<path d="M53.4802 100.379C53.3324 100.379 53.2027 100.343 53.0912 100.271C52.9803 100.199 52.8937 100.099 52.8311 99.9702C52.7693 99.8413 52.7384 99.6906 52.7384 99.5182C52.7384 99.3444 52.7693 99.1926 52.8311 99.063C52.8937 98.9333 52.9803 98.8326 53.0912 98.7609C53.2027 98.6892 53.3324 98.6533 53.4802 98.6533C53.6279 98.6533 53.7572 98.6892 53.8681 98.7609C53.9796 98.8326 54.0663 98.9333 54.1281 99.063C54.1906 99.1926 54.2219 99.3444 54.2219 99.5182C54.2219 99.6906 54.1906 99.8413 54.1281 99.9702C54.0663 100.099 53.9796 100.199 53.8681 100.271C53.7572 100.343 53.6279 100.379 53.4802 100.379ZM53.4802 100.148C53.5924 100.148 53.6848 100.119 53.7572 100.06C53.8297 100.002 53.8833 99.9246 53.9182 99.8289C53.953 99.7333 53.9704 99.6298 53.9704 99.5182C53.9704 99.4067 53.953 99.3027 53.9182 99.2064C53.8833 99.11 53.8297 99.0322 53.7572 98.9728C53.6848 98.9134 53.5924 98.8837 53.4802 98.8837C53.3679 98.8837 53.2755 98.9134 53.2031 98.9728C53.1306 99.0322 53.077 99.11 53.0421 99.2064C53.0073 99.3027 52.9899 99.4067 52.9899 99.5182C52.9899 99.6298 53.0073 99.7333 53.0421 99.8289C53.077 99.9246 53.1306 100.002 53.2031 100.06C53.2755 100.119 53.3679 100.148 53.4802 100.148Z" fill="#68717D"/>
<path d="M54.6658 100.344V98.6751H55.3351C55.5113 98.6751 55.6513 98.7156 55.755 98.7968C55.8587 98.8779 55.9106 98.9851 55.9106 99.1184C55.9106 99.2198 55.8811 99.2984 55.8221 99.3541C55.7632 99.4092 55.6875 99.4465 55.5951 99.4661C55.6555 99.4747 55.7141 99.4965 55.771 99.5312C55.8285 99.566 55.8761 99.6138 55.9138 99.6747C55.9514 99.7348 55.9703 99.8087 55.9703 99.8963C55.9703 99.9818 55.9489 100.058 55.9063 100.126C55.8637 100.193 55.8026 100.246 55.723 100.285C55.6434 100.324 55.5482 100.344 55.4374 100.344H54.6658ZM54.9045 100.109H55.4374C55.5241 100.109 55.5919 100.088 55.641 100.046C55.69 100.004 55.7145 99.947 55.7145 99.8746C55.7145 99.7884 55.69 99.7207 55.641 99.6714C55.5919 99.6214 55.5241 99.5964 55.4374 99.5964H54.9045V100.109ZM54.9045 99.3748H55.3351C55.4026 99.3748 55.4605 99.3654 55.5088 99.3465C55.5571 99.327 55.5941 99.2995 55.6196 99.264C55.6459 99.2277 55.6591 99.185 55.6591 99.1358C55.6591 99.0655 55.6303 99.0104 55.5728 98.9706C55.5152 98.93 55.436 98.9098 55.3351 98.9098H54.9045V99.3748Z" fill="#68717D"/>
<path d="M57.076 100.379C56.9226 100.379 56.7904 100.342 56.6796 100.268C56.5687 100.194 56.4835 100.092 56.4238 99.9626C56.3641 99.8329 56.3343 99.6848 56.3343 99.5182C56.3343 99.3487 56.3648 99.1991 56.4259 99.0695C56.4877 98.9391 56.5737 98.8373 56.6838 98.7642C56.7947 98.6903 56.924 98.6533 57.0718 98.6533C57.1868 98.6533 57.2906 98.6751 57.3829 98.7185C57.4753 98.762 57.551 98.8228 57.6099 98.9011C57.6689 98.9793 57.7055 99.0706 57.7197 99.1749H57.4682C57.449 99.0988 57.4064 99.0314 57.3403 98.9728C57.2749 98.9134 57.1868 98.8837 57.076 98.8837C56.978 98.8837 56.892 98.9098 56.8181 98.9619C56.7449 99.0133 56.6877 99.0861 56.6465 99.1803C56.606 99.2737 56.5858 99.3835 56.5858 99.5095C56.5858 99.6384 56.6057 99.7507 56.6455 99.8463C56.686 99.9419 56.7428 100.016 56.816 100.069C56.8899 100.122 56.9765 100.148 57.076 100.148C57.1414 100.148 57.2007 100.137 57.254 100.114C57.3073 100.09 57.3524 100.057 57.3893 100.014C57.4263 99.9702 57.4526 99.918 57.4682 99.8572H57.7197C57.7055 99.9557 57.6703 100.044 57.6142 100.123C57.5588 100.202 57.4852 100.264 57.3936 100.31C57.3027 100.356 57.1968 100.379 57.076 100.379Z" fill="#68717D"/>
<path d="M58.1474 100.344V98.6751H58.3989V99.4009H58.5652L59.1534 98.6751H59.4774L58.8167 99.4791L59.4859 100.344H59.162L58.6248 99.6399H58.3989V100.344H58.1474Z" fill="#68717D"/>
<path d="M60.0708 99.9658L60.8594 98.6751H61.1493V100.344H60.8978V99.0532L60.1134 100.344H59.8193V98.6751H60.0708V99.9658Z" fill="#68717D"/>
<path d="M61.9215 99.9658L62.7101 98.6751H63V100.344H62.7485V99.0532L61.9641 100.344H61.67V98.6751H61.9215V99.9658ZM62.5439 98.1188H62.7783C62.7783 98.2361 62.7385 98.3321 62.659 98.4067C62.5794 98.4813 62.4714 98.5186 62.335 98.5186C62.2007 98.5186 62.0938 98.4813 62.0142 98.4067C61.9354 98.3321 61.8959 98.2361 61.8959 98.1188H62.1304C62.1304 98.1753 62.1457 98.2249 62.1762 98.2676C62.2075 98.3104 62.2604 98.3317 62.335 98.3317C62.4096 98.3317 62.4629 98.3104 62.4949 98.2676C62.5275 98.2249 62.5439 98.1753 62.5439 98.1188Z" fill="#68717D"/>
<path d="M13.0512 104.423V102.755H14.3385V104.423H14.087V102.994H13.3027V104.423H13.0512Z" fill="#68717D"/>
<path d="M14.8579 105.049V102.755H15.1009V103.02H15.1307C15.1492 102.991 15.1748 102.954 15.2074 102.909C15.2408 102.863 15.2884 102.823 15.3502 102.787C15.4128 102.751 15.4973 102.733 15.6039 102.733C15.7417 102.733 15.8632 102.768 15.9684 102.838C16.0735 102.908 16.1556 103.008 16.2145 103.137C16.2735 103.266 16.303 103.418 16.303 103.593C16.303 103.77 16.2735 103.923 16.2145 104.053C16.1556 104.182 16.0739 104.282 15.9694 104.353C15.865 104.423 15.7446 104.458 15.6081 104.458C15.503 104.458 15.4188 104.44 15.3556 104.405C15.2923 104.369 15.2437 104.328 15.2096 104.282C15.1755 104.236 15.1492 104.197 15.1307 104.167H15.1094V105.049H14.8579ZM15.1051 103.589C15.1051 103.715 15.1232 103.826 15.1595 103.923C15.1957 104.018 15.2486 104.093 15.3183 104.147C15.3879 104.201 15.4731 104.228 15.574 104.228C15.6792 104.228 15.7669 104.2 15.8373 104.143C15.9083 104.086 15.9616 104.009 15.9971 103.913C16.0334 103.816 16.0515 103.708 16.0515 103.589C16.0515 103.472 16.0337 103.366 15.9982 103.272C15.9634 103.177 15.9104 103.102 15.8394 103.047C15.7691 102.991 15.6806 102.963 15.574 102.963C15.4717 102.963 15.3858 102.99 15.3161 103.042C15.2465 103.095 15.1939 103.168 15.1584 103.262C15.1229 103.355 15.1051 103.464 15.1051 103.589Z" fill="#68717D"/>
<path d="M17.4117 104.458C17.2639 104.458 17.1342 104.422 17.0227 104.351C16.9118 104.279 16.8252 104.179 16.7626 104.05C16.7008 103.921 16.6699 103.77 16.6699 103.598C16.6699 103.424 16.7008 103.272 16.7626 103.142C16.8252 103.013 16.9118 102.912 17.0227 102.84C17.1342 102.769 17.2639 102.733 17.4117 102.733C17.5594 102.733 17.6888 102.769 17.7996 102.84C17.9111 102.912 17.9978 103.013 18.0596 103.142C18.1221 103.272 18.1534 103.424 18.1534 103.598C18.1534 103.77 18.1221 103.921 18.0596 104.05C17.9978 104.179 17.9111 104.279 17.7996 104.351C17.6888 104.422 17.5594 104.458 17.4117 104.458ZM17.4117 104.228C17.5239 104.228 17.6163 104.199 17.6888 104.14C17.7612 104.081 17.8149 104.004 17.8497 103.908C17.8845 103.813 17.9019 103.709 17.9019 103.598C17.9019 103.486 17.8845 103.382 17.8497 103.286C17.8149 103.19 17.7612 103.112 17.6888 103.052C17.6163 102.993 17.5239 102.963 17.4117 102.963C17.2994 102.963 17.2071 102.993 17.1346 103.052C17.0621 103.112 17.0085 103.19 16.9737 103.286C16.9388 103.382 16.9214 103.486 16.9214 103.598C16.9214 103.709 16.9388 103.813 16.9737 103.908C17.0085 104.004 17.0621 104.081 17.1346 104.14C17.2071 104.199 17.2994 104.228 17.4117 104.228Z" fill="#68717D"/>
<path d="M19.2624 104.458C19.1089 104.458 18.9767 104.421 18.8659 104.347C18.7551 104.273 18.6698 104.172 18.6101 104.042C18.5505 103.912 18.5206 103.764 18.5206 103.598C18.5206 103.428 18.5512 103.279 18.6123 103.149C18.6741 103.019 18.76 102.917 18.8702 102.844C18.981 102.77 19.1103 102.733 19.2581 102.733C19.3732 102.733 19.4769 102.755 19.5693 102.798C19.6616 102.841 19.7373 102.902 19.7963 102.981C19.8552 103.059 19.8918 103.15 19.906 103.254H19.6545C19.6354 103.178 19.5927 103.111 19.5266 103.052C19.4613 102.993 19.3732 102.963 19.2624 102.963C19.1643 102.963 19.0783 102.989 19.0044 103.041C18.9313 103.093 18.8741 103.166 18.8329 103.26C18.7924 103.353 18.7721 103.463 18.7721 103.589C18.7721 103.718 18.792 103.83 18.8318 103.926C18.8723 104.021 18.9291 104.096 19.0023 104.149C19.0762 104.201 19.1629 104.228 19.2624 104.228C19.3277 104.228 19.387 104.216 19.4403 104.193C19.4936 104.17 19.5387 104.137 19.5757 104.093C19.6126 104.05 19.6389 103.998 19.6545 103.937H19.906C19.8918 104.035 19.8567 104.124 19.8005 104.203C19.7451 104.281 19.6716 104.343 19.5799 104.39C19.489 104.435 19.3831 104.458 19.2624 104.458Z" fill="#68717D"/>
<path d="M20.3337 104.423V102.755H21.6211V104.423H21.3696V102.994H20.5852V104.423H20.3337Z" fill="#68717D"/>
<path d="M22.8268 104.458C22.6691 104.458 22.533 104.423 22.4186 104.352C22.3049 104.28 22.2172 104.18 22.1554 104.052C22.0943 103.923 22.0637 103.773 22.0637 103.602C22.0637 103.431 22.0943 103.28 22.1554 103.15C22.2172 103.019 22.3032 102.917 22.4133 102.844C22.5241 102.77 22.6534 102.733 22.8012 102.733C22.8865 102.733 22.9706 102.747 23.0538 102.776C23.1369 102.805 23.2126 102.852 23.2808 102.918C23.349 102.982 23.4033 103.067 23.4438 103.174C23.4843 103.28 23.5046 103.412 23.5046 103.567V103.676H22.2428V103.454H23.2488C23.2488 103.36 23.2303 103.276 23.1934 103.202C23.1571 103.128 23.1053 103.07 23.0378 103.027C22.971 102.985 22.8921 102.963 22.8012 102.963C22.701 102.963 22.6143 102.989 22.5412 103.039C22.4687 103.089 22.4129 103.154 22.3739 103.235C22.3348 103.315 22.3152 103.401 22.3152 103.493V103.641C22.3152 103.767 22.3365 103.874 22.3792 103.962C22.4225 104.049 22.4826 104.115 22.5593 104.16C22.636 104.205 22.7252 104.228 22.8268 104.228C22.8929 104.228 22.9525 104.218 23.0058 104.2C23.0598 104.18 23.1063 104.151 23.1454 104.113C23.1845 104.074 23.2147 104.025 23.236 103.967L23.479 104.037C23.4534 104.121 23.4104 104.195 23.35 104.258C23.2897 104.321 23.2151 104.371 23.1262 104.406C23.0374 104.441 22.9376 104.458 22.8268 104.458Z" fill="#68717D"/>
<path d="M23.9472 104.423V102.755H24.1987V103.48H24.3649L24.9532 102.755H25.2772L24.6165 103.559L25.2857 104.423H24.9617L24.4246 103.719H24.1987V104.423H23.9472Z" fill="#68717D"/>
<path d="M25.5253 102.994V102.755H26.8553V102.994H26.3182V104.423H26.0667V102.994H25.5253Z" fill="#68717D"/>
<path d="M27.3848 104.119L27.3677 104.237C27.3557 104.319 27.3372 104.407 27.3123 104.502C27.2882 104.596 27.2629 104.685 27.2367 104.768C27.2104 104.851 27.1887 104.917 27.1716 104.967H26.9798C26.9891 104.92 27.0011 104.859 27.0161 104.783C27.031 104.707 27.0459 104.622 27.0608 104.528C27.0764 104.434 27.0892 104.339 27.0992 104.241L27.112 104.119H27.3848Z" fill="#68717D"/>
<path d="M28.6401 104.901V104.184H28.7765C28.8099 104.149 28.8387 104.111 28.8628 104.069C28.887 104.028 28.9079 103.979 28.9257 103.923C28.9442 103.865 28.9598 103.796 28.9726 103.714C28.9854 103.631 28.9967 103.532 29.0067 103.415L29.0621 102.755H30.1022V104.184H30.3537V104.901H30.1022V104.423H28.8916V104.901H28.6401ZM29.0621 104.184H29.8507V102.994H29.2966L29.2539 103.415C29.2362 103.59 29.2141 103.742 29.1879 103.873C29.1616 104.003 29.1196 104.107 29.0621 104.184Z" fill="#68717D"/>
<path d="M31.4126 104.458C31.2648 104.458 31.1352 104.422 31.0236 104.351C30.9128 104.279 30.8261 104.179 30.7636 104.05C30.7018 103.921 30.6709 103.77 30.6709 103.598C30.6709 103.424 30.7018 103.272 30.7636 103.142C30.8261 103.013 30.9128 102.912 31.0236 102.84C31.1352 102.769 31.2648 102.733 31.4126 102.733C31.5604 102.733 31.6897 102.769 31.8005 102.84C31.9121 102.912 31.9987 103.013 32.0606 103.142C32.1231 103.272 32.1543 103.424 32.1543 103.598C32.1543 103.77 32.1231 103.921 32.0606 104.05C31.9987 104.179 31.9121 104.279 31.8005 104.351C31.6897 104.422 31.5604 104.458 31.4126 104.458ZM31.4126 104.228C31.5249 104.228 31.6172 104.199 31.6897 104.14C31.7622 104.081 31.8158 104.004 31.8506 103.908C31.8854 103.813 31.9028 103.709 31.9028 103.598C31.9028 103.486 31.8854 103.382 31.8506 103.286C31.8158 103.19 31.7622 103.112 31.6897 103.052C31.6172 102.993 31.5249 102.963 31.4126 102.963C31.3004 102.963 31.208 102.993 31.1355 103.052C31.0631 103.112 31.0094 103.19 30.9746 103.286C30.9398 103.382 30.9224 103.486 30.9224 103.598C30.9224 103.709 30.9398 103.813 30.9746 103.908C31.0094 104.004 31.0631 104.081 31.1355 104.14C31.208 104.199 31.3004 104.228 31.4126 104.228Z" fill="#68717D"/>
<path d="M33.4935 104.076L34.0647 102.755H34.3034L33.5958 104.423H33.3912L32.6963 102.755H32.9308L33.4935 104.076ZM32.8498 102.755V104.423H32.5983V102.755H32.8498ZM34.1372 104.423V102.755H34.3887V104.423H34.1372Z" fill="#68717D"/>
<path d="M36.5762 102.198V104.423H36.3119V102.481H36.2991L35.7663 102.841V102.568L36.3119 102.198H36.5762Z" fill="#68717D"/>
<path d="M37.963 104.454C37.8167 104.454 37.6874 104.427 37.5751 104.375C37.4636 104.321 37.3765 104.247 37.314 104.154C37.2515 104.06 37.2206 103.953 37.2213 103.832C37.2206 103.738 37.2387 103.651 37.2757 103.572C37.3126 103.491 37.363 103.424 37.427 103.371C37.4916 103.316 37.5638 103.282 37.6433 103.267V103.254C37.5389 103.227 37.4558 103.167 37.394 103.075C37.3321 102.982 37.3016 102.877 37.3023 102.759C37.3016 102.646 37.3297 102.545 37.3865 102.456C37.4433 102.367 37.5215 102.296 37.6209 102.245C37.7211 102.194 37.8352 102.168 37.963 102.168C38.0895 102.168 38.2025 102.194 38.3019 102.245C38.4014 102.296 38.4796 102.367 38.5364 102.456C38.5939 102.545 38.6231 102.646 38.6238 102.759C38.6231 102.877 38.5915 102.982 38.5289 103.075C38.4671 103.167 38.3851 103.227 38.2828 103.254V103.267C38.3616 103.282 38.4327 103.316 38.4959 103.371C38.5591 103.424 38.6096 103.491 38.6472 103.572C38.6849 103.651 38.7041 103.738 38.7048 103.832C38.7041 103.953 38.6721 104.06 38.6089 104.154C38.5463 104.247 38.4593 104.321 38.3478 104.375C38.2369 104.427 38.1087 104.454 37.963 104.454ZM37.963 104.215C38.0618 104.215 38.1471 104.199 38.2188 104.166C38.2906 104.133 38.346 104.087 38.3851 104.028C38.4241 103.969 38.444 103.899 38.4447 103.819C38.444 103.735 38.4227 103.661 38.3808 103.597C38.3389 103.532 38.2817 103.481 38.2092 103.444C38.1375 103.408 38.0554 103.389 37.963 103.389C37.87 103.389 37.7868 103.408 37.7137 103.444C37.6412 103.481 37.584 103.532 37.5421 103.597C37.5009 103.661 37.4806 103.735 37.4813 103.819C37.4806 103.899 37.4995 103.969 37.5378 104.028C37.5769 104.087 37.6327 104.133 37.7051 104.166C37.7776 104.199 37.8636 104.215 37.963 104.215ZM37.963 103.159C38.0412 103.159 38.1105 103.143 38.1709 103.111C38.232 103.079 38.2799 103.035 38.3147 102.977C38.3495 102.92 38.3673 102.853 38.368 102.776C38.3673 102.701 38.3499 102.635 38.3158 102.58C38.2817 102.523 38.2344 102.48 38.1741 102.449C38.1137 102.418 38.0433 102.403 37.963 102.403C37.8813 102.403 37.8099 102.418 37.7488 102.449C37.6877 102.48 37.6405 102.523 37.6071 102.58C37.5737 102.635 37.5574 102.701 37.5581 102.776C37.5574 102.853 37.5741 102.92 37.6082 102.977C37.643 103.035 37.6909 103.079 37.752 103.111C37.8131 103.143 37.8835 103.159 37.963 103.159Z" fill="#68717D"/>
</g>
<defs>
<filter id="filter0_d_37_4711" x="0" y="0.0489883" width="90" height="140" filterUnits="userSpaceOnUse" color-interpolation-filters="sRGB">
<feFlood flood-opacity="0" result="BackgroundImageFix"/>
<feColorMatrix in="SourceAlpha" type="matrix" values="0 0 0 0 0 0 0 0 0 0 0 0 0 0 0 0 0 0 127 0" result="hardAlpha"/>
<feOffset dx="3" dy="9"/>
<feGaussianBlur stdDeviation="5"/>
<feComposite in2="hardAlpha" operator="out"/>
<feColorMatrix type="matrix" values="0 0 0 0 0 0 0 0 0 0 0 0 0 0 0 0 0 0 0.25 0"/>
<feBlend mode="normal" in2="BackgroundImageFix" result="effect1_dropShadow_37_4711"/>
<feBlend mode="normal" in="SourceGraphic" in2="effect1_dropShadow_37_4711" result="shape"/>
</filter>
<linearGradient id="paint0_linear_37_4711" x1="7" y1="1.04899" x2="77" y2="121.049" gradientUnits="userSpaceOnUse">
<stop stop-color="#F8FAFC"/>
<stop offset="1" stop-color="#C5CCD2"/>
</linearGradient>
</defs>
</svg>
