<svg width="402" height="200" viewBox="0 0 402 200" fill="none" xmlns="http://www.w3.org/2000/svg">
<g clip-path="url(#clip0_50_4656)">
<rect width="402" height="200" rx="16" fill="#061A39"/>
<path fill-rule="evenodd" clip-rule="evenodd" d="M160.671 61.0266C115.773 61.0266 79.3763 95.4953 79.3763 138.015C79.3763 180.534 115.773 215.003 160.671 215.003C205.569 215.003 241.966 180.534 241.966 138.015C241.966 95.4953 205.569 61.0266 160.671 61.0266ZM133.03 154.952C126.745 154.952 121.649 159.778 121.649 165.73C121.649 171.683 126.745 176.509 133.03 176.509C139.316 176.509 144.412 171.683 144.412 165.73C144.412 159.778 139.316 154.952 133.03 154.952Z" fill="#145BC6"/>
<path fill-rule="evenodd" clip-rule="evenodd" d="M403.999 61.0266C359.101 61.0266 322.704 95.4953 322.704 138.015C322.704 180.534 359.101 215.003 403.999 215.003C448.897 215.003 485.294 180.534 485.294 138.015C485.294 95.4953 448.897 61.0266 403.999 61.0266ZM376.358 154.952C370.073 154.952 364.977 159.778 364.977 165.73C364.977 171.683 370.073 176.509 376.358 176.509C382.644 176.509 387.74 171.683 387.74 165.73C387.74 159.778 382.644 154.952 376.358 154.952Z" fill="#0C3471"/>
<path fill-rule="evenodd" clip-rule="evenodd" d="M55.9392 192.453C40.6935 206.891 20.0158 215.003 -1.54502 215.003L-1.54503 138.015L-1.54501 61.0268C20.0158 61.0268 40.6935 69.138 55.9392 83.576C71.185 98.0141 79.75 117.596 79.75 138.015C79.75 158.433 71.185 178.015 55.9392 192.453ZM16.339 164.191C16.339 170.144 21.4346 174.969 27.7203 174.969C34.0061 174.969 39.1016 170.144 39.1016 164.191C39.1016 158.238 34.006 153.413 27.7203 153.413C21.4346 153.413 16.339 158.238 16.339 164.191Z" fill="#1975FF"/>
<path fill-rule="evenodd" clip-rule="evenodd" d="M299.265 192.453C284.02 206.891 263.342 215.003 241.781 215.003L241.781 138.015L241.781 61.0267C263.342 61.0267 284.02 69.1379 299.265 83.576C314.511 98.014 323.076 117.596 323.076 138.015C323.076 158.433 314.511 178.015 299.265 192.453ZM259.665 164.191C259.665 170.144 264.761 174.969 271.047 174.969C277.332 174.969 282.428 170.144 282.428 164.191C282.428 158.238 277.332 153.413 271.047 153.413C264.761 153.413 259.665 158.238 259.665 164.191Z" fill="#114EAA"/>
<path fill-rule="evenodd" clip-rule="evenodd" d="M73.5614 31.7411C77.6468 41.0817 79.7496 51.0929 79.7496 61.2031L-1.54541 61.2031L-1.54541 -15.7848C9.1304 -15.7848 19.7017 -13.7934 29.5648 -9.92443C39.428 -6.05542 48.3899 -0.384534 55.9388 6.76446C63.4878 13.9134 69.4759 22.4005 73.5614 31.7411ZM26.0945 44.2657C32.3802 44.2657 37.4758 39.44 37.4758 33.4873C37.4758 27.5346 32.3802 22.709 26.0945 22.709C19.8088 22.709 14.7132 27.5346 14.7132 33.4873C14.7132 39.44 19.8088 44.2657 26.0945 44.2657Z" fill="#1975FF"/>
<path fill-rule="evenodd" clip-rule="evenodd" d="M154.671 31.7411C158.757 41.0817 160.859 51.0929 160.859 61.2031L79.5644 61.2031L79.5645 -15.7848C90.2403 -15.7848 100.812 -13.7934 110.675 -9.92443C120.538 -6.05542 129.5 -0.384535 137.049 6.76446C144.598 13.9134 150.586 22.4005 154.671 31.7411ZM107.204 44.2657C113.49 44.2657 118.586 39.44 118.586 33.4873C118.586 27.5346 113.49 22.709 107.204 22.709C100.919 22.709 95.8231 27.5346 95.8231 33.4873C95.8231 39.44 100.919 44.2657 107.204 44.2657Z" fill="#145BC6"/>
<path fill-rule="evenodd" clip-rule="evenodd" d="M235.78 31.7412C239.866 41.0818 241.968 51.093 241.968 61.2032L160.673 61.2032L160.673 -15.7848C171.349 -15.7848 181.92 -13.7934 191.784 -9.92443C201.647 -6.05542 210.609 -0.38453 218.158 6.76446C225.707 13.9135 231.695 22.4005 235.78 31.7412ZM188.313 44.2657C194.599 44.2657 199.695 39.44 199.695 33.4873C199.695 27.5346 194.599 22.709 188.313 22.709C182.028 22.709 176.932 27.5346 176.932 33.4873C176.932 39.44 182.028 44.2657 188.313 44.2657Z" fill="#145BC6"/>
<path fill-rule="evenodd" clip-rule="evenodd" d="M316.889 31.7411C320.974 41.0817 323.077 51.0929 323.077 61.2031L241.782 61.2031L241.782 -15.7848C252.458 -15.7848 263.029 -13.7934 272.892 -9.92443C282.755 -6.05542 291.717 -0.384535 299.266 6.76446C306.815 13.9134 312.803 22.4005 316.889 31.7411ZM269.422 44.2657C275.707 44.2657 280.803 39.44 280.803 33.4873C280.803 27.5346 275.707 22.709 269.422 22.709C263.136 22.709 258.04 27.5346 258.04 33.4873C258.04 39.44 263.136 44.2657 269.422 44.2657Z" fill="#114EAA"/>
<path fill-rule="evenodd" clip-rule="evenodd" d="M397.998 31.7411C402.084 41.0817 404.187 51.0929 404.187 61.2031L322.892 61.2031L322.892 -15.7848C333.567 -15.7848 344.139 -13.7934 354.002 -9.92443C363.865 -6.05543 372.827 -0.384535 380.376 6.76446C387.925 13.9134 393.913 22.4005 397.998 31.7411ZM350.532 44.2657C356.817 44.2657 361.913 39.44 361.913 33.4873C361.913 27.5346 356.817 22.709 350.532 22.709C344.246 22.709 339.15 27.5346 339.15 33.4873C339.15 39.44 344.246 44.2657 350.532 44.2657Z" fill="#0C3471"/>
<path d="M174.369 211.268C174.369 211.268 167.899 203.601 167.899 202.505C167.899 200.886 168.767 200.886 168.767 200.886L186.668 184.553C187.274 184.511 187.882 184.596 188.449 184.801C189.016 185.007 189.529 185.329 189.95 185.743C192.66 188.31 199.627 195.188 199.627 195.188C199.627 195.188 190.832 210.54 189.743 212.827C188.654 215.113 185.589 215.902 182.534 214.726C180.036 213.765 175.207 212.416 174.369 211.268Z" fill="#1F4060"/>
<path d="M168.768 200.885L173.143 196.886C174.198 198.351 175.415 199.751 176.42 201.198C177.819 203.207 179.194 205.229 180.544 207.264C181.914 209.331 183.279 211.389 184.718 213.405C185.117 214.016 185.521 214.623 185.925 215.234C184.768 215.326 183.604 215.15 182.535 214.721C180.037 213.759 175.208 212.388 174.37 211.263C174.37 211.263 167.9 203.596 167.9 202.499C167.9 200.885 168.768 200.885 168.768 200.885Z" fill="#2C5777"/>
<path d="M187.492 184.553C187.492 184.553 184.25 184.553 182.382 184.553C180.515 184.553 178.514 186.933 176.962 188.356C175.41 189.779 170.35 197.507 168.886 199.821C167.423 202.136 167.408 202.878 169.473 203.652C171.207 204.31 173.804 204.959 176.085 205.64C178.209 206.28 180.333 205.566 182.082 202.724C183.831 199.882 188.399 189.443 189.31 187.516C190.163 185.682 189.325 184.544 187.492 184.553Z" fill="#3276A0"/>
<path d="M172.788 190.815C169.403 195.248 167.54 198.449 170.664 200.614C172.916 202.173 178.415 201.786 182.032 196.415C185.141 191.8 186.185 186.853 182.524 184.879C179.198 183.074 176.173 186.387 172.788 190.815Z" fill="#121A26"/>
<path d="M187.225 159.574C187.048 159.374 186.865 159.159 186.683 158.93L186.111 158.216L185.525 157.446C185.229 157.045 184.919 156.616 184.608 156.163C184.298 155.71 183.983 155.23 183.672 154.735C183.569 154.567 183.46 154.399 183.357 154.227C183.047 153.713 182.736 153.181 182.435 152.626C182.233 152.257 182.041 151.879 181.849 151.492C181.76 151.296 181.667 151.1 181.573 150.904C180.095 147.745 179.464 144.581 180.006 141.949C180.247 140.736 180.804 139.599 181.627 138.641C182 138.191 182.464 137.816 182.992 137.54C183.509 137.255 184.069 137.049 184.653 136.928C185.065 136.843 185.487 136.805 185.909 136.816C186.332 136.845 186.75 136.919 187.156 137.036C186.638 137.337 186.175 137.717 185.786 138.16C185.375 138.641 185.027 139.167 184.751 139.728C184.632 139.96 184.527 140.199 184.436 140.442C184.172 141.135 183.991 141.853 183.894 142.584C183.823 143.091 183.789 143.603 183.79 144.115C183.821 146.043 184.153 147.957 184.776 149.794C185.369 151.614 186.115 153.387 187.008 155.094C187.24 155.561 187.501 156 187.718 156.424C188.082 157.082 188.442 157.689 188.782 158.23L189.152 158.8C189.418 159.202 189.706 159.591 190.014 159.966C190.251 160.263 190.515 160.539 190.802 160.792C190.698 160.954 190.563 161.097 190.403 161.212C190.281 161.325 190.13 161.405 189.965 161.445C189.742 161.467 189.518 161.44 189.308 161.367C189.098 161.295 188.908 161.178 188.752 161.025C188.184 160.601 187.671 160.114 187.225 159.574V159.574Z" fill="#121A26"/>
<path d="M166.697 145.589C167.085 144.86 167.64 144.222 168.323 143.722C167.637 144.22 167.08 144.858 166.692 145.589H166.697Z" fill="#2C5777"/>
<path d="M183.944 163.942C183.792 164.038 183.618 164.101 183.436 164.124C183.254 164.148 183.069 164.131 182.895 164.077C183.069 164.131 183.254 164.147 183.436 164.123C183.618 164.1 183.791 164.038 183.944 163.942Z" fill="#2C5777"/>
<path d="M183.894 142.584C183.991 141.853 184.173 141.135 184.436 140.442C184.527 140.199 184.633 139.96 184.752 139.728C185.027 139.167 185.375 138.64 185.786 138.16C186.175 137.717 186.638 137.337 187.156 137.035C187.875 136.605 188.687 136.332 189.531 136.238C189.531 136.238 190.29 136.195 190.29 136.195C190.29 136.195 191.305 136.149 192.833 136.107C193.601 136.065 194.478 136.107 195.424 136.168L196.903 136.252L197.651 136.298L198.396 136.392C199.381 136.522 200.366 136.662 201.303 136.802C202.239 136.942 203.047 137.166 203.766 137.32L205.501 137.726C205.713 137.773 205.87 137.824 205.994 137.857L206.161 137.908C205.039 137.616 203.847 137.685 202.771 138.104C202.203 138.315 201.668 138.598 201.18 138.944C200.65 139.339 200.166 139.786 199.736 140.279C197.947 142.318 196.863 145.332 196.494 148.771C196.19 151.762 196.273 154.777 196.74 157.749C196.834 158.333 196.942 158.86 197.06 159.327C197.161 159.763 197.296 160.192 197.464 160.61C197.76 161.347 198.125 161.744 198.617 161.898C198.525 161.86 198.429 161.83 198.331 161.809L197.573 161.65C197.262 161.59 196.903 161.468 196.513 161.412C196.124 161.356 195.72 161.314 195.311 161.249L195.005 161.198H194.705H194.123C193.785 161.163 193.444 161.152 193.103 161.165C192.512 161.198 192.118 161.198 192.118 161.198C192.02 161.191 191.921 161.191 191.822 161.198C191.638 161.207 191.455 161.177 191.284 161.111C191.114 161.045 190.961 160.944 190.837 160.815C190.549 160.562 190.286 160.286 190.049 159.989C189.74 159.614 189.453 159.225 189.186 158.823L188.817 158.253C188.477 157.712 188.117 157.105 187.752 156.447C187.516 156.023 187.26 155.57 187.043 155.118C186.15 153.41 185.403 151.637 184.811 149.817C184.188 147.98 183.856 146.066 183.825 144.138C183.811 143.619 183.834 143.1 183.894 142.584V142.584Z" fill="#2C5777"/>
<path d="M179.223 164.739C178.972 164.66 178.73 164.571 178.43 164.473L177.567 164.156L176.636 163.787C176.143 163.591 175.651 163.377 175.133 163.143C174.616 162.91 174.079 162.677 173.532 162.397L172.98 162.126C172.422 161.846 171.86 161.548 171.295 161.23C170.915 161.016 170.536 160.792 170.162 160.558L169.595 160.204C166.569 158.267 164.283 155.929 163.293 153.414C162.799 152.257 162.646 150.994 162.849 149.76C162.945 149.187 163.13 148.631 163.396 148.109C163.683 147.606 164.056 147.152 164.5 146.765C164.812 146.486 165.158 146.244 165.53 146.041C165.712 145.942 165.899 145.852 166.091 145.771C166.294 145.701 166.496 145.64 166.702 145.589C166.419 146.112 166.232 146.677 166.151 147.259C166.055 147.877 166.041 148.505 166.111 149.126C166.137 149.381 166.176 149.635 166.229 149.886C166.304 150.238 166.399 150.586 166.515 150.927C166.642 151.291 166.79 151.648 166.959 151.996C167.185 152.466 167.442 152.923 167.727 153.363C168.812 154.99 170.149 156.453 171.694 157.703C173.217 158.952 174.838 160.091 176.543 161.109C177.001 161.384 177.449 161.641 177.878 161.884L178.863 162.406L179.785 162.873L180.415 163.181C180.908 163.423 181.401 163.647 181.805 163.773C182.162 163.903 182.53 164.006 182.904 164.081C182.901 164.18 182.889 164.278 182.869 164.375C182.861 164.465 182.845 164.554 182.82 164.641C182.781 164.793 182.698 164.93 182.579 165.038C182.442 165.156 182.27 165.231 182.086 165.253C181.85 165.281 181.612 165.281 181.376 165.253C180.641 165.158 179.918 164.986 179.223 164.739V164.739Z" fill="#121A26"/>
<path d="M180.391 163.181L179.761 162.873L178.839 162.406L177.854 161.884C177.425 161.641 176.977 161.384 176.518 161.109C174.814 160.091 173.193 158.952 171.67 157.703C170.125 156.453 168.788 154.99 167.703 153.363C167.417 152.923 167.161 152.466 166.935 151.996C166.766 151.648 166.617 151.291 166.491 150.927C166.375 150.586 166.28 150.238 166.205 149.886C166.152 149.635 166.112 149.381 166.087 149.126C166.017 148.505 166.03 147.877 166.126 147.259C166.208 146.677 166.395 146.112 166.678 145.589V145.589C166.397 146.11 166.212 146.674 166.131 147.255C166.031 147.872 166.016 148.5 166.087 149.121C166.117 149.373 166.156 149.625 166.205 149.882C166.359 150.61 166.604 151.318 166.935 151.991C167.161 152.461 167.417 152.918 167.703 153.358C168.788 154.985 170.125 156.448 171.67 157.698C173.189 158.952 174.81 160.091 176.518 161.104C176.977 161.38 177.42 161.641 177.849 161.879C178.504 162.248 179.14 162.584 179.731 162.887L180.362 163.195C180.855 163.438 181.347 163.661 181.746 163.787C182.104 163.917 182.471 164.02 182.845 164.095V164.095C182.471 164.02 182.104 163.917 181.746 163.787C181.367 163.624 180.904 163.423 180.391 163.181Z" fill="#121A26"/>
<path d="M167.737 153.34C167.452 152.899 167.195 152.443 166.969 151.972C166.638 151.299 166.393 150.591 166.239 149.863C166.19 149.607 166.151 149.355 166.121 149.103C166.05 148.481 166.065 147.854 166.166 147.236C166.246 146.655 166.431 146.092 166.712 145.57C167.1 144.839 167.658 144.201 168.343 143.704L168.649 143.48C168.802 143.368 168.964 143.274 168.964 143.274C168.964 143.274 169.861 142.705 171.226 141.875C171.896 141.441 172.744 141.053 173.631 140.596L175.01 139.919C175.503 139.709 175.996 139.513 176.488 139.313C178.299 138.579 180.157 137.956 182.052 137.446C183.613 137.087 184.663 136.882 184.663 136.882C184.079 137.002 183.519 137.208 183.002 137.493C182.474 137.769 182.01 138.144 181.638 138.594C180.814 139.552 180.257 140.689 180.016 141.903C179.474 144.534 180.11 147.698 181.583 150.857C181.677 151.053 181.771 151.249 181.859 151.445C182.051 151.833 182.244 152.21 182.446 152.579C182.746 153.134 183.057 153.666 183.367 154.18C183.471 154.352 183.579 154.52 183.682 154.688C183.993 155.188 184.308 155.664 184.619 156.116C184.929 156.569 185.24 156.998 185.535 157.399L186.122 158.169L186.693 158.883C186.875 159.112 187.058 159.327 187.235 159.527C187.677 160.066 188.185 160.553 188.748 160.979C188.903 161.131 189.093 161.248 189.303 161.32C189.513 161.393 189.738 161.42 189.96 161.398C189.96 161.398 189.571 161.487 188.974 161.599C188.278 161.797 187.593 162.032 186.925 162.304L186.373 162.509L185.88 162.775C185.572 162.909 185.276 163.065 184.993 163.242C184.5 163.554 184.165 163.741 184.165 163.741C184.165 163.741 184.101 163.774 184.052 163.816L183.944 163.9C183.79 163.996 183.615 164.059 183.433 164.082C183.25 164.106 183.064 164.09 182.889 164.035C182.515 163.96 182.148 163.857 181.79 163.727C181.381 163.578 180.918 163.377 180.406 163.134L179.775 162.826C179.184 162.523 178.548 162.187 177.893 161.818C177.464 161.58 177.021 161.319 176.562 161.044C174.854 160.031 173.233 158.892 171.714 157.637C170.169 156.401 168.829 154.953 167.737 153.34V153.34Z" fill="#2C5777"/>
<path d="M175.794 172.682L174.966 172.878L174.05 173.074L173.064 173.279C172.572 173.377 172.03 173.48 171.473 173.573C170.916 173.666 170.335 173.764 169.729 173.853L169.118 173.932C168.502 174.016 167.861 174.086 167.206 174.142C166.772 174.18 166.329 174.208 165.875 174.231L165.2 174.259C163.47 174.327 161.737 174.193 160.041 173.858C158.548 173.572 157.13 173.009 155.868 172.201C154.756 171.483 153.857 170.508 153.256 169.369C152.75 168.27 152.606 167.051 152.842 165.874C153.063 165.055 153.47 164.292 154.035 163.638C154.113 164.233 154.279 164.814 154.528 165.365C154.657 165.646 154.805 165.919 154.971 166.181C155.153 166.454 155.356 166.715 155.577 166.961C155.754 167.161 155.942 167.353 156.144 167.544C156.706 168.077 157.331 168.546 158.006 168.944C158.468 169.211 158.947 169.449 159.44 169.658C161.308 170.409 163.288 170.881 165.309 171.058C167.316 171.25 169.334 171.306 171.35 171.226C171.895 171.207 172.422 171.184 172.931 171.156C173.705 171.114 174.41 171.058 175.07 170.997L175.76 170.927L176.533 170.829C176.79 170.797 177.026 170.764 177.248 170.726C177.617 170.672 177.981 170.583 178.332 170.461C178.451 170.572 178.539 170.71 178.591 170.861C178.642 171.012 178.655 171.172 178.627 171.328C178.593 171.618 178.302 171.846 177.8 172.061C177.672 172.117 177.534 172.168 177.381 172.22C177.228 172.271 177.09 172.327 176.927 172.378C176.592 172.472 176.218 172.574 175.794 172.682Z" fill="#121A26"/>
<path d="M154.02 163.638C153.968 163.22 153.968 162.797 154.02 162.378C154.081 161.962 154.192 161.553 154.349 161.16V161.109C154.19 161.507 154.078 161.92 154.015 162.341C153.973 162.765 153.983 163.193 154.044 163.615L154.02 163.638Z" fill="#2C5777"/>
<path d="M179.105 169.854C179.044 169.986 178.943 170.098 178.815 170.176C178.664 170.282 178.498 170.367 178.322 170.428V170.428C178.499 170.366 178.665 170.279 178.815 170.171C178.944 170.097 179.046 169.986 179.105 169.854V169.854Z" fill="#2C5777"/>
<path d="M159.435 169.634C158.941 169.426 158.462 169.187 158.001 168.92C157.325 168.523 156.701 168.053 156.138 167.521C155.936 167.329 155.749 167.138 155.572 166.937C155.35 166.691 155.148 166.431 154.965 166.158C154.799 165.895 154.651 165.622 154.522 165.341C154.274 164.79 154.108 164.209 154.029 163.615C153.968 163.193 153.958 162.765 154 162.341C154.063 161.92 154.175 161.507 154.335 161.109L154.601 160.451L154.872 159.788C155.12 159.193 155.401 158.61 155.714 158.043L156.316 156.895C156.532 156.468 156.772 156.052 157.035 155.649C157.572 154.809 158.144 153.904 158.76 153.041C159.376 152.178 160.065 151.366 160.696 150.591C161.327 149.816 162.002 149.191 162.549 148.603C162.83 148.319 163.076 148.048 163.313 147.829L163.933 147.269L164.48 146.802C164.036 147.189 163.664 147.643 163.377 148.146C163.11 148.668 162.926 149.225 162.83 149.798C162.626 151.031 162.779 152.294 163.273 153.452C164.259 155.967 166.55 158.305 169.575 160.241L170.142 160.596C170.516 160.829 170.896 161.062 171.275 161.268C171.844 161.579 172.405 161.877 172.96 162.164L173.512 162.434C174.059 162.705 174.596 162.952 175.114 163.181C175.631 163.41 176.139 163.648 176.617 163.825L177.548 164.193L178.41 164.511C178.691 164.609 178.952 164.697 179.203 164.777C179.884 165.025 180.591 165.202 181.312 165.304C181.548 165.333 181.786 165.333 182.022 165.304C182.206 165.282 182.378 165.207 182.515 165.089L182.318 165.262L182.091 165.453C182.002 165.533 181.923 165.635 181.83 165.733C181.642 165.943 181.406 166.172 181.169 166.424C180.933 166.676 180.741 166.989 180.504 167.264C180.268 167.539 180.13 167.871 179.933 168.141C179.839 168.269 179.762 168.407 179.701 168.552L179.509 168.925C179.362 169.171 179.242 169.431 179.149 169.7L179.065 169.905C179.006 170.041 178.903 170.156 178.77 170.232C178.62 170.34 178.454 170.426 178.277 170.488V170.488C177.926 170.611 177.563 170.7 177.193 170.754C176.971 170.792 176.735 170.824 176.479 170.857L175.705 170.955L175.015 171.025C174.37 171.086 173.65 171.142 172.877 171.184C172.368 171.212 171.84 171.235 171.295 171.254C169.28 171.334 167.261 171.278 165.254 171.086C163.247 170.888 161.284 170.398 159.435 169.634V169.634Z" fill="#2C5777"/>
<path d="M178.104 181.063C177.941 181.268 177.759 181.483 177.567 181.702C177.375 181.921 177.168 182.169 176.951 182.388L176.266 183.106C175.896 183.48 175.527 183.853 175.133 184.24C174.738 184.628 174.315 185.015 173.866 185.412L173.413 185.804C172.95 186.2 172.467 186.597 171.935 186.989C171.595 187.25 171.245 187.511 170.885 187.768L170.333 188.146C168.935 189.112 167.421 189.92 165.825 190.554C165.096 190.837 164.344 191.067 163.578 191.24C162.879 191.391 162.166 191.474 161.449 191.487C160.145 191.532 158.848 191.273 157.675 190.731C156.605 190.182 155.754 189.317 155.251 188.267C154.885 187.518 154.735 186.691 154.817 185.869C155.248 186.299 155.747 186.664 156.295 186.951C156.882 187.233 157.502 187.447 158.143 187.586C158.411 187.647 158.682 187.694 158.956 187.726C159.728 187.826 160.51 187.843 161.287 187.777C161.823 187.733 162.356 187.659 162.883 187.553C164.864 187.114 166.765 186.4 168.525 185.435C170.276 184.494 171.946 183.422 173.516 182.229C173.945 181.907 174.359 181.595 174.748 181.296C175.349 180.829 175.896 180.363 176.379 179.938L176.872 179.471C177.271 179.103 177.616 178.757 177.892 178.445C178.157 178.177 178.398 177.888 178.611 177.581C178.953 177.672 179.246 177.88 179.434 178.165C179.502 178.361 179.521 178.57 179.488 178.774C179.456 178.978 179.373 179.172 179.247 179.341C178.933 179.952 178.549 180.529 178.104 181.063V181.063Z" fill="#121A26"/>
<path d="M154.838 185.869C154.228 185.267 153.769 184.543 153.493 183.751L153.458 183.629C153.732 184.446 154.205 185.191 154.838 185.804V185.869Z" fill="#2C5777"/>
<path d="M178.829 176.615V176.653C178.874 176.813 178.879 176.981 178.843 177.143C178.807 177.305 178.732 177.457 178.622 177.586H178.588C178.705 177.453 178.787 177.296 178.829 177.128C178.871 176.959 178.871 176.784 178.829 176.615V176.615Z" fill="#2C5777"/>
<path d="M162.884 187.553C162.357 187.659 161.824 187.733 161.287 187.777C160.511 187.843 159.729 187.825 158.956 187.726C158.683 187.694 158.411 187.647 158.143 187.586C157.502 187.447 156.882 187.233 156.296 186.951C155.747 186.664 155.249 186.299 154.817 185.869V185.804C154.184 185.191 153.712 184.446 153.438 183.629L153.275 183.013C153.275 183.013 152.989 181.977 152.615 180.409C152.447 179.621 152.329 178.673 152.186 177.67C152.038 176.618 151.959 175.558 151.95 174.497C151.95 173.951 151.95 173.41 151.915 172.873C151.881 172.336 151.984 171.814 152.014 171.305C152.059 170.38 152.158 169.458 152.309 168.543C152.585 166.938 152.802 165.874 152.802 165.874C152.566 167.052 152.71 168.27 153.216 169.369C153.817 170.508 154.716 171.483 155.827 172.201C157.089 173.009 158.508 173.572 160.001 173.858C161.697 174.193 163.429 174.327 165.16 174.259L165.835 174.231C166.288 174.231 166.732 174.18 167.165 174.142C167.821 174.086 168.461 174.016 169.077 173.932L169.688 173.853C170.296 173.763 170.877 173.67 171.433 173.573C171.989 173.48 172.522 173.377 173.024 173.279L174.01 173.074L174.926 172.878L175.754 172.682C176.178 172.574 176.552 172.472 176.882 172.364C177.045 172.313 177.193 172.262 177.336 172.206C177.479 172.15 177.626 172.103 177.754 172.047C178.247 171.833 178.548 171.58 178.582 171.315C178.582 171.315 178.548 171.637 178.449 172.108C178.396 172.376 178.368 172.647 178.366 172.92C178.366 173.069 178.365 173.223 178.316 173.386C178.267 173.55 178.346 173.704 178.351 173.853C178.337 174.165 178.359 174.478 178.415 174.786C178.474 175.085 178.479 175.365 178.533 175.608C178.681 176.074 178.745 176.415 178.745 176.415L178.789 176.611C178.826 176.773 178.823 176.941 178.782 177.103C178.741 177.264 178.663 177.415 178.553 177.544H178.587C178.373 177.851 178.133 178.139 177.868 178.407C177.592 178.72 177.247 179.065 176.848 179.434L176.355 179.901C175.862 180.325 175.325 180.783 174.724 181.259C174.335 181.567 173.921 181.879 173.492 182.192C171.921 183.385 170.252 184.457 168.501 185.398C166.75 186.374 164.858 187.1 162.884 187.553Z" fill="#2C5777"/>
<path d="M157.696 190.731C158.869 191.273 160.166 191.532 161.47 191.487C162.187 191.474 162.9 191.391 163.599 191.24C164.366 191.067 165.117 190.837 165.846 190.554C167.443 189.92 168.956 189.112 170.354 188.146L170.906 187.768C171.266 187.511 171.616 187.25 171.956 186.989C172.449 186.597 172.941 186.2 173.434 185.804L173.887 185.412C174.336 185.015 174.755 184.623 175.154 184.24C175.553 183.858 175.917 183.48 176.287 183.106L176.972 182.388C177.189 182.15 177.396 181.921 177.588 181.702C177.78 181.482 177.962 181.268 178.125 181.062C178.576 180.528 178.964 179.95 179.283 179.336C179.409 179.167 179.492 178.973 179.524 178.769C179.557 178.565 179.538 178.356 179.47 178.16C179.47 178.16 179.648 178.482 179.879 178.991C179.992 179.243 180.229 179.523 180.411 179.84L180.707 180.307C180.825 180.478 180.954 180.643 181.091 180.801C181.357 181.133 181.614 181.468 181.85 181.79L182.653 182.635L183.21 183.242L183.461 183.461L183.723 183.694C183.91 183.887 184.05 184.115 184.135 184.364C184.22 184.613 184.248 184.876 184.215 185.136C184.203 185.492 184.172 185.847 184.122 186.2C184.048 186.623 183.951 187.042 183.831 187.455C183.767 187.67 183.698 187.885 183.619 188.109C183.412 188.715 183.156 189.369 182.845 190.055C182.648 190.498 182.427 190.955 182.185 191.422C181.299 193.147 180.248 194.791 179.046 196.335C177.86 197.885 176.458 199.276 174.878 200.47C174.453 200.78 174.013 201.07 173.557 201.338C172.907 201.722 172.219 202.045 171.503 202.304C171.253 202.391 171.002 202.47 170.749 202.542C170.235 202.683 169.709 202.776 169.177 202.822C168.683 202.873 168.185 202.851 167.699 202.756C166.774 202.586 165.92 202.17 165.235 201.557L164.742 201.09L164.249 200.652C163.959 200.339 163.54 199.901 163.032 199.369L161.278 197.586C160.692 196.858 160.076 196.074 159.47 195.281C159.169 194.88 158.849 194.506 158.578 194.082C158.307 193.657 158.041 193.242 157.78 192.84C157.287 192.024 156.794 191.296 156.42 190.605C155.705 189.205 155.252 188.272 155.252 188.272C155.761 189.322 156.62 190.186 157.696 190.731Z" fill="#2C5777"/>
<path d="M196.488 155.911C193.586 155.706 190.668 155.973 187.86 156.7C187.806 156.611 187.757 156.522 187.703 156.424C187.466 156 187.21 155.547 186.993 155.094C186.569 154.273 186.151 153.382 185.756 152.439C189.201 151.63 192.753 151.316 196.296 151.506C196.268 152.977 196.332 154.448 196.488 155.911Z" fill="#273C56"/>
<path d="M178.594 155.159C179.917 154.388 181.329 153.762 182.802 153.293C182.984 153.619 183.171 153.937 183.358 154.226C183.462 154.399 183.57 154.567 183.674 154.735C183.984 155.234 184.3 155.71 184.61 156.163C184.92 156.615 185.216 157.026 185.512 157.422C184.106 157.862 182.733 158.39 181.402 159.004C177.179 160.605 175.406 156.872 178.594 155.159Z" fill="#273C56"/>
<path d="M157.201 181.496C157.926 179.863 160.946 179.578 162.02 183.699C162.378 184.967 162.817 186.214 163.336 187.432C163.183 187.464 163.03 187.506 162.883 187.534C162.356 187.64 161.823 187.714 161.286 187.758C160.51 187.824 159.728 187.806 158.955 187.707C158.682 187.675 158.41 187.628 158.142 187.567L157.945 187.516C157.157 185.453 156.482 183.12 157.201 181.496Z" fill="#273C56"/>
<path d="M169.161 202.845C168.988 202.845 168.816 202.845 168.668 202.845C162.794 197.357 159.799 192.177 159.459 191.272C160.131 191.413 160.82 191.477 161.508 191.463C162.225 191.451 162.938 191.368 163.637 191.216C164.083 191.117 164.524 190.997 164.958 190.857C165.258 191.426 165.569 191.986 165.904 192.537C167.355 194.838 169.003 197.023 170.831 199.07C171.479 199.992 172.24 200.84 173.098 201.594C172.594 201.862 172.07 202.094 171.531 202.289C171.281 202.376 171.03 202.456 170.777 202.527C170.251 202.684 169.709 202.79 169.161 202.845V202.845Z" fill="#273C56"/>
<path d="M172.926 171.142C172.417 171.17 171.889 171.193 171.344 171.212C170.566 171.212 169.753 171.244 168.915 171.212C169.074 169.801 169.559 168.441 170.334 167.227C171.369 165.514 175.01 165.598 174.532 168.417C174.32 169.28 174.17 170.156 174.084 171.039L172.926 171.142Z" fill="#3276A0"/>
<path d="M173.517 182.229C172.557 182.947 171.502 183.675 170.349 184.38C169.004 181.048 168.679 177.53 168.772 173.974L169.102 173.932L169.713 173.853C170.321 173.762 170.903 173.669 171.458 173.573C172.015 173.479 172.547 173.377 173.049 173.279L173.986 173.087C174.005 175.695 174.491 178.282 175.424 180.735C175.208 180.917 174.986 181.095 174.749 181.286C174.36 181.594 173.946 181.907 173.517 182.229Z" fill="#3276A0"/>
<path d="M179.139 196.186C178.647 195.682 178.183 195.183 177.74 194.73C175.434 192.431 173.421 189.883 171.743 187.138L171.955 186.979C172.448 186.587 172.941 186.191 173.433 185.794L173.887 185.402C174.335 185.005 174.754 184.613 175.153 184.231C175.552 183.848 175.917 183.47 176.286 183.097L176.41 182.971C176.779 183.727 177.183 184.469 177.631 185.192C177.843 185.57 178.07 185.939 178.316 186.293C179.381 188.138 180.686 189.85 182.199 191.389C182.199 191.389 182.199 191.422 182.175 191.436C181.313 193.101 180.297 194.69 179.139 196.186Z" fill="#3276A0"/>
<path d="M197.666 144.917C193.065 145.076 188.497 145.721 184.046 146.84C183.881 145.94 183.795 145.028 183.79 144.114C183.789 143.603 183.823 143.091 183.894 142.584C183.99 141.853 184.172 141.135 184.436 140.442C184.48 140.321 184.539 140.209 184.589 140.092C186.239 139.686 187.905 139.345 189.58 139.056C190.516 138.963 191.452 138.883 192.393 138.837C194.472 138.758 196.553 138.875 198.607 139.187C198.324 140.272 198.193 141.387 198.218 142.505C197.928 143.284 197.743 144.094 197.666 144.917V144.917Z" fill="#3276A0"/>
<path d="M180.469 147.936C178.261 148.712 176.132 149.676 174.108 150.815C172.163 151.911 170.346 153.198 168.687 154.656C168.333 154.235 168.004 153.795 167.702 153.34C167.416 152.899 167.159 152.443 166.933 151.972C166.602 151.299 166.358 150.591 166.204 149.863C166.155 149.607 166.115 149.355 166.086 149.103C166.056 148.851 166.056 148.734 166.051 148.547L166.179 148.445C170.37 145.345 175.089 142.948 180.134 141.356C180.075 141.552 180.01 141.748 179.971 141.949C179.646 143.954 179.816 146.004 180.469 147.936V147.936Z" fill="#3276A0"/>
<path d="M158.552 157.213C159.69 155.126 161.117 153.193 162.795 151.464C162.866 152.132 163.031 152.788 163.287 153.414C163.903 154.874 164.822 156.202 165.988 157.32C164.716 158.734 163.576 160.25 162.583 161.851C162.38 162.199 162.086 162.491 161.73 162.701C161.374 162.911 160.967 163.031 160.548 163.05C159.94 163.06 159.351 162.846 158.907 162.453C158.836 162.391 158.769 162.326 158.705 162.257C157.128 160.526 158.271 158.057 158.552 157.213Z" fill="#3276A0"/>
<path d="M206.218 212.231C218.788 216.999 236.579 221.41 256.501 224.323C276.422 227.237 294.795 228.083 308.319 227.162C321.842 226.241 330.463 223.459 331.171 219.123L327.863 239.43C326.447 248.127 293.009 250.451 253.186 244.63C213.363 238.809 182.227 227.036 183.65 218.314L186.958 198.007C186.283 202.375 193.68 207.481 206.218 212.231Z" fill="#346E91"/>
<path d="M186.991 198.033C187.202 196.779 188.109 195.608 189.637 194.605L189.028 198.365L188.42 202.124C187.288 200.67 186.766 199.317 186.991 198.033Z" fill="#4688AB"/>
<path d="M207.057 210.445C220.052 215.357 237.737 219.605 256.844 222.4C275.952 225.194 294.166 226.197 308.12 225.219C322.933 224.192 328.696 221.178 329.159 218.878L328.557 222.55C322.02 226.848 304.15 228.477 281.463 226.992L231.914 219.749C209.803 214.68 193.283 208.02 188.42 202.061L189.028 198.302C188.651 200.633 193.15 205.188 207.057 210.445Z" fill="#4688AB"/>
<path d="M283.084 61.4599C321.782 67.099 348.306 101.416 342.438 137.418L329.867 214.448L329.159 218.765V218.878C328.696 221.178 322.933 224.192 308.12 225.219C294.166 226.197 275.958 225.188 256.844 222.4C237.73 219.611 220.051 215.357 207.057 210.445C193.163 205.188 188.651 200.633 189.028 198.333L189.736 193.947L202.307 116.88C208.175 80.8709 244.393 55.7518 283.091 61.4097L283.084 61.4599Z" fill="#121A26"/>
<path d="M274.707 112.813C255.6 110.019 237.392 109.016 223.439 109.987C208.499 111.034 202.763 114.085 202.386 116.391C202.009 118.696 206.508 123.245 220.415 128.502C233.409 133.415 251.094 137.656 270.202 140.451C289.309 143.245 307.524 144.248 321.477 143.277C336.417 142.237 342.153 139.179 342.53 136.879C342.907 134.58 338.408 130.025 324.494 124.768C311.5 119.856 293.822 115.608 274.707 112.813ZM275.025 110.889C314.848 116.71 345.984 128.483 344.568 137.205C343.152 145.927 309.714 148.227 269.891 142.406C230.068 136.585 198.932 124.812 200.348 116.09C201.764 107.368 235.202 105.062 275.025 110.889Z" fill="#2A6D96"/>
<path d="M277.831 93.6714C258.724 90.8769 240.509 89.8744 226.556 90.8456C211.623 91.8857 205.88 94.9433 205.51 97.2428C205.139 99.5423 209.632 104.097 223.539 109.354C236.533 114.267 254.218 118.508 273.326 121.303C292.433 124.097 310.648 125.106 324.601 124.129C339.54 123.089 345.277 120.037 345.654 117.731C346.031 115.426 341.532 110.877 327.618 105.62C314.624 100.708 296.945 96.4659 277.831 93.6714ZM273.015 123.233C233.192 117.412 202.056 105.639 203.472 96.917C204.888 88.1952 238.326 85.8957 278.149 91.7165" fill="#2A6D96"/>
<path d="M286.279 41.8672C305.403 44.6652 322.571 54.5425 334.006 69.3265C345.44 84.1105 350.206 102.59 347.254 120.702L345.196 133.333C343.774 142.03 310.342 144.361 270.52 138.534C230.697 132.707 199.561 120.946 200.977 112.218L203.041 99.5802C206.002 81.4755 216.434 65.2255 232.043 54.403C247.652 43.5805 267.16 39.0714 286.279 41.8672V41.8672Z" fill="#346E91"/>
<path d="M203.492 96.8106L203.611 96.5663L203.453 97.337C203.453 97.1608 203.466 96.9849 203.492 96.8106Z" fill="#121A26"/>
<path d="M213.939 91.7733C215.423 89.1222 217.653 86.9121 220.383 85.3885C219.057 86.5813 217.94 87.9667 217.075 89.4926V89.4926C215.943 91.4936 215.271 93.698 215.1 95.9619C214.93 98.2259 215.265 100.498 216.085 102.631C216.905 104.764 218.19 106.709 219.858 108.339C221.525 109.97 223.537 111.249 225.762 112.093C238.332 116.805 255.918 121.147 275.648 124.029C280.941 124.806 286.114 125.432 291.116 125.909C294.732 126.269 298.374 125.511 301.497 123.747C299.724 125.382 297.592 126.627 295.254 127.394C292.916 128.162 290.428 128.433 287.967 128.189C282.965 127.701 277.785 127.074 272.498 126.31C252.769 123.421 235.17 119.079 222.612 114.367C220.39 113.522 218.38 112.242 216.715 110.612C215.049 108.981 213.766 107.037 212.947 104.905C212.129 102.773 211.794 100.502 211.965 98.239C212.136 95.9763 212.808 93.7732 213.939 91.7733V91.7733Z" fill="#468CAF"/>
<path d="M275.66 124.029C255.931 121.147 238.338 116.805 225.774 112.093C223.549 111.249 221.537 109.97 219.87 108.339C218.203 106.709 216.917 104.764 216.097 102.631C215.277 100.498 214.942 98.2259 215.112 95.962C215.283 93.6981 215.956 91.4936 217.087 89.4926V89.4926C217.842 87.9554 218.93 86.5854 220.28 85.4713C221.629 84.3571 223.211 83.5236 224.922 83.0246C226.633 82.5256 228.436 82.3722 230.213 82.5743C231.991 82.7765 233.704 83.3297 235.242 84.1982C246.152 88.1518 261.078 91.7796 277.744 94.2233C282.303 94.8874 286.769 95.4325 291.089 95.8586C295.495 96.2832 299.563 98.2875 302.458 101.461C305.354 104.634 306.858 108.736 306.663 112.926V112.926C306.832 114.827 306.53 116.739 305.78 118.509C305.03 120.279 303.853 121.859 302.344 123.122C300.835 124.385 299.035 125.296 297.088 125.784C295.14 126.271 293.1 126.32 291.129 125.927C286.127 125.432 280.953 124.806 275.66 124.029Z" fill="#121A26"/>
<path d="M239.833 100.328C240.922 95.9304 239.774 91.9143 237.269 91.3579C234.763 90.8015 231.85 93.9154 230.761 98.313C229.671 102.711 230.819 106.727 233.325 107.283C235.83 107.84 238.743 104.726 239.833 100.328Z" fill="#34D29D"/>
<path d="M269.519 111.913C270.34 107.767 274.845 105.099 279.564 105.942C284.284 106.785 287.453 110.821 286.623 114.968" stroke="#34D29D" stroke-width="3" stroke-miterlimit="10" stroke-linecap="round"/>
<path d="M269.891 142.381C309.714 148.201 343.145 145.871 344.568 137.18L335.186 194.699C334.386 199.624 323.277 202.506 306.611 203.026C299.211 203.213 291.807 203.037 284.427 202.5C283.078 202.409 281.763 202.054 280.567 201.458C279.37 200.862 278.316 200.038 277.473 199.037C276.629 198.036 276.014 196.881 275.665 195.643C275.317 194.406 275.243 193.114 275.449 191.848C276.71 184.111 274.75 176.213 269.98 169.818C265.211 163.424 258.005 159.035 249.884 157.575L247.019 157.061C242.977 156.333 238.822 156.384 234.801 157.209C230.78 158.035 226.976 159.619 223.616 161.866C220.255 164.114 217.407 166.979 215.24 170.292C213.074 173.604 211.634 177.296 211.007 181.146V181.146C210.876 181.933 210.552 182.68 210.06 183.327C209.568 183.973 208.922 184.5 208.175 184.866C207.427 185.233 206.6 185.427 205.758 185.434C204.917 185.44 204.086 185.26 203.332 184.906C195.035 181.027 190.404 177.067 190.973 173.627L200.348 116.102C198.932 124.787 230.068 136.56 269.891 142.381Z" fill="#346E91"/>
<path d="M245.617 169.818C256.487 171.409 263.897 181.259 262.157 191.817C260.417 202.374 250.248 209.649 239.358 208.057C228.468 206.466 221.078 196.622 222.818 186.059C224.558 175.495 234.747 168.233 245.617 169.818ZM239.828 201.773C247.172 202.844 254.072 197.926 255.237 190.789C256.401 183.653 251.386 177.005 244.042 175.921C240.464 175.477 236.845 176.378 233.959 178.429C231.073 180.48 229.149 183.519 228.598 186.897C228.047 190.274 228.914 193.721 231.013 196.501C233.111 199.281 236.275 201.173 239.828 201.773V201.773Z" fill="#2A6D96"/>
<path d="M243.664 169.536C254.534 171.128 261.951 180.977 260.204 191.535C258.457 202.092 248.295 209.367 237.405 207.782C226.514 206.197 219.118 196.341 220.864 185.783C222.611 175.225 232.82 167.951 243.664 169.536ZM238.787 199.461C241.047 199.847 243.376 199.585 245.478 198.711C247.58 197.837 249.359 196.389 250.588 194.553C251.816 192.716 252.439 190.575 252.376 188.401C252.313 186.228 251.568 184.122 250.235 182.352C248.902 180.582 247.042 179.229 244.893 178.465C242.743 177.7 240.402 177.561 238.169 178.063C235.935 178.565 233.91 179.686 232.353 181.283C230.796 182.881 229.776 184.881 229.426 187.03C229.178 188.43 229.225 189.863 229.564 191.246C229.902 192.629 230.525 193.935 231.397 195.089C232.269 196.244 233.373 197.225 234.646 197.975C235.918 198.725 237.335 199.23 238.814 199.461H238.787Z" fill="#2C5777"/>
<path d="M220.892 185.783C221.405 182.492 222.802 179.381 224.948 176.748C227.095 174.115 229.92 172.048 233.152 170.746C232.196 174.114 231.971 177.631 232.49 181.084C230.861 182.718 229.794 184.783 229.434 187.005C229.186 188.403 229.232 189.834 229.569 191.216C229.906 192.597 230.526 193.903 231.396 195.057C232.265 196.211 233.366 197.192 234.636 197.943C235.905 198.695 237.319 199.202 238.796 199.436C240.903 199.741 243.059 199.461 245.002 198.628C246.213 198.973 247.463 199.184 248.726 199.254H249.177C251.652 199.808 254.206 199.977 256.739 199.756C254.635 202.664 251.71 204.954 248.297 206.364C244.884 207.773 241.122 208.245 237.439 207.725C226.589 206.19 219.185 196.341 220.892 185.783Z" fill="#1F4060"/>
<path d="M257.176 192.061C257.421 192.06 257.658 191.977 257.844 191.825C258.029 191.673 258.152 191.464 258.188 191.234C258.948 186.729 257.807 182.123 255.012 178.408C253.656 176.584 251.925 175.038 249.923 173.862C247.921 172.687 245.689 171.906 243.361 171.566C243.224 171.539 243.082 171.539 242.945 171.565C242.808 171.592 242.678 171.645 242.563 171.721C242.448 171.796 242.35 171.893 242.276 172.006C242.202 172.119 242.153 172.244 242.131 172.376C242.11 172.507 242.118 172.641 242.153 172.769C242.188 172.897 242.251 173.018 242.337 173.123C242.423 173.227 242.53 173.314 242.653 173.379C242.776 173.443 242.911 173.483 243.05 173.496C245.105 173.795 247.075 174.485 248.842 175.522C250.608 176.56 252.136 177.925 253.332 179.536C255.816 182.839 256.83 186.934 256.157 190.939C256.117 191.194 256.185 191.454 256.346 191.661C256.507 191.869 256.748 192.008 257.017 192.048L257.176 192.061Z" fill="#2A6D96"/>
<path d="M239.166 197.287C240.971 197.597 242.832 197.39 244.513 196.693C246.193 195.995 247.615 194.839 248.598 193.373C249.581 191.906 250.08 190.195 250.031 188.458C249.982 186.721 249.386 185.038 248.322 183.623C247.257 182.208 245.771 181.127 244.053 180.516C242.336 179.905 240.465 179.793 238.68 180.195C236.895 180.596 235.277 181.492 234.033 182.769C232.789 184.046 231.975 185.645 231.696 187.362C231.301 189.616 231.866 191.925 233.266 193.786C234.666 195.646 236.787 196.905 239.166 197.287V197.287Z" fill="#4FC997"/>
<path d="M243.487 194.229C243.597 194.23 243.707 194.204 243.804 194.154C245.427 193.349 246.646 191.966 247.193 190.31C247.739 188.654 247.569 186.86 246.719 185.323C245.868 183.785 244.408 182.631 242.659 182.114C240.91 181.596 239.016 181.758 237.393 182.563C237.313 182.604 237.243 182.659 237.185 182.726C237.128 182.793 237.085 182.87 237.059 182.953C237.034 183.036 237.025 183.122 237.035 183.208C237.044 183.294 237.072 183.377 237.115 183.452C237.159 183.528 237.217 183.595 237.288 183.649C237.359 183.703 237.44 183.744 237.527 183.768C237.615 183.793 237.706 183.801 237.797 183.792C237.887 183.782 237.975 183.757 238.055 183.716C239.35 183.116 240.841 183.018 242.211 183.443C243.581 183.868 244.722 184.783 245.391 185.992C246.061 187.201 246.206 188.61 245.796 189.919C245.386 191.228 244.453 192.333 243.195 193.001C243.113 193.038 243.04 193.091 242.98 193.156C242.92 193.221 242.875 193.297 242.848 193.38C242.82 193.462 242.811 193.549 242.821 193.635C242.831 193.72 242.859 193.803 242.904 193.878C242.961 193.979 243.045 194.065 243.147 194.126C243.249 194.188 243.366 194.223 243.487 194.229V194.229Z" fill="#84EFC1"/>
<g opacity="0.5">
<path d="M266.974 51.8482C256.752 48.0888 247.331 52.2428 243.52 55.8581C238.796 60.3255 238.174 68.3393 250.659 73.7466C266.312 80.5261 284.705 81.7291 292.552 81.7291C307.353 81.7291 304.402 72.3305 302.397 68.0824C300.28 63.615 296.039 57.3243 286.961 55.9772C277.659 54.605 271.671 53.5963 266.974 51.8482Z" fill="#4688AB"/>
</g>
<g opacity="0.5">
<path d="M309.746 57.6251C315.086 56.7166 335.252 75.0624 324.712 79.6614C319.611 81.8857 316.985 75.4885 313.405 69.8432C309.588 63.7968 305.108 58.4146 309.746 57.6251Z" fill="#4688AB"/>
</g>
<g opacity="0.6">
<path opacity="0.6" d="M330.291 98.4023C337.893 98.5088 338.845 112.851 335.246 118.039C332.335 122.218 325.256 120.407 324.177 116.278C323.238 112.663 323.516 107.506 324.177 104.825C325.315 100.445 327.856 98.371 330.291 98.4023Z" fill="#346F93"/>
</g>
<path d="M379.538 189.991C379.158 189.183 378.592 188.466 377.881 187.893C377.458 187.659 377.758 187.012 377.751 186.48C377.749 186.417 377.748 186.354 377.693 186.299C377.537 185.889 377.853 186.333 377.683 185.911C375.054 181.315 371.644 177.161 367.589 173.615C366.889 172.984 366.022 172.544 365.08 172.34C364.602 172.269 364.507 171.426 364.2 171.069C359.725 167.988 354.743 165.628 349.455 164.086C348.8 163.955 348.124 163.953 347.469 164.083C347.014 163.942 346.589 163.725 346.215 163.442C345.932 163.258 345.623 163.113 345.297 163.012C342.662 161.733 337.575 158.564 332.583 159.259C325.224 160.285 323.457 164.527 321.918 167.659C321.023 170.357 320.159 173.461 320.514 176.398C320.704 178.454 321.372 180.444 322.471 182.226C323.569 184.007 325.071 185.536 326.869 186.702C328.118 187.588 329.618 188.1 331.177 188.173C332.205 188.28 332.355 187.193 332.362 187.205C332.369 187.217 332.536 187.508 332.57 187.551C333.064 188.21 334.122 188.436 334.96 188.597C337.488 189.083 340.437 189.991 342.865 190.447C343.356 190.498 343.987 190.345 344.004 190.483C344.054 191.103 344.345 191.684 344.822 192.112C347.159 193.61 349.377 195.269 351.459 197.075C351.619 197.14 352.244 197.244 352.129 197.41C351.826 197.959 351.756 198.598 351.932 199.195C352.232 200.059 352.772 202.428 353.459 203.634C353.535 203.77 353.738 203.702 353.643 203.842C353.482 203.923 353.327 204.014 353.18 204.117C352.947 204.357 352.782 204.65 352.7 204.968C352.397 206.407 351.782 207.77 350.893 208.972C350.795 209.262 351.376 209.205 351.35 209.469C351.446 209.61 350.619 209.862 350.422 209.936C349.907 209.935 349.41 210.114 349.026 210.439C347.737 211.472 346.3 212.327 344.758 212.978C344.39 213.319 344.694 213.324 344.48 213.467C345.03 217.522 343.944 221.979 342.448 225.474C341.373 228.054 339.939 230.487 338.185 232.708C336.184 235.889 333.272 238.879 329.788 240.541C329.862 240.646 329.965 240.73 330.086 240.784C330.784 240.899 343.496 241.363 348.023 240.597C348.6 240.442 349.105 240.105 349.454 239.642C349.569 239.508 350.011 239.948 350.316 239.972C350.621 239.997 350.985 240.245 351.269 240.213C357.303 238.648 362.884 235.809 367.595 231.91C368.367 231.224 368.945 230.366 369.276 229.413C369.475 228.675 370.04 229.264 370.67 228.81C370.799 228.675 371.326 228.588 371.461 228.446C375.909 223.85 379.15 218.325 380.922 212.321C380.967 211.457 380.771 210.597 380.354 209.828C380.098 209.407 380.897 209.338 381.144 208.931C381.252 208.753 381.576 208.758 381.657 208.568C382.691 202.307 381.96 195.899 379.538 189.991Z" fill="#346E91"/>
<path d="M331.15 188.148C332.179 188.256 332.329 187.168 332.336 187.18C332.343 187.192 332.509 187.483 332.543 187.526C333.037 188.185 334.096 188.411 334.934 188.573C337.462 189.058 340.411 189.959 342.839 190.422C343.33 190.473 343.961 190.32 343.978 190.458C344.027 191.078 344.319 191.659 344.795 192.087C347.133 193.586 349.351 195.244 351.432 197.05C351.593 197.115 352.218 197.219 352.103 197.385C351.8 197.935 351.729 198.573 351.905 199.17C352.206 200.034 352.745 202.403 353.432 203.609C353.445 203.635 353.467 203.656 353.493 203.67C358.336 200.893 364.108 199.952 369.652 201.037C373.768 201.754 378.225 205.403 381.632 208.568C382.708 202.301 381.98 195.875 379.525 189.966C379.145 189.158 378.579 188.441 377.868 187.868C377.445 187.634 377.745 186.987 377.738 186.455C377.736 186.392 377.734 186.329 377.68 186.274C377.524 185.864 377.84 186.308 377.67 185.886C375.041 181.29 371.63 177.136 367.576 173.59C366.876 172.959 366.009 172.518 365.067 172.314C364.589 172.244 364.494 171.4 364.186 171.044C359.711 167.963 354.729 165.603 349.442 164.061C348.787 163.929 348.111 163.928 347.456 164.058C347 163.917 346.575 163.7 346.202 163.417C345.919 163.233 345.61 163.088 345.283 162.987C342.649 161.708 337.561 158.538 332.57 159.233C325.211 160.26 323.443 164.501 321.905 167.634C321.01 170.332 320.146 173.436 320.501 176.373C320.691 178.429 321.359 180.419 322.457 182.2C323.556 183.982 325.058 185.511 326.856 186.677C328.105 187.563 329.605 188.075 331.163 188.148L331.15 188.148Z" fill="#346E91"/>
<path d="M349.753 171.664C348.612 173.024 348.505 174.683 348.824 176.429C348.975 177.151 349.277 177.837 349.712 178.446C350.146 179.056 350.706 179.577 351.356 179.979C353.271 181.231 354.972 182.752 356.402 184.489C359.357 188.211 357.221 192.576 360.318 195.927C362.633 198.433 365.974 199.816 368.588 199.038C370.588 198.442 373.058 195.714 373.219 193.734C373.55 189.661 368.835 182.269 365.171 178.297C362.736 175.554 359.937 173.121 356.844 171.058C356.139 170.591 355.331 170.281 354.481 170.153C353.632 170.025 352.762 170.081 351.939 170.318C351.084 170.549 350.323 171.018 349.753 171.664Z" fill="#4688AB"/>
<path d="M338.125 179.121C345.182 181.705 353.74 186.479 356.04 193.356C356.139 194.005 356.194 196.4 355.627 200.787C355.583 200.844 355.291 201.34 355.246 201.391C355.106 202.078 355.768 201.335 355.52 201.968C355.276 202.099 355.041 202.245 354.817 202.404C354.518 202.618 354.219 202.82 353.914 203.053C353.729 203.207 353.556 203.374 353.397 203.554C352.877 202.638 352.552 201.361 351.459 199.074C350.366 196.787 346.691 193.189 344.796 192.106C344.319 191.678 344.028 191.097 343.978 190.477C343.961 190.34 343.33 190.492 342.839 190.441C340.411 189.979 337.462 189.077 334.934 188.592C334.096 188.43 333.038 188.204 332.544 187.545C332.509 187.496 332.337 187.237 332.336 187.199C332.302 187.381 332.227 187.554 332.117 187.707C332.007 187.86 331.864 187.989 331.698 188.086L331.527 188.14L331.441 188.142C331.342 188.154 331.243 188.156 331.143 188.149C329.662 188.096 328.228 187.636 327.018 186.824C323.365 184.335 321.038 181.175 320.461 176.375C319.885 171.865 321.144 167.317 323.983 163.656C324.895 162.6 319.841 174.948 330.294 177.038C332.958 177.535 335.577 178.231 338.125 179.121Z" fill="#1F4060"/>
<path d="M333.063 174.922C336.523 169.594 342.727 164.953 347.422 164.052C347.07 163.762 346.686 163.508 346.277 163.296C345.663 163.053 344.999 162.943 344.335 162.975C343.67 163.007 343.022 163.18 342.437 163.481C338.635 165.357 333.796 168.606 331.015 173.297C328.48 177.532 327.726 183.065 329.792 186.375C331.209 188.648 331.937 188.38 332.466 187.39C332.594 187.224 328.351 182.185 333.063 174.922Z" fill="#0F141D"/>
<path d="M348.894 180.182C353.576 175.013 360.315 171.093 365.299 172.359C365.269 172.33 365.245 172.294 365.23 172.254C364.825 171.505 364.175 170.9 363.377 170.529C362.578 170.158 361.675 170.042 360.801 170.197C355.908 171.09 350.884 174.588 347.129 178.745C343.554 182.69 342.457 186.007 342.314 188.624C342.245 190.023 342.728 190.782 343.958 190.465C343.581 187.992 345.37 184.051 348.894 180.182Z" fill="#0F141D"/>
<path d="M378.336 186.829C378.215 186.422 378 186.046 377.707 185.728C377.413 185.41 377.049 185.157 376.64 184.989C375.396 184.489 374.093 184.133 372.76 183.928C369.723 183.454 358.818 182.265 351.064 192.652C350.355 193.609 350.234 194.553 351.307 195.079C351.36 195.077 351.401 195.114 351.413 195.076C359.791 185.044 369.529 185.646 372.354 186.087C374.939 186.489 377.169 187.477 378.379 188.683C378.536 188.072 378.521 187.433 378.336 186.829V186.829Z" fill="#0F141D"/>
<path d="M381.494 209.111C381.645 208.755 381.694 208.366 381.636 207.986C381.579 207.606 381.416 207.246 381.165 206.944C380.285 205.907 379.258 204.988 378.115 204.215C374.213 201.662 369.689 200.093 364.969 199.657C361.074 199.266 357.774 199.602 355.02 201.09C353.715 201.791 352.902 202.581 353.446 203.634C353.523 203.783 353.585 203.869 353.63 203.843C358.843 200.73 369.169 200.811 376.733 206.021C378.247 206.999 379.486 208.312 380.342 209.847C380.582 209.82 380.811 209.739 381.011 209.611C381.212 209.483 381.377 209.312 381.494 209.111V209.111Z" fill="#0F141D"/>
<path d="M285.813 50.6699C275.105 49.2295 266.682 46.3426 267 44.2219C267.318 42.1011 276.257 41.5497 286.965 42.99C297.674 44.4304 306.097 47.3172 305.779 49.4379C305.461 51.5586 296.522 52.1103 285.813 50.6699Z" fill="#121A26"/>
<path d="M271.654 40.899C274.7 42.1505 280.212 43.4488 286.586 44.3061C292.959 45.1634 298.643 45.3646 301.938 44.9598C303.671 44.7689 304.836 44.1282 304.915 43.6009C304.915 43.6009 306.013 47.8685 305.954 48.2593C305.6 50.6166 296.555 51.3554 285.753 49.9025C274.952 48.4495 266.479 45.3672 266.833 43.0099C266.926 42.3896 268.869 38.9233 269.289 38.6634C269.481 39.1798 269.794 39.6489 270.203 40.0358C270.612 40.4227 271.108 40.7177 271.654 40.899Z" fill="#2C5777"/>
<path d="M292.33 44.9143C294.767 45.1029 296.967 45.1836 298.862 45.16C298.886 46.9606 298.928 48.77 298.986 50.5687C296.516 50.6976 294.039 50.6731 291.573 50.4955C291.633 49.9593 292.157 46.2453 292.33 44.9143Z" fill="#346F93"/>
<path d="M284.049 43.9332C284.875 44.0442 285.702 44.1871 286.554 44.3017L287.071 44.3713C286.905 45.8804 286.438 49.6148 286.41 49.9781L285.723 49.8856C284.707 49.7491 283.705 49.6142 282.736 49.4395C283.312 47.6438 283.705 45.7854 284.049 43.9332Z" fill="#346F93"/>
<path d="M272.985 41.3943C273.767 41.6578 274.649 41.9282 275.613 42.1844C274.835 43.8518 274.177 45.5607 273.557 47.2935C272.548 46.9734 271.557 46.6058 270.588 46.1917C271.401 44.5988 272.205 43.0297 272.985 41.3943Z" fill="#346F93"/>
<path d="M287.469 38.419C297.347 39.7476 305.162 42.1341 304.918 43.7594C304.832 44.3363 303.742 44.7403 301.938 44.9597C298.643 45.3645 292.966 45.1642 286.586 44.306C280.206 43.4478 274.684 42.1734 271.654 40.8989C270.246 40.3045 269.051 39.5363 269.138 38.9593C269.382 37.3341 277.591 37.0903 287.469 38.419Z" fill="#4D9DBC"/>
<path d="M287.304 39.5234C290.631 39.971 293.245 40.8985 293.144 41.5747C293.108 41.8166 292.733 42.0003 292.113 42.1196C290.389 42.3303 288.642 42.2979 286.929 42.0234C285.2 41.8445 283.511 41.4145 281.921 40.7486C281.455 40.515 281.06 40.2025 281.098 39.9543C281.199 39.2782 283.976 39.0758 287.304 39.5234Z" fill="#121A26"/>
<path d="M291.112 18.5058C296.136 19.1816 292.441 40.8344 292.441 40.8344C292.441 40.8344 291.454 41.6193 287.118 41.0361C282.781 40.4528 281.881 39.4585 281.881 39.4585C281.881 39.4585 286.376 17.8688 291.112 18.5058Z" fill="#2C5777"/>
<path d="M288.973 37.8368C289.851 37.9549 290.592 37.3393 290.854 36.1278C291.525 32.21 291.845 28.2454 291.809 24.2764C291.866 24.0157 291.815 23.7444 291.668 23.5177C291.521 23.2909 291.288 23.1258 291.016 23.056V23.056C290.74 23.0519 290.471 23.147 290.265 23.3224C290.059 23.4977 289.931 23.7402 289.906 24.0014C289.906 24.0014 287.619 33.1867 287.66 35.7235C287.629 36.9978 288.07 37.7152 288.973 37.8368Z" fill="#468CAF"/>
<path d="M290.981 21.3359C290.467 21.2668 290.11 20.8165 290.183 20.33C290.256 19.8435 290.731 19.5052 291.245 19.5743C291.759 19.6434 292.116 20.0937 292.043 20.5802C291.97 21.0667 291.495 21.405 290.981 21.3359Z" fill="#468CAF"/>
<rect width="402" height="200" fill="url(#paint0_linear_50_4656)"/>
<g clip-path="url(#clip1_50_4656)">
<path d="M76.6905 118.571C94.7241 118.571 109.316 132.819 109.316 150C109.316 166.963 95.0971 181.062 77.3816 181.422L76.6927 181.429H75.7121C72.5288 181.429 69.9071 178.476 69.9071 175.445C69.9071 172.528 71.6271 169.683 74.5888 169.469L74.9508 169.456H75.9314C87.4887 169.456 96.9772 160.805 96.9772 149.793C96.9772 138.778 87.6599 130.125 76.1004 130.125C64.7427 130.125 56.3687 138.772 56.0769 149.52L56.0704 150.099V151.031C56.0704 154.065 52.9726 156.558 49.7849 156.558C46.7201 156.558 43.7299 154.243 43.5149 151.364L43.4995 151.029V150.099C43.4995 133.131 58.1809 118.936 75.9095 118.578L76.5918 118.571H76.6905ZM60.9737 159.823C63.4396 159.823 65.8989 161.352 66.1073 163.751L66.1249 164.082V172.756C66.1249 175.34 63.7774 177.5 61.1974 177.5C60.3111 177.5 59.2142 177.387 58.5121 176.892L58.2686 176.691L48.484 166.944C47.8258 166.276 47.613 165.348 47.613 164.311C47.613 161.834 49.5151 159.988 51.9766 159.833L52.3145 159.823H60.9737ZM345.803 143.714C347.341 143.714 348.756 143.851 350.038 144.119C352.284 144.592 354.118 145.474 355.487 146.752C357.703 148.764 358.778 151.802 358.778 155.762C358.778 157.595 358.475 159.198 357.881 160.631C357.276 162.059 356.336 163.335 355.132 164.359C353.936 165.392 352.499 166.14 350.827 166.653C349.208 167.171 347.361 167.397 345.387 167.397C344.43 167.397 343.531 167.34 342.578 167.168C342.172 167.106 341.773 167.009 341.385 166.879L341.383 166.833V174.164C341.383 174.739 340.902 175.143 340.363 175.143H334.106C333.971 175.144 333.838 175.119 333.714 175.07C333.59 175.021 333.477 174.949 333.382 174.858C333.288 174.767 333.213 174.658 333.163 174.539C333.113 174.42 333.088 174.293 333.09 174.164V145.147C333.09 144.575 333.57 144.173 334.106 144.173H340.363C340.784 144.173 341.144 144.399 341.321 144.745C341.681 144.578 342.098 144.399 342.515 144.23C343.571 143.878 344.683 143.704 345.801 143.714H345.803ZM156.506 135.333C157.137 135.333 157.576 135.813 157.576 136.35V140.611C157.576 141.208 157.072 141.625 156.506 141.625L146.611 141.619L146.62 165.752C146.621 165.886 146.593 166.018 146.54 166.142C146.486 166.265 146.407 166.377 146.308 166.471C146.208 166.565 146.09 166.639 145.96 166.689C145.831 166.739 145.692 166.764 145.552 166.762L138.898 166.764C138.757 166.766 138.618 166.741 138.488 166.691C138.358 166.641 138.24 166.567 138.14 166.473C138.04 166.378 137.961 166.266 137.907 166.142C137.854 166.019 137.826 165.886 137.827 165.752L137.836 141.619L127.937 141.625C127.797 141.627 127.658 141.603 127.527 141.553C127.397 141.502 127.279 141.428 127.179 141.334C127.08 141.24 127.001 141.127 126.947 141.004C126.893 140.88 126.866 140.747 126.866 140.613V136.35C126.866 135.755 127.371 135.333 127.937 135.333H156.506ZM168.427 143.714C170.461 143.714 172.255 143.991 173.872 144.498C175.485 145.001 176.922 145.784 178.058 146.845C179.192 147.891 180.088 149.148 180.691 150.539C181.29 151.942 181.529 153.505 181.529 155.188C181.529 156.971 181.228 158.595 180.632 159.994C180.059 161.43 179.111 162.702 177.878 163.688L177.817 163.741C176.614 164.745 175.211 165.508 173.692 165.983C171.993 166.512 170.215 166.775 168.427 166.762C164.357 166.762 161.192 165.702 158.862 163.627C157.694 162.587 156.793 161.304 156.229 159.877C155.628 158.482 155.382 156.86 155.385 155.184C155.385 153.503 155.687 151.995 156.288 150.595C156.889 149.19 157.808 147.928 158.978 146.901C160.187 145.835 161.611 145.018 163.164 144.498C164.863 143.966 166.641 143.701 168.429 143.714H168.427ZM211.33 143.714C211.999 143.714 212.429 144.154 212.429 144.674V165.802C212.429 166.383 211.925 166.762 211.33 166.762H204.861C204.189 166.762 203.726 166.299 203.726 165.777L203.652 150H194.876L194.916 165.802C194.916 166.383 194.38 166.762 193.777 166.762H187.237C186.57 166.762 186.101 166.322 186.101 165.802V144.674C186.101 144.098 186.597 143.714 187.198 143.714H211.33ZM315.418 143.714C317.452 143.714 319.247 143.991 320.863 144.498C322.476 145.001 323.913 145.784 325.049 146.845C326.183 147.891 327.079 149.148 327.682 150.539C328.281 151.942 328.52 153.505 328.52 155.188C328.52 156.971 328.22 158.595 327.623 159.994C327.05 161.43 326.102 162.702 324.869 163.688L324.808 163.741C323.605 164.745 322.202 165.508 320.684 165.983C318.984 166.512 317.206 166.775 315.418 166.762C311.349 166.762 308.183 165.702 305.853 163.627C304.685 162.587 303.784 161.304 303.22 159.877C302.619 158.482 302.374 156.86 302.376 155.184C302.376 153.503 302.679 151.995 303.28 150.595C303.881 149.19 304.799 147.928 305.969 146.901C307.178 145.835 308.603 145.018 310.155 144.498C311.854 143.966 313.631 143.702 315.418 143.714ZM270.62 142.667C271.229 142.667 271.662 143.134 271.662 143.66V165.31C271.662 165.44 271.636 165.57 271.584 165.69C271.531 165.811 271.455 165.92 271.358 166.012C271.261 166.104 271.146 166.177 271.02 166.226C270.894 166.275 270.758 166.3 270.622 166.299H264.604C264.467 166.3 264.331 166.276 264.204 166.226C264.078 166.177 263.962 166.104 263.865 166.012C263.768 165.92 263.692 165.81 263.639 165.689C263.587 165.568 263.561 165.439 263.562 165.308V154.773L249.872 166.529C249.72 166.665 249.521 166.745 249.313 166.754L249.135 166.762H247.479C247.341 166.764 247.205 166.739 247.078 166.69C246.951 166.641 246.835 166.568 246.738 166.476C246.64 166.384 246.563 166.274 246.511 166.153C246.458 166.032 246.432 165.902 246.432 165.771V144.121C246.432 143.538 246.926 143.132 247.479 143.132H253.49C253.627 143.13 253.763 143.155 253.89 143.204C254.016 143.253 254.132 143.325 254.229 143.417C254.326 143.509 254.403 143.619 254.456 143.74C254.508 143.861 254.535 143.99 254.534 144.121V154.658L268.224 142.899C268.376 142.764 268.573 142.684 268.781 142.675L268.957 142.667H270.617H270.62ZM229.467 142.667C231.04 142.667 232.495 142.952 233.754 143.251C234.962 143.514 236.112 143.978 237.152 144.622L237.218 144.678C238.157 145.334 238.914 146.048 239.355 146.88V146.943C239.859 147.834 240.105 148.787 240.105 149.795C240.105 150.392 239.984 150.926 239.791 151.525C239.605 152.055 239.291 152.535 238.846 153.07C238.473 153.489 238.091 153.843 237.652 154.142V154.199C238.479 154.618 239.173 155.152 239.736 155.745C240.805 156.877 241.309 158.184 241.309 159.732C241.309 160.864 241.059 161.817 240.489 162.708C239.952 163.657 239.144 164.441 238.159 164.968C237.034 165.623 235.799 166.087 234.509 166.341C233.122 166.63 231.551 166.751 229.726 166.751H217.883C217.743 166.753 217.604 166.729 217.474 166.679C217.344 166.629 217.226 166.554 217.126 166.46C217.027 166.366 216.948 166.253 216.895 166.13C216.841 166.006 216.814 165.873 216.815 165.739V144.142C216.815 143.549 217.32 143.13 217.883 143.13H217.947C220.338 143.012 222.541 142.954 224.491 142.893C226.505 142.834 228.21 142.667 229.467 142.667ZM287.675 142.667C289.219 142.667 290.571 142.841 291.808 143.13H291.867C293.054 143.399 294.182 143.867 295.197 144.513C296.18 145.152 296.924 145.9 297.479 146.711C298.028 147.582 298.275 148.504 298.275 149.545C298.275 151.515 297.413 153.074 295.691 154.113C296.555 154.731 297.154 155.194 297.486 155.5C298.034 156.02 298.407 156.541 298.653 157.12C298.96 157.7 299.085 158.335 299.085 158.974C299.099 160.143 298.802 161.297 298.221 162.326C297.668 163.311 296.801 164.116 295.632 164.809C294.583 165.448 293.293 165.911 291.815 166.2C290.393 166.49 288.794 166.668 287.001 166.668C282.877 166.668 279.367 165.853 276.521 164.174C276.289 164.028 276.126 163.8 276.069 163.54C276.012 163.28 276.065 163.008 276.216 162.785C276.216 162.731 276.273 162.731 276.273 162.731L279.235 158.911C279.603 158.45 280.216 158.389 280.711 158.683C281.639 159.315 282.686 159.839 283.796 160.128C284.899 160.48 286.132 160.594 287.427 160.594C289.649 160.594 290.696 160.07 290.696 158.974C290.708 158.717 290.645 158.463 290.514 158.238C290.383 158.014 290.189 157.829 289.954 157.704C289.276 157.3 288.168 157.126 286.628 157.126H284.836C284.344 157.126 284.064 157.183 283.504 157.239C283.222 157.261 282.942 157.177 282.724 157.005C282.506 156.833 282.367 156.586 282.337 156.317V152.38C282.337 152.25 282.365 152.121 282.418 152.001C282.47 151.88 282.548 151.771 282.645 151.68C282.743 151.589 282.858 151.517 282.985 151.468C283.111 151.42 283.247 151.396 283.383 151.398H286.995C288.17 151.398 289.028 151.226 289.518 150.932H289.579C289.738 150.845 289.868 150.718 289.955 150.564C290.043 150.411 290.084 150.237 290.075 150.063C290.075 149.891 290.011 149.717 289.952 149.543C289.888 149.371 289.708 149.256 289.52 149.139C289.258 149.012 288.991 148.896 288.719 148.791H288.662C288.213 148.717 287.758 148.679 287.302 148.676C286.245 148.677 285.193 148.793 284.164 149.024C283.069 149.285 282.012 149.674 281.016 150.182C280.523 150.413 279.849 150.239 279.601 149.778L277.445 145.902C277.203 145.439 277.388 144.802 277.877 144.571C277.94 144.571 277.94 144.515 278 144.515C279.601 143.936 281.203 143.473 282.804 143.132C284.476 142.839 286.075 142.667 287.675 142.667ZM76.4053 138.214C78.0262 138.213 79.6315 138.517 81.1294 139.108C82.6272 139.7 83.9882 140.568 85.1346 141.662C86.2809 142.757 87.1901 144.056 87.8102 145.487C88.4302 146.917 88.7489 148.45 88.748 149.998C88.7486 151.546 88.4298 153.079 87.8099 154.509C87.1899 155.939 86.281 157.239 85.135 158.334C83.989 159.428 82.6284 160.297 81.1309 160.889C79.6334 161.481 78.0284 161.786 76.4075 161.786C74.7864 161.787 73.181 161.483 71.6831 160.891C70.1853 160.299 68.8243 159.43 67.6781 158.336C66.5319 157.241 65.623 155.941 65.0034 154.51C64.3838 153.079 64.0656 151.546 64.067 149.998C64.0659 148.45 64.3843 146.917 65.0041 145.487C65.6239 144.056 66.5328 142.757 67.679 141.662C68.8252 140.568 70.1861 139.7 71.6838 139.108C73.1815 138.517 74.7867 138.213 76.4075 138.214H76.4053ZM230.329 157.333H230.255L225.669 157.396V161.461H225.59C226.345 161.461 227.032 161.524 227.65 161.524H230.32C231.83 161.524 232.922 161.321 233.611 160.912C233.856 160.744 234.053 160.521 234.185 160.262C234.317 160.003 234.379 159.716 234.366 159.429C234.382 159.146 234.311 158.865 234.162 158.62C233.986 158.367 233.751 158.157 233.475 158.006C233.061 157.803 232.657 157.602 232.104 157.537C231.523 157.397 230.926 157.329 230.327 157.333H230.329ZM344.358 149.606C343.697 149.606 343.098 149.726 342.57 149.904C342.219 150.023 341.802 150.201 341.319 150.438V160.744C341.65 160.92 342.047 161.042 342.449 161.157C343.041 161.335 343.634 161.394 344.362 161.394C345.762 161.394 346.889 161.272 347.82 161.038C348.682 160.803 349.412 160.447 349.945 160.028C350.476 159.619 350.876 159.026 351.137 158.312C351.445 157.415 351.603 156.477 351.604 155.534C351.604 154.406 351.47 153.459 351.2 152.686C350.937 151.978 350.601 151.383 350.073 150.97C349.612 150.555 348.875 150.199 348.015 149.962C347.019 149.728 345.821 149.606 344.358 149.606ZM168.401 149.476C166.869 149.476 165.643 149.925 164.722 150.884C164.294 151.335 163.925 151.953 163.684 152.623C163.517 153.111 163.434 153.956 163.434 155.159C163.434 157.18 163.864 158.695 164.722 159.653C165.518 160.552 166.804 161 168.46 161C169.259 161 169.93 160.887 170.544 160.665C171.154 160.439 171.645 160.103 172.08 159.594L172.139 159.54C172.569 159.091 172.876 158.528 173.122 157.796C173.368 157.067 173.488 156.164 173.488 155.156C173.488 153.183 173.063 151.724 172.205 150.767C171.404 149.868 170.121 149.476 168.401 149.476ZM315.39 149.476C313.858 149.476 312.632 149.925 311.711 150.884C311.283 151.335 310.914 151.953 310.673 152.623C310.506 153.111 310.423 153.956 310.423 155.159C310.423 157.18 310.853 158.695 311.711 159.653C312.507 160.552 313.793 161 315.449 161C316.248 161 316.919 160.887 317.533 160.665C318.143 160.439 318.635 160.103 319.069 159.594L319.128 159.54C319.558 159.091 319.865 158.528 320.111 157.796C320.357 157.067 320.477 156.164 320.477 155.156C320.477 153.183 320.052 151.724 319.194 150.767C318.393 149.868 317.11 149.476 315.39 149.476ZM229.708 148.952C228.655 148.952 227.712 148.952 226.948 149.022C226.479 149.022 226.067 149.089 225.599 149.089L225.595 152.095H229.408C230.467 152.095 231.229 151.896 231.7 151.563C232.051 151.297 232.172 150.895 232.172 150.427C232.17 150.244 232.13 150.062 232.054 149.893V149.826C231.972 149.668 231.851 149.531 231.703 149.426C231.473 149.267 231.213 149.153 230.937 149.091C230.533 149.006 230.122 148.96 229.708 148.955V148.952ZM80.0055 143.126C77.9981 143.126 76.4075 144.649 76.4075 146.562C76.4075 148.475 78.0003 150 80.0055 150C80.4789 150.003 80.9483 149.916 81.3864 149.745C81.8245 149.573 82.2226 149.32 82.5575 149.001C82.8924 148.681 83.1575 148.301 83.3374 147.883C83.5174 147.464 83.6085 147.016 83.6056 146.564C83.6056 144.649 82.0085 143.126 80.0055 143.126Z" fill="white"/>
</g>
</g>
<defs>
<linearGradient id="paint0_linear_50_4656" x1="201" y1="0" x2="201" y2="263.571" gradientUnits="userSpaceOnUse">
<stop stop-color="#061A39" stop-opacity="0"/>
<stop offset="1" stop-color="#061A39"/>
</linearGradient>
<clipPath id="clip0_50_4656">
<rect width="402" height="200" rx="16" fill="white"/>
</clipPath>
<clipPath id="clip1_50_4656">
<rect width="315" height="62.8571" fill="white" transform="translate(43.4995 118.571)"/>
</clipPath>
</defs>
</svg>
