<svg width="254" height="44" viewBox="0 0 254 44" fill="none" xmlns="http://www.w3.org/2000/svg">
<path fill-rule="evenodd" clip-rule="evenodd" d="M148.572 0.724188C148.732 0.651687 148.886 0.665488 149.035 0.765593C149.196 0.860121 149.333 1.02914 149.443 1.27264C149.654 1.73645 149.701 2.14889 149.585 2.50995C149.3 3.38105 148.947 4.15035 148.526 4.81787C148.117 5.47981 147.532 5.98366 146.772 6.32944C146.27 6.55809 145.765 6.61972 145.258 6.51432C144.821 7.04915 144.247 7.4783 143.536 7.80177C142.42 8.30927 141.409 8.41235 140.503 8.11099C140.073 7.9588 139.696 7.73312 139.372 7.43395C139.362 7.55955 139.338 7.6809 139.299 7.79802C138.991 8.6946 138.513 9.47752 137.865 10.1468C137.225 10.7997 136.541 11.2591 135.814 11.5249C134.645 11.9519 133.612 11.9572 132.717 11.5408C132.252 11.3147 131.855 10.9994 131.526 10.5949C131.586 10.8884 131.576 11.1539 131.495 11.3915C131.271 12.1027 130.848 12.8465 130.224 13.6229C129.612 14.3945 128.85 14.9645 127.939 15.3327C126.696 15.8349 125.595 15.8863 124.637 15.4869C124.047 15.2411 123.549 14.8482 123.144 14.3083C123.159 14.5564 123.124 14.7797 123.038 14.978C122.715 15.7894 122.314 16.4982 121.834 17.1041C121.366 17.7063 120.748 18.1274 119.981 18.3674C119.359 18.5617 118.835 18.5312 118.408 18.2759C117.977 18.0084 117.656 17.5325 117.443 16.8481C117.337 16.506 117.232 15.8683 117.129 14.9352C117.048 14.1158 116.962 13.5595 116.871 13.2662C116.81 13.0707 116.713 12.9939 116.579 13.0358C116.42 13.0853 116.26 13.3635 116.096 13.8704C115.929 14.3651 115.804 14.9942 115.721 15.7578C115.637 16.5213 115.62 17.3043 115.669 18.1069C115.717 18.7354 115.68 19.1759 115.558 19.4286C115.448 19.6774 115.199 19.8628 114.809 19.9848C114.407 20.1105 114.043 20.0163 113.718 19.7023C113.402 19.3722 113.158 18.9322 112.987 18.3823C112.843 17.918 112.695 17.2268 112.543 16.3089C112.398 15.4964 112.287 14.9679 112.211 14.7235C112.15 14.528 112.053 14.4512 111.919 14.4931C111.736 14.5502 111.573 14.8426 111.429 15.3701C111.286 15.8977 111.186 16.5455 111.131 17.3136C111.088 18.0779 111.09 18.8148 111.136 19.5242C111.181 20.1404 111.144 20.581 111.026 20.8459C110.916 21.0948 110.672 21.2782 110.295 21.3963C109.832 21.5411 109.427 21.3996 109.08 20.9718C108.895 20.7328 108.71 20.3953 108.524 19.9591C108.221 20.5186 107.875 21.0171 107.488 21.4545C106.988 22.03 106.348 22.4166 105.569 22.6141C104.975 22.7646 104.478 22.6464 104.077 22.2593C103.689 21.8691 103.391 21.2583 103.181 20.4268C103.184 21.324 103.032 22.0555 102.727 22.6212C102.419 23.1746 102.024 23.5124 101.541 23.6347C100.984 23.7758 100.462 23.6374 99.9754 23.2195C99.587 22.8672 99.2925 22.4038 99.0917 21.8293C99.0812 21.8518 99.0701 21.8739 99.0584 21.8956C98.686 22.6453 98.2607 23.3018 97.7825 23.8651C97.3042 24.4284 96.797 24.7688 96.2609 24.8862C95.8495 24.9763 95.4392 24.922 95.0302 24.7234C94.631 24.5095 94.291 24.1778 94.0103 23.7283C93.5906 24.9208 92.8883 25.6248 91.9033 25.8405C91.1303 26.0098 90.4518 25.8636 89.868 25.4019C89.2842 24.9402 88.8929 24.2529 88.6942 23.34C88.6512 23.1429 88.6178 22.946 88.5937 22.7493C88.142 22.9369 87.6581 23.0917 87.1421 23.2137C87.0913 24.3053 86.7764 25.2393 86.1974 26.0156C85.6309 26.7895 84.9278 27.2574 84.0882 27.4192C82.8224 27.6632 81.8085 27.3568 81.0466 26.5C80.6334 26.0354 80.2806 25.4269 79.9881 24.6747L79.9907 24.6902C80.0737 25.1954 80.0184 25.6067 79.8248 25.9241C78.8294 27.6584 77.7902 28.615 76.7073 28.7941C75.8888 28.9294 75.2429 28.7378 74.7697 28.2192C74.309 27.6986 73.9999 26.9584 73.8421 25.9986L73.7954 25.7144C73.2751 26.8772 72.645 27.844 71.9051 28.615C71.1778 29.3838 70.3546 29.8442 69.4354 29.9962C68.3399 30.1773 67.4108 29.9936 66.648 29.4451C66.2517 29.1542 65.9363 28.7956 65.7019 28.3693C65.226 29.1275 64.6223 29.7546 63.8908 30.2505C63.126 30.7618 62.3584 31.073 61.5879 31.1843C60.35 31.363 59.3337 31.154 58.5389 30.5575C58.2255 30.3132 57.9615 30.0256 57.747 29.6947C57.3397 30.3045 56.8885 30.8298 56.3931 31.2704C55.8285 31.7824 55.1475 32.09 54.3501 32.1933C53.7426 32.272 53.263 32.0953 52.9115 31.6633C52.5725 31.2297 52.3483 30.5876 52.2388 29.737C52.1348 30.6281 51.8979 31.3364 51.528 31.8618C51.1565 32.3746 50.7239 32.6629 50.2303 32.7269C49.6608 32.8006 49.159 32.601 48.7249 32.1281C48.4216 31.7787 48.201 31.3523 48.063 30.8488C47.6244 31.5061 47.1369 32.0661 46.6006 32.5289C46.0282 33.0321 45.3427 33.3293 44.5438 33.4204C43.8971 33.4942 43.388 33.3654 43.0165 33.0342C42.6436 32.6902 42.4168 32.1622 42.336 31.4499C42.2957 31.0938 42.3123 30.4478 42.386 29.5119C42.4601 28.6918 42.4798 28.1292 42.4452 27.824C42.4221 27.6205 42.3408 27.5267 42.2013 27.5426C42.0365 27.5614 41.8264 27.8044 41.5711 28.2715C41.327 28.7244 41.0862 29.3187 40.8484 30.0544C40.6234 30.7886 40.4598 31.5544 40.3575 32.3519C40.2858 32.9656 40.1671 33.3913 40.0014 33.6292C39.8469 33.853 39.5732 33.9872 39.1801 34.0321C38.6982 34.087 38.327 33.8717 38.0665 33.3861C37.8954 33.05 37.7532 32.5634 37.6397 31.9262C36.6806 32.7242 35.9739 33.3188 35.5196 33.7102L34.3816 34.653C34.1596 37.3376 33.7292 39.4706 33.0904 41.0519C32.4656 42.6447 31.5499 43.5011 30.3435 43.6211C29.6958 43.6855 29.1486 43.5341 28.7019 43.1669C28.2565 42.8124 28.0017 42.3104 27.9375 41.6608C27.8481 40.7564 28.1074 39.7466 28.7153 38.6314C29.3245 37.529 30.5321 36.1226 32.338 34.4124L32.3786 33.6559C32.1967 34.0213 31.9374 34.3172 31.6007 34.5436C31.2754 34.756 30.9414 34.8793 30.5985 34.9134C29.8111 34.9916 29.1541 34.7676 28.6276 34.2411C28.1011 33.7146 27.7918 32.9865 27.6999 32.0566C27.6717 31.7707 27.6623 31.4875 27.672 31.2069C26.9496 31.5229 26.1465 31.7372 25.2627 31.8499C25.1119 32.9418 24.708 33.8434 24.0511 34.5546C23.393 35.253 22.6126 35.6407 21.7097 35.7177C20.9468 35.7827 20.2762 35.6536 19.6981 35.3304C19.2583 35.0782 18.8893 34.7461 18.5909 34.3341C18.1498 34.8638 17.7014 35.2785 17.2457 35.5782C16.6323 35.9892 15.9626 36.2177 15.2367 36.2639C14.1541 36.3328 13.2933 36.0669 12.6543 35.4663C12.0145 34.8528 11.6603 34.0032 11.5916 32.9174C11.5488 32.2404 11.6325 31.1384 11.8429 29.6116L12.328 26.0601C12.5732 24.2746 12.7006 23.0544 12.7104 22.3997C11.8673 22.4148 10.8727 22.4589 9.72643 22.5318C9.03867 22.5755 8.54236 22.6135 8.23749 22.6458C7.926 24.9998 7.64201 27.3843 7.3855 29.799C7.30033 30.6766 7.21768 31.695 7.13755 32.8545C7.0566 34.0011 7.01287 34.9273 7.00636 35.6332C7.00431 36.0052 6.86965 36.3024 6.60237 36.5246C6.33429 36.734 6.00284 36.8513 5.60801 36.8764C5.18771 36.9032 4.85648 36.8216 4.6143 36.6318C4.37212 36.442 4.24053 36.181 4.21953 35.8489C4.20014 35.5423 4.21281 35.0349 4.25753 34.3266C4.31419 33.6048 4.38156 32.8502 4.45965 32.0629C4.55047 31.2747 4.61592 30.5908 4.65599 30.0111C4.75451 28.9403 4.86739 27.8942 4.99462 26.8729C5.12185 25.8516 5.2515 24.8686 5.38358 23.9239L5.51646 22.992C4.34087 23.2079 3.49571 23.4925 2.98098 23.8459C2.47898 24.1985 2.24535 24.6494 2.28009 25.1987C2.30836 25.6458 2.44126 26.0285 2.67878 26.3469C2.74811 26.4322 2.78722 26.5452 2.79611 26.6857C2.81226 26.9412 2.68711 27.1864 2.42064 27.4214C2.16611 27.6428 1.886 27.7632 1.58033 27.7827C1.36381 27.7965 1.18146 27.7439 1.03329 27.6251C0.764828 27.4241 0.535292 27.1309 0.344678 26.7455C0.153257 26.3472 0.0413906 25.8926 0.00907904 25.3816C-0.0595831 24.2958 0.261208 23.4033 0.971454 22.704C1.68089 21.9919 2.78373 21.4344 4.27996 21.0314C5.78893 20.6276 7.747 20.3491 10.1542 20.196C12.6505 20.0372 15.108 20.0732 17.5266 20.3041C17.9255 20.3429 18.2142 20.4592 18.3927 20.653C18.5831 20.8333 18.6864 21.0512 18.7025 21.3067C18.7268 21.6899 18.6498 21.9898 18.4717 22.2063C18.2928 22.4101 18.0123 22.5241 17.6302 22.5485C17.4901 22.5574 17.3814 22.5579 17.3042 22.55L15.3589 22.4236C15.3645 23.321 15.2889 24.2493 15.1322 25.2084L14.3134 30.7627C14.2264 31.4095 14.1974 31.9629 14.2265 32.4227C14.2604 32.9593 14.4069 33.354 14.6658 33.6068C14.9375 33.8589 15.2963 33.9707 15.742 33.9424C16.1623 33.9156 16.561 33.7492 16.9381 33.443C17.2088 33.2299 17.5076 32.9252 17.8346 32.5291C17.8027 32.3591 17.7793 32.1853 17.7642 32.0076C17.682 31.0383 17.7934 30.1617 18.0984 29.3777C18.4023 28.581 18.8607 27.9446 19.4735 27.4684C20.0853 26.9795 20.7854 26.7014 21.5738 26.6342C22.5402 26.5518 23.3445 26.8236 23.9867 27.4497C24.6406 28.0619 25.06 28.8548 25.245 29.8281C25.8394 29.7389 26.5407 29.5507 27.3489 29.2634C27.4484 29.2292 27.5364 29.2088 27.6127 29.2023C27.7734 29.1886 27.9047 29.2563 28.0066 29.4055C28.0415 29.3038 28.0792 29.2024 28.1196 29.1015C28.4988 28.1377 29.0487 27.3434 29.7692 26.7186C30.5012 26.0799 31.3054 25.7169 32.1816 25.6298C32.461 25.602 32.6508 25.641 32.7511 25.7468C32.8627 25.8386 32.9642 26.0215 33.0554 26.2954C33.2916 26.2205 33.5685 26.1672 33.886 26.1356C34.2035 26.1041 34.4308 26.1329 34.5678 26.2222C34.7163 26.2975 34.8044 26.4752 34.8321 26.7554C34.8472 26.9083 34.8529 27.0299 34.849 27.1204C34.8372 27.5203 34.7773 28.536 34.6692 30.1674C34.6487 30.4782 34.6249 30.8214 34.5979 31.1971C34.5823 31.5588 34.563 31.9466 34.5397 32.3605C35.4421 31.499 36.3151 30.7305 37.1589 30.0549C37.2495 29.9857 37.3354 29.9346 37.4165 29.9016C37.3533 28.6284 37.4391 27.3894 37.674 26.1845C37.7463 25.8027 37.8999 25.5146 38.1347 25.3204C38.3808 25.1119 38.7384 24.981 39.2076 24.9275C39.4612 24.8985 39.6423 24.9101 39.751 24.9621C39.8596 25.0141 39.9241 25.1292 39.9443 25.3072C39.9673 25.5107 39.9241 25.9794 39.8147 26.7133C39.7455 27.2365 39.6945 27.6932 39.6617 28.0834C39.6289 28.4736 39.6188 28.9514 39.6315 29.5168C39.926 28.3753 40.2942 27.4316 40.7363 26.6855C41.1783 25.9394 41.63 25.392 42.0914 25.0431C42.5654 24.6927 43.0117 24.4937 43.4301 24.4459C44.2543 24.3519 44.7133 24.7183 44.807 25.545C44.8632 26.041 44.8254 26.9535 44.6935 28.2826C44.578 29.4165 44.5404 30.1615 44.5808 30.5176C44.6385 31.0264 44.8512 31.2597 45.2189 31.2178C45.4725 31.1889 45.7532 31.0023 46.061 30.658C46.38 30.2996 46.7915 29.7373 47.2954 28.9713C47.4274 28.7759 47.5885 28.6674 47.7787 28.6457L47.7869 28.6448L47.8 28.6437C47.7842 28.2769 47.7817 27.9234 47.7923 27.5833C47.8159 26.7671 47.9161 25.8959 48.0928 24.9695C48.1703 24.5723 48.3124 24.2764 48.519 24.0819C48.7255 23.8874 49.0756 23.7581 49.5692 23.6942C49.8477 23.6581 50.0433 23.678 50.156 23.7537C50.2813 23.8278 50.3554 23.9537 50.3783 24.1315C50.3914 24.233 50.3659 24.5848 50.3019 25.1868C50.2358 25.6729 50.1893 26.1112 50.1624 26.5019C50.0808 27.8676 50.0687 28.7727 50.1259 29.217C50.1602 29.4836 50.2164 29.6699 50.2943 29.7759C50.3707 29.8693 50.4785 29.907 50.6177 29.8889C50.8076 29.8643 51.0172 29.6436 51.2466 29.2267C51.4887 28.8081 51.7181 28.1912 51.9348 27.3758C52.1642 26.5589 52.358 25.5658 52.5163 24.3966C52.5686 24.0027 52.6853 23.7101 52.8666 23.5188C53.0605 23.3259 53.3663 23.2024 53.784 23.1483C54.0751 23.1106 54.2825 23.1225 54.4062 23.1839C54.5283 23.2326 54.6016 23.3522 54.6261 23.5426C54.667 23.8599 54.6207 24.75 54.4873 26.2128C54.3422 27.8836 54.2941 28.9094 54.3431 29.2903C54.3742 29.5315 54.4493 29.7153 54.5685 29.8419C54.6861 29.9557 54.8272 30.0019 54.9917 29.9806C55.2449 29.9478 55.5227 29.757 55.8252 29.4081C56.1387 29.0448 56.5417 28.4764 57.034 27.7027C57.0491 27.6797 57.0646 27.6578 57.0805 27.637C56.9825 26.7191 57.067 25.8819 57.334 25.1255C57.6273 24.2943 58.0661 23.6231 58.6503 23.1121C59.2345 22.601 59.8803 22.2944 60.5877 22.1923C61.2824 22.092 61.8493 22.2235 62.2882 22.5869C62.738 22.9358 63.0092 23.4333 63.102 24.0795C63.1783 24.6116 63.1228 25.0787 62.9356 25.4807C62.7609 25.881 62.4841 26.1084 62.1052 26.1631C61.8652 26.1978 61.6612 26.169 61.4932 26.0769C61.3379 25.9829 61.2457 25.8346 61.2166 25.6319C61.2039 25.5432 61.202 25.44 61.2109 25.3223C61.2198 25.2047 61.2269 25.1196 61.2323 25.0671C61.2682 24.8679 61.2743 24.686 61.2507 24.5213C61.227 24.3566 61.1647 24.2363 61.0635 24.1603C60.975 24.0826 60.8549 24.0547 60.7034 24.0766C60.4128 24.1185 60.1603 24.2907 59.9459 24.5933C59.7296 24.8831 59.5775 25.2607 59.4895 25.726C59.4016 26.1913 59.3958 26.69 59.4721 27.2221C59.683 28.6918 60.4264 29.3345 61.7022 29.1504C62.2201 29.0756 62.7513 28.8244 63.2959 28.3966C63.8514 27.9543 64.3696 27.3428 64.8507 26.5621C64.9382 26.4239 65.041 26.327 65.159 26.2715C65.1073 25.7951 65.0819 25.3306 65.0827 24.878C65.0839 24.1773 65.1409 23.422 65.2535 22.612C65.3067 22.227 65.4457 21.9316 65.6705 21.7258C65.9059 21.5053 66.2691 21.3544 66.7602 21.2732C67.3269 21.1795 67.6351 21.2843 67.6849 21.5874C67.7057 21.7137 67.6859 22.1839 67.6257 22.9982L67.5869 23.5884L67.5093 24.7688C67.7932 24.3716 68.1505 24.0271 68.5811 23.7354C69.0223 23.4289 69.4884 23.2351 69.9795 23.154C70.5587 23.0582 71.0663 23.1559 71.5021 23.4471C71.9359 23.7256 72.2299 24.1765 72.384 24.7996C72.7776 24.1249 73.0892 23.5026 73.3189 22.9327C73.5465 22.3502 73.727 21.7561 73.8603 21.1503C73.9113 20.7527 74.0125 20.4635 74.1639 20.2828C74.3279 20.1 74.6177 19.9743 75.0332 19.9056C75.6754 19.7994 76.0318 19.961 76.1023 20.3905C76.1542 20.7062 76.155 21.4585 76.1046 22.6473C76.0307 24.0865 76.0342 25.0524 76.1151 25.545C76.1774 25.9239 76.2755 26.206 76.4094 26.3914C76.5434 26.5769 76.73 26.6498 76.9692 26.6102C77.1959 26.5728 77.4533 26.3681 77.7414 25.9961C78.0295 25.6242 78.4008 25.0504 78.8554 24.2747C78.9774 24.0729 79.1329 23.9564 79.3217 23.9252C79.4854 23.8981 79.6238 23.9531 79.7369 24.0901C79.7647 24.1199 79.7905 24.153 79.8143 24.1892C79.6438 23.6719 79.4978 23.0961 79.3763 22.462C79.0656 20.8404 78.929 19.042 78.9664 17.0666C79.0014 15.0787 79.2735 13.3448 79.7827 11.865C80.3021 10.3703 81.0944 9.52027 82.1597 9.31496C82.7362 9.20386 83.2481 9.36589 83.6953 9.80106C84.1401 10.2237 84.4384 10.8309 84.5901 11.6228C84.7876 12.6536 84.7896 13.7155 84.5961 14.8085C84.4027 15.9016 83.962 17.0944 83.2739 18.3871C84.1257 18.2881 84.8761 18.5084 85.5253 19.048C86.1721 19.5751 86.6347 20.294 86.9132 21.2049C87.439 21.0682 88.0433 20.8419 88.7258 20.5259C88.7396 20.4693 88.7542 20.4126 88.7695 20.356C89.0348 19.3546 89.4892 18.5017 90.1327 17.7974C90.7859 17.0779 91.5427 16.6239 92.403 16.4355C92.6773 16.3755 92.8703 16.3921 92.9821 16.4856C93.1036 16.5638 93.2255 16.7336 93.3477 16.9951C93.5987 16.8877 93.8675 16.8026 94.1543 16.7398C94.7652 16.606 95.1184 16.758 95.2136 17.1956C95.2708 17.4583 95.3134 18.104 95.3415 19.1329C95.3678 20.6338 95.4422 21.6656 95.5647 22.2284C95.6056 22.416 95.6819 22.5565 95.7936 22.6499C95.9179 22.7406 96.0548 22.7696 96.2044 22.7368C96.4413 22.6849 96.6954 22.4721 96.9667 22.0982C97.2353 21.7118 97.5815 21.112 98.0053 20.2986C98.1168 20.0907 98.2661 19.9663 98.4531 19.9254C98.524 19.9098 98.591 19.9102 98.6538 19.9266C98.59 19.5442 98.5425 19.1746 98.5113 18.818C98.4381 18.0048 98.4343 17.1278 98.5001 16.187C98.53 15.7833 98.636 15.4726 98.8181 15.2548C99.0002 15.0371 99.3325 14.867 99.8151 14.7447C100.087 14.6758 100.284 14.6722 100.405 14.734C100.538 14.7926 100.626 14.9088 100.67 15.0825C100.695 15.1818 100.712 15.5341 100.719 16.1395C100.711 16.63 100.717 17.0708 100.736 17.4619C100.817 18.8277 100.912 19.7278 101.022 20.1621C101.087 20.4227 101.165 20.601 101.255 20.6971C101.342 20.7807 101.454 20.8052 101.59 20.7707C101.775 20.7237 101.957 20.4795 102.136 20.0383C102.327 19.5938 102.481 18.9539 102.6 18.1185C102.731 17.28 102.806 16.2709 102.824 15.0911C102.83 14.6937 102.911 14.3893 103.068 14.1778C103.238 13.9632 103.527 13.8041 103.935 13.7006C104.22 13.6285 104.427 13.6156 104.557 13.6618C104.684 13.6957 104.771 13.8057 104.818 13.9918C104.896 14.3021 104.956 15.1913 104.997 16.6596C105.05 18.3359 105.124 19.3602 105.218 19.7325C105.277 19.9683 105.374 20.1419 105.507 20.2533C105.637 20.3524 105.783 20.3815 105.944 20.3407C106.191 20.278 106.444 20.0554 106.703 19.6729C106.972 19.2749 107.304 18.6625 107.702 17.8357C107.729 17.7803 107.759 17.7305 107.792 17.6864C107.489 16.4429 107.34 15.2049 107.345 13.9724C107.345 13.5837 107.442 13.2719 107.636 13.0368C107.839 12.7857 108.165 12.5897 108.616 12.4487C108.86 12.3725 109.04 12.3497 109.156 12.3803C109.273 12.411 109.358 12.5118 109.411 12.6829C109.472 12.8784 109.517 13.3469 109.547 14.0884C109.577 14.6152 109.613 15.0734 109.653 15.4629C109.69 15.8401 109.768 16.3052 109.887 16.8581C109.919 15.8021 110.058 14.8737 110.304 14.0728C110.562 13.2682 110.879 12.6327 111.255 12.1664C111.64 11.6841 112.046 11.3762 112.472 11.2429C112.899 11.1095 113.228 11.1139 113.459 11.2561C113.702 11.3945 113.887 11.6653 114.012 12.0685C114.134 12.4596 114.238 13.2045 114.326 14.3034C114.365 14.7738 114.401 15.1247 114.433 15.356C114.575 13.6625 114.911 12.3574 115.441 11.4407C115.972 10.5239 116.56 9.96462 117.206 9.76269C117.997 9.51505 118.517 9.78837 118.764 10.5827C118.912 11.0592 119.046 11.9626 119.165 13.2929C119.264 14.4284 119.367 15.1672 119.473 15.5094C119.625 15.9982 119.878 16.1873 120.231 16.0768C120.475 16.0006 120.715 15.7645 120.953 15.3683C121.199 14.9561 121.498 14.3264 121.85 13.479C121.943 13.2622 122.081 13.1253 122.263 13.0681C122.332 13.0466 122.399 13.0411 122.463 13.0516C122.155 12.2562 122.031 11.4513 122.091 10.6371C122.148 9.78603 122.395 9.03076 122.832 8.3713C123.28 7.70705 123.889 7.21949 124.659 6.90862C125.345 6.63123 125.979 6.61661 126.561 6.86477C127.137 7.10106 127.566 7.56945 127.847 8.26996C128.176 9.08919 128.164 9.91519 127.811 10.748C127.464 11.5641 126.662 12.4265 125.403 13.3352C125.918 13.7617 126.59 13.8076 127.419 13.4729C127.952 13.2576 128.482 12.8297 129.008 12.189C129.542 11.5317 129.936 10.7998 130.19 9.99346C130.266 9.76984 130.392 9.62217 130.57 9.55043C130.686 9.5036 130.798 9.50533 130.906 9.55561C130.865 9.46106 130.826 9.36375 130.79 9.26365C130.437 8.29751 130.318 7.38093 130.434 6.51391C130.55 5.6469 130.84 4.90548 131.305 4.28966C131.769 3.67383 132.336 3.24393 133.004 2.99993C133.66 2.76029 134.238 2.77193 134.74 3.03483C135.249 3.28145 135.615 3.70892 135.837 4.31723C136.02 4.81819 136.062 5.28302 135.961 5.71171C135.873 6.13604 135.65 6.41356 135.292 6.54427C135.065 6.62705 134.861 6.64091 134.679 6.58585C134.508 6.52642 134.388 6.40129 134.318 6.21045C134.288 6.12695 134.265 6.02717 134.25 5.91111C134.234 5.79505 134.224 5.71098 134.218 5.65891C134.213 5.45821 134.181 5.28033 134.125 5.12527C134.068 4.97021 133.983 4.86618 133.869 4.81319C133.767 4.75584 133.644 4.7533 133.501 4.80559C133.227 4.9058 133.016 5.12472 132.869 5.46234C132.717 5.78804 132.646 6.18576 132.656 6.65551C132.665 7.12527 132.761 7.61063 132.944 8.11159C133.45 9.49521 134.305 9.96698 135.51 9.52692C135.999 9.34829 136.465 8.99555 136.908 8.46872C137.358 7.92561 137.738 7.22583 138.047 6.36938C138.122 6.16832 138.238 6.03197 138.395 5.96032C138.127 5.34303 137.916 4.73342 137.76 4.13148C137.586 3.45514 137.454 2.71033 137.365 1.89705C137.323 1.51059 137.389 1.18622 137.566 0.92394C137.75 0.644488 138.081 0.39601 138.559 0.178507C139.11 -0.072458 139.449 -0.0587975 139.576 0.219491C139.629 0.335444 139.727 0.794704 139.87 1.59727L139.979 2.17762L140.196 3.33832C140.384 2.87467 140.661 2.4411 141.025 2.03763C141.395 1.61699 141.82 1.29792 142.298 1.08042C143.046 0.740218 143.74 0.704428 144.38 0.973046C145.032 1.23609 145.522 1.72707 145.849 2.44598C146.102 3.00255 146.209 3.61167 146.17 4.27333C146.236 4.25704 146.325 4.2238 146.435 4.1736C146.84 3.98956 147.163 3.67474 147.404 3.22914C147.645 2.78354 147.906 2.10502 148.187 1.19356C148.26 0.964299 148.388 0.807843 148.572 0.724188ZM142.789 5.91628C143.279 5.6932 143.601 5.39276 143.755 5.01497C143.909 4.63718 143.883 4.22217 143.677 3.76995C143.397 3.1554 142.908 3.00707 142.209 3.32496C141.805 3.509 141.493 3.78368 141.275 4.14899C141.069 4.50873 140.931 4.87235 140.861 5.23988C141.1 5.635 141.374 5.89531 141.683 6.02081C141.991 6.14632 142.36 6.11147 142.789 5.91628ZM125.058 8.77589C124.62 8.95285 124.35 9.35877 124.247 9.99366C124.156 10.6238 124.256 11.3009 124.547 12.0252L124.561 12.0608C125.193 11.6124 125.643 11.1407 125.912 10.6456C126.181 10.1506 126.227 9.68341 126.051 9.24411C125.96 9.01852 125.824 8.86673 125.641 8.78874C125.465 8.69409 125.271 8.68981 125.058 8.77589ZM101.027 13.1305C100.458 13.2747 99.9275 13.2838 99.435 13.1578C98.9426 13.0317 98.5304 12.8061 98.1984 12.481C97.8664 12.1558 97.6457 11.7761 97.5362 11.3417C97.4581 11.0315 97.4946 10.7582 97.6456 10.5219C97.7936 10.2732 98.0222 10.1096 98.3316 10.0312C98.6533 9.9497 98.9071 9.96459 99.0931 10.0759C99.2791 10.1872 99.4607 10.4118 99.638 10.7497C99.893 11.2396 100.299 11.414 100.856 11.2729C101.437 11.1255 101.898 10.8372 102.237 10.4079C102.573 9.96627 102.775 9.48613 102.842 8.96751C102.878 8.69423 102.946 8.49227 103.045 8.36164C103.14 8.21859 103.287 8.12199 103.485 8.07182C103.67 8.02479 103.844 8.06005 104.005 8.17762C104.176 8.27964 104.287 8.43614 104.341 8.64711L104.36 8.87989C104.364 9.42006 104.26 9.97447 104.048 10.5431C103.836 11.1118 103.481 11.6373 102.984 12.1197C102.484 12.5898 101.832 12.9267 101.027 13.1305ZM82.0849 11.2649C81.8343 11.3133 81.6308 11.7435 81.4745 12.5557C81.3283 13.3528 81.2527 14.4167 81.2477 15.7471C81.2427 17.0776 81.3232 18.5154 81.4893 20.0605C82.025 18.3801 82.4265 16.9146 82.6938 15.6639C82.9711 14.3983 83.0231 13.313 82.8497 12.4079C82.7726 12.0057 82.6635 11.7074 82.5223 11.513C82.3936 11.3162 82.2478 11.2335 82.0849 11.2649ZM83.7804 25.4061C84.169 25.3312 84.4823 25.1014 84.7205 24.7166C84.9586 24.3318 85.0689 23.8218 85.0511 23.1865C84.612 22.9974 84.245 22.7097 83.9501 22.3234C83.6677 21.9347 83.4807 21.5015 83.3892 21.0238C83.3555 20.8478 83.3348 20.6042 83.3272 20.2928L83.2708 20.3037C82.7569 20.4027 82.3739 20.7437 82.1217 21.3267C81.8797 21.8948 81.8405 22.6061 82.0043 23.4609C82.1416 24.1774 82.3779 24.6988 82.7133 25.0252C83.0613 25.3492 83.417 25.4761 83.7804 25.4061ZM69.362 25.2992C70.0797 25.1806 70.4936 25.4559 70.6036 26.1253C70.6845 26.6179 70.6093 27.026 70.3779 27.3496C70.1466 27.6733 69.779 27.8767 69.2754 27.96C68.8346 28.0328 68.4886 27.9733 68.2372 27.7813C67.9857 27.5894 67.7964 27.2639 67.6693 26.805C67.8063 26.458 68.0125 26.1385 68.2878 25.8465C68.5758 25.5524 68.9338 25.37 69.362 25.2992ZM21.6904 33.6768C22.0973 33.6421 22.433 33.4465 22.6973 33.0899C22.9744 32.7323 23.1373 32.2367 23.1861 31.6031C22.7692 31.3688 22.4343 31.0441 22.1813 30.6289C21.9411 30.2126 21.8005 29.7622 21.7594 29.2775C21.7421 29.0734 21.7439 28.8678 21.7647 28.6604L21.6694 28.6686C21.1607 28.7119 20.7558 28.997 20.4546 29.5237C20.1651 30.0365 20.0582 30.7393 20.1339 31.6321C20.1933 32.3336 20.3722 32.8578 20.6706 33.2049C20.9817 33.5509 21.3217 33.7082 21.6904 33.6768ZM31.8788 32.2971C31.6474 32.6803 31.3856 32.8864 31.0935 32.9154C30.8141 32.9432 30.5824 32.8698 30.3985 32.6951C30.2272 32.5192 30.122 32.2338 30.083 31.839C30.0125 31.1257 30.0791 30.4373 30.2828 29.7739C30.4866 29.1105 30.7918 28.5657 31.1985 28.1393C31.604 27.7003 32.0664 27.4485 32.5859 27.384L32.2992 30.7118C32.2504 31.3855 32.1103 31.9139 31.8788 32.2971ZM31.3233 40.4945C31.0051 41.2979 30.6873 41.7154 30.3698 41.7469C30.1793 41.7659 30.0327 41.7097 29.9299 41.5784C29.8399 41.4459 29.7842 41.2713 29.7628 41.0548C29.7124 40.5453 29.8698 39.9315 30.2348 39.2135C30.5999 38.4955 31.2298 37.6675 32.1246 36.7296C31.9212 38.4349 31.6541 39.6898 31.3233 40.4945ZM92.8434 23.1388C92.6649 23.5185 92.4384 23.7385 92.1641 23.7985C91.8898 23.8586 91.6512 23.8126 91.4483 23.6605C91.2578 23.5057 91.1204 23.2345 91.036 22.8468C90.8836 22.1465 90.8702 21.455 90.9959 20.7724C91.1216 20.0898 91.3618 19.5132 91.7165 19.0424C92.081 18.5565 92.5237 18.2499 93.0446 18.1227L93.104 21.7257C93.1089 22.288 93.022 22.759 92.8434 23.1388ZM157.508 6.61236C168.978 3.43889 183.442 2.21059 195.843 4.07235C204.523 5.37544 212.035 8.16322 216.874 12.7213C213.562 12.4575 210.24 12.4224 206.999 12.5965C198.38 13.0597 190.271 15.0071 184.455 18.1346C178.672 21.2447 174.912 25.68 175.649 31.1483C176.216 35.3611 180.306 38.071 185.409 39.5052C190.585 40.9601 197.157 41.2207 203.378 40.2823C209.586 39.3457 215.566 37.1961 219.479 33.7214C221.445 31.9754 222.906 29.8784 223.586 27.4216C224.268 24.9604 224.147 22.2019 223.052 19.1688C222.476 17.5736 221.702 16.1037 220.754 14.7526C224.756 15.3084 228.673 16.2223 232.327 17.5276C239.425 20.0634 245.476 24.055 249.268 29.7134L244.327 28.3107C243.903 28.1904 243.462 28.4375 243.342 28.8626C243.222 29.2877 243.468 29.7299 243.892 29.8502L250.799 31.8109C251.223 31.9313 251.664 31.6842 251.784 31.259L253.739 24.3311C253.859 23.906 253.613 23.4638 253.189 23.3435C252.765 23.2232 252.324 23.4703 252.204 23.8954L250.748 29.0558C246.72 22.9032 240.264 18.6649 232.862 16.0204C228.598 14.4971 224.002 13.4954 219.337 12.9603C214.229 7.20026 205.646 3.92621 196.079 2.48998C183.435 0.591736 168.746 1.84343 157.084 5.06997C156.66 5.18747 156.41 5.62799 156.527 6.05391C156.645 6.47983 157.084 6.72985 157.508 6.61236ZM207.084 14.1942C210.846 13.9921 214.713 14.0784 218.533 14.4814C219.835 16.0456 220.857 17.7868 221.552 19.7135C222.551 22.4804 222.63 24.8969 222.049 26.9935C221.468 29.0945 220.206 30.9382 218.421 32.5234C214.831 35.7112 209.195 37.7867 203.14 38.7001C197.098 39.6116 190.759 39.3473 185.84 37.9646C180.847 36.5614 177.659 34.1213 177.23 30.934C176.629 26.4746 179.628 22.546 185.209 19.5447C190.758 16.5607 198.619 14.6491 207.084 14.1942Z" fill="#484C51"/>
</svg>
