<svg width="32" height="32" viewBox="0 0 32 32" fill="none" xmlns="http://www.w3.org/2000/svg">
<path d="M11.5962 21.85V9.8575H17.3488C17.9554 9.8575 18.5404 10.0038 19.1038 10.2963C19.6779 10.5779 20.1492 11.0004 20.5175 11.5637C20.8967 12.1163 21.0862 12.7987 21.0862 13.6112C21.0862 14.4237 20.8913 15.1279 20.5012 15.7238C20.1221 16.3088 19.6346 16.7583 19.0388 17.0725C18.4538 17.3867 17.8471 17.5437 17.2187 17.5437H12.7662V15.9025H16.6662C17.2188 15.9025 17.7117 15.7075 18.145 15.3175C18.5892 14.9167 18.8112 14.3479 18.8112 13.6112C18.8112 12.8529 18.5892 12.3113 18.145 11.9863C17.7117 11.6613 17.235 11.4987 16.715 11.4987H13.6925V21.85H11.5962ZM18.5837 16.2762L21.5737 21.85H19.2337L16.325 16.2762H18.5837ZM16 29C14.2017 29 12.5171 28.6642 10.9462 27.9925C9.37542 27.3208 7.99417 26.3892 6.8025 25.1975C5.61083 24.0058 4.67917 22.6246 4.0075 21.0538C3.33583 19.4829 3 17.7983 3 16C3 14.2017 3.33583 12.5171 4.0075 10.9462C4.67917 9.37542 5.61083 7.99417 6.8025 6.8025C7.99417 5.61084 9.37542 4.67917 10.9462 4.0075C12.5171 3.33583 14.2017 3 16 3C17.7983 3 19.4829 3.33583 21.0537 4.0075C22.6246 4.67917 24.0058 5.61084 25.1975 6.8025C26.3892 7.99417 27.3208 9.37542 27.9925 10.9462C28.6642 12.5171 29 14.2017 29 16C29 17.7983 28.6642 19.4829 27.9925 21.0538C27.3208 22.6246 26.3892 24.0058 25.1975 25.1975C24.0058 26.3892 22.6246 27.3208 21.0537 27.9925C19.4829 28.6642 17.7983 29 16 29ZM16 26.5787C17.95 26.5787 19.7213 26.1021 21.3137 25.1488C22.9171 24.1954 24.1954 22.9225 25.1488 21.33C26.1021 19.7267 26.5787 17.95 26.5787 16C26.5787 14.05 26.1021 12.2787 25.1488 10.6862C24.1954 9.08292 22.9171 7.80458 21.3137 6.85125C19.7213 5.89792 17.95 5.42125 16 5.42125C14.05 5.42125 12.2733 5.89792 10.67 6.85125C9.0775 7.80458 7.80458 9.08292 6.85125 10.6862C5.89792 12.2787 5.42125 14.05 5.42125 16C5.42125 17.95 5.89792 19.7267 6.85125 21.33C7.80458 22.9225 9.0775 24.1954 10.67 25.1488C12.2733 26.1021 14.05 26.5787 16 26.5787Z" fill="#8D97A5"/>
</svg>
